<?xml version="1.0" encoding="UTF-8"?>
<svg version="1.1" viewBox="0 0 855 852" width="855" height="852" xmlns="http://www.w3.org/2000/svg">
<path transform="translate(0)" d="m0 0h855v852h-855z" fill="#FDFDFD"/>
<path transform="translate(427,121)" d="m0 0 4 5 10 13 13 18 10 13 16 21 22 28 14 17 18 22 11 13 9 11 13 15 12 14 9 10 9 11 7 7 7 8 18 20 14 15 12 13 16 17 13 13-6 7-9 10-7 7-7 8-7 7-7 8-16 17-7 8-12 13-7 8-9 10-9 11-10 11-9 11-9 10-9 11-14 17-13 16-11 14-13 16-12 16-14 18-16 21-13 18-10 14h-2l-12-17-12-16-16-21-9-12-28-36-13-16-11-14-14-17-11-13-9-11-9-10-9-11-10-11-7-8-9-10-7-8-33-36-12-13-16-17-9-9 6-7 13-13 7-8 9-9 7-8 7-7 7-8 15-16 7-8 10-11 7-8 12-14 10-11 9-11 13-15 12-14 11-14 12-14 22-28 14-18 16-21 14-19 13-18z" fill="#DD0009"/>
<path transform="translate(0)" d="m0 0h855v852h-855zm13 12v825h826v-825z"/>
</svg>
