<?xml version="1.0" encoding="UTF-8"?>
<svg version="1.1" viewBox="0 0 854 852" width="854" height="852" xmlns="http://www.w3.org/2000/svg">
<path transform="translate(0)" d="m0 0h854v852h-854z" fill="#FEFEFE"/>
<path transform="translate(254,132)" d="m0 0h27l23 3 20 5 19 7 19 10 11 9 10 9 16 16 13 17 12 19 2 6 3-3 10-17 11-16 11-13 8-8 14-11 17-12 16-8 18-6 22-5 18-2h26l20 3 25 7 16 7 15 9 12 9 15 14 7 8 10 14 12 23 7 18 5 22 2 18v23l-3 23-7 29-8 19-8 16-9 17-10 14-12 16-10 11-7 8-29 29-8 7-12 11-11 9-11 10h-2v2l-10 8-9 8-11 9-3 3h-2l-2 4-11 9-9 9-8 7-28 28-7 8-12 14-8 10-10 13-12 17-22 36-5 4-6-1-5-4-24-38-8-11-13-17-11-13-9-11-16-17-19-19-8-7-12-12-8-7-14-12-9-8-11-9-13-12-11-9-7-7-8-7-10-9-16-15-14-14-7-8-10-12-13-18-8-13-11-21-9-20-5-17-5-23-2-16v-23l3-24 6-23 8-18 8-15 10-15 12-13 12-11 13-9 10-6 19-9 20-6 16-3z" fill="#EA0001"/>
<path transform="translate(0)" d="m0 0h854v852h-854zm15 15v822h824v-822z"/>
<path transform="translate(254,132)" d="m0 0h27l23 3 20 5 19 7 19 10 11 9 10 9 16 16 13 17 12 19 2 6 3-3 10-17 11-16 11-13 8-8 14-11 17-12 16-8 18-6 22-5 18-2h26l20 3 25 7 16 7 15 9 12 9 15 14 7 8 10 14 12 23 7 18 5 22 2 18v23l-3 23-7 29-8 19-8 16-9 17-10 14-12 16-10 11-7 8-29 29-8 7-12 11-11 9-11 10h-2v2l-10 8-9 8-11 9-3 3h-2l-2 4-11 9-9 9-8 7-28 28-7 8-12 14-8 10-10 13-12 17-22 36-5 4-6-1-5-4-24-38-8-11-13-17-11-13-9-11-16-17-19-19-8-7-12-12-8-7-14-12-9-8-11-9-13-12-11-9-7-7-8-7-10-9-16-15-14-14-7-8-10-12-13-18-8-13-11-21-9-20-5-17-5-23-2-16v-23l3-24 6-23 8-18 8-15 10-15 12-13 12-11 13-9 10-6 19-9 20-6 16-3zm-2 17-23 4-16 5-21 11-11 8-11 9-10 10-10 13-9 15-8 17-5 17-3 17v33l3 23 5 19 6 17 11 22 10 17 13 18 9 11 9 10 7 8 20 20 11 9 8 8 11 9 14 12 15 13 11 9 14 13 8 7 16 15 15 15h2l2 4 15 15 7 8 12 13 8 10 14 18 11 16 12 20 2 3h2l13-22 10-14 9-12 11-13 27-30 30-30 8-7 9-9 8-7 10-9 8-7 11-10 22-18 14-12 15-14 35-35 8-10 10-13 10-15 8-14 9-17 9-24 4-15 3-26 1-9v-12l-3-23-5-19-9-21-6-10-8-11-9-10-10-10-15-11-22-12-14-5-19-4-8-1h-36l-20 4-21 7-19 9-11 7-10 9-8 7-7 7-7 8-12 17-10 19-11 31-5-1-4-8-5-15-7-16-10-15-11-14-11-12-17-17-19-11-26-10-19-5-8-1z"/>
</svg>
