<?xml version="1.0" encoding="UTF-8"?>
<svg version="1.1" viewBox="0 0 852 854" width="852" height="854" xmlns="http://www.w3.org/2000/svg">
<path transform="translate(0)" d="m0 0h852v854h-852z" fill="#FEFEFE"/>
<path transform="translate(426,115)" d="m0 0h3l10 16 13 18 11 14 11 13 9 11 15 16 7 8 13 13 7 8 10 10 8 7 16 16 8 7 12 11 31 29 16 16 7 8 13 16 11 16 12 21 8 20 4 14 3 20v22l-3 19-5 17-7 16-9 16-10 13-7 8-8 7-13 10-16 9-19 7-13 3-6 1h-30l-17-3-18-6-17-9-11-8-10-9-10-10-11-14v24l3 30 5 25 5 16 7 17 10 16 11 12 10 8 14 8 17 6 9 2 4 5 3 14-2 2h-226l-1-1 1-10 3-8 2-2 18-5 19-9 13-10 9-9 10-15 8-17 6-18 5-23 2-17 1-17v-24l-8 10-12 14-11 10-15 10-17 8-18 5-12 2h-31l-19-4-16-6-17-9-12-9-12-11-9-10-10-15-9-17-6-16-4-17-1-7v-32l4-21 7-20 13-25 11-16 11-14 10-11 7-8 19-19 8-7 7-7 8-7 14-13 8-7 8-8 8-7 35-35 7-8 16-17 9-11 14-17 14-19 9-13z"/>
<path transform="translate(0)" d="m0 0h852v854h-852zm14 15v820h825v-820z"/>
</svg>
