<?xml version="1.0" encoding="UTF-8"?>
<svg version="1.1" viewBox="0 0 802 895" width="802" height="895" xmlns="http://www.w3.org/2000/svg">
<path transform="translate(0)" d="m0 0h802v895h-802z" fill="#FEFEFD"/>
<path transform="translate(392,187)" d="m0 0h19l19 3 18 6 16 9 14 11 10 11 10 15 7 15 5 17 2 11v32l-3 15-6 16-8 14 20-8 16-4h26l20 4 16 6 13 7 13 10 7 7 11 15 8 15 6 18 3 16v29l-3 17-5 15-7 14-9 13-11 12-12 10-15 9-15 7-19 5-7 1h-28l-17-3-15-5-17-8-15-10-11-10-14-14-8-10-5-4 5 42 5 25 6 21 8 20 8 15 8 11 9 10 13 13 13 10 10 7 1 2v6l-5 5h-201l-5-5v-6l5-5 13-9 11-10 8-7 11-13 11-18 7-16 8-24 6-28 3-26v-20l-5 5-12 14-9 10-10 9-15 10-16 8-18 6-12 2h-28l-18-3-21-7-16-9-13-10-10-10-11-15-8-16-5-13-4-19v-28l4-20 5-14 9-17 11-14 11-11 16-11 15-7 13-4 11-2h24l17 4 21 8 1-1-8-15-7-21-2-18v-10l2-18 5-18 6-14 8-13 8-10 6-7 14-11 14-8 14-6 17-4z" fill="#070805"/>
<path transform="translate(0)" d="m0 0h802v895h-802zm8 7v882h786l1-1v-880l-1-1z" fill="#070805"/>
</svg>
