<?xml version="1.0" encoding="UTF-8"?>
<!DOCTYPE svg PUBLIC "-//W3C//DTD SVG 1.1//EN" "http://www.w3.org/Graphics/SVG/1.1/DTD/svg11.dtd">
<svg xmlns="http://www.w3.org/2000/svg" version="1.1" width="544px" height="736px" style="shape-rendering:geometricPrecision; text-rendering:geometricPrecision; image-rendering:optimizeQuality; fill-rule:evenodd; clip-rule:evenodd" xmlns:xlink="http://www.w3.org/1999/xlink">
<g><path style="opacity:1" fill="#f9d994" d="M 207.5,-0.5 C 266.167,-0.5 324.833,-0.5 383.5,-0.5C 383.5,4.83333 383.5,10.1667 383.5,15.5C 388.833,15.5 394.167,15.5 399.5,15.5C 399.5,18.1667 399.5,20.8333 399.5,23.5C 383.5,23.5 367.5,23.5 351.5,23.5C 351.5,26.1667 351.5,28.8333 351.5,31.5C 356.833,31.5 362.167,31.5 367.5,31.5C 367.5,43.1667 367.5,54.8333 367.5,66.5C 370.167,66.5 372.833,66.5 375.5,66.5C 375.5,65.5 375.5,64.5 375.5,63.5C 378.167,63.5 380.833,63.5 383.5,63.5C 383.5,65.8333 383.5,68.1667 383.5,70.5C 380.833,70.5 378.167,70.5 375.5,70.5C 375.5,69.5 375.5,68.5 375.5,67.5C 372.833,67.5 370.167,67.5 367.5,67.5C 367.5,68.5 367.5,69.5 367.5,70.5C 366.167,70.5 364.833,70.5 363.5,70.5C 362.996,66.6646 361.996,66.6646 360.5,70.5C 358.891,70.6114 357.225,70.278 355.5,69.5C 354.057,68.6649 353.057,67.3316 352.5,65.5C 351.504,59.5368 351.171,53.5368 351.5,47.5C 346.167,47.5 340.833,47.5 335.5,47.5C 335.5,49.5 335.5,51.5 335.5,53.5C 330.882,53.3232 326.382,53.9899 322,55.5C 319.239,54.5824 316.406,53.9157 313.5,53.5C 313.5,51.5 313.5,49.5 313.5,47.5C 306.319,47.8314 298.985,47.8314 291.5,47.5C 291.5,42.1667 291.5,36.8333 291.5,31.5C 289.5,31.5 287.5,31.5 285.5,31.5C 285.058,36.6945 284.058,36.6945 282.5,31.5C 280.365,32.8811 278.032,33.8811 275.5,34.5C 273.995,35.8415 273.328,37.5082 273.5,39.5C 275.5,39.5 277.5,39.5 279.5,39.5C 279.238,38.0222 279.571,36.6888 280.5,35.5C 281.496,37.8163 283.163,39.483 285.5,40.5C 285,41.5 284.5,42.5 284,43.5C 282.672,41.331 281.006,40.9977 279,42.5C 268.56,39.8025 258.06,38.1359 247.5,37.5C 242.583,37.5599 237.917,38.2265 233.5,39.5C 233.423,38.2502 232.756,37.4169 231.5,37C 232.167,36.6667 232.833,36.3333 233.5,36C 233.056,34.4667 232.723,32.9667 232.5,31.5C 230.89,32.5522 229.223,32.5522 227.5,31.5C 226.328,31.9186 225.328,32.5853 224.5,33.5C 222.477,31.8267 220.144,31.1601 217.5,31.5C 217.64,33.1238 216.973,34.2904 215.5,35C 216.38,36.3561 216.714,37.8561 216.5,39.5C 214.365,39.853 213.032,39.0197 212.5,37C 214.719,32.0719 215.719,26.9053 215.5,21.5C 212.833,21.5 210.167,21.5 207.5,21.5C 207.5,14.1667 207.5,6.83333 207.5,-0.5 Z"/></g>
<g><path style="opacity:1" fill="#f9d896" d="M 383.5,-0.5 C 420.833,-0.5 458.167,-0.5 495.5,-0.5C 495.5,0.833333 495.5,2.16667 495.5,3.5C 494.167,3.5 492.833,3.5 491.5,3.5C 491.5,4.83333 491.5,6.16667 491.5,7.5C 492.833,7.5 494.167,7.5 495.5,7.5C 495.5,10.1667 495.5,12.8333 495.5,15.5C 503.5,15.5 511.5,15.5 519.5,15.5C 519.5,18.1667 519.5,20.8333 519.5,23.5C 522.167,23.5 524.833,23.5 527.5,23.5C 527.238,22.0222 527.571,20.6888 528.5,19.5C 528.833,21.5 529.167,23.5 529.5,25.5C 528.009,32.7634 527.342,40.0967 527.5,47.5C 522.167,47.5 516.833,47.5 511.5,47.5C 511.5,55.5 511.5,63.5 511.5,71.5C 508.833,71.5 506.167,71.5 503.5,71.5C 503.5,74.1667 503.5,76.8333 503.5,79.5C 504.833,79.5 506.167,79.5 507.5,79.5C 507.5,78.1667 507.5,76.8333 507.5,75.5C 508.833,75.5 510.167,75.5 511.5,75.5C 511.5,82.1667 511.5,88.8333 511.5,95.5C 506.167,95.5 500.833,95.5 495.5,95.5C 495.5,98.1667 495.5,100.833 495.5,103.5C 506.167,103.5 516.833,103.5 527.5,103.5C 527.5,106.167 527.5,108.833 527.5,111.5C 516.833,111.5 506.167,111.5 495.5,111.5C 495.5,116.833 495.5,122.167 495.5,127.5C 490.167,127.5 484.833,127.5 479.5,127.5C 479.5,132.833 479.5,138.167 479.5,143.5C 474.167,143.5 468.833,143.5 463.5,143.5C 463.5,154.167 463.5,164.833 463.5,175.5C 468.833,175.5 474.167,175.5 479.5,175.5C 479.5,180.833 479.5,186.167 479.5,191.5C 484.833,191.5 490.167,191.5 495.5,191.5C 495.5,207.5 495.5,223.5 495.5,239.5C 500.833,239.5 506.167,239.5 511.5,239.5C 511.5,250.167 511.5,260.833 511.5,271.5C 519.517,271.501 527.517,271.834 535.5,272.5C 535.5,273.5 535.5,274.5 535.5,275.5C 532.833,275.5 530.167,275.5 527.5,275.5C 527.5,279.5 527.5,283.5 527.5,287.5C 511.5,287.5 495.5,287.5 479.5,287.5C 479.5,284.833 479.5,282.167 479.5,279.5C 474.167,279.5 468.833,279.5 463.5,279.5C 463.5,282.167 463.5,284.833 463.5,287.5C 442.167,288.833 420.833,288.833 399.5,287.5C 399.5,292.833 399.5,298.167 399.5,303.5C 410.167,303.5 420.833,303.5 431.5,303.5C 431.5,314.167 431.5,324.833 431.5,335.5C 418.167,335.5 404.833,335.5 391.5,335.5C 391.5,334.167 391.5,332.833 391.5,331.5C 390.167,331.5 388.833,331.5 387.5,331.5C 387.5,332.833 387.5,334.167 387.5,335.5C 385.173,335.753 383.173,335.086 381.5,333.5C 382.011,330.52 381.511,327.52 380,324.5C 379.667,326.167 379.333,327.833 379,329.5C 376.724,330.571 374.891,332.571 373.5,335.5C 374.992,337.972 375.658,340.639 375.5,343.5C 373.508,343.672 371.842,343.005 370.5,341.5C 366.061,342.938 363.394,345.938 362.5,350.5C 363.244,353.443 363.744,356.443 364,359.5C 365.103,355.644 365.936,351.644 366.5,347.5C 367.713,352.903 367.38,358.237 365.5,363.5C 367.104,369.397 367.771,375.397 367.5,381.5C 365.36,377.897 363.193,374.23 361,370.5C 360.809,362.162 361.143,353.829 362,345.5C 369.282,339.213 374.615,331.547 378,322.5C 389.907,294.488 393.574,265.488 389,235.5C 386.497,226.16 382.164,217.826 376,210.5C 370.71,206.445 365.544,202.278 360.5,198C 361.775,193.955 361.775,189.955 360.5,186C 372.621,184.906 378.454,178.406 378,166.5C 374.126,165.213 370.293,163.88 366.5,162.5C 364.953,155.65 362.786,148.983 360,142.5C 354.882,137.227 350.382,131.561 346.5,125.5C 347.039,123.495 347.705,121.495 348.5,119.5C 353.755,116.249 358.422,112.249 362.5,107.5C 365.235,101.023 365.902,94.3566 364.5,87.5C 362.528,80.8886 359.528,74.8886 355.5,69.5C 357.225,70.278 358.891,70.6114 360.5,70.5C 361.996,66.6646 362.996,66.6646 363.5,70.5C 364.833,70.5 366.167,70.5 367.5,70.5C 367.5,69.5 367.5,68.5 367.5,67.5C 370.167,67.5 372.833,67.5 375.5,67.5C 375.5,68.5 375.5,69.5 375.5,70.5C 378.167,70.5 380.833,70.5 383.5,70.5C 383.5,68.1667 383.5,65.8333 383.5,63.5C 380.833,63.5 378.167,63.5 375.5,63.5C 375.5,64.5 375.5,65.5 375.5,66.5C 372.833,66.5 370.167,66.5 367.5,66.5C 367.5,54.8333 367.5,43.1667 367.5,31.5C 362.167,31.5 356.833,31.5 351.5,31.5C 351.5,28.8333 351.5,26.1667 351.5,23.5C 367.5,23.5 383.5,23.5 399.5,23.5C 399.5,20.8333 399.5,18.1667 399.5,15.5C 394.167,15.5 388.833,15.5 383.5,15.5C 383.5,10.1667 383.5,4.83333 383.5,-0.5 Z"/></g>
<g><path style="opacity:1" fill="#f7db97" d="M -0.5,7.5 C 63.5,7.5 127.5,7.5 191.5,7.5C 191.5,20.8333 191.5,34.1667 191.5,47.5C 186.167,47.5 180.833,47.5 175.5,47.5C 175.5,55.5 175.5,63.5 175.5,71.5C 172.833,71.5 170.167,71.5 167.5,71.5C 167.5,68.8333 167.5,66.1667 167.5,63.5C 159.5,63.5 151.5,63.5 143.5,63.5C 143.5,58.1667 143.5,52.8333 143.5,47.5C 148.833,47.5 154.167,47.5 159.5,47.5C 159.5,38.8333 159.5,30.1667 159.5,21.5C 154.167,21.5 148.833,21.5 143.5,21.5C 143.5,24.8333 143.5,28.1667 143.5,31.5C 138.167,31.5 132.833,31.5 127.5,31.5C 127.5,39.5 127.5,47.5 127.5,55.5C 130.167,55.5 132.833,55.5 135.5,55.5C 135.5,58.1667 135.5,60.8333 135.5,63.5C 127.5,63.5 119.5,63.5 111.5,63.5C 111.5,66.1667 111.5,68.8333 111.5,71.5C 114.167,71.5 116.833,71.5 119.5,71.5C 119.5,82.1667 119.5,92.8333 119.5,103.5C 116.833,103.5 114.167,103.5 111.5,103.5C 111.5,106.167 111.5,108.833 111.5,111.5C 106.167,111.5 100.833,111.5 95.5,111.5C 95.5,116.833 95.5,122.167 95.5,127.5C 90.1667,127.5 84.8333,127.5 79.5,127.5C 79.5,130.167 79.5,132.833 79.5,135.5C 76.8333,135.5 74.1667,135.5 71.5,135.5C 71.5,132.833 71.5,130.167 71.5,127.5C 68.8333,127.5 66.1667,127.5 63.5,127.5C 63.5,132.833 63.5,138.167 63.5,143.5C 58.1667,143.5 52.8333,143.5 47.5,143.5C 47.5,148.833 47.5,154.167 47.5,159.5C 52.8333,159.5 58.1667,159.5 63.5,159.5C 63.5,170.167 63.5,180.833 63.5,191.5C 68.8333,191.5 74.1667,191.5 79.5,191.5C 79.5,194.167 79.5,196.833 79.5,199.5C 74.1667,199.5 68.8333,199.5 63.5,199.5C 63.5,202.167 63.5,204.833 63.5,207.5C 52.8333,207.5 42.1667,207.5 31.5,207.5C 31.5,212.833 31.5,218.167 31.5,223.5C 38.1667,223.5 44.8333,223.5 51.5,223.5C 51.6707,212.854 52.1707,212.854 53,223.5C 53.4988,219.514 53.6655,215.514 53.5,211.5C 62.12,212.66 70.7867,213.327 79.5,213.5C 79.5,214.833 79.5,216.167 79.5,217.5C 76.8333,217.5 74.1667,217.5 71.5,217.5C 70.0128,224.737 69.3461,232.07 69.5,239.5C 74.1667,239.5 78.8333,239.5 83.5,239.5C 83.5,244.833 83.5,250.167 83.5,255.5C 85.5,255.5 87.5,255.5 89.5,255.5C 89.5,260.833 89.5,266.167 89.5,271.5C 91.5,271.5 93.5,271.5 95.5,271.5C 95.5,276.833 95.5,282.167 95.5,287.5C 98.1667,287.5 100.833,287.5 103.5,287.5C 104.167,266.167 104.833,266.167 105.5,287.5C 107.5,287.5 109.5,287.5 111.5,287.5C 111.5,290.167 111.5,292.833 111.5,295.5C 100.833,295.5 90.1667,295.5 79.5,295.5C 79.5,292.833 79.5,290.167 79.5,287.5C 74.1667,287.5 68.8333,287.5 63.5,287.5C 63.5,286.167 63.5,284.833 63.5,283.5C 47.5,283.5 31.5,283.5 15.5,283.5C 15.6715,285.492 15.0049,287.158 13.5,288.5C 19.4632,289.496 25.4632,289.829 31.5,289.5C 31.5,294.167 31.5,298.833 31.5,303.5C 20.8333,303.5 10.1667,303.5 -0.5,303.5C -0.5,204.833 -0.5,106.167 -0.5,7.5 Z"/></g>
<g><path style="opacity:1" fill="#f4d899" d="M 355.5,69.5 C 359.528,74.8886 362.528,80.8886 364.5,87.5C 365.902,94.3566 365.235,101.023 362.5,107.5C 358.422,112.249 353.755,116.249 348.5,119.5C 347.705,121.495 347.039,123.495 346.5,125.5C 345.733,124.828 345.066,123.995 344.5,123C 345.717,121.352 346.55,119.519 347,117.5C 365.471,106.548 368.471,92.2144 356,74.5C 350.247,68.3725 343.413,63.8725 335.5,61C 314.758,56.8984 294.425,51.3984 274.5,44.5C 253.467,35.928 233.8,38.2613 215.5,51.5C 215.5,50.1667 215.5,48.8333 215.5,47.5C 219.257,47.7136 219.924,46.7136 217.5,44.5C 219.205,41.8786 221.372,41.2119 224,42.5C 227.572,42.1674 230.739,41.1674 233.5,39.5C 237.917,38.2265 242.583,37.5599 247.5,37.5C 258.06,38.1359 268.56,39.8025 279,42.5C 281.006,40.9977 282.672,41.331 284,43.5C 284.5,42.5 285,41.5 285.5,40.5C 283.163,39.483 281.496,37.8163 280.5,35.5C 279.571,36.6888 279.238,38.0222 279.5,39.5C 277.5,39.5 275.5,39.5 273.5,39.5C 273.328,37.5082 273.995,35.8415 275.5,34.5C 278.032,33.8811 280.365,32.8811 282.5,31.5C 284.058,36.6945 285.058,36.6945 285.5,31.5C 287.5,31.5 289.5,31.5 291.5,31.5C 291.5,36.8333 291.5,42.1667 291.5,47.5C 298.985,47.8314 306.319,47.8314 313.5,47.5C 313.5,49.5 313.5,51.5 313.5,53.5C 316.406,53.9157 319.239,54.5824 322,55.5C 326.382,53.9899 330.882,53.3232 335.5,53.5C 335.5,51.5 335.5,49.5 335.5,47.5C 340.833,47.5 346.167,47.5 351.5,47.5C 351.171,53.5368 351.504,59.5368 352.5,65.5C 353.057,67.3316 354.057,68.6649 355.5,69.5 Z"/></g>
<g><path style="opacity:1" fill="#444513" d="M 321.5,62.5 C 326.437,66.6385 330.937,70.6385 335,74.5C 335.537,77.0934 336.37,79.5934 337.5,82C 337.204,83.8882 336.704,85.7216 336,87.5C 335.667,87.1667 335.333,86.8333 335,86.5C 329.925,89.9251 324.592,90.2584 319,87.5C 316.702,88.6271 314.535,88.2937 312.5,86.5C 311.167,86.8333 309.833,87.1667 308.5,87.5C 304.895,86.5102 301.228,85.8436 297.5,85.5C 276.422,82.8795 255.755,84.7128 235.5,91C 228.693,94.2375 222.36,98.2375 216.5,103C 215.117,104.271 214.117,105.771 213.5,107.5C 212.208,109.255 211.208,111.255 210.5,113.5C 205.554,109.284 202.388,103.95 201,97.5C 200.261,91.4422 200.594,85.4422 202,79.5C 204.062,75.6048 205.895,71.6048 207.5,67.5C 215.495,57.0113 225.829,49.8447 238.5,46C 247.213,45.2024 255.88,45.5357 264.5,47C 283.035,53.9008 302.035,59.0675 321.5,62.5 Z"/></g>
<g><path style="opacity:1" fill="#3e3d0e" d="M 321.5,62.5 C 330.518,64.0037 338.851,67.1704 346.5,72C 358.198,81.7668 360.531,93.2668 353.5,106.5C 350.717,109.552 347.384,111.552 343.5,112.5C 343.453,109.072 342.287,106.072 340,103.5C 335.5,100.333 331,97.1667 326.5,94C 316.686,91.224 307.02,88.3906 297.5,85.5C 301.228,85.8436 304.895,86.5102 308.5,87.5C 309.833,87.1667 311.167,86.8333 312.5,86.5C 314.535,88.2937 316.702,88.6271 319,87.5C 324.592,90.2584 329.925,89.9251 335,86.5C 335.333,86.8333 335.667,87.1667 336,87.5C 336.704,85.7216 337.204,83.8882 337.5,82C 336.37,79.5934 335.537,77.0934 335,74.5C 330.937,70.6385 326.437,66.6385 321.5,62.5 Z"/></g>
<g><path style="opacity:1" fill="#f9d894" d="M 197.5,105.5 C 200.439,111.669 204.606,117.003 210,121.5C 207.733,132.929 211.233,141.929 220.5,148.5C 221.817,151.484 222.817,154.484 223.5,157.5C 224.063,168.931 225.397,180.265 227.5,191.5C 227.167,192.167 226.833,192.833 226.5,193.5C 220.457,196.237 214.457,199.07 208.5,202C 206.536,203.451 205.203,205.284 204.5,207.5C 193.901,215.118 186.234,225.118 181.5,237.5C 178.378,242.756 176.045,248.423 174.5,254.5C 167.908,270.967 166.075,287.967 169,305.5C 172.803,322.301 182.969,332.801 199.5,337C 200.848,338.574 201.514,340.407 201.5,342.5C 200.763,350.48 200.263,358.48 200,366.5C 196.603,372.623 193.77,378.956 191.5,385.5C 188.92,386.615 187.254,388.615 186.5,391.5C 185.167,390.167 183.833,390.167 182.5,391.5C 181.616,383.95 179.616,383.616 176.5,390.5C 175.503,382.862 175.169,375.196 175.5,367.5C 170.167,367.5 164.833,367.5 159.5,367.5C 159.5,364.833 159.5,362.167 159.5,359.5C 156.833,359.5 154.167,359.5 151.5,359.5C 151.5,358.167 151.5,356.833 151.5,355.5C 148.833,355.5 146.167,355.5 143.5,355.5C 143.5,348.833 143.5,342.167 143.5,335.5C 132.833,335.5 122.167,335.5 111.5,335.5C 111.5,324.833 111.5,314.167 111.5,303.5C 116.833,303.5 122.167,303.5 127.5,303.5C 127.5,287.5 127.5,271.5 127.5,255.5C 130.167,255.5 132.833,255.5 135.5,255.5C 135.5,250.167 135.5,244.833 135.5,239.5C 130.167,239.5 124.833,239.5 119.5,239.5C 119.5,232.833 119.5,226.167 119.5,219.5C 118.167,219.5 116.833,219.5 115.5,219.5C 115.5,218.167 115.5,216.833 115.5,215.5C 116.833,215.5 118.167,215.5 119.5,215.5C 119.5,212.833 119.5,210.167 119.5,207.5C 127.5,207.5 135.5,207.5 143.5,207.5C 143.5,202.167 143.5,196.833 143.5,191.5C 148.833,191.5 154.167,191.5 159.5,191.5C 159.5,188.833 159.5,186.167 159.5,183.5C 156.833,183.5 154.167,183.5 151.5,183.5C 151.5,180.833 151.5,178.167 151.5,175.5C 143.5,175.5 135.5,175.5 127.5,175.5C 127.5,148.833 127.5,122.167 127.5,95.5C 148.833,95.5 170.167,95.5 191.5,95.5C 191.215,93.712 191.548,92.0453 192.5,90.5C 193.167,94.1667 193.833,97.8333 194.5,101.5C 195.057,103.332 196.057,104.665 197.5,105.5 Z"/></g>
<g><path style="opacity:1" fill="#362f0b" d="M 274.5,44.5 C 273.551,45.1524 272.385,45.4857 271,45.5C 262.024,42.646 252.858,41.4793 243.5,42C 234.193,45.1649 225.526,48.3315 217.5,51.5C 217.357,55.973 215.023,57.973 210.5,57.5C 209.874,60.3149 208.54,62.8149 206.5,65C 207.252,65.6708 207.586,66.5041 207.5,67.5C 205.895,71.6048 204.062,75.6048 202,79.5C 200.594,85.4422 200.261,91.4422 201,97.5C 202.388,103.95 205.554,109.284 210.5,113.5C 211.208,111.255 212.208,109.255 213.5,107.5C 213.277,109.342 212.943,111.175 212.5,113C 212.439,114.711 213.106,116.044 214.5,117C 213.701,121.827 212.701,126.661 211.5,131.5C 212.276,134.521 213.109,137.521 214,140.5C 214.383,141.056 214.883,141.389 215.5,141.5C 217.146,143.812 219.146,145.812 221.5,147.5C 221.376,148.107 221.043,148.44 220.5,148.5C 211.233,141.929 207.733,132.929 210,121.5C 204.606,117.003 200.439,111.669 197.5,105.5C 191.696,83.5802 197.696,65.5802 215.5,51.5C 233.8,38.2613 253.467,35.928 274.5,44.5 Z"/></g>
<g><path style="opacity:1" fill="#443f12" d="M 356.5,191.5 C 356.5,193.167 356.5,194.833 356.5,196.5C 350.984,194.384 345.317,192.551 339.5,191C 338.09,190.632 337.09,189.799 336.5,188.5C 337.171,184.474 338.004,180.474 339,176.5C 343.405,172.676 347.738,169.343 352,166.5C 354.353,162.556 354.853,158.556 353.5,154.5C 353.426,152.589 352.426,151.422 350.5,151C 341.113,151.043 332.447,148.709 324.5,144C 320.727,140.282 317.56,136.116 315,131.5C 312.626,124.712 310.459,117.878 308.5,111C 317.068,111.223 325.402,112.889 333.5,116C 334.667,117.167 335.833,118.333 337,119.5C 338.473,123.779 340.473,127.779 343,131.5C 347.667,136.833 352.333,142.167 357,147.5C 358.238,154.132 360.238,160.465 363,166.5C 365.878,169.278 369.378,170.944 373.5,171.5C 369.351,180.224 362.351,182.557 352.5,178.5C 353.983,182.757 355.316,187.09 356.5,191.5 Z"/></g>
<g><path style="opacity:1" fill="#e0a746" d="M 231.5,119.5 C 231.466,123.63 230.799,127.63 229.5,131.5C 235.425,131.192 241.259,131.525 247,132.5C 247.494,130.866 247.66,129.199 247.5,127.5C 251.683,127.137 255.683,127.804 259.5,129.5C 261.5,128.263 263.334,128.597 265,130.5C 266.356,129.62 267.856,129.286 269.5,129.5C 269.5,131.5 269.5,133.5 269.5,135.5C 268.307,135.97 267.64,136.97 267.5,138.5C 268.01,141.334 269.344,143.668 271.5,145.5C 271.631,146.376 271.298,147.043 270.5,147.5C 269.158,145.995 267.492,145.328 265.5,145.5C 265.762,144.022 265.429,142.689 264.5,141.5C 264.128,146.571 263.128,151.238 261.5,155.5C 262.833,148.833 262.833,142.167 261.5,135.5C 260.5,135.5 259.5,135.5 258.5,135.5C 258.5,137.5 258.5,139.5 258.5,141.5C 255.101,140.984 251.768,140.15 248.5,139C 243.955,135.707 238.955,134.041 233.5,134C 231.393,135.264 230.393,137.097 230.5,139.5C 234.853,139.671 238.853,141.005 242.5,143.5C 243.466,145.396 243.799,147.396 243.5,149.5C 242.244,149.096 241.077,148.429 240,147.5C 237.829,148.595 236.162,147.928 235,145.5C 233.812,146.563 233.312,147.897 233.5,149.5C 231.114,149.259 229.114,149.925 227.5,151.5C 225.95,143.248 225.283,134.915 225.5,126.5C 225.5,126.167 225.5,125.833 225.5,125.5C 226.41,123.981 227.243,122.315 228,120.5C 229.011,119.663 230.178,119.33 231.5,119.5 Z"/></g>
<g><path style="opacity:1" fill="#353004" d="M 301.5,135.5 C 297.703,136.709 294.036,138.209 290.5,140C 289.872,142.8 288.872,145.467 287.5,148C 285.421,148.808 283.421,148.641 281.5,147.5C 281.135,146.098 280.301,145.098 279,144.5C 276.566,145.322 274.066,145.656 271.5,145.5C 269.344,143.668 268.01,141.334 267.5,138.5C 267.64,136.97 268.307,135.97 269.5,135.5C 269.5,136.833 269.5,138.167 269.5,139.5C 272.216,139.322 274.883,138.822 277.5,138C 283.854,135.488 290.187,132.988 296.5,130.5C 300.177,130.2 301.844,131.866 301.5,135.5 Z"/></g>
<g><path style="opacity:1" fill="#e5a143" d="M 309.5,133.5 C 312,136.494 314,139.827 315.5,143.5C 314.833,143.5 314.167,143.5 313.5,143.5C 312.28,141.718 311.614,139.718 311.5,137.5C 307.445,137.176 303.445,137.509 299.5,138.5C 295.631,142.444 291.631,146.444 287.5,150.5C 276.973,151.637 276.973,152.637 287.5,153.5C 287.615,155.947 288.615,157.947 290.5,159.5C 286.167,160.833 281.833,162.167 277.5,163.5C 276.883,163.389 276.383,163.056 276,162.5C 274.815,164.377 273.815,166.377 273,168.5C 272.329,169.252 271.496,169.586 270.5,169.5C 266.833,169.5 263.167,169.5 259.5,169.5C 259.5,167.5 259.5,165.5 259.5,163.5C 259.294,160.505 259.96,157.838 261.5,155.5C 263.128,151.238 264.128,146.571 264.5,141.5C 265.429,142.689 265.762,144.022 265.5,145.5C 267.492,145.328 269.158,145.995 270.5,147.5C 271.298,147.043 271.631,146.376 271.5,145.5C 274.066,145.656 276.566,145.322 279,144.5C 280.301,145.098 281.135,146.098 281.5,147.5C 283.421,148.641 285.421,148.808 287.5,148C 288.872,145.467 289.872,142.8 290.5,140C 294.036,138.209 297.703,136.709 301.5,135.5C 302.209,136.404 303.209,136.737 304.5,136.5C 304.5,135.5 304.5,134.5 304.5,133.5C 306.167,133.5 307.833,133.5 309.5,133.5 Z"/></g>
<g><path style="opacity:1" fill="#3d3b08" d="M 225.5,125.5 C 225.5,125.833 225.5,126.167 225.5,126.5C 224.883,126.611 224.383,126.944 224,127.5C 223.174,135.622 223.674,143.622 225.5,151.5C 225.333,153.5 225.167,155.5 225,157.5C 224.31,156.262 223.81,156.262 223.5,157.5C 222.817,154.484 221.817,151.484 220.5,148.5C 221.043,148.44 221.376,148.107 221.5,147.5C 219.146,145.812 217.146,143.812 215.5,141.5C 216.376,141.631 217.043,141.298 217.5,140.5C 215.521,137.09 215.021,133.423 216,129.5C 218.374,127.461 220.374,125.128 222,122.5C 222.333,123.5 222.667,124.5 223,125.5C 224.58,119.062 225.413,119.062 225.5,125.5 Z"/></g>
<g><path style="opacity:1" fill="#e0682e" d="M 313.5,143.5 C 306.556,142.65 300.556,144.484 295.5,149C 296.167,149.333 296.833,149.667 297.5,150C 294.81,150.771 292.144,151.604 289.5,152.5C 291.396,153.466 293.396,153.799 295.5,153.5C 295.5,154.833 295.5,156.167 295.5,157.5C 298.082,157.025 300.082,157.692 301.5,159.5C 297.833,159.5 294.167,159.5 290.5,159.5C 288.615,157.947 287.615,155.947 287.5,153.5C 276.973,152.637 276.973,151.637 287.5,150.5C 291.631,146.444 295.631,142.444 299.5,138.5C 303.445,137.509 307.445,137.176 311.5,137.5C 311.614,139.718 312.28,141.718 313.5,143.5 Z"/></g>
<g><path style="opacity:1" fill="#d79d45" d="M 253.5,161.5 C 253.5,159.5 253.5,157.5 253.5,155.5C 252.167,155.5 250.833,155.5 249.5,155.5C 247.517,155.843 246.183,155.176 245.5,153.5C 250.495,154.418 252.828,152.418 252.5,147.5C 254.288,147.215 255.955,147.548 257.5,148.5C 256.3,152.992 254.966,157.326 253.5,161.5 Z"/></g>
<g><path style="opacity:1" fill="#e29848" d="M 243.5,149.5 C 244.674,150.514 245.34,151.847 245.5,153.5C 242.103,153.259 238.769,152.593 235.5,151.5C 234.167,151.833 232.833,152.167 231.5,152.5C 229.63,157.261 228.963,162.261 229.5,167.5C 229.5,168.167 229.5,168.833 229.5,169.5C 228.318,163.699 227.652,157.699 227.5,151.5C 229.114,149.925 231.114,149.259 233.5,149.5C 233.312,147.897 233.812,146.563 235,145.5C 236.162,147.928 237.829,148.595 240,147.5C 241.077,148.429 242.244,149.096 243.5,149.5 Z"/></g>
<g><path style="opacity:1" fill="#e65b2c" d="M 313.5,143.5 C 314.167,143.5 314.833,143.5 315.5,143.5C 315.906,146.589 317.24,149.255 319.5,151.5C 318.5,153.5 317.5,155.5 316.5,157.5C 311.739,159.37 306.739,160.037 301.5,159.5C 300.082,157.692 298.082,157.025 295.5,157.5C 295.5,156.167 295.5,154.833 295.5,153.5C 293.396,153.799 291.396,153.466 289.5,152.5C 292.144,151.604 294.81,150.771 297.5,150C 296.833,149.667 296.167,149.333 295.5,149C 300.556,144.484 306.556,142.65 313.5,143.5 Z"/></g>
<g><path style="opacity:1" fill="#e17d3d" d="M 315.5,143.5 C 316.167,143.5 316.833,143.5 317.5,143.5C 317.712,145.384 318.712,146.717 320.5,147.5C 321.806,150.98 321.806,154.313 320.5,157.5C 318.426,159.675 317.093,162.342 316.5,165.5C 314.593,162.605 311.926,161.272 308.5,161.5C 305.933,161.279 303.599,160.612 301.5,159.5C 306.739,160.037 311.739,159.37 316.5,157.5C 317.5,155.5 318.5,153.5 319.5,151.5C 317.24,149.255 315.906,146.589 315.5,143.5 Z"/></g>
<g><path style="opacity:1" fill="#de7f42" d="M 249.5,155.5 C 250.833,155.5 252.167,155.5 253.5,155.5C 253.5,157.5 253.5,159.5 253.5,161.5C 253.5,163.167 253.5,164.833 253.5,166.5C 251.621,167.341 249.621,167.675 247.5,167.5C 248.183,165.824 249.517,165.157 251.5,165.5C 251.232,162.881 251.565,160.381 252.5,158C 250.881,157.764 249.881,156.931 249.5,155.5 Z"/></g>
<g><path style="opacity:1" fill="#523a0c" d="M 290.5,159.5 C 294.167,159.5 297.833,159.5 301.5,159.5C 303.599,160.612 305.933,161.279 308.5,161.5C 309.167,162.167 309.833,162.833 310.5,163.5C 302.914,162.094 295.248,161.427 287.5,161.5C 287.5,162.833 287.5,164.167 287.5,165.5C 285.508,165.672 283.842,165.005 282.5,163.5C 281.14,164.18 279.807,164.847 278.5,165.5C 277.662,165.158 277.328,164.492 277.5,163.5C 281.833,162.167 286.167,160.833 290.5,159.5 Z"/></g>
<g><path style="opacity:1" fill="#dfa84d" d="M 336.5,154.5 C 337.148,156.498 337.981,158.498 339,160.5C 340.269,159.095 340.769,157.429 340.5,155.5C 343.167,155.5 345.833,155.5 348.5,155.5C 348.5,157.5 348.5,159.5 348.5,161.5C 346.469,168.017 341.969,171.35 335,171.5C 334.824,167.312 334.324,163.312 333.5,159.5C 333.5,157.833 333.5,156.167 333.5,154.5C 334.5,154.5 335.5,154.5 336.5,154.5 Z"/></g>
<g><path style="opacity:1" fill="#e76132" d="M 245.5,153.5 C 246.183,155.176 247.517,155.843 249.5,155.5C 249.881,156.931 250.881,157.764 252.5,158C 251.565,160.381 251.232,162.881 251.5,165.5C 249.517,165.157 248.183,165.824 247.5,167.5C 247.167,167.5 246.833,167.5 246.5,167.5C 243.5,167.5 240.5,167.5 237.5,167.5C 237.5,168.833 237.5,170.167 237.5,171.5C 235.167,171.5 232.833,171.5 230.5,171.5C 230.768,169.901 230.434,168.568 229.5,167.5C 228.963,162.261 229.63,157.261 231.5,152.5C 232.833,152.167 234.167,151.833 235.5,151.5C 238.769,152.593 242.103,153.259 245.5,153.5 Z"/></g>
<g><path style="opacity:1" fill="#d8994f" d="M 320.5,157.5 C 320.743,160.883 320.076,164.049 318.5,167C 317.5,167.667 316.5,167.667 315.5,167C 314.211,165.198 312.544,164.031 310.5,163.5C 309.833,162.833 309.167,162.167 308.5,161.5C 311.926,161.272 314.593,162.605 316.5,165.5C 317.093,162.342 318.426,159.675 320.5,157.5 Z"/></g>
<g><path style="opacity:1" fill="#e17743" d="M 229.5,167.5 C 230.434,168.568 230.768,169.901 230.5,171.5C 232.833,171.5 235.167,171.5 237.5,171.5C 237.5,170.167 237.5,168.833 237.5,167.5C 240.5,167.5 243.5,167.5 246.5,167.5C 243.523,169.467 240.523,171.467 237.5,173.5C 236.2,174.108 234.867,174.775 233.5,175.5C 232.133,174.775 230.8,174.108 229.5,173.5C 229.5,172.167 229.5,170.833 229.5,169.5C 229.5,168.833 229.5,168.167 229.5,167.5 Z"/></g>
<g><path style="opacity:1" fill="#342e05" d="M 261.5,155.5 C 259.96,157.838 259.294,160.505 259.5,163.5C 258.183,166.23 258.183,169.063 259.5,172C 263.639,172.87 267.306,172.037 270.5,169.5C 271.496,169.586 272.329,169.252 273,168.5C 273.815,166.377 274.815,164.377 276,162.5C 276.383,163.056 276.883,163.389 277.5,163.5C 277.328,164.492 277.662,165.158 278.5,165.5C 279.174,169.317 277.841,172.15 274.5,174C 270.578,175.962 266.411,177.128 262,177.5C 255.819,176.489 252.986,172.822 253.5,166.5C 253.5,164.833 253.5,163.167 253.5,161.5C 254.966,157.326 256.3,152.992 257.5,148.5C 255.955,147.548 254.288,147.215 252.5,147.5C 252.828,152.418 250.495,154.418 245.5,153.5C 245.34,151.847 244.674,150.514 243.5,149.5C 243.799,147.396 243.466,145.396 242.5,143.5C 238.853,141.005 234.853,139.671 230.5,139.5C 230.393,137.097 231.393,135.264 233.5,134C 238.955,134.041 243.955,135.707 248.5,139C 251.768,140.15 255.101,140.984 258.5,141.5C 258.5,139.5 258.5,137.5 258.5,135.5C 259.5,135.5 260.5,135.5 261.5,135.5C 262.833,142.167 262.833,148.833 261.5,155.5 Z"/></g>
<g><path style="opacity:1" fill="#d1a559" d="M 259.5,163.5 C 259.5,165.5 259.5,167.5 259.5,169.5C 263.167,169.5 266.833,169.5 270.5,169.5C 267.306,172.037 263.639,172.87 259.5,172C 258.183,169.063 258.183,166.23 259.5,163.5 Z"/></g>
<g><path style="opacity:1" fill="#382d0a" d="M 225.5,126.5 C 225.283,134.915 225.95,143.248 227.5,151.5C 227.652,157.699 228.318,163.699 229.5,169.5C 229.5,170.833 229.5,172.167 229.5,173.5C 229.5,174.167 229.5,174.833 229.5,175.5C 229.5,176.167 229.5,176.833 229.5,177.5C 229.658,180.361 228.992,183.028 227.5,185.5C 229.42,188.365 229.753,191.365 228.5,194.5C 223.124,197.739 217.458,200.405 211.5,202.5C 209.672,205.013 207.339,206.679 204.5,207.5C 205.203,205.284 206.536,203.451 208.5,202C 214.457,199.07 220.457,196.237 226.5,193.5C 226.833,192.833 227.167,192.167 227.5,191.5C 225.397,180.265 224.063,168.931 223.5,157.5C 223.81,156.262 224.31,156.262 225,157.5C 225.167,155.5 225.333,153.5 225.5,151.5C 223.674,143.622 223.174,135.622 224,127.5C 224.383,126.944 224.883,126.611 225.5,126.5 Z"/></g>
<g><path style="opacity:1" fill="#474112" d="M 317.5,143.5 C 321.096,143.23 323.262,145.23 324,149.5C 326.667,151.5 329.333,153.5 332,155.5C 333.27,153.422 334.77,153.088 336.5,154.5C 335.5,154.5 334.5,154.5 333.5,154.5C 333.5,156.167 333.5,157.833 333.5,159.5C 334.222,205.611 311.556,227.444 265.5,225C 251.02,221.191 240.854,212.357 235,198.5C 232.453,191.56 230.619,184.56 229.5,177.5C 229.5,176.833 229.5,176.167 229.5,175.5C 233.196,179.669 235.863,179.002 237.5,173.5C 240.523,171.467 243.523,169.467 246.5,167.5C 246.833,167.5 247.167,167.5 247.5,167.5C 249.621,167.675 251.621,167.341 253.5,166.5C 252.986,172.822 255.819,176.489 262,177.5C 266.411,177.128 270.578,175.962 274.5,174C 277.841,172.15 279.174,169.317 278.5,165.5C 279.807,164.847 281.14,164.18 282.5,163.5C 283.842,165.005 285.508,165.672 287.5,165.5C 287.5,164.167 287.5,162.833 287.5,161.5C 295.248,161.427 302.914,162.094 310.5,163.5C 312.544,164.031 314.211,165.198 315.5,167C 316.5,167.667 317.5,167.667 318.5,167C 320.076,164.049 320.743,160.883 320.5,157.5C 321.806,154.313 321.806,150.98 320.5,147.5C 318.712,146.717 317.712,145.384 317.5,143.5 Z"/></g>
<g><path style="opacity:1" fill="#322b07" d="M 290.5,168.5 C 299.611,168.138 307.111,171.471 313,178.5C 317.759,184.284 317.593,189.784 312.5,195C 310.801,195.958 308.967,196.458 307,196.5C 291.455,192.164 276.955,194.33 263.5,203C 251.277,205.444 246.444,200.611 249,188.5C 250.167,187.333 251.333,186.167 252.5,185C 259.398,182.743 266.398,180.743 273.5,179C 277.46,177.032 280.793,174.365 283.5,171C 285.927,170.098 288.26,169.264 290.5,168.5 Z"/></g>
<g><path style="opacity:1" fill="#d5945b" d="M 229.5,173.5 C 230.8,174.108 232.133,174.775 233.5,175.5C 234.867,174.775 236.2,174.108 237.5,173.5C 235.863,179.002 233.196,179.669 229.5,175.5C 229.5,174.833 229.5,174.167 229.5,173.5 Z"/></g>
<g><path style="opacity:1" fill="#f2d893" d="M 305.5,177.5 C 305.586,178.496 305.252,179.329 304.5,180C 302.473,180.498 300.473,180.331 298.5,179.5C 289.308,183.74 289.808,184.407 300,181.5C 303.917,183.618 306.417,182.618 307.5,178.5C 311.377,182.337 312.377,186.837 310.5,192C 301.241,190.77 291.908,190.437 282.5,191C 274.156,194.173 265.823,197.34 257.5,200.5C 255.076,200.852 253.576,199.852 253,197.5C 252.064,194.208 252.564,191.208 254.5,188.5C 255.107,188.624 255.44,188.957 255.5,189.5C 256.237,191.305 257.237,192.971 258.5,194.5C 262.013,193.336 265.346,192.002 268.5,190.5C 265.557,190.647 262.724,191.313 260,192.5C 258.826,191.456 257.659,190.456 256.5,189.5C 256.33,188.178 256.663,187.011 257.5,186C 261.894,184.869 266.227,183.535 270.5,182C 276.707,178.397 283.04,175.064 289.5,172C 296.188,170.189 301.521,172.022 305.5,177.5 Z"/></g>
<g><path style="opacity:1" fill="#f7d692" d="M 495.5,-0.5 C 511.5,-0.5 527.5,-0.5 543.5,-0.5C 543.5,224.833 543.5,450.167 543.5,675.5C 538.167,675.5 532.833,675.5 527.5,675.5C 527.5,679.5 527.5,683.5 527.5,687.5C 523.5,687.5 519.5,687.5 515.5,687.5C 515.099,693.956 515.766,700.29 517.5,706.5C 516.818,707.817 516.151,709.15 515.5,710.5C 514.167,710.5 512.833,710.5 511.5,710.5C 511.5,702.833 511.5,695.167 511.5,687.5C 506.167,687.5 500.833,687.5 495.5,687.5C 495.5,692.833 495.5,698.167 495.5,703.5C 492.833,703.5 490.167,703.5 487.5,703.5C 487.5,698.167 487.5,692.833 487.5,687.5C 486.167,687.5 484.833,687.5 483.5,687.5C 483.5,691.5 483.5,695.5 483.5,699.5C 482.167,699.5 480.833,699.5 479.5,699.5C 479.5,696.833 479.5,694.167 479.5,691.5C 477.234,691.141 475.401,691.808 474,693.5C 471.805,690.037 468.639,688.704 464.5,689.5C 436.815,681.275 408.482,676.608 379.5,675.5C 378.287,675.747 377.62,676.414 377.5,677.5C 371.049,671.717 365.715,665.05 361.5,657.5C 367.341,637.461 371.841,617.128 375,596.5C 378.871,595.009 381.371,592.342 382.5,588.5C 383.634,580.245 383.801,571.912 383,563.5C 382.49,558.307 380.99,553.473 378.5,549C 380.029,525.115 379.362,501.281 376.5,477.5C 382.239,476.979 387.073,474.646 391,470.5C 391.167,468.833 391.333,467.167 391.5,465.5C 385.989,436.789 377.989,408.789 367.5,381.5C 367.771,375.397 367.104,369.397 365.5,363.5C 367.38,358.237 367.713,352.903 366.5,347.5C 365.936,351.644 365.103,355.644 364,359.5C 363.744,356.443 363.244,353.443 362.5,350.5C 363.394,345.938 366.061,342.938 370.5,341.5C 371.842,343.005 373.508,343.672 375.5,343.5C 375.658,340.639 374.992,337.972 373.5,335.5C 374.891,332.571 376.724,330.571 379,329.5C 379.333,327.833 379.667,326.167 380,324.5C 381.511,327.52 382.011,330.52 381.5,333.5C 383.173,335.086 385.173,335.753 387.5,335.5C 387.5,334.167 387.5,332.833 387.5,331.5C 388.833,331.5 390.167,331.5 391.5,331.5C 391.5,332.833 391.5,334.167 391.5,335.5C 404.833,335.5 418.167,335.5 431.5,335.5C 431.5,324.833 431.5,314.167 431.5,303.5C 420.833,303.5 410.167,303.5 399.5,303.5C 399.5,298.167 399.5,292.833 399.5,287.5C 420.833,288.833 442.167,288.833 463.5,287.5C 463.5,284.833 463.5,282.167 463.5,279.5C 468.833,279.5 474.167,279.5 479.5,279.5C 479.5,282.167 479.5,284.833 479.5,287.5C 495.5,287.5 511.5,287.5 527.5,287.5C 527.5,283.5 527.5,279.5 527.5,275.5C 530.167,275.5 532.833,275.5 535.5,275.5C 535.5,274.5 535.5,273.5 535.5,272.5C 527.517,271.834 519.517,271.501 511.5,271.5C 511.5,260.833 511.5,250.167 511.5,239.5C 506.167,239.5 500.833,239.5 495.5,239.5C 495.5,223.5 495.5,207.5 495.5,191.5C 490.167,191.5 484.833,191.5 479.5,191.5C 479.5,186.167 479.5,180.833 479.5,175.5C 474.167,175.5 468.833,175.5 463.5,175.5C 463.5,164.833 463.5,154.167 463.5,143.5C 468.833,143.5 474.167,143.5 479.5,143.5C 479.5,138.167 479.5,132.833 479.5,127.5C 484.833,127.5 490.167,127.5 495.5,127.5C 495.5,122.167 495.5,116.833 495.5,111.5C 506.167,111.5 516.833,111.5 527.5,111.5C 527.5,108.833 527.5,106.167 527.5,103.5C 516.833,103.5 506.167,103.5 495.5,103.5C 495.5,100.833 495.5,98.1667 495.5,95.5C 500.833,95.5 506.167,95.5 511.5,95.5C 511.5,88.8333 511.5,82.1667 511.5,75.5C 510.167,75.5 508.833,75.5 507.5,75.5C 507.5,76.8333 507.5,78.1667 507.5,79.5C 506.167,79.5 504.833,79.5 503.5,79.5C 503.5,76.8333 503.5,74.1667 503.5,71.5C 506.167,71.5 508.833,71.5 511.5,71.5C 511.5,63.5 511.5,55.5 511.5,47.5C 516.833,47.5 522.167,47.5 527.5,47.5C 527.342,40.0967 528.009,32.7634 529.5,25.5C 529.167,23.5 528.833,21.5 528.5,19.5C 527.571,20.6888 527.238,22.0222 527.5,23.5C 524.833,23.5 522.167,23.5 519.5,23.5C 519.5,20.8333 519.5,18.1667 519.5,15.5C 511.5,15.5 503.5,15.5 495.5,15.5C 495.5,12.8333 495.5,10.1667 495.5,7.5C 494.167,7.5 492.833,7.5 491.5,7.5C 491.5,6.16667 491.5,4.83333 491.5,3.5C 492.833,3.5 494.167,3.5 495.5,3.5C 495.5,2.16667 495.5,0.833333 495.5,-0.5 Z"/></g>
<g><path style="opacity:1" fill="#434413" d="M 287.5,249.5 C 280.717,250.195 274.051,251.528 267.5,253.5C 258.21,251.124 249.543,247.29 241.5,242C 236.298,236.63 230.965,231.464 225.5,226.5C 220.928,219.917 215.928,213.584 210.5,207.5C 216.621,204.356 222.788,201.356 229,198.5C 238.425,221.981 255.925,233.648 281.5,233.5C 303.538,233.566 320.705,224.566 333,206.5C 335.389,203.401 335.889,200.067 334.5,196.5C 335.333,196.167 336.167,195.833 337,195.5C 347.468,198.654 357.301,203.154 366.5,209C 355.376,215.113 345.71,223.113 337.5,233C 332.111,237.389 326.444,241.389 320.5,245C 315.167,245.667 309.833,245.667 304.5,245C 308.706,242.398 313.039,240.064 317.5,238C 321,234.833 324.5,231.667 328,228.5C 329.919,226.309 331.253,223.976 332,221.5C 310.31,242.174 285.144,247.674 256.5,238C 245,231.833 236.167,223 230,211.5C 233.824,228.233 243.99,239.4 260.5,245C 270.014,247.885 279.681,248.885 289.5,248C 288.584,248.278 287.918,248.778 287.5,249.5 Z"/></g>
<g><path style="opacity:1" fill="#2e2e02" d="M 353.5,154.5 C 354.853,158.556 354.353,162.556 352,166.5C 347.738,169.343 343.405,172.676 339,176.5C 338.004,180.474 337.171,184.474 336.5,188.5C 337.09,189.799 338.09,190.632 339.5,191C 345.317,192.551 350.984,194.384 356.5,196.5C 356.5,194.833 356.5,193.167 356.5,191.5C 357.5,191.5 358.5,191.5 359.5,191.5C 359.5,194.167 359.5,196.833 359.5,199.5C 358.022,199.238 356.689,199.571 355.5,200.5C 356.651,201.731 357.817,201.731 359,200.5C 363.081,202.792 366.914,205.459 370.5,208.5C 369.624,209.251 368.624,209.751 367.5,210C 369.078,211.14 370.744,211.64 372.5,211.5C 373.429,212.689 373.762,214.022 373.5,215.5C 374.833,215.5 376.167,215.5 377.5,215.5C 377.521,218.535 378.854,220.868 381.5,222.5C 380.675,223.386 379.675,223.719 378.5,223.5C 377.31,221.131 375.643,219.131 373.5,217.5C 372.809,215.978 371.642,214.978 370,214.5C 360.887,218.608 353.22,224.608 347,232.5C 345.149,236.203 343.315,239.87 341.5,243.5C 341.667,244.167 341.833,244.833 342,245.5C 343.333,243.5 345,241.833 347,240.5C 345.176,245.836 343.01,251.169 340.5,256.5C 341.889,258.868 343.222,261.201 344.5,263.5C 343.542,263.953 342.708,264.619 342,265.5C 340.333,262.879 338.666,260.213 337,257.5C 336.097,256.299 334.931,255.465 333.5,255C 333.833,254.667 334.167,254.333 334.5,254C 332.19,253.503 329.857,253.337 327.5,253.5C 327.67,252.178 327.337,251.011 326.5,250C 324.028,248.604 321.362,247.77 318.5,247.5C 311.802,249.954 305.136,249.954 298.5,247.5C 297.978,248.831 296.144,249.831 293,250.5C 291.301,249.594 289.467,249.261 287.5,249.5C 287.918,248.778 288.584,248.278 289.5,248C 279.681,248.885 270.014,247.885 260.5,245C 243.99,239.4 233.824,228.233 230,211.5C 236.167,223 245,231.833 256.5,238C 285.144,247.674 310.31,242.174 332,221.5C 331.253,223.976 329.919,226.309 328,228.5C 324.5,231.667 321,234.833 317.5,238C 313.039,240.064 308.706,242.398 304.5,245C 309.833,245.667 315.167,245.667 320.5,245C 326.444,241.389 332.111,237.389 337.5,233C 345.71,223.113 355.376,215.113 366.5,209C 357.301,203.154 347.468,198.654 337,195.5C 336.167,195.833 335.333,196.167 334.5,196.5C 335.889,200.067 335.389,203.401 333,206.5C 320.705,224.566 303.538,233.566 281.5,233.5C 255.925,233.648 238.425,221.981 229,198.5C 222.788,201.356 216.621,204.356 210.5,207.5C 215.928,213.584 220.928,219.917 225.5,226.5C 227.501,229.168 229.001,232.168 230,235.5C 230.654,234.304 231.154,234.304 231.5,235.5C 231.08,237.326 231.08,239.326 231.5,241.5C 230.5,241.5 229.5,241.5 228.5,241.5C 227,237.827 225,234.494 222.5,231.5C 216.841,225.165 211.507,218.499 206.5,211.5C 199.816,216.553 194.816,222.886 191.5,230.5C 190.008,230.287 188.342,230.287 186.5,230.5C 185.76,233.651 184.26,236.318 182,238.5C 181.601,238.272 181.435,237.938 181.5,237.5C 186.234,225.118 193.901,215.118 204.5,207.5C 207.339,206.679 209.672,205.013 211.5,202.5C 217.458,200.405 223.124,197.739 228.5,194.5C 229.753,191.365 229.42,188.365 227.5,185.5C 228.992,183.028 229.658,180.361 229.5,177.5C 230.619,184.56 232.453,191.56 235,198.5C 240.854,212.357 251.02,221.191 265.5,225C 311.556,227.444 334.222,205.611 333.5,159.5C 334.324,163.312 334.824,167.312 335,171.5C 341.969,171.35 346.469,168.017 348.5,161.5C 348.369,162.239 348.536,162.906 349,163.5C 350.355,160.357 351.855,157.357 353.5,154.5 Z"/></g>
<g><path style="opacity:1" fill="#464814" d="M 222.5,231.5 C 222.53,232.497 222.03,233.164 221,233.5C 217.999,232.082 214.832,231.249 211.5,231C 204.617,230.649 197.95,230.482 191.5,230.5C 194.816,222.886 199.816,216.553 206.5,211.5C 211.507,218.499 216.841,225.165 222.5,231.5 Z"/></g>
<g><path style="opacity:1" fill="#685419" d="M 255.5,189.5 C 255.833,189.5 256.167,189.5 256.5,189.5C 257.659,190.456 258.826,191.456 260,192.5C 262.724,191.313 265.557,190.647 268.5,190.5C 265.346,192.002 262.013,193.336 258.5,194.5C 257.237,192.971 256.237,191.305 255.5,189.5 Z"/></g>
<g><path style="opacity:1" fill="#957b35" d="M 268.5,190.5 C 271.142,188.52 274.142,187.686 277.5,188C 274.688,189.549 271.688,190.382 268.5,190.5 Z"/></g>
<g><path style="opacity:1" fill="#73591a" d="M 305.5,177.5 C 306.492,177.328 307.158,177.662 307.5,178.5C 306.417,182.618 303.917,183.618 300,181.5C 289.808,184.407 289.308,183.74 298.5,179.5C 300.473,180.331 302.473,180.498 304.5,180C 305.252,179.329 305.586,178.496 305.5,177.5 Z"/></g>
<g><path style="opacity:1" fill="#302c04" d="M 225.5,226.5 C 230.965,231.464 236.298,236.63 241.5,242C 249.543,247.29 258.21,251.124 267.5,253.5C 274.051,251.528 280.717,250.195 287.5,249.5C 289.467,249.261 291.301,249.594 293,250.5C 296.144,249.831 297.978,248.831 298.5,247.5C 305.136,249.954 311.802,249.954 318.5,247.5C 321.362,247.77 324.028,248.604 326.5,250C 327.337,251.011 327.67,252.178 327.5,253.5C 329.857,253.337 332.19,253.503 334.5,254C 334.167,254.333 333.833,254.667 333.5,255C 334.931,255.465 336.097,256.299 337,257.5C 338.666,260.213 340.333,262.879 342,265.5C 342.708,264.619 343.542,263.953 344.5,263.5C 345.737,264.965 346.737,266.632 347.5,268.5C 346.47,269.552 345.803,270.886 345.5,272.5C 347.488,277.386 347.822,282.386 346.5,287.5C 345.158,289.005 343.492,289.672 341.5,289.5C 341.5,288.167 341.5,286.833 341.5,285.5C 333.848,285.684 326.348,285.684 319,285.5C 315.785,285.509 312.952,286.509 310.5,288.5C 309.197,287.282 308.197,287.615 307.5,289.5C 306.304,288.441 305.637,287.107 305.5,285.5C 306.19,281.547 306.19,277.547 305.5,273.5C 303.881,276.548 302.881,279.881 302.5,283.5C 300.958,270.395 294.458,260.728 283,254.5C 262.216,259.874 241.716,266.04 221.5,273C 212.807,276.677 205.14,281.844 198.5,288.5C 198.167,288.167 197.833,287.833 197.5,287.5C 198.782,285.821 199.782,283.987 200.5,282C 196.65,283.164 192.65,283.498 188.5,283C 186.569,282.098 184.903,280.931 183.5,279.5C 183.351,278.448 183.517,277.448 184,276.5C 185.073,276.201 186.24,276.201 187.5,276.5C 187.577,277.75 188.244,278.583 189.5,279C 194.873,278.673 200.206,277.673 205.5,276C 216.929,268.798 229.262,263.631 242.5,260.5C 231.998,240.985 215.664,232.652 193.5,235.5C 196.768,234.178 200.435,233.511 204.5,233.5C 213.23,233.859 221.23,236.526 228.5,241.5C 229.5,241.5 230.5,241.5 231.5,241.5C 231.08,239.326 231.08,237.326 231.5,235.5C 231.154,234.304 230.654,234.304 230,235.5C 229.001,232.168 227.501,229.168 225.5,226.5 Z"/></g>
<g><path style="opacity:1" fill="#343305" d="M 191.5,230.5 C 197.95,230.482 204.617,230.649 211.5,231C 214.832,231.249 217.999,232.082 221,233.5C 222.03,233.164 222.53,232.497 222.5,231.5C 225,234.494 227,237.827 228.5,241.5C 221.23,236.526 213.23,233.859 204.5,233.5C 200.435,233.511 196.768,234.178 193.5,235.5C 190.856,235.16 188.523,235.827 186.5,237.5C 185.509,241.445 185.176,245.445 185.5,249.5C 183.645,251.033 181.812,252.7 180,254.5C 179.833,255.333 179.667,256.167 179.5,257C 179.684,258.376 180.351,259.209 181.5,259.5C 181.389,260.117 181.056,260.617 180.5,261C 181.737,261.232 182.737,261.732 183.5,262.5C 180.867,263.66 180.034,265.66 181,268.5C 181.816,269.823 182.983,270.489 184.5,270.5C 185.9,271.1 186.9,272.1 187.5,273.5C 187.5,274.5 187.5,275.5 187.5,276.5C 186.24,276.201 185.073,276.201 184,276.5C 183.517,277.448 183.351,278.448 183.5,279.5C 182.835,277.631 182.169,275.631 181.5,273.5C 179.651,272.407 177.984,271.074 176.5,269.5C 172.932,282.089 172.599,294.755 175.5,307.5C 176.63,309.315 177.296,311.315 177.5,313.5C 175.908,314.602 175.075,313.935 175,311.5C 174.667,312.5 174.333,313.5 174,314.5C 173.667,314.167 173.333,313.833 173,313.5C 168.02,295.816 168.853,277.65 175.5,259C 175.492,257.293 175.158,255.793 174.5,254.5C 176.045,248.423 178.378,242.756 181.5,237.5C 181.435,237.938 181.601,238.272 182,238.5C 184.26,236.318 185.76,233.651 186.5,230.5C 188.342,230.287 190.008,230.287 191.5,230.5 Z"/></g>
<g><path style="opacity:1" fill="#3d2f09" d="M 193.5,235.5 C 191.481,236.933 189.314,238.267 187,239.5C 186.51,240.793 186.343,242.127 186.5,243.5C 194.399,241.74 202.399,241.24 210.5,242C 214.746,242.799 218.412,244.633 221.5,247.5C 218.374,248.419 215.374,247.919 212.5,246C 203.145,244.721 194.145,245.888 185.5,249.5C 185.176,245.445 185.509,241.445 186.5,237.5C 188.523,235.827 190.856,235.16 193.5,235.5 Z"/></g>
<g><path style="opacity:1" fill="#302e05" d="M 274.5,44.5 C 294.425,51.3984 314.758,56.8984 335.5,61C 343.413,63.8725 350.247,68.3725 356,74.5C 368.471,92.2144 365.471,106.548 347,117.5C 346.55,119.519 345.717,121.352 344.5,123C 345.066,123.995 345.733,124.828 346.5,125.5C 350.382,131.561 354.882,137.227 360,142.5C 362.786,148.983 364.953,155.65 366.5,162.5C 370.293,163.88 374.126,165.213 378,166.5C 378.454,178.406 372.621,184.906 360.5,186C 361.775,189.955 361.775,193.955 360.5,198C 365.544,202.278 370.71,206.445 376,210.5C 382.164,217.826 386.497,226.16 389,235.5C 393.574,265.488 389.907,294.488 378,322.5C 374.615,331.547 369.282,339.213 362,345.5C 361.143,353.829 360.809,362.162 361,370.5C 363.193,374.23 365.36,377.897 367.5,381.5C 377.989,408.789 385.989,436.789 391.5,465.5C 391.333,467.167 391.167,468.833 391,470.5C 387.073,474.646 382.239,476.979 376.5,477.5C 379.362,501.281 380.029,525.115 378.5,549C 380.99,553.473 382.49,558.307 383,563.5C 383.801,571.912 383.634,580.245 382.5,588.5C 381.833,581.988 381.167,575.321 380.5,568.5C 379.914,568.709 379.414,569.043 379,569.5C 378.828,576.013 378.328,582.347 377.5,588.5C 377.5,578.833 377.5,569.167 377.5,559.5C 377.5,554.167 377.5,548.833 377.5,543.5C 376.5,543.5 375.5,543.5 374.5,543.5C 374.667,532.828 374.5,522.161 374,511.5C 372.67,501.203 371.836,490.87 371.5,480.5C 345.427,485.939 319.094,489.606 292.5,491.5C 292.53,495.618 293.197,499.618 294.5,503.5C 296.168,510.837 297.834,518.171 299.5,525.5C 298.413,524.399 297.08,524.399 295.5,525.5C 297.983,530.1 298.983,534.766 298.5,539.5C 293.725,524.066 289.725,508.399 286.5,492.5C 279.945,491.816 273.445,491.149 267,490.5C 262.222,509.111 257.056,527.611 251.5,546C 256.918,556.503 259.751,567.67 260,579.5C 259.303,581.584 258.136,583.251 256.5,584.5C 255.453,583.922 255.62,583.256 257,582.5C 258.425,573.066 256.592,564.399 251.5,556.5C 254.096,550.95 252.429,548.116 246.5,548C 247.774,547.023 247.774,546.189 246.5,545.5C 251.677,531.963 255.01,517.963 256.5,503.5C 258.271,502.965 258.604,502.131 257.5,501C 259.241,493.772 261.407,486.605 264,479.5C 264.604,465.846 263.604,452.512 261,439.5C 260.165,447.698 258.331,455.531 255.5,463C 256.477,471.517 255.477,479.85 252.5,488C 229.21,488.441 206.543,484.941 184.5,477.5C 184.148,475.295 183.148,473.462 181.5,472C 181.728,471.601 182.062,471.435 182.5,471.5C 204.195,478.742 226.528,482.076 249.5,481.5C 249.334,477.154 249.501,472.821 250,468.5C 254.165,441.508 258.165,414.508 262,387.5C 265.342,420.129 268.508,452.795 271.5,485.5C 301.849,485.805 331.849,482.805 361.5,476.5C 370.514,474.951 378.847,471.784 386.5,467C 381.515,444.232 375.348,421.732 368,399.5C 365.18,391.028 361.68,382.861 357.5,375C 347.708,377.418 337.708,378.918 327.5,379.5C 326.596,378.791 326.263,377.791 326.5,376.5C 313.196,377.425 299.863,377.758 286.5,377.5C 287.005,370.676 287.671,364.009 288.5,357.5C 288.5,363.833 288.5,370.167 288.5,376.5C 297.017,376.826 305.35,376.493 313.5,375.5C 313.833,375.5 314.167,375.5 314.5,375.5C 328.264,375.54 341.597,373.206 354.5,368.5C 355.454,362.896 355.788,357.229 355.5,351.5C 347.18,354.038 338.68,355.704 330,356.5C 319.808,355.682 309.641,354.682 299.5,353.5C 299.209,352.351 298.376,351.684 297,351.5C 294.112,351.023 291.279,350.356 288.5,349.5C 287.833,350.167 287.167,350.833 286.5,351.5C 285.735,350.388 284.735,349.721 283.5,349.5C 283.5,348.167 283.5,346.833 283.5,345.5C 277.633,345.394 271.966,344.394 266.5,342.5C 267.204,340.899 268.371,339.565 270,338.5C 270.561,339.022 271.228,339.355 272,339.5C 273.077,338.571 274.244,337.904 275.5,337.5C 285.705,341.678 296.205,345.011 307,347.5C 341.046,357.976 364.046,346.643 376,313.5C 378.666,302.845 381.332,292.178 384,281.5C 385.499,268.201 385.832,254.867 385,241.5C 383.105,235.381 380.938,229.381 378.5,223.5C 379.675,223.719 380.675,223.386 381.5,222.5C 378.854,220.868 377.521,218.535 377.5,215.5C 376.167,215.5 374.833,215.5 373.5,215.5C 373.762,214.022 373.429,212.689 372.5,211.5C 370.744,211.64 369.078,211.14 367.5,210C 368.624,209.751 369.624,209.251 370.5,208.5C 366.914,205.459 363.081,202.792 359,200.5C 357.817,201.731 356.651,201.731 355.5,200.5C 356.689,199.571 358.022,199.238 359.5,199.5C 359.5,196.833 359.5,194.167 359.5,191.5C 358.5,191.5 357.5,191.5 356.5,191.5C 355.316,187.09 353.983,182.757 352.5,178.5C 362.351,182.557 369.351,180.224 373.5,171.5C 369.378,170.944 365.878,169.278 363,166.5C 360.238,160.465 358.238,154.132 357,147.5C 352.333,142.167 347.667,136.833 343,131.5C 340.473,127.779 338.473,123.779 337,119.5C 335.833,118.333 334.667,117.167 333.5,116C 325.402,112.889 317.068,111.223 308.5,111C 310.459,117.878 312.626,124.712 315,131.5C 317.56,136.116 320.727,140.282 324.5,144C 332.447,148.709 341.113,151.043 350.5,151C 352.426,151.422 353.426,152.589 353.5,154.5C 351.855,157.357 350.355,160.357 349,163.5C 348.536,162.906 348.369,162.239 348.5,161.5C 348.5,159.5 348.5,157.5 348.5,155.5C 345.833,155.5 343.167,155.5 340.5,155.5C 340.769,157.429 340.269,159.095 339,160.5C 337.981,158.498 337.148,156.498 336.5,154.5C 334.77,153.088 333.27,153.422 332,155.5C 329.333,153.5 326.667,151.5 324,149.5C 323.262,145.23 321.096,143.23 317.5,143.5C 316.833,143.5 316.167,143.5 315.5,143.5C 314,139.827 312,136.494 309.5,133.5C 307.039,125.992 305.039,118.326 303.5,110.5C 291.506,108.339 279.506,108.006 267.5,109.5C 254.782,110.676 242.782,114.01 231.5,119.5C 230.178,119.33 229.011,119.663 228,120.5C 227.243,122.315 226.41,123.981 225.5,125.5C 225.413,119.062 224.58,119.062 223,125.5C 222.667,124.5 222.333,123.5 222,122.5C 220.374,125.128 218.374,127.461 216,129.5C 215.021,133.423 215.521,137.09 217.5,140.5C 217.043,141.298 216.376,141.631 215.5,141.5C 214.883,141.389 214.383,141.056 214,140.5C 213.109,137.521 212.276,134.521 211.5,131.5C 212.701,126.661 213.701,121.827 214.5,117C 213.106,116.044 212.439,114.711 212.5,113C 212.943,111.175 213.277,109.342 213.5,107.5C 214.117,105.771 215.117,104.271 216.5,103C 222.36,98.2375 228.693,94.2375 235.5,91C 255.755,84.7128 276.422,82.8795 297.5,85.5C 307.02,88.3906 316.686,91.224 326.5,94C 331,97.1667 335.5,100.333 340,103.5C 342.287,106.072 343.453,109.072 343.5,112.5C 347.384,111.552 350.717,109.552 353.5,106.5C 360.531,93.2668 358.198,81.7668 346.5,72C 338.851,67.1704 330.518,64.0037 321.5,62.5C 302.035,59.0675 283.035,53.9008 264.5,47C 255.88,45.5357 247.213,45.2024 238.5,46C 225.829,49.8447 215.495,57.0113 207.5,67.5C 207.586,66.5041 207.252,65.6708 206.5,65C 208.54,62.8149 209.874,60.3149 210.5,57.5C 215.023,57.973 217.357,55.973 217.5,51.5C 225.526,48.3315 234.193,45.1649 243.5,42C 252.858,41.4793 262.024,42.646 271,45.5C 272.385,45.4857 273.551,45.1524 274.5,44.5 Z"/></g>
<g><path style="opacity:1" fill="#e6a63f" d="M 309.5,133.5 C 307.833,133.5 306.167,133.5 304.5,133.5C 304.5,134.5 304.5,135.5 304.5,136.5C 303.209,136.737 302.209,136.404 301.5,135.5C 301.844,131.866 300.177,130.2 296.5,130.5C 290.187,132.988 283.854,135.488 277.5,138C 274.883,138.822 272.216,139.322 269.5,139.5C 269.5,138.167 269.5,136.833 269.5,135.5C 269.5,133.5 269.5,131.5 269.5,129.5C 267.856,129.286 266.356,129.62 265,130.5C 263.334,128.597 261.5,128.263 259.5,129.5C 255.683,127.804 251.683,127.137 247.5,127.5C 247.66,129.199 247.494,130.866 247,132.5C 241.259,131.525 235.425,131.192 229.5,131.5C 230.799,127.63 231.466,123.63 231.5,119.5C 246.044,116.348 260.71,113.515 275.5,111C 272.635,110.817 269.969,110.317 267.5,109.5C 279.506,108.006 291.506,108.339 303.5,110.5C 305.039,118.326 307.039,125.992 309.5,133.5 Z"/></g>
<g><path style="opacity:1" fill="#c79331" d="M 267.5,109.5 C 269.969,110.317 272.635,110.817 275.5,111C 260.71,113.515 246.044,116.348 231.5,119.5C 242.782,114.01 254.782,110.676 267.5,109.5 Z"/></g>
<g><path style="opacity:1" fill="#464715" d="M 266.5,89.5 C 284.905,89.0578 302.905,91.5578 320.5,97C 329.374,100.217 336.04,105.884 340.5,114C 317.297,104.141 292.963,100.808 267.5,104C 248.857,106.155 231.524,111.989 215.5,121.5C 215.129,112.088 219.129,104.922 227.5,100C 240.13,94.6488 253.13,91.1488 266.5,89.5 Z"/></g>
<g><path style="opacity:1" fill="#e4ab45" d="M 193.5,235.5 C 215.664,232.652 231.998,240.985 242.5,260.5C 229.262,263.631 216.929,268.798 205.5,276C 200.206,277.673 194.873,278.673 189.5,279C 188.244,278.583 187.577,277.75 187.5,276.5C 187.5,275.5 187.5,274.5 187.5,273.5C 196.074,268.448 205.407,266.115 215.5,266.5C 215.376,265.893 215.043,265.56 214.5,265.5C 214.389,264.883 214.056,264.383 213.5,264C 208.648,263.185 203.981,263.352 199.5,264.5C 194.431,266.35 189.431,268.35 184.5,270.5C 182.983,270.489 181.816,269.823 181,268.5C 180.034,265.66 180.867,263.66 183.5,262.5C 194.463,256.641 206.13,254.808 218.5,257C 210.636,252.496 202.303,251.496 193.5,254C 189.354,255.574 185.354,257.407 181.5,259.5C 180.351,259.209 179.684,258.376 179.5,257C 179.667,256.167 179.833,255.333 180,254.5C 181.812,252.7 183.645,251.033 185.5,249.5C 194.145,245.888 203.145,244.721 212.5,246C 215.374,247.919 218.374,248.419 221.5,247.5C 218.412,244.633 214.746,242.799 210.5,242C 202.399,241.24 194.399,241.74 186.5,243.5C 186.343,242.127 186.51,240.793 187,239.5C 189.314,238.267 191.481,236.933 193.5,235.5 Z"/></g>
<g><path style="opacity:1" fill="#3b2d07" d="M 183.5,262.5 C 182.737,261.732 181.737,261.232 180.5,261C 181.056,260.617 181.389,260.117 181.5,259.5C 185.354,257.407 189.354,255.574 193.5,254C 202.303,251.496 210.636,252.496 218.5,257C 206.13,254.808 194.463,256.641 183.5,262.5 Z"/></g>
<g><path style="opacity:1" fill="#e6aa44" d="M 344.5,277.5 C 344.762,278.978 344.429,280.311 343.5,281.5C 340.308,280.134 336.974,279.301 333.5,279C 326.833,278.667 320.167,278.333 313.5,278C 311.544,276.388 309.544,276.222 307.5,277.5C 307.34,275.847 306.674,274.514 305.5,273.5C 303.313,265.642 298.98,259.142 292.5,254C 301.327,251.531 310.327,250.864 319.5,252C 333.407,255.073 341.74,263.573 344.5,277.5 Z"/></g>
<g><path style="opacity:1" fill="#ba9d5f" d="M 199.5,264.5 C 203.981,263.352 208.648,263.185 213.5,264C 214.056,264.383 214.389,264.883 214.5,265.5C 209.547,264.671 204.547,264.337 199.5,264.5 Z"/></g>
<g><path style="opacity:1" fill="#332704" d="M 199.5,264.5 C 204.547,264.337 209.547,264.671 214.5,265.5C 215.043,265.56 215.376,265.893 215.5,266.5C 205.407,266.115 196.074,268.448 187.5,273.5C 186.9,272.1 185.9,271.1 184.5,270.5C 189.431,268.35 194.431,266.35 199.5,264.5 Z"/></g>
<g><path style="opacity:1" fill="#424312" d="M 302.5,283.5 C 302.5,284.167 302.5,284.833 302.5,285.5C 297.056,285.474 292.556,287.808 289,292.5C 284.181,292.873 279.848,294.873 276,298.5C 275.586,298.043 275.086,297.709 274.5,297.5C 273.183,299.159 271.517,300.326 269.5,301C 248.607,310.374 226.774,316.541 204,319.5C 197.686,319.075 191.52,317.908 185.5,316C 183.109,314.691 183.109,313.691 185.5,313C 183.5,312.667 181.5,312.333 179.5,312C 179.833,311.667 180.167,311.333 180.5,311C 178.996,309.509 178.163,307.676 178,305.5C 177.925,307.935 177.092,308.602 175.5,307.5C 172.599,294.755 172.932,282.089 176.5,269.5C 177.984,271.074 179.651,272.407 181.5,273.5C 182.169,275.631 182.835,277.631 183.5,279.5C 184.903,280.931 186.569,282.098 188.5,283C 192.65,283.498 196.65,283.164 200.5,282C 199.782,283.987 198.782,285.821 197.5,287.5C 197.833,287.833 198.167,288.167 198.5,288.5C 205.14,281.844 212.807,276.677 221.5,273C 241.716,266.04 262.216,259.874 283,254.5C 294.458,260.728 300.958,270.395 302.5,283.5 Z"/></g>
<g><path style="opacity:1" fill="#414211" d="M 373.5,217.5 C 373.799,222.589 375.299,227.589 378,232.5C 378.659,246.255 377.826,259.922 375.5,273.5C 376.621,276.131 376.287,278.631 374.5,281C 375.357,281.689 376.023,282.522 376.5,283.5C 373.114,289.054 370.78,294.72 369.5,300.5C 367.615,304.511 365.281,308.344 362.5,312C 363.884,313.957 363.217,314.957 360.5,315C 358.468,317.869 356.134,320.536 353.5,323C 350.4,324.258 347.4,325.758 344.5,327.5C 343.914,327.291 343.414,326.957 343,326.5C 341.412,328.808 339.412,329.475 337,328.5C 335.56,330.046 333.727,330.879 331.5,331C 320.123,331.856 308.79,331.522 297.5,330C 289.822,327.663 282.155,325.329 274.5,323C 273.663,321.989 273.33,320.822 273.5,319.5C 275.674,319.08 277.674,319.08 279.5,319.5C 281.893,316.909 284.893,315.243 288.5,314.5C 289.386,313.675 289.719,312.675 289.5,311.5C 296.505,309.223 302.672,305.556 308,300.5C 308.207,296.911 308.707,293.411 309.5,290C 318.49,289.048 327.49,288.715 336.5,289C 343.055,291.204 348.555,295.038 353,300.5C 352.117,297.131 351.284,293.631 350.5,290C 351.332,282.518 350.332,275.352 347.5,268.5C 346.737,266.632 345.737,264.965 344.5,263.5C 343.222,261.201 341.889,258.868 340.5,256.5C 343.01,251.169 345.176,245.836 347,240.5C 345,241.833 343.333,243.5 342,245.5C 341.833,244.833 341.667,244.167 341.5,243.5C 343.315,239.87 345.149,236.203 347,232.5C 353.22,224.608 360.887,218.608 370,214.5C 371.642,214.978 372.809,215.978 373.5,217.5 Z"/></g>
<g><path style="opacity:1" fill="#f9d996" d="M -0.5,-0.5 C 68.8333,-0.5 138.167,-0.5 207.5,-0.5C 207.5,6.83333 207.5,14.1667 207.5,21.5C 210.167,21.5 212.833,21.5 215.5,21.5C 215.719,26.9053 214.719,32.0719 212.5,37C 213.032,39.0197 214.365,39.853 216.5,39.5C 216.714,37.8561 216.38,36.3561 215.5,35C 216.973,34.2904 217.64,33.1238 217.5,31.5C 220.144,31.1601 222.477,31.8267 224.5,33.5C 225.328,32.5853 226.328,31.9186 227.5,31.5C 229.223,32.5522 230.89,32.5522 232.5,31.5C 232.723,32.9667 233.056,34.4667 233.5,36C 232.833,36.3333 232.167,36.6667 231.5,37C 232.756,37.4169 233.423,38.2502 233.5,39.5C 230.739,41.1674 227.572,42.1674 224,42.5C 221.372,41.2119 219.205,41.8786 217.5,44.5C 219.924,46.7136 219.257,47.7136 215.5,47.5C 215.5,48.8333 215.5,50.1667 215.5,51.5C 197.696,65.5802 191.696,83.5802 197.5,105.5C 196.057,104.665 195.057,103.332 194.5,101.5C 193.833,97.8333 193.167,94.1667 192.5,90.5C 191.548,92.0453 191.215,93.712 191.5,95.5C 170.167,95.5 148.833,95.5 127.5,95.5C 127.5,122.167 127.5,148.833 127.5,175.5C 135.5,175.5 143.5,175.5 151.5,175.5C 151.5,178.167 151.5,180.833 151.5,183.5C 154.167,183.5 156.833,183.5 159.5,183.5C 159.5,186.167 159.5,188.833 159.5,191.5C 154.167,191.5 148.833,191.5 143.5,191.5C 143.5,196.833 143.5,202.167 143.5,207.5C 135.5,207.5 127.5,207.5 119.5,207.5C 119.5,210.167 119.5,212.833 119.5,215.5C 118.167,215.5 116.833,215.5 115.5,215.5C 115.5,216.833 115.5,218.167 115.5,219.5C 116.833,219.5 118.167,219.5 119.5,219.5C 119.5,226.167 119.5,232.833 119.5,239.5C 124.833,239.5 130.167,239.5 135.5,239.5C 135.5,244.833 135.5,250.167 135.5,255.5C 132.833,255.5 130.167,255.5 127.5,255.5C 127.5,271.5 127.5,287.5 127.5,303.5C 122.167,303.5 116.833,303.5 111.5,303.5C 111.5,314.167 111.5,324.833 111.5,335.5C 122.167,335.5 132.833,335.5 143.5,335.5C 143.5,342.167 143.5,348.833 143.5,355.5C 146.167,355.5 148.833,355.5 151.5,355.5C 151.5,356.833 151.5,358.167 151.5,359.5C 154.167,359.5 156.833,359.5 159.5,359.5C 159.5,362.167 159.5,364.833 159.5,367.5C 140.833,367.5 122.167,367.5 103.5,367.5C 103.5,366.167 103.5,364.833 103.5,363.5C 100.833,363.5 98.1667,363.5 95.5,363.5C 95.5,364.833 95.5,366.167 95.5,367.5C 92.8333,367.5 90.1667,367.5 87.5,367.5C 87.5,364.833 87.5,362.167 87.5,359.5C 84.8333,359.5 82.1667,359.5 79.5,359.5C 79.5,362.167 79.5,364.833 79.5,367.5C 78.1667,367.5 76.8333,367.5 75.5,367.5C 75.5,370.167 75.5,372.833 75.5,375.5C 76.8333,375.5 78.1667,375.5 79.5,375.5C 79.5,382.167 79.5,388.833 79.5,395.5C 76.8333,395.5 74.1667,395.5 71.5,395.5C 71.5,396.833 71.5,398.167 71.5,399.5C 68.8333,399.5 66.1667,399.5 63.5,399.5C 63.5,415.5 63.5,431.5 63.5,447.5C 68.8333,447.5 74.1667,447.5 79.5,447.5C 79.5,452.833 79.5,458.167 79.5,463.5C 75.5,463.5 71.5,463.5 67.5,463.5C 67.831,471.528 67.4977,479.528 66.5,487.5C 66.0799,484.384 65.0799,481.717 63.5,479.5C 63.5,474.167 63.5,468.833 63.5,463.5C 60.1667,463.5 56.8333,463.5 53.5,463.5C 53.5,474.167 53.5,484.833 53.5,495.5C 51.5,495.5 49.5,495.5 47.5,495.5C 48.5213,489.234 49.188,482.9 49.5,476.5C 48.5839,466.842 47.9172,457.175 47.5,447.5C 36.8333,447.5 26.1667,447.5 15.5,447.5C 15.5,452.833 15.5,458.167 15.5,463.5C 10.1667,463.5 4.83333,463.5 -0.5,463.5C -0.5,410.167 -0.5,356.833 -0.5,303.5C 10.1667,303.5 20.8333,303.5 31.5,303.5C 31.5,298.833 31.5,294.167 31.5,289.5C 25.4632,289.829 19.4632,289.496 13.5,288.5C 15.0049,287.158 15.6715,285.492 15.5,283.5C 31.5,283.5 47.5,283.5 63.5,283.5C 63.5,284.833 63.5,286.167 63.5,287.5C 68.8333,287.5 74.1667,287.5 79.5,287.5C 79.5,290.167 79.5,292.833 79.5,295.5C 90.1667,295.5 100.833,295.5 111.5,295.5C 111.5,292.833 111.5,290.167 111.5,287.5C 109.5,287.5 107.5,287.5 105.5,287.5C 104.833,266.167 104.167,266.167 103.5,287.5C 100.833,287.5 98.1667,287.5 95.5,287.5C 95.5,282.167 95.5,276.833 95.5,271.5C 93.5,271.5 91.5,271.5 89.5,271.5C 89.5,266.167 89.5,260.833 89.5,255.5C 87.5,255.5 85.5,255.5 83.5,255.5C 83.5,250.167 83.5,244.833 83.5,239.5C 78.8333,239.5 74.1667,239.5 69.5,239.5C 69.3461,232.07 70.0128,224.737 71.5,217.5C 74.1667,217.5 76.8333,217.5 79.5,217.5C 79.5,216.167 79.5,214.833 79.5,213.5C 70.7867,213.327 62.12,212.66 53.5,211.5C 53.6655,215.514 53.4988,219.514 53,223.5C 52.1707,212.854 51.6707,212.854 51.5,223.5C 44.8333,223.5 38.1667,223.5 31.5,223.5C 31.5,218.167 31.5,212.833 31.5,207.5C 42.1667,207.5 52.8333,207.5 63.5,207.5C 63.5,204.833 63.5,202.167 63.5,199.5C 68.8333,199.5 74.1667,199.5 79.5,199.5C 79.5,196.833 79.5,194.167 79.5,191.5C 74.1667,191.5 68.8333,191.5 63.5,191.5C 63.5,180.833 63.5,170.167 63.5,159.5C 58.1667,159.5 52.8333,159.5 47.5,159.5C 47.5,154.167 47.5,148.833 47.5,143.5C 52.8333,143.5 58.1667,143.5 63.5,143.5C 63.5,138.167 63.5,132.833 63.5,127.5C 66.1667,127.5 68.8333,127.5 71.5,127.5C 71.5,130.167 71.5,132.833 71.5,135.5C 74.1667,135.5 76.8333,135.5 79.5,135.5C 79.5,132.833 79.5,130.167 79.5,127.5C 84.8333,127.5 90.1667,127.5 95.5,127.5C 95.5,122.167 95.5,116.833 95.5,111.5C 100.833,111.5 106.167,111.5 111.5,111.5C 111.5,108.833 111.5,106.167 111.5,103.5C 114.167,103.5 116.833,103.5 119.5,103.5C 119.5,92.8333 119.5,82.1667 119.5,71.5C 116.833,71.5 114.167,71.5 111.5,71.5C 111.5,68.8333 111.5,66.1667 111.5,63.5C 119.5,63.5 127.5,63.5 135.5,63.5C 135.5,60.8333 135.5,58.1667 135.5,55.5C 132.833,55.5 130.167,55.5 127.5,55.5C 127.5,47.5 127.5,39.5 127.5,31.5C 132.833,31.5 138.167,31.5 143.5,31.5C 143.5,28.1667 143.5,24.8333 143.5,21.5C 148.833,21.5 154.167,21.5 159.5,21.5C 159.5,30.1667 159.5,38.8333 159.5,47.5C 154.167,47.5 148.833,47.5 143.5,47.5C 143.5,52.8333 143.5,58.1667 143.5,63.5C 151.5,63.5 159.5,63.5 167.5,63.5C 167.5,66.1667 167.5,68.8333 167.5,71.5C 170.167,71.5 172.833,71.5 175.5,71.5C 175.5,63.5 175.5,55.5 175.5,47.5C 180.833,47.5 186.167,47.5 191.5,47.5C 191.5,34.1667 191.5,20.8333 191.5,7.5C 127.5,7.5 63.5,7.5 -0.5,7.5C -0.5,4.83333 -0.5,2.16667 -0.5,-0.5 Z"/></g>
<g><path style="opacity:1" fill="#3a3c0b" d="M 302.5,285.5 C 303.439,288.941 303.772,292.275 303.5,295.5C 302.96,296.748 302.293,297.915 301.5,299C 278.248,310.284 254.248,319.951 229.5,328C 218.32,330.814 206.987,331.814 195.5,331C 193.391,329.354 191.057,328.188 188.5,327.5C 183.346,324.011 179.679,319.345 177.5,313.5C 177.296,311.315 176.63,309.315 175.5,307.5C 177.092,308.602 177.925,307.935 178,305.5C 178.163,307.676 178.996,309.509 180.5,311C 180.167,311.333 179.833,311.667 179.5,312C 181.5,312.333 183.5,312.667 185.5,313C 183.109,313.691 183.109,314.691 185.5,316C 191.52,317.908 197.686,319.075 204,319.5C 226.774,316.541 248.607,310.374 269.5,301C 271.517,300.326 273.183,299.159 274.5,297.5C 275.086,297.709 275.586,298.043 276,298.5C 279.848,294.873 284.181,292.873 289,292.5C 292.556,287.808 297.056,285.474 302.5,285.5 Z"/></g>
<g><path style="opacity:1" fill="#2c2d01" d="M 347.5,268.5 C 350.332,275.352 351.332,282.518 350.5,290C 351.284,293.631 352.117,297.131 353,300.5C 348.555,295.038 343.055,291.204 336.5,289C 327.49,288.715 318.49,289.048 309.5,290C 308.707,293.411 308.207,296.911 308,300.5C 302.672,305.556 296.505,309.223 289.5,311.5C 280.829,314.893 272.163,318.393 263.5,322C 259.292,321.74 255.959,323.24 253.5,326.5C 259.384,329.895 265.384,332.895 271.5,335.5C 269.825,335.132 268.158,335.798 266.5,337.5C 265.572,335.665 264.406,335.332 263,336.5C 260.305,335.067 257.471,334.067 254.5,333.5C 251.439,332.027 248.439,330.361 245.5,328.5C 232.815,332.953 219.815,335.953 206.5,337.5C 206.977,338.478 207.643,339.311 208.5,340C 219.571,344.178 230.904,345.678 242.5,344.5C 243.113,347.009 243.78,349.509 244.5,352C 242.494,354.048 241.494,353.548 241.5,350.5C 240.5,350.5 239.5,350.5 238.5,350.5C 229.536,350.302 220.869,348.968 212.5,346.5C 211.602,344.373 209.936,343.206 207.5,343C 207.833,342.667 208.167,342.333 208.5,342C 207.552,341.517 206.552,341.351 205.5,341.5C 204.885,346.526 204.051,351.526 203,356.5C 202.191,348.909 203.025,341.575 205.5,334.5C 204.758,333.713 203.925,333.047 203,332.5C 201.094,333.131 199.094,333.464 197,333.5C 193.759,333.003 190.592,332.336 187.5,331.5C 187.67,330.178 187.337,329.011 186.5,328C 187.094,327.536 187.761,327.369 188.5,327.5C 191.057,328.188 193.391,329.354 195.5,331C 206.987,331.814 218.32,330.814 229.5,328C 254.248,319.951 278.248,310.284 301.5,299C 302.293,297.915 302.96,296.748 303.5,295.5C 303.772,292.275 303.439,288.941 302.5,285.5C 302.5,284.833 302.5,284.167 302.5,283.5C 302.881,279.881 303.881,276.548 305.5,273.5C 306.19,277.547 306.19,281.547 305.5,285.5C 305.637,287.107 306.304,288.441 307.5,289.5C 308.197,287.615 309.197,287.282 310.5,288.5C 312.952,286.509 315.785,285.509 319,285.5C 326.348,285.684 333.848,285.684 341.5,285.5C 341.5,286.833 341.5,288.167 341.5,289.5C 343.492,289.672 345.158,289.005 346.5,287.5C 347.822,282.386 347.488,277.386 345.5,272.5C 345.803,270.886 346.47,269.552 347.5,268.5 Z"/></g>
<g><path style="opacity:1" fill="#cd9228" d="M 344.5,277.5 C 345.803,280.355 345.803,283.355 344.5,286.5C 342.705,284.297 340.371,283.131 337.5,283C 327.844,283.028 318.177,283.195 308.5,283.5C 308.483,281.435 308.15,279.435 307.5,277.5C 309.544,276.222 311.544,276.388 313.5,278C 320.167,278.333 326.833,278.667 333.5,279C 336.974,279.301 340.308,280.134 343.5,281.5C 344.429,280.311 344.762,278.978 344.5,277.5 Z"/></g>
<g><path style="opacity:1" fill="#393a09" d="M 373.5,217.5 C 375.643,219.131 377.31,221.131 378.5,223.5C 380.938,229.381 383.105,235.381 385,241.5C 385.832,254.867 385.499,268.201 384,281.5C 381.332,292.178 378.666,302.845 376,313.5C 364.046,346.643 341.046,357.976 307,347.5C 296.205,345.011 285.705,341.678 275.5,337.5C 274.329,336.655 272.995,335.989 271.5,335.5C 265.384,332.895 259.384,329.895 253.5,326.5C 255.959,323.24 259.292,321.74 263.5,322C 272.163,318.393 280.829,314.893 289.5,311.5C 289.719,312.675 289.386,313.675 288.5,314.5C 284.893,315.243 281.893,316.909 279.5,319.5C 277.674,319.08 275.674,319.08 273.5,319.5C 273.33,320.822 273.663,321.989 274.5,323C 282.155,325.329 289.822,327.663 297.5,330C 308.79,331.522 320.123,331.856 331.5,331C 333.727,330.879 335.56,330.046 337,328.5C 339.412,329.475 341.412,328.808 343,326.5C 343.414,326.957 343.914,327.291 344.5,327.5C 347.4,325.758 350.4,324.258 353.5,323C 356.134,320.536 358.468,317.869 360.5,315C 363.217,314.957 363.884,313.957 362.5,312C 365.281,308.344 367.615,304.511 369.5,300.5C 370.78,294.72 373.114,289.054 376.5,283.5C 376.023,282.522 375.357,281.689 374.5,281C 376.287,278.631 376.621,276.131 375.5,273.5C 377.826,259.922 378.659,246.255 378,232.5C 375.299,227.589 373.799,222.589 373.5,217.5 Z"/></g>
<g><path style="opacity:1" fill="#393909" d="M 254.5,333.5 C 257.438,335.977 260.771,337.977 264.5,339.5C 265.521,340.002 265.688,340.668 265,341.5C 258.582,340.357 252.082,340.19 245.5,341C 243.944,341.72 242.944,342.887 242.5,344.5C 230.904,345.678 219.571,344.178 208.5,340C 207.643,339.311 206.977,338.478 206.5,337.5C 219.815,335.953 232.815,332.953 245.5,328.5C 248.439,330.361 251.439,332.027 254.5,333.5 Z"/></g>
<g><path style="opacity:1" fill="#534005" d="M 314.5,375.5 C 314.611,374.883 314.944,374.383 315.5,374C 318.146,373.503 320.813,373.336 323.5,373.5C 323.577,370.988 322.577,368.988 320.5,367.5C 319.833,368.167 319.167,368.833 318.5,369.5C 313.739,367.63 308.739,366.963 303.5,367.5C 303.762,366.022 303.429,364.689 302.5,363.5C 299.891,362.77 297.224,362.27 294.5,362C 292.924,361.56 291.59,360.727 290.5,359.5C 289.505,364.792 289.172,370.125 289.5,375.5C 297.5,375.5 305.5,375.5 313.5,375.5C 305.35,376.493 297.017,376.826 288.5,376.5C 288.5,370.167 288.5,363.833 288.5,357.5C 288.5,356.167 288.5,354.833 288.5,353.5C 292.167,353.5 295.833,353.5 299.5,353.5C 309.641,354.682 319.808,355.682 330,356.5C 338.68,355.704 347.18,354.038 355.5,351.5C 355.788,357.229 355.454,362.896 354.5,368.5C 341.597,373.206 328.264,375.54 314.5,375.5 Z"/></g>
<g><path style="opacity:1" fill="#f7d694" d="M 159.5,367.5 C 164.833,367.5 170.167,367.5 175.5,367.5C 175.169,375.196 175.503,382.862 176.5,390.5C 179.616,383.616 181.616,383.95 182.5,391.5C 183.833,390.167 185.167,390.167 186.5,391.5C 187.254,388.615 188.92,386.615 191.5,385.5C 182.002,412.156 175.002,439.49 170.5,467.5C 171.15,472.677 174.15,475.344 179.5,475.5C 177.551,488.772 176.051,502.106 175,515.5C 174.183,527.723 174.683,539.89 176.5,552C 176.142,554.032 175.308,555.866 174,557.5C 173.56,568.226 174.227,578.893 176,589.5C 178.212,592.019 180.712,594.186 183.5,596C 187.745,616.317 193.079,636.317 199.5,656C 198.666,658.848 197,661.182 194.5,663C 187.538,668.475 180.204,673.308 172.5,677.5C 154.598,678.946 136.931,681.779 119.5,686C 98.2622,698.204 98.2622,710.204 119.5,722C 121.473,722.495 123.473,722.662 125.5,722.5C 126.842,723.793 128.509,724.626 130.5,725C 154.199,729.129 177.865,732.629 201.5,735.5C 134.5,735.5 67.5,735.5 0.5,735.5C 19.326,734.503 38.326,734.17 57.5,734.5C 57.5,729.167 57.5,723.833 57.5,718.5C 51.1667,718.5 44.8333,718.5 38.5,718.5C 38.5,710.5 38.5,702.5 38.5,694.5C 40.5,694.5 42.5,694.5 44.5,694.5C 43.9644,697.698 44.631,700.365 46.5,702.5C 47.5,702.5 48.5,702.5 49.5,702.5C 49.5,705.167 49.5,707.833 49.5,710.5C 50.5,710.5 51.5,710.5 52.5,710.5C 52.5,702.5 52.5,694.5 52.5,686.5C 58.5,686.5 64.5,686.5 70.5,686.5C 70.5,681.167 70.5,675.833 70.5,670.5C 62.5,670.5 54.5,670.5 46.5,670.5C 46.5,654.5 46.5,638.5 46.5,622.5C 50.5,622.5 54.5,622.5 58.5,622.5C 58.5,621.167 58.5,619.833 58.5,618.5C 62.5,618.5 66.5,618.5 70.5,618.5C 70.5,614.833 70.5,611.167 70.5,607.5C 61.5,607.5 52.5,607.5 43.5,607.5C 43.5,586.167 43.5,564.833 43.5,543.5C 55.5,543.5 67.5,543.5 79.5,543.5C 79.5,538.167 79.5,532.833 79.5,527.5C 76.5,527.5 73.5,527.5 70.5,527.5C 70.5,522.167 70.5,516.833 70.5,511.5C 70.5,506.167 70.5,500.833 70.5,495.5C 66.1667,495.5 61.8333,495.5 57.5,495.5C 57.5,487.5 57.5,479.5 57.5,471.5C 58.8333,471.5 60.1667,471.5 61.5,471.5C 60.9644,474.698 61.631,477.365 63.5,479.5C 65.0799,481.717 66.0799,484.384 66.5,487.5C 67.4977,479.528 67.831,471.528 67.5,463.5C 71.5,463.5 75.5,463.5 79.5,463.5C 79.5,458.167 79.5,452.833 79.5,447.5C 74.1667,447.5 68.8333,447.5 63.5,447.5C 63.5,431.5 63.5,415.5 63.5,399.5C 66.1667,399.5 68.8333,399.5 71.5,399.5C 71.5,398.167 71.5,396.833 71.5,395.5C 74.1667,395.5 76.8333,395.5 79.5,395.5C 79.5,388.833 79.5,382.167 79.5,375.5C 78.1667,375.5 76.8333,375.5 75.5,375.5C 75.5,372.833 75.5,370.167 75.5,367.5C 76.8333,367.5 78.1667,367.5 79.5,367.5C 79.5,364.833 79.5,362.167 79.5,359.5C 82.1667,359.5 84.8333,359.5 87.5,359.5C 87.5,362.167 87.5,364.833 87.5,367.5C 90.1667,367.5 92.8333,367.5 95.5,367.5C 95.5,366.167 95.5,364.833 95.5,363.5C 98.1667,363.5 100.833,363.5 103.5,363.5C 103.5,364.833 103.5,366.167 103.5,367.5C 122.167,367.5 140.833,367.5 159.5,367.5 Z"/></g>
<g><path style="opacity:1" fill="#614604" d="M 314.5,375.5 C 314.167,375.5 313.833,375.5 313.5,375.5C 305.5,375.5 297.5,375.5 289.5,375.5C 289.172,370.125 289.505,364.792 290.5,359.5C 291.59,360.727 292.924,361.56 294.5,362C 297.224,362.27 299.891,362.77 302.5,363.5C 303.429,364.689 303.762,366.022 303.5,367.5C 308.739,366.963 313.739,367.63 318.5,369.5C 319.167,368.833 319.833,368.167 320.5,367.5C 322.577,368.988 323.577,370.988 323.5,373.5C 320.813,373.336 318.146,373.503 315.5,374C 314.944,374.383 314.611,374.883 314.5,375.5 Z"/></g>
<g><path style="opacity:1" fill="#424412" d="M 315.5,381.5 C 327.449,380.722 335.949,385.722 341,396.5C 343.271,403.654 345.938,410.32 349,416.5C 352.157,427.464 355.157,438.464 358,449.5C 359.821,458.424 360.988,467.424 361.5,476.5C 331.849,482.805 301.849,485.805 271.5,485.5C 268.508,452.795 265.342,420.129 262,387.5C 258.165,414.508 254.165,441.508 250,468.5C 249.501,472.821 249.334,477.154 249.5,481.5C 226.528,482.076 204.195,478.742 182.5,471.5C 180.891,470.229 179.058,469.229 177,468.5C 179.099,447.429 183.432,426.762 190,406.5C 192.926,398.969 195.593,391.303 198,383.5C 199.806,378.554 202.139,373.888 205,369.5C 207.97,371.401 211.136,372.901 214.5,374C 223.189,375.538 231.856,377.205 240.5,379C 241.893,380.171 242.727,381.671 243,383.5C 244.419,384.46 245.919,385.293 247.5,386C 260.18,386.833 272.846,386.666 285.5,385.5C 286.167,384.5 286.833,383.5 287.5,382.5C 296.81,381.502 306.143,381.168 315.5,381.5 Z"/></g>
<g><path style="opacity:1" fill="#3a3b0b" d="M 361.5,476.5 C 360.988,467.424 359.821,458.424 358,449.5C 355.157,438.464 352.157,427.464 349,416.5C 345.938,410.32 343.271,403.654 341,396.5C 335.949,385.722 327.449,380.722 315.5,381.5C 319.5,380.833 323.5,380.167 327.5,379.5C 337.708,378.918 347.708,377.418 357.5,375C 361.68,382.861 365.18,391.028 368,399.5C 375.348,421.732 381.515,444.232 386.5,467C 378.847,471.784 370.514,474.951 361.5,476.5 Z"/></g>
<g><path style="opacity:1" fill="#f7da97" d="M 63.5,479.5 C 61.631,477.365 60.9644,474.698 61.5,471.5C 60.1667,471.5 58.8333,471.5 57.5,471.5C 57.5,479.5 57.5,487.5 57.5,495.5C 61.8333,495.5 66.1667,495.5 70.5,495.5C 70.5,500.833 70.5,506.167 70.5,511.5C 57.5,511.5 44.5,511.5 31.5,511.5C 31.5,519.5 31.5,527.5 31.5,535.5C 20.8333,535.5 10.1667,535.5 -0.5,535.5C -0.5,511.5 -0.5,487.5 -0.5,463.5C 4.83333,463.5 10.1667,463.5 15.5,463.5C 15.5,458.167 15.5,452.833 15.5,447.5C 26.1667,447.5 36.8333,447.5 47.5,447.5C 47.9172,457.175 48.5839,466.842 49.5,476.5C 49.188,482.9 48.5213,489.234 47.5,495.5C 49.5,495.5 51.5,495.5 53.5,495.5C 53.5,484.833 53.5,474.167 53.5,463.5C 56.8333,463.5 60.1667,463.5 63.5,463.5C 63.5,468.833 63.5,474.167 63.5,479.5 Z"/></g>
<g><path style="opacity:1" fill="#383a0b" d="M 246.5,545.5 C 244.598,549.057 241.598,551.057 237.5,551.5C 237.196,550.85 236.863,550.183 236.5,549.5C 238.734,544.588 240.067,539.421 240.5,534C 239.914,530.88 239.914,527.546 240.5,524C 241.401,519.898 242.234,519.731 243,523.5C 243.667,521.833 243.667,520.167 243,518.5C 241.844,519.993 241.01,519.826 240.5,518C 239.824,508.32 235.491,500.654 227.5,495C 224.567,493.729 221.901,492.062 219.5,490C 210.878,488.686 202.878,486.519 195.5,483.5C 194.833,483.833 194.167,484.167 193.5,484.5C 192.304,484.154 192.304,483.654 193.5,483C 191.89,481.505 190.224,481.339 188.5,482.5C 186.84,481.828 185.507,480.828 184.5,479.5C 184.5,478.833 184.5,478.167 184.5,477.5C 206.543,484.941 229.21,488.441 252.5,488C 255.477,479.85 256.477,471.517 255.5,463C 258.331,455.531 260.165,447.698 261,439.5C 263.604,452.512 264.604,465.846 264,479.5C 261.407,486.605 259.241,493.772 257.5,501C 258.604,502.131 258.271,502.965 256.5,503.5C 255.01,517.963 251.677,531.963 246.5,545.5 Z"/></g>
<g><path style="opacity:1" fill="#f7d692" d="M 298.5,539.5 C 298.328,540.492 298.662,541.158 299.5,541.5C 299.756,543.937 300.423,546.271 301.5,548.5C 299.806,550.554 298.639,552.888 298,555.5C 296.122,564.425 295.456,573.425 296,582.5C 296.736,585.32 298.402,587.32 301,588.5C 301.44,598.841 301.94,609.174 302.5,619.5C 303.439,630.499 304.439,641.499 305.5,652.5C 304.784,659.412 303.451,666.079 301.5,672.5C 289.5,672.5 277.5,672.5 265.5,672.5C 265.823,679.022 265.49,685.355 264.5,691.5C 264.61,683.475 264.276,675.475 263.5,667.5C 262.327,646.82 260.993,626.153 259.5,605.5C 258.593,598.485 257.593,591.485 256.5,584.5C 258.136,583.251 259.303,581.584 260,579.5C 259.751,567.67 256.918,556.503 251.5,546C 257.056,527.611 262.222,509.111 267,490.5C 273.445,491.149 279.945,491.816 286.5,492.5C 289.725,508.399 293.725,524.066 298.5,539.5 Z"/></g>
<g><path style="opacity:1" fill="#424312" d="M 357.5,558.5 C 340.453,561.401 324.12,559.234 308.5,552C 305.016,543.228 302.016,534.394 299.5,525.5C 297.834,518.171 296.168,510.837 294.5,503.5C 303.45,499.629 312.784,496.963 322.5,495.5C 326.544,496.005 330.544,496.671 334.5,497.5C 335.086,497.291 335.586,496.957 336,496.5C 345.066,499.571 351.566,505.404 355.5,514C 355.355,514.772 355.022,515.439 354.5,516C 355.416,516.374 356.25,516.874 357,517.5C 358.167,523.333 359.333,529.167 360.5,535C 360.477,540.137 360.477,545.303 360.5,550.5C 359.797,553.34 358.797,556.007 357.5,558.5 Z"/></g>
<g><path style="opacity:1" fill="#424312" d="M 184.5,479.5 C 185.507,480.828 186.84,481.828 188.5,482.5C 190.224,481.339 191.89,481.505 193.5,483C 192.304,483.654 192.304,484.154 193.5,484.5C 194.167,484.167 194.833,483.833 195.5,483.5C 202.878,486.519 210.878,488.686 219.5,490C 221.901,492.062 224.567,493.729 227.5,495C 235.491,500.654 239.824,508.32 240.5,518C 241.01,519.826 241.844,519.993 243,518.5C 243.667,520.167 243.667,521.833 243,523.5C 242.234,519.731 241.401,519.898 240.5,524C 239.914,527.546 239.914,530.88 240.5,534C 240.067,539.421 238.734,544.588 236.5,549.5C 236.863,550.183 237.196,550.85 237.5,551.5C 219.229,558.661 200.562,559.994 181.5,555.5C 179.604,529.902 180.604,504.569 184.5,479.5 Z"/></g>
<g><path style="opacity:1" fill="#383a0a" d="M 374.5,543.5 C 373.651,547.101 372.984,550.768 372.5,554.5C 367.66,556.294 362.66,557.627 357.5,558.5C 358.797,556.007 359.797,553.34 360.5,550.5C 360.477,545.303 360.477,540.137 360.5,535C 359.333,529.167 358.167,523.333 357,517.5C 356.25,516.874 355.416,516.374 354.5,516C 355.022,515.439 355.355,514.772 355.5,514C 351.566,505.404 345.066,499.571 336,496.5C 335.586,496.957 335.086,497.291 334.5,497.5C 330.544,496.671 326.544,496.005 322.5,495.5C 312.784,496.963 303.45,499.629 294.5,503.5C 293.197,499.618 292.53,495.618 292.5,491.5C 319.094,489.606 345.427,485.939 371.5,480.5C 371.836,490.87 372.67,501.203 374,511.5C 374.5,522.161 374.667,532.828 374.5,543.5 Z"/></g>
<g><path style="opacity:1" fill="#3c3213" d="M 299.5,541.5 C 301.357,543.261 302.357,545.594 302.5,548.5C 300.255,556.304 298.589,564.304 297.5,572.5C 297.878,574.135 298.544,575.635 299.5,577C 297.793,578.732 297.127,580.565 297.5,582.5C 298.874,586.313 299.707,585.98 300,581.5C 300.833,583.5 301.667,585.5 302.5,587.5C 303.823,598.326 303.823,608.993 302.5,619.5C 301.94,609.174 301.44,598.841 301,588.5C 298.402,587.32 296.736,585.32 296,582.5C 295.456,573.425 296.122,564.425 298,555.5C 298.639,552.888 299.806,550.554 301.5,548.5C 300.423,546.271 299.756,543.937 299.5,541.5 Z"/></g>
<g><path style="opacity:1" fill="#342f04" d="M 174.5,254.5 C 175.158,255.793 175.492,257.293 175.5,259C 168.853,277.65 168.02,295.816 173,313.5C 173.333,313.833 173.667,314.167 174,314.5C 174.333,313.5 174.667,312.5 175,311.5C 175.075,313.935 175.908,314.602 177.5,313.5C 179.679,319.345 183.346,324.011 188.5,327.5C 187.761,327.369 187.094,327.536 186.5,328C 187.337,329.011 187.67,330.178 187.5,331.5C 190.592,332.336 193.759,333.003 197,333.5C 199.094,333.464 201.094,333.131 203,332.5C 203.925,333.047 204.758,333.713 205.5,334.5C 203.025,341.575 202.191,348.909 203,356.5C 204.051,351.526 204.885,346.526 205.5,341.5C 206.552,341.351 207.552,341.517 208.5,342C 208.167,342.333 207.833,342.667 207.5,343C 209.936,343.206 211.602,344.373 212.5,346.5C 210.533,346.739 208.699,346.406 207,345.5C 206.19,352.082 206.357,358.582 207.5,365C 217.88,369.482 228.714,372.315 240,373.5C 241.078,365.565 240.578,357.898 238.5,350.5C 239.5,350.5 240.5,350.5 241.5,350.5C 241.494,353.548 242.494,354.048 244.5,352C 243.78,349.509 243.113,347.009 242.5,344.5C 242.944,342.887 243.944,341.72 245.5,341C 252.082,340.19 258.582,340.357 265,341.5C 265.688,340.668 265.521,340.002 264.5,339.5C 260.771,337.977 257.438,335.977 254.5,333.5C 257.471,334.067 260.305,335.067 263,336.5C 264.406,335.332 265.572,335.665 266.5,337.5C 268.158,335.798 269.825,335.132 271.5,335.5C 272.995,335.989 274.329,336.655 275.5,337.5C 274.244,337.904 273.077,338.571 272,339.5C 271.228,339.355 270.561,339.022 270,338.5C 268.371,339.565 267.204,340.899 266.5,342.5C 271.966,344.394 277.633,345.394 283.5,345.5C 283.5,346.833 283.5,348.167 283.5,349.5C 284.735,349.721 285.735,350.388 286.5,351.5C 287.167,350.833 287.833,350.167 288.5,349.5C 291.279,350.356 294.112,351.023 297,351.5C 298.376,351.684 299.209,352.351 299.5,353.5C 295.833,353.5 292.167,353.5 288.5,353.5C 288.5,354.833 288.5,356.167 288.5,357.5C 287.671,364.009 287.005,370.676 286.5,377.5C 299.863,377.758 313.196,377.425 326.5,376.5C 326.263,377.791 326.596,378.791 327.5,379.5C 323.5,380.167 319.5,380.833 315.5,381.5C 306.143,381.168 296.81,381.502 287.5,382.5C 286.833,383.5 286.167,384.5 285.5,385.5C 272.846,386.666 260.18,386.833 247.5,386C 245.919,385.293 244.419,384.46 243,383.5C 242.727,381.671 241.893,380.171 240.5,379C 231.856,377.205 223.189,375.538 214.5,374C 211.136,372.901 207.97,371.401 205,369.5C 202.139,373.888 199.806,378.554 198,383.5C 195.593,391.303 192.926,398.969 190,406.5C 183.432,426.762 179.099,447.429 177,468.5C 179.058,469.229 180.891,470.229 182.5,471.5C 182.062,471.435 181.728,471.601 181.5,472C 183.148,473.462 184.148,475.295 184.5,477.5C 184.5,478.167 184.5,478.833 184.5,479.5C 180.604,504.569 179.604,529.902 181.5,555.5C 200.562,559.994 219.229,558.661 237.5,551.5C 241.598,551.057 244.598,549.057 246.5,545.5C 247.774,546.189 247.774,547.023 246.5,548C 252.429,548.116 254.096,550.95 251.5,556.5C 256.592,564.399 258.425,573.066 257,582.5C 255.62,583.256 255.453,583.922 256.5,584.5C 257.593,591.485 258.593,598.485 259.5,605.5C 259.333,622.837 259.5,640.17 260,657.5C 261.103,660.98 262.269,664.313 263.5,667.5C 264.276,675.475 264.61,683.475 264.5,691.5C 263.752,695.417 261.418,697.917 257.5,699C 239.543,702.573 221.876,707.239 204.5,713C 186.776,716.497 169.109,716.33 151.5,712.5C 151.158,711.662 150.492,711.328 149.5,711.5C 147.132,710.217 144.965,708.55 143,706.5C 142.294,704.029 142.627,701.695 144,699.5C 146.5,695.667 149.667,692.5 153.5,690C 160.241,686.307 166.574,682.14 172.5,677.5C 180.204,673.308 187.538,668.475 194.5,663C 197,661.182 198.666,658.848 199.5,656C 193.079,636.317 187.745,616.317 183.5,596C 180.712,594.186 178.212,592.019 176,589.5C 174.227,578.893 173.56,568.226 174,557.5C 175.308,555.866 176.142,554.032 176.5,552C 174.683,539.89 174.183,527.723 175,515.5C 176.051,502.106 177.551,488.772 179.5,475.5C 174.15,475.344 171.15,472.677 170.5,467.5C 175.002,439.49 182.002,412.156 191.5,385.5C 193.77,378.956 196.603,372.623 200,366.5C 200.263,358.48 200.763,350.48 201.5,342.5C 201.514,340.407 200.848,338.574 199.5,337C 182.969,332.801 172.803,322.301 169,305.5C 166.075,287.967 167.908,270.967 174.5,254.5 Z"/></g>
<g><path style="opacity:1" fill="#9b6d0e" d="M 283.5,349.5 C 283.82,360.082 283.487,370.582 282.5,381C 271.5,381.667 260.5,381.667 249.5,381C 248.584,380.626 247.75,380.126 247,379.5C 245.879,373.939 245.379,368.273 245.5,362.5C 245.667,357.5 245.833,352.5 246,347.5C 246.5,347 247,346.5 247.5,346C 258.512,345.628 269.512,345.961 280.5,347C 281.373,348.045 282.373,348.878 283.5,349.5 Z"/></g>
<g><path style="opacity:1" fill="#5f4708" d="M 212.5,346.5 C 220.869,348.968 229.536,350.302 238.5,350.5C 240.578,357.898 241.078,365.565 240,373.5C 228.714,372.315 217.88,369.482 207.5,365C 206.357,358.582 206.19,352.082 207,345.5C 208.699,346.406 210.533,346.739 212.5,346.5 Z"/></g>
<g><path style="opacity:1" fill="#312a02" d="M 251.5,351.5 C 260.167,351.5 268.833,351.5 277.5,351.5C 277.5,359.833 277.5,368.167 277.5,376.5C 269.111,376.803 260.778,376.47 252.5,375.5C 251.502,367.528 251.169,359.528 251.5,351.5 Z"/></g>
<g><path style="opacity:1" fill="#5e4805" d="M 256.5,355.5 C 262.167,355.5 267.833,355.5 273.5,355.5C 273.5,360.833 273.5,366.167 273.5,371.5C 267.5,371.5 261.5,371.5 255.5,371.5C 256.275,366.203 256.608,360.87 256.5,355.5 Z"/></g>
<g><path style="opacity:1" fill="#5c4404" d="M 225.5,561.5 C 229.555,561.176 233.555,561.509 237.5,562.5C 239.503,569.528 241.503,576.528 243.5,583.5C 240.418,584.13 237.418,585.13 234.5,586.5C 233.007,587.141 232.007,588.141 231.5,589.5C 215.464,593.607 199.464,593.441 183.5,589C 182.333,588.5 181.5,587.667 181,586.5C 179.581,577.875 179.248,569.208 180,560.5C 187.084,562.952 194.418,563.952 202,563.5C 209.911,563.584 217.744,562.918 225.5,561.5 Z"/></g>
<g><path style="opacity:1" fill="#5c4403" d="M 329.5,564.5 C 339.408,565.161 349.408,566.161 359.5,567.5C 359.341,575.895 358.675,584.229 357.5,592.5C 350.197,593.497 342.863,593.831 335.5,593.5C 322.857,593.344 311.691,589.344 302,581.5C 301.27,573.004 302.104,564.671 304.5,556.5C 312.398,560.417 320.732,563.083 329.5,564.5 Z"/></g>
<g><path style="opacity:1" fill="#f9d996" d="M 70.5,511.5 C 70.5,516.833 70.5,522.167 70.5,527.5C 73.5,527.5 76.5,527.5 79.5,527.5C 79.5,532.833 79.5,538.167 79.5,543.5C 67.5,543.5 55.5,543.5 43.5,543.5C 43.5,564.833 43.5,586.167 43.5,607.5C 52.5,607.5 61.5,607.5 70.5,607.5C 70.5,611.167 70.5,614.833 70.5,618.5C 66.5,618.5 62.5,618.5 58.5,618.5C 58.5,619.833 58.5,621.167 58.5,622.5C 54.5,622.5 50.5,622.5 46.5,622.5C 46.5,638.5 46.5,654.5 46.5,670.5C 54.5,670.5 62.5,670.5 70.5,670.5C 70.5,675.833 70.5,681.167 70.5,686.5C 64.5,686.5 58.5,686.5 52.5,686.5C 52.5,694.5 52.5,702.5 52.5,710.5C 51.5,710.5 50.5,710.5 49.5,710.5C 49.5,707.833 49.5,705.167 49.5,702.5C 48.5,702.5 47.5,702.5 46.5,702.5C 46.5,697.167 46.5,691.833 46.5,686.5C 41.8333,686.5 37.1667,686.5 32.5,686.5C 32.5,697.167 32.5,707.833 32.5,718.5C 29.5,718.5 26.5,718.5 23.5,718.5C 23.5,716.5 23.5,714.5 23.5,712.5C 24.5,712.5 25.5,712.5 26.5,712.5C 26.5,703.833 26.5,695.167 26.5,686.5C 25.5,686.5 24.5,686.5 23.5,686.5C 23.5,681.167 23.5,675.833 23.5,670.5C 15.5,670.5 7.5,670.5 -0.5,670.5C -0.5,625.5 -0.5,580.5 -0.5,535.5C 10.1667,535.5 20.8333,535.5 31.5,535.5C 31.5,527.5 31.5,519.5 31.5,511.5C 44.5,511.5 57.5,511.5 70.5,511.5 Z"/></g>
<g><path style="opacity:1" fill="#513f05" d="M 231.5,589.5 C 232.007,588.141 233.007,587.141 234.5,586.5C 237.418,585.13 240.418,584.13 243.5,583.5C 241.503,576.528 239.503,569.528 237.5,562.5C 233.555,561.509 229.555,561.176 225.5,561.5C 232.894,558.917 240.227,555.917 247.5,552.5C 250.73,560.323 253.063,568.49 254.5,577C 251.707,581.418 247.707,584.418 242.5,586C 238.979,587.674 235.313,588.84 231.5,589.5 Z"/></g>
<g><path style="opacity:1" fill="#513f05" d="M 377.5,559.5 C 377.5,569.167 377.5,578.833 377.5,588.5C 376.317,589.504 374.984,590.338 373.5,591C 360.937,594.439 348.27,595.272 335.5,593.5C 342.863,593.831 350.197,593.497 357.5,592.5C 358.675,584.229 359.341,575.895 359.5,567.5C 349.408,566.161 339.408,565.161 329.5,564.5C 343.026,565.301 356.36,564.135 369.5,561C 371.901,560.205 374.068,559.038 376,557.5C 376.278,558.416 376.778,559.082 377.5,559.5 Z"/></g>
<g><path style="opacity:1" fill="#5c4403" d="M 251.5,694.5 C 232.299,699.3 212.965,704.134 193.5,709C 182.833,709.667 172.167,709.667 161.5,709C 157.581,708.465 153.914,707.298 150.5,705.5C 149.386,704.277 149.219,702.944 150,701.5C 159.816,691.833 170.983,684 183.5,678C 190.744,673.427 197.41,668.093 203.5,662C 206.167,661.333 208.833,661.333 211.5,662C 216.523,664.684 221.523,667.017 226.5,669C 221.338,664.668 215.505,661.501 209,659.5C 207.681,658.681 206.515,657.681 205.5,656.5C 200.215,640.649 195.548,624.649 191.5,608.5C 191.5,605.5 191.5,602.5 191.5,599.5C 204.564,599.581 217.564,600.414 230.5,602C 233.275,605.034 235.942,608.201 238.5,611.5C 240.038,615.076 241.205,619.076 242,623.5C 242.333,623.167 242.667,622.833 243,622.5C 245.951,646.53 248.785,670.53 251.5,694.5 Z"/></g>
<g><path style="opacity:1" fill="#4f3d04" d="M 251.5,694.5 C 248.785,670.53 245.951,646.53 243,622.5C 242.667,622.833 242.333,623.167 242,623.5C 241.205,619.076 240.038,615.076 238.5,611.5C 235.942,608.201 233.275,605.034 230.5,602C 217.564,600.414 204.564,599.581 191.5,599.5C 191.5,602.5 191.5,605.5 191.5,608.5C 189.918,605.124 189.251,601.458 189.5,597.5C 198.822,598.35 208.155,598.517 217.5,598C 229.106,596.098 240.439,593.265 251.5,589.5C 253.14,611.787 253.974,634.12 254,656.5C 257.633,668.228 258.966,680.228 258,692.5C 256.103,694.016 253.936,694.683 251.5,694.5 Z"/></g>
<g><path style="opacity:1" fill="#332f03" d="M 299.5,525.5 C 302.016,534.394 305.016,543.228 308.5,552C 324.12,559.234 340.453,561.401 357.5,558.5C 362.66,557.627 367.66,556.294 372.5,554.5C 372.984,550.768 373.651,547.101 374.5,543.5C 375.5,543.5 376.5,543.5 377.5,543.5C 377.5,548.833 377.5,554.167 377.5,559.5C 376.778,559.082 376.278,558.416 376,557.5C 374.068,559.038 371.901,560.205 369.5,561C 356.36,564.135 343.026,565.301 329.5,564.5C 320.732,563.083 312.398,560.417 304.5,556.5C 302.104,564.671 301.27,573.004 302,581.5C 311.691,589.344 322.857,593.344 335.5,593.5C 348.27,595.272 360.937,594.439 373.5,591C 374.984,590.338 376.317,589.504 377.5,588.5C 378.328,582.347 378.828,576.013 379,569.5C 379.414,569.043 379.914,568.709 380.5,568.5C 381.167,575.321 381.833,581.988 382.5,588.5C 381.371,592.342 378.871,595.009 375,596.5C 371.841,617.128 367.341,637.461 361.5,657.5C 365.715,665.05 371.049,671.717 377.5,677.5C 383.464,683.965 389.631,690.298 396,696.5C 400.306,701.431 401.972,707.097 401,713.5C 399.833,715.333 398.333,716.833 396.5,718C 379.503,723.889 362.503,723.889 345.5,718C 339.353,715.426 333.353,712.592 327.5,709.5C 319.274,705.718 311.274,701.385 303.5,696.5C 303,695.5 302.5,694.5 302,693.5C 301.5,686.508 301.334,679.508 301.5,672.5C 303.451,666.079 304.784,659.412 305.5,652.5C 304.439,641.499 303.439,630.499 302.5,619.5C 303.823,608.993 303.823,598.326 302.5,587.5C 301.667,585.5 300.833,583.5 300,581.5C 299.707,585.98 298.874,586.313 297.5,582.5C 297.127,580.565 297.793,578.732 299.5,577C 298.544,575.635 297.878,574.135 297.5,572.5C 298.589,564.304 300.255,556.304 302.5,548.5C 302.357,545.594 301.357,543.261 299.5,541.5C 298.662,541.158 298.328,540.492 298.5,539.5C 298.983,534.766 297.983,530.1 295.5,525.5C 297.08,524.399 298.413,524.399 299.5,525.5 Z"/></g>
<g><path style="opacity:1" fill="#5c4404" d="M 319.5,597.5 C 319.721,598.735 320.388,599.735 321.5,600.5C 325.482,601.298 329.482,601.965 333.5,602.5C 339.695,602.106 345.195,604.106 350,608.5C 351.536,614.749 351.87,621.083 351,627.5C 350.054,637.754 348.221,648.088 345.5,658.5C 338.597,660.107 331.93,662.607 325.5,666C 327.425,665.865 329.425,665.698 331.5,665.5C 335.182,665.335 338.848,665.501 342.5,666C 343.337,667.011 343.67,668.178 343.5,669.5C 346.167,670.167 348.833,670.833 351.5,671.5C 351.928,674.246 353.594,675.913 356.5,676.5C 359.66,678.828 362.327,681.661 364.5,685C 369.583,688.073 374.417,691.573 379,695.5C 379.725,693.842 380.892,693.342 382.5,694C 381.833,694.333 381.167,694.667 380.5,695C 387.187,697.188 391.52,701.688 393.5,708.5C 393.014,710.304 392.347,711.971 391.5,713.5C 391.389,714.117 391.056,714.617 390.5,715C 370.831,719.024 352.164,716.357 334.5,707C 325.383,702.25 316.383,697.417 307.5,692.5C 306.341,688.878 306.175,685.211 307,681.5C 307.651,671.934 309.151,662.601 311.5,653.5C 308.748,633.232 307.748,612.899 308.5,592.5C 312.353,593.996 316.019,595.662 319.5,597.5 Z"/></g>
<g><path style="opacity:1" fill="#e9d49a" d="M 259.5,605.5 C 260.993,626.153 262.327,646.82 263.5,667.5C 262.269,664.313 261.103,660.98 260,657.5C 259.5,640.17 259.333,622.837 259.5,605.5 Z"/></g>
<g><path style="opacity:1" fill="#352900" d="M 345.5,658.5 C 348.5,658.5 351.5,658.5 354.5,658.5C 354.5,659.5 354.5,660.5 354.5,661.5C 346.417,661.113 338.75,662.446 331.5,665.5C 329.425,665.698 327.425,665.865 325.5,666C 331.93,662.607 338.597,660.107 345.5,658.5 Z"/></g>
<g><path style="opacity:1" fill="#503e05" d="M 319.5,597.5 C 328.912,599.058 338.412,600.058 348,600.5C 354.63,600.385 361.13,599.385 367.5,597.5C 368.167,597.833 368.833,598.167 369.5,598.5C 365.52,617.234 361.354,635.901 357,654.5C 356.333,656.833 356.333,659.167 357,661.5C 359.667,665.5 362.333,669.5 365,673.5C 374.081,682.581 383.081,691.581 392,700.5C 393.471,703.101 394.637,705.767 395.5,708.5C 395.619,711.377 394.286,713.044 391.5,713.5C 392.347,711.971 393.014,710.304 393.5,708.5C 391.52,701.688 387.187,697.188 380.5,695C 381.167,694.667 381.833,694.333 382.5,694C 380.892,693.342 379.725,693.842 379,695.5C 374.417,691.573 369.583,688.073 364.5,685C 362.327,681.661 359.66,678.828 356.5,676.5C 353.594,675.913 351.928,674.246 351.5,671.5C 348.833,670.833 346.167,670.167 343.5,669.5C 343.67,668.178 343.337,667.011 342.5,666C 338.848,665.501 335.182,665.335 331.5,665.5C 338.75,662.446 346.417,661.113 354.5,661.5C 354.5,660.5 354.5,659.5 354.5,658.5C 351.5,658.5 348.5,658.5 345.5,658.5C 348.221,648.088 350.054,637.754 351,627.5C 351.87,621.083 351.536,614.749 350,608.5C 345.195,604.106 339.695,602.106 333.5,602.5C 329.482,601.965 325.482,601.298 321.5,600.5C 320.388,599.735 319.721,598.735 319.5,597.5 Z"/></g>
<g><path style="opacity:1" fill="#f7da97" d="M -0.5,670.5 C 7.5,670.5 15.5,670.5 23.5,670.5C 23.5,675.833 23.5,681.167 23.5,686.5C 24.5,686.5 25.5,686.5 26.5,686.5C 26.5,695.167 26.5,703.833 26.5,712.5C 25.5,712.5 24.5,712.5 23.5,712.5C 23.5,714.5 23.5,716.5 23.5,718.5C 26.5,718.5 29.5,718.5 32.5,718.5C 32.5,707.833 32.5,697.167 32.5,686.5C 37.1667,686.5 41.8333,686.5 46.5,686.5C 46.5,691.833 46.5,697.167 46.5,702.5C 44.631,700.365 43.9644,697.698 44.5,694.5C 42.5,694.5 40.5,694.5 38.5,694.5C 38.5,702.5 38.5,710.5 38.5,718.5C 44.8333,718.5 51.1667,718.5 57.5,718.5C 57.5,723.833 57.5,729.167 57.5,734.5C 38.326,734.17 19.326,734.503 0.5,735.5C 0.166667,735.5 -0.166667,735.5 -0.5,735.5C -0.5,713.833 -0.5,692.167 -0.5,670.5 Z"/></g>
<g><path style="opacity:1" fill="#e3b760" d="M 172.5,677.5 C 166.574,682.14 160.241,686.307 153.5,690C 149.667,692.5 146.5,695.667 144,699.5C 142.627,701.695 142.294,704.029 143,706.5C 144.965,708.55 147.132,710.217 149.5,711.5C 146.833,711.5 144.167,711.5 141.5,711.5C 141.666,706.489 141.499,701.489 141,696.5C 133.921,697.48 126.755,697.813 119.5,697.5C 119.5,698.833 119.5,700.167 119.5,701.5C 122.167,702.167 124.833,702.833 127.5,703.5C 127.663,708.547 127.329,713.547 126.5,718.5C 122.162,718.622 121.828,718.955 125.5,719.5C 125.5,720.5 125.5,721.5 125.5,722.5C 123.473,722.662 121.473,722.495 119.5,722C 98.2622,710.204 98.2622,698.204 119.5,686C 136.931,681.779 154.598,678.946 172.5,677.5 Z"/></g>
<g><path style="opacity:1" fill="#e3b75f" d="M 301.5,672.5 C 301.334,679.508 301.5,686.508 302,693.5C 302.5,694.5 303,695.5 303.5,696.5C 311.274,701.385 319.274,705.718 327.5,709.5C 325.737,710.63 323.904,710.63 322,709.5C 317.666,711.704 313.666,711.038 310,707.5C 309.333,708.833 308.667,710.167 308,711.5C 301.706,710.09 295.873,707.424 290.5,703.5C 283.927,703.002 277.593,703.002 271.5,703.5C 271.5,705.167 271.5,706.833 271.5,708.5C 270.448,708.649 269.448,708.483 268.5,708C 269.696,707.346 269.696,706.846 268.5,706.5C 266.052,707.803 264.552,709.803 264,712.5C 262.605,711.185 261.605,711.519 261,713.5C 259.156,711.829 258.49,709.829 259,707.5C 260.249,709.992 261.416,709.825 262.5,707C 261.5,706.5 260.5,706 259.5,705.5C 257.249,706.695 254.915,707.695 252.5,708.5C 251.614,709.325 251.281,710.325 251.5,711.5C 246.319,711.631 241.319,711.631 236.5,711.5C 236.177,716.03 234.177,717.197 230.5,715C 230.833,714 231.167,713 231.5,712C 229.189,712.155 226.856,712.155 224.5,712C 228.333,710.631 227.999,709.797 223.5,709.5C 217.282,712.442 210.949,715.109 204.5,717.5C 202.212,716.678 199.878,716.011 197.5,715.5C 185.817,716.786 174.15,718.12 162.5,719.5C 159.588,718.26 156.921,716.594 154.5,714.5C 152.863,715.444 151.863,714.777 151.5,712.5C 169.109,716.33 186.776,716.497 204.5,713C 221.876,707.239 239.543,702.573 257.5,699C 261.418,697.917 263.752,695.417 264.5,691.5C 265.49,685.355 265.823,679.022 265.5,672.5C 277.5,672.5 289.5,672.5 301.5,672.5 Z"/></g>
<g><path style="opacity:1" fill="#f7d68f" d="M 543.5,675.5 C 543.5,695.5 543.5,715.5 543.5,735.5C 482.833,735.5 422.167,735.5 361.5,735.5C 386.549,733.509 411.549,730.009 436.5,725C 448.75,721.705 460.417,717.039 471.5,711C 476.937,706.879 477.77,702.046 474,696.5C 470.855,694.024 467.688,691.69 464.5,689.5C 468.639,688.704 471.805,690.037 474,693.5C 475.401,691.808 477.234,691.141 479.5,691.5C 479.5,694.167 479.5,696.833 479.5,699.5C 480.833,699.5 482.167,699.5 483.5,699.5C 483.5,695.5 483.5,691.5 483.5,687.5C 484.833,687.5 486.167,687.5 487.5,687.5C 487.5,692.833 487.5,698.167 487.5,703.5C 490.167,703.5 492.833,703.5 495.5,703.5C 495.5,698.167 495.5,692.833 495.5,687.5C 500.833,687.5 506.167,687.5 511.5,687.5C 511.5,695.167 511.5,702.833 511.5,710.5C 512.833,710.5 514.167,710.5 515.5,710.5C 516.151,709.15 516.818,707.817 517.5,706.5C 515.766,700.29 515.099,693.956 515.5,687.5C 519.5,687.5 523.5,687.5 527.5,687.5C 527.5,683.5 527.5,679.5 527.5,675.5C 532.833,675.5 538.167,675.5 543.5,675.5 Z"/></g>
<g><path style="opacity:1" fill="#e5b85c" d="M 464.5,689.5 C 467.688,691.69 470.855,694.024 474,696.5C 477.77,702.046 476.937,706.879 471.5,711C 460.417,717.039 448.75,721.705 436.5,725C 411.549,730.009 386.549,733.509 361.5,735.5C 308.167,735.5 254.833,735.5 201.5,735.5C 177.865,732.629 154.199,729.129 130.5,725C 128.509,724.626 126.842,723.793 125.5,722.5C 125.5,721.5 125.5,720.5 125.5,719.5C 121.828,718.955 122.162,718.622 126.5,718.5C 127.329,713.547 127.663,708.547 127.5,703.5C 124.833,702.833 122.167,702.167 119.5,701.5C 119.5,700.167 119.5,698.833 119.5,697.5C 126.755,697.813 133.921,697.48 141,696.5C 141.499,701.489 141.666,706.489 141.5,711.5C 144.167,711.5 146.833,711.5 149.5,711.5C 150.492,711.328 151.158,711.662 151.5,712.5C 151.863,714.777 152.863,715.444 154.5,714.5C 156.921,716.594 159.588,718.26 162.5,719.5C 174.15,718.12 185.817,716.786 197.5,715.5C 199.878,716.011 202.212,716.678 204.5,717.5C 210.949,715.109 217.282,712.442 223.5,709.5C 227.999,709.797 228.333,710.631 224.5,712C 226.856,712.155 229.189,712.155 231.5,712C 231.167,713 230.833,714 230.5,715C 234.177,717.197 236.177,716.03 236.5,711.5C 241.319,711.631 246.319,711.631 251.5,711.5C 251.281,710.325 251.614,709.325 252.5,708.5C 254.915,707.695 257.249,706.695 259.5,705.5C 260.5,706 261.5,706.5 262.5,707C 261.416,709.825 260.249,709.992 259,707.5C 258.49,709.829 259.156,711.829 261,713.5C 261.605,711.519 262.605,711.185 264,712.5C 264.552,709.803 266.052,707.803 268.5,706.5C 269.696,706.846 269.696,707.346 268.5,708C 269.448,708.483 270.448,708.649 271.5,708.5C 271.5,706.833 271.5,705.167 271.5,703.5C 277.593,703.002 283.927,703.002 290.5,703.5C 295.873,707.424 301.706,710.09 308,711.5C 308.667,710.167 309.333,708.833 310,707.5C 313.666,711.038 317.666,711.704 322,709.5C 323.904,710.63 325.737,710.63 327.5,709.5C 333.353,712.592 339.353,715.426 345.5,718C 362.503,723.889 379.503,723.889 396.5,718C 398.333,716.833 399.833,715.333 401,713.5C 401.972,707.097 400.306,701.431 396,696.5C 389.631,690.298 383.464,683.965 377.5,677.5C 377.62,676.414 378.287,675.747 379.5,675.5C 408.482,676.608 436.815,681.275 464.5,689.5 Z"/></g>
</svg>
