<?xml version="1.0" encoding="UTF-8"?>
<!DOCTYPE svg PUBLIC "-//W3C//DTD SVG 1.1//EN" "http://www.w3.org/Graphics/SVG/1.1/DTD/svg11.dtd">
<svg xmlns="http://www.w3.org/2000/svg" version="1.1" width="544px" height="736px" style="shape-rendering:geometricPrecision; text-rendering:geometricPrecision; image-rendering:optimizeQuality; fill-rule:evenodd; clip-rule:evenodd" xmlns:xlink="http://www.w3.org/1999/xlink">
<g><path style="opacity:1" fill="#494615" d="M 279.5,-0.5 C 286.167,-0.5 292.833,-0.5 299.5,-0.5C 309.052,3.84071 318.052,9.34071 326.5,16C 333.5,19.6667 340.5,23.3333 347.5,27C 351.462,29.1399 354.796,31.9733 357.5,35.5C 355.801,35.3398 354.134,35.5065 352.5,36C 351.193,38.3237 349.193,39.657 346.5,40C 339.194,40.9422 331.86,41.4422 324.5,41.5C 302.941,31.8899 280.275,27.7232 256.5,29C 244.155,30.6714 232.488,34.3381 221.5,40C 215.481,44.2649 212.814,50.0983 213.5,57.5C 211.21,56.5329 209.21,55.1996 207.5,53.5C 196.869,44.0753 196.869,34.5753 207.5,25C 214.347,20.1634 221.68,16.1634 229.5,13C 237.485,11.7679 245.485,10.6012 253.5,9.5C 262.621,7.06571 271.288,3.73238 279.5,-0.5 Z"/></g>
<g><path style="opacity:1" fill="#f8d391" d="M 312.5,-0.5 C 376.167,-0.5 439.833,-0.5 503.5,-0.5C 503.171,5.53675 503.504,11.5368 504.5,17.5C 508.395,20.6268 510.728,24.6268 511.5,29.5C 519.481,28.1476 522.814,31.4809 521.5,39.5C 520.826,44.8527 520.159,50.186 519.5,55.5C 516.833,55.5 514.167,55.5 511.5,55.5C 511.5,53.5 511.5,51.5 511.5,49.5C 509.5,49.5 507.5,49.5 505.5,49.5C 505.5,53.5 505.5,57.5 505.5,61.5C 510.111,62.4851 514.778,63.1518 519.5,63.5C 519.932,81.5661 519.265,99.5661 517.5,117.5C 524.822,117.2 526.822,120.2 523.5,126.5C 519.5,127.167 515.5,127.833 511.5,128.5C 514.032,129.119 516.365,130.119 518.5,131.5C 519.487,134.768 519.82,138.102 519.5,141.5C 518.167,141.5 516.833,141.5 515.5,141.5C 515.762,140.022 515.429,138.689 514.5,137.5C 512.602,142.899 508.935,144.566 503.5,142.5C 502.047,139.702 501.047,136.702 500.5,133.5C 499.833,136.167 499.167,138.833 498.5,141.5C 497.158,143.005 495.492,143.672 493.5,143.5C 493.5,148.167 493.5,152.833 493.5,157.5C 499.798,156.923 505.798,157.923 511.5,160.5C 509.604,161.466 507.604,161.799 505.5,161.5C 505.5,166.167 505.5,170.833 505.5,175.5C 507.5,175.5 509.5,175.5 511.5,175.5C 511.5,186.167 511.5,196.833 511.5,207.5C 516.833,207.5 522.167,207.5 527.5,207.5C 527.5,212.833 527.5,218.167 527.5,223.5C 532.833,223.5 538.167,223.5 543.5,223.5C 543.5,228.833 543.5,234.167 543.5,239.5C 532.833,239.5 522.167,239.5 511.5,239.5C 511.5,244.833 511.5,250.167 511.5,255.5C 515.5,255.5 519.5,255.5 523.5,255.5C 523.5,260.833 523.5,266.167 523.5,271.5C 524.833,271.5 526.167,271.5 527.5,271.5C 527.5,276.833 527.5,282.167 527.5,287.5C 522.167,287.5 516.833,287.5 511.5,287.5C 506.167,287.5 500.833,287.5 495.5,287.5C 495.5,292.833 495.5,298.167 495.5,303.5C 490.167,303.5 484.833,303.5 479.5,303.5C 479.5,308.833 479.5,314.167 479.5,319.5C 474.167,319.5 468.833,319.5 463.5,319.5C 463.5,303.5 463.5,287.5 463.5,271.5C 455.5,271.5 447.5,271.5 439.5,271.5C 439.5,268.833 439.5,266.167 439.5,263.5C 436.833,263.5 434.167,263.5 431.5,263.5C 431.5,260.833 431.5,258.167 431.5,255.5C 428.212,255.927 425.212,255.26 422.5,253.5C 421.829,247.345 420.829,241.345 419.5,235.5C 418.167,235.5 416.833,235.5 415.5,235.5C 415.407,229.364 414.407,223.364 412.5,217.5C 411.191,219.891 410.191,219.891 409.5,217.5C 412.462,214.612 411.795,213.279 407.5,213.5C 407.5,212.167 407.5,210.833 407.5,209.5C 406.5,209.5 405.5,209.5 404.5,209.5C 402.992,207.819 401.992,205.819 401.5,203.5C 401.129,200.108 399.463,197.442 396.5,195.5C 393.896,187.951 389.563,181.618 383.5,176.5C 382.311,175.571 380.978,175.238 379.5,175.5C 379.5,173.5 379.5,171.5 379.5,169.5C 376.753,169.813 374.086,169.48 371.5,168.5C 370.167,166.5 368.833,164.5 367.5,162.5C 362.469,161.494 357.469,160.494 352.5,159.5C 350.447,159.598 348.78,158.931 347.5,157.5C 350.55,154.067 352.55,150.067 353.5,145.5C 357.257,145.714 357.924,144.714 355.5,142.5C 360.167,141.833 364.833,141.167 369.5,140.5C 371.833,138.167 374.167,135.833 376.5,133.5C 377.771,130.087 377.771,127.42 376.5,125.5C 372.546,123.527 368.713,121.194 365,118.5C 364.138,116.913 363.471,115.246 363,113.5C 362.805,107.436 362.139,101.436 361,95.5C 356.336,89.0073 351.169,83.0073 345.5,77.5C 357.074,75.5836 365.074,69.2503 369.5,58.5C 370.818,55.7425 371.485,52.5758 371.5,49C 371.167,45.8333 370.833,42.6667 370.5,39.5C 368.124,37.3732 367.124,34.7065 367.5,31.5C 363.5,31.5 361.5,29.5 361.5,25.5C 359.5,25.5 357.5,25.5 355.5,25.5C 340.328,18.0867 325.994,9.42 312.5,-0.5 Z"/></g>
<g><path style="opacity:1" fill="#f9d38e" d="M 503.5,-0.5 C 516.833,-0.5 530.167,-0.5 543.5,-0.5C 543.5,74.1667 543.5,148.833 543.5,223.5C 538.167,223.5 532.833,223.5 527.5,223.5C 527.5,218.167 527.5,212.833 527.5,207.5C 522.167,207.5 516.833,207.5 511.5,207.5C 511.5,196.833 511.5,186.167 511.5,175.5C 509.5,175.5 507.5,175.5 505.5,175.5C 505.5,170.833 505.5,166.167 505.5,161.5C 507.604,161.799 509.604,161.466 511.5,160.5C 505.798,157.923 499.798,156.923 493.5,157.5C 493.5,152.833 493.5,148.167 493.5,143.5C 495.492,143.672 497.158,143.005 498.5,141.5C 499.167,138.833 499.833,136.167 500.5,133.5C 501.047,136.702 502.047,139.702 503.5,142.5C 508.935,144.566 512.602,142.899 514.5,137.5C 515.429,138.689 515.762,140.022 515.5,141.5C 516.833,141.5 518.167,141.5 519.5,141.5C 519.82,138.102 519.487,134.768 518.5,131.5C 516.365,130.119 514.032,129.119 511.5,128.5C 515.5,127.833 519.5,127.167 523.5,126.5C 526.822,120.2 524.822,117.2 517.5,117.5C 519.265,99.5661 519.932,81.5661 519.5,63.5C 514.778,63.1518 510.111,62.4851 505.5,61.5C 505.5,57.5 505.5,53.5 505.5,49.5C 507.5,49.5 509.5,49.5 511.5,49.5C 511.5,51.5 511.5,53.5 511.5,55.5C 514.167,55.5 516.833,55.5 519.5,55.5C 520.159,50.186 520.826,44.8527 521.5,39.5C 522.814,31.4809 519.481,28.1476 511.5,29.5C 510.728,24.6268 508.395,20.6268 504.5,17.5C 503.504,11.5368 503.171,5.53675 503.5,-0.5 Z"/></g>
<g><path style="opacity:1" fill="#352d08" d="M 263.5,-0.5 C 268.833,-0.5 274.167,-0.5 279.5,-0.5C 271.288,3.73238 262.621,7.06571 253.5,9.5C 245.485,10.6012 237.485,11.7679 229.5,13C 221.68,16.1634 214.347,20.1634 207.5,25C 196.869,34.5753 196.869,44.0753 207.5,53.5C 207.513,56.8628 209.179,59.0295 212.5,60C 212.167,60.3333 211.833,60.6667 211.5,61C 218.614,61.2589 220.948,64.7589 218.5,71.5C 217.548,69.9547 217.215,68.288 217.5,66.5C 208.217,61.5505 200.884,54.5505 195.5,45.5C 192.87,35.9141 195.537,28.0807 203.5,22C 217.38,10.4826 233.38,4.48256 251.5,4C 255.952,3.39944 259.952,1.89944 263.5,-0.5 Z"/></g>
<g><path style="opacity:1" fill="#f8d38e" d="M -0.5,239.5 C -0.5,180.833 -0.5,122.167 -0.5,63.5C 4.83333,63.5 10.1667,63.5 15.5,63.5C 15.5,50.8333 15.5,38.1667 15.5,25.5C 14.0222,25.762 12.6888,25.4287 11.5,24.5C 15.1906,22.244 19.1906,21.244 23.5,21.5C 23.5,24.1667 23.5,26.8333 23.5,29.5C 24.9778,29.238 26.3112,29.5713 27.5,30.5C 24.2317,31.487 20.8984,31.8204 17.5,31.5C 17.7206,52.8703 17.0539,74.2036 15.5,95.5C 20.8333,95.5 26.1667,95.5 31.5,95.5C 31.5,100.833 31.5,106.167 31.5,111.5C 26.1667,111.5 20.8333,111.5 15.5,111.5C 16.0323,119.641 15.3657,127.641 13.5,135.5C 14.9917,137.972 15.6584,140.639 15.5,143.5C 20.8333,143.5 26.1667,143.5 31.5,143.5C 31.5,162.167 31.5,180.833 31.5,199.5C 34.1667,199.5 36.8333,199.5 39.5,199.5C 39.5,202.167 39.5,204.833 39.5,207.5C 31.5,207.5 23.5,207.5 15.5,207.5C 15.5,218.167 15.5,228.833 15.5,239.5C 10.1667,239.5 4.83333,239.5 -0.5,239.5 Z"/></g>
<g><path style="opacity:1" fill="#e6d09e" d="M 355.5,25.5 C 357.5,25.5 359.5,25.5 361.5,25.5C 361.5,29.5 363.5,31.5 367.5,31.5C 367.124,34.7065 368.124,37.3732 370.5,39.5C 370.833,42.6667 371.167,45.8333 371.5,49C 371.485,52.5758 370.818,55.7425 369.5,58.5C 371.623,47.7008 368.79,38.3675 361,30.5C 358.672,29.3365 356.838,27.6698 355.5,25.5 Z"/></g>
<g><path style="opacity:1" fill="#eaa946" d="M 243.5,52.5 C 244.919,51.5489 246.585,51.2155 248.5,51.5C 259.167,51.5 269.833,51.5 280.5,51.5C 289.651,52.3713 298.651,54.0379 307.5,56.5C 308.135,64.3069 309.635,71.9736 312,79.5C 314,82.1667 316,84.8333 318,87.5C 318.61,95.5188 318.443,103.519 317.5,111.5C 316.171,115.774 314.671,120.107 313,124.5C 311.54,127.21 309.54,127.876 307,126.5C 305.016,120.524 301.516,115.69 296.5,112C 293.5,111.333 290.5,111.333 287.5,112C 284.029,114.072 280.362,115.572 276.5,116.5C 276.737,115.209 276.404,114.209 275.5,113.5C 274.817,111.824 273.483,111.157 271.5,111.5C 271.335,116.84 268.668,120.34 263.5,122C 251.842,124.508 248.509,120.341 253.5,109.5C 256.086,106.816 257.753,103.483 258.5,99.5C 260.143,94.2663 261.143,88.933 261.5,83.5C 260.5,83.5 259.5,83.5 258.5,83.5C 257.178,83.33 256.011,83.6634 255,84.5C 254.069,86.4595 253.236,88.4595 252.5,90.5C 247.88,91.4933 243.214,91.8266 238.5,91.5C 238.33,92.8221 238.663,93.9887 239.5,95C 243.51,95.3568 247.51,95.1901 251.5,94.5C 250.18,100.962 248.347,107.295 246,113.5C 245.503,115.81 245.337,118.143 245.5,120.5C 243.563,121.931 241.73,123.598 240,125.5C 238.263,130.534 236.763,135.534 235.5,140.5C 233.837,138.507 232.67,136.174 232,133.5C 229.936,117.902 228.436,102.235 227.5,86.5C 227.5,85.5 227.5,84.5 227.5,83.5C 231.233,82.4724 234.899,81.139 238.5,79.5C 241.943,79.7213 242.276,80.7213 239.5,82.5C 240.5,82.8333 241.5,83.1667 242.5,83.5C 244.777,82.5217 247.11,81.8551 249.5,81.5C 254.34,81.0517 255.34,79.0517 252.5,75.5C 251.77,74.2876 250.77,73.2876 249.5,72.5C 243.537,71.5041 237.537,71.1707 231.5,71.5C 231.058,66.3055 230.058,66.3055 228.5,71.5C 227.509,67.5546 227.176,63.5546 227.5,59.5C 233.42,57.2476 239.42,55.0809 245.5,53C 244.906,52.5357 244.239,52.369 243.5,52.5 Z"/></g>
<g><path style="opacity:1" fill="#efd49b" d="M 195.5,45.5 C 200.884,54.5505 208.217,61.5505 217.5,66.5C 216.539,68.2646 216.205,70.2646 216.5,72.5C 215.491,77.7961 215.324,83.1294 216,88.5C 217.956,96.3963 220.456,104.063 223.5,111.5C 221.003,109.173 219.503,106.173 219,102.5C 218.667,103.167 218.333,103.833 218,104.5C 217.667,102.167 217.333,99.8333 217,97.5C 216.311,96.6433 215.478,95.9767 214.5,95.5C 213.174,85.4252 213.507,75.4252 215.5,65.5C 212.657,65.0828 209.99,64.0828 207.5,62.5C 204.167,59.1667 200.833,55.8333 197.5,52.5C 196.054,50.3821 195.387,48.0488 195.5,45.5 Z"/></g>
<g><path style="opacity:1" fill="#332c05" d="M 308.5,51.5 C 307.737,52.2679 306.737,52.7679 305.5,53C 307.291,53.4152 308.624,54.4152 309.5,56C 308.906,56.4643 308.239,56.631 307.5,56.5C 298.651,54.0379 289.651,52.3713 280.5,51.5C 269.839,48.9277 259.173,48.9277 248.5,51.5C 246.585,51.2155 244.919,51.5489 243.5,52.5C 237.325,53.3206 231.992,55.654 227.5,59.5C 226.178,62.7681 225.511,66.4348 225.5,70.5C 225.318,76.0862 225.985,81.4195 227.5,86.5C 228.436,102.235 229.936,117.902 232,133.5C 232.67,136.174 233.837,138.507 235.5,140.5C 240.032,152.749 247.366,162.915 257.5,171C 256.692,171.308 256.025,171.808 255.5,172.5C 256.612,173.265 257.279,174.265 257.5,175.5C 255.956,175.297 254.622,174.63 253.5,173.5C 252.417,174.365 252.251,175.365 253,176.5C 255.436,179.447 258.269,181.78 261.5,183.5C 267.564,189.574 274.897,191.74 283.5,190C 295.339,187.577 306.006,182.744 315.5,175.5C 314.748,177.1 313.748,178.6 312.5,180C 313.345,181.558 312.679,182.558 310.5,183C 311.056,183.383 311.389,183.883 311.5,184.5C 299.25,193.479 285.583,196.979 270.5,195C 263.4,194.046 258.066,190.546 254.5,184.5C 253.914,184.709 253.414,185.043 253,185.5C 250.773,183.393 248.773,181.06 247,178.5C 246.727,173.771 246.061,169.104 245,164.5C 242.174,165.213 239.34,165.88 236.5,166.5C 233.645,165.197 230.645,165.197 227.5,166.5C 226.478,167.354 225.645,168.354 225,169.5C 224.667,169.167 224.333,168.833 224,168.5C 218.526,170.836 213.692,174.169 209.5,178.5C 208.311,179.429 206.978,179.762 205.5,179.5C 206.227,184.323 204.227,187.323 199.5,188.5C 198.347,189.687 198.347,190.687 199.5,191.5C 193.562,196.936 187.729,202.603 182,208.5C 171.761,221.913 160.928,234.913 149.5,247.5C 154.505,250.672 158.671,254.672 162,259.5C 163.639,262.742 164.639,266.076 165,269.5C 161.784,264.104 157.284,260.438 151.5,258.5C 152.523,265.559 152.356,272.559 151,279.5C 150.623,280.942 149.79,281.942 148.5,282.5C 148.207,268.196 144.207,255.03 136.5,243C 132.887,238.286 129.387,233.452 126,228.5C 114.999,244.57 101.999,246.57 87,234.5C 87.3387,240.547 88.3387,246.547 90,252.5C 94.5298,266.424 98.8631,280.424 103,294.5C 105.834,300.817 109.667,306.484 114.5,311.5C 119.577,314.705 124.91,317.372 130.5,319.5C 140.081,318.369 149.081,315.535 157.5,311C 157.446,309.649 157.946,308.482 159,307.5C 161.226,308.187 163.393,307.687 165.5,306C 170.994,301.505 176.161,296.672 181,291.5C 184.002,287.162 187.335,283.828 191,281.5C 190.896,264.409 191.896,247.409 194,230.5C 195.686,223.942 197.852,217.608 200.5,211.5C 201.696,221.309 200.862,230.975 198,240.5C 195.744,262.879 196.078,285.212 199,307.5C 199.554,312.716 200.887,317.716 203,322.5C 206.099,324.824 209.599,326.324 213.5,327C 220.947,328.778 228.447,330.278 236,331.5C 237.823,330.349 239.656,329.182 241.5,328C 248.58,327.205 255.58,327.372 262.5,328.5C 269.078,328.027 275.745,328.694 282.5,330.5C 282.39,333.059 283.056,335.392 284.5,337.5C 293.384,335.695 302.384,335.029 311.5,335.5C 311.5,336.833 311.5,338.167 311.5,339.5C 314.833,339.5 318.167,339.5 321.5,339.5C 321.5,340.167 321.5,340.833 321.5,341.5C 309.116,341.813 296.783,341.48 284.5,340.5C 283.503,348.138 283.169,355.804 283.5,363.5C 296.167,363.5 308.833,363.5 321.5,363.5C 331.665,362.792 341.665,361.125 351.5,358.5C 351.5,359.5 351.5,360.5 351.5,361.5C 349.208,361.756 347.041,361.423 345,360.5C 338.508,363.273 332.008,365.939 325.5,368.5C 311.184,369.225 296.85,369.725 282.5,370C 281.956,370.717 281.289,371.217 280.5,371.5C 279.365,369.787 277.698,369.12 275.5,369.5C 276.6,368.395 277.267,367.062 277.5,365.5C 278.795,355.628 278.795,345.628 277.5,335.5C 277.279,334.265 276.612,333.265 275.5,332.5C 265.007,331.177 254.674,331.177 244.5,332.5C 242.5,332.5 241.5,333.5 241.5,335.5C 240.833,336.167 240.167,336.833 239.5,337.5C 239.38,336.414 238.713,335.747 237.5,335.5C 236.584,335.543 235.917,335.876 235.5,336.5C 223.908,334.898 212.574,332.565 201.5,329.5C 201.334,336.508 201.5,343.508 202,350.5C 204.398,351.856 206.898,353.023 209.5,354C 216.96,355.865 224.293,357.698 231.5,359.5C 228.921,359.083 226.754,359.75 225,361.5C 222.867,359.862 220.367,359.029 217.5,359C 217.833,358.667 218.167,358.333 218.5,358C 210.721,356.838 204.054,354.671 198.5,351.5C 196.616,354.562 195.449,357.895 195,361.5C 194.692,360.692 194.192,360.025 193.5,359.5C 192.081,361.336 190.914,363.336 190,365.5C 189.601,365.272 189.435,364.938 189.5,364.5C 191.398,359.704 193.565,355.038 196,350.5C 196.254,341.813 196.754,333.147 197.5,324.5C 194.752,314.681 193.086,304.681 192.5,294.5C 192.808,292.076 192.474,289.743 191.5,287.5C 190.893,287.624 190.56,287.957 190.5,288.5C 181.55,299.287 171.216,308.454 159.5,316C 132.195,331.12 112.029,324.62 99,296.5C 96.3927,289.51 93.8927,282.51 91.5,275.5C 88.1079,263.488 84.6079,251.488 81,239.5C 79.8864,235.05 80.7197,231.05 83.5,227.5C 76.3787,215.924 70.3787,203.924 65.5,191.5C 65.5,190.167 65.5,188.833 65.5,187.5C 67.7009,191.055 69.3676,195.055 70.5,199.5C 72.5294,200.629 72.8627,200.129 71.5,198C 72.0944,197.536 72.7611,197.369 73.5,197.5C 78.7188,208.27 84.2188,218.937 90,229.5C 97.6597,238.812 106.493,239.979 116.5,233C 120.923,228.779 122.59,223.613 121.5,217.5C 121.435,217.062 121.601,216.728 122,216.5C 122.245,218.663 123.245,220.33 125,221.5C 124.538,219.652 124.038,217.652 123.5,215.5C 123.667,214.167 123.833,212.833 124,211.5C 124.278,212.416 124.778,213.082 125.5,213.5C 125.523,215.927 126.023,218.26 127,220.5C 132.696,228.698 138.196,237.031 143.5,245.5C 156.533,231.299 169.033,216.633 181,201.5C 187.415,194.304 194.748,188.304 203,183.5C 203.451,180.222 204.951,177.556 207.5,175.5C 217.467,169.017 228.134,163.851 239.5,160C 236.253,154.321 232.92,148.821 229.5,143.5C 225.597,133.215 223.597,122.548 223.5,111.5C 220.456,104.063 217.956,96.3963 216,88.5C 215.324,83.1294 215.491,77.7961 216.5,72.5C 217.647,77.6416 218.48,82.9749 219,88.5C 219.692,89.0253 220.192,89.6919 220.5,90.5C 219.691,92.0709 219.357,93.7376 219.5,95.5C 221.124,95.3601 222.29,96.0267 223,97.5C 223.197,85.6334 223.697,73.8001 224.5,62C 223.713,59.9011 223.38,57.7345 223.5,55.5C 225.927,53.4424 228.593,51.6091 231.5,50C 246.758,44.8398 262.425,43.1732 278.5,45C 288.702,46.3401 298.702,48.5068 308.5,51.5 Z"/></g>
<g><path style="opacity:1" fill="#daad5b" d="M 258.5,83.5 C 259.5,83.5 260.5,83.5 261.5,83.5C 261.143,88.933 260.143,94.2663 258.5,99.5C 257.753,103.483 256.086,106.816 253.5,109.5C 255.084,101.743 257.084,94.0767 259.5,86.5C 259.315,85.4163 258.982,84.4163 258.5,83.5 Z"/></g>
<g><path style="opacity:1" fill="#d8ab50" d="M 341.5,103.5 C 338.292,105.074 336.958,107.741 337.5,111.5C 334.465,111.479 332.132,110.146 330.5,107.5C 327.863,110.999 326.863,114.999 327.5,119.5C 325.837,117.562 325.171,115.228 325.5,112.5C 327.066,107.968 328.733,103.468 330.5,99C 331.965,98.3987 332.965,98.8987 333.5,100.5C 332.607,103.084 332.274,105.751 332.5,108.5C 333.675,108.719 334.675,108.386 335.5,107.5C 336.502,105.49 337.502,103.49 338.5,101.5C 339.739,101.942 340.739,102.609 341.5,103.5 Z"/></g>
<g><path style="opacity:1" fill="#e7a645" d="M 341.5,103.5 C 342.693,103.97 343.36,104.97 343.5,106.5C 342.562,115.746 337.562,121.079 328.5,122.5C 327.89,121.609 327.557,120.609 327.5,119.5C 326.863,114.999 327.863,110.999 330.5,107.5C 332.132,110.146 334.465,111.479 337.5,111.5C 336.958,107.741 338.292,105.074 341.5,103.5 Z"/></g>
<g><path style="opacity:1" fill="#362e05" d="M 258.5,83.5 C 258.982,84.4163 259.315,85.4163 259.5,86.5C 257.084,94.0767 255.084,101.743 253.5,109.5C 248.509,120.341 251.842,124.508 263.5,122C 268.668,120.34 271.335,116.84 271.5,111.5C 273.483,111.157 274.817,111.824 275.5,113.5C 275.389,121.452 271.389,126.286 263.5,128C 258.09,128.491 252.757,127.991 247.5,126.5C 246.95,124.343 246.283,122.343 245.5,120.5C 245.337,118.143 245.503,115.81 246,113.5C 248.347,107.295 250.18,100.962 251.5,94.5C 247.51,95.1901 243.51,95.3568 239.5,95C 238.663,93.9887 238.33,92.8221 238.5,91.5C 243.214,91.8266 247.88,91.4933 252.5,90.5C 253.236,88.4595 254.069,86.4595 255,84.5C 256.011,83.6634 257.178,83.33 258.5,83.5 Z"/></g>
<g><path style="opacity:1" fill="#f8d390" d="M -0.5,-0.5 C 87.5,-0.5 175.5,-0.5 263.5,-0.5C 259.952,1.89944 255.952,3.39944 251.5,4C 233.38,4.48256 217.38,10.4826 203.5,22C 195.537,28.0807 192.87,35.9141 195.5,45.5C 195.387,48.0488 196.054,50.3821 197.5,52.5C 200.833,55.8333 204.167,59.1667 207.5,62.5C 209.99,64.0828 212.657,65.0828 215.5,65.5C 213.507,75.4252 213.174,85.4252 214.5,95.5C 215.478,95.9767 216.311,96.6433 217,97.5C 217.333,99.8333 217.667,102.167 218,104.5C 218.333,103.833 218.667,103.167 219,102.5C 219.503,106.173 221.003,109.173 223.5,111.5C 223.597,122.548 225.597,133.215 229.5,143.5C 230.013,148.374 231.346,153.041 233.5,157.5C 233.167,158.167 232.833,158.833 232.5,159.5C 224.38,163.955 216.047,167.955 207.5,171.5C 207.5,172.833 207.5,174.167 207.5,175.5C 204.951,177.556 203.451,180.222 203,183.5C 194.748,188.304 187.415,194.304 181,201.5C 169.033,216.633 156.533,231.299 143.5,245.5C 138.196,237.031 132.696,228.698 127,220.5C 126.023,218.26 125.523,215.927 125.5,213.5C 128.975,209.828 131.475,205.494 133,200.5C 134.089,195.439 133.256,190.772 130.5,186.5C 131,186.167 131.5,185.833 132,185.5C 137.064,187.174 142.23,187.674 147.5,187C 149.848,186.654 151.681,185.487 153,183.5C 157.699,157.97 161.533,132.304 164.5,106.5C 165.912,100.51 163.912,96.3438 158.5,94C 147.712,92.7689 137.045,90.9355 126.5,88.5C 125.093,84.6882 123.426,81.0215 121.5,77.5C 119.603,76.1952 117.269,75.5286 114.5,75.5C 112.167,75.8333 109.833,76.1667 107.5,76.5C 102.167,78.5 96.8333,80.5 91.5,82.5C 84.1667,83.1667 76.8333,83.8333 69.5,84.5C 65.8914,87.7172 63.8914,91.7172 63.5,96.5C 60.5375,99.9641 57.3709,103.297 54,106.5C 52.8468,109.711 52.1802,113.044 52,116.5C 47.0823,121.185 43.5823,126.685 41.5,133C 42.2157,136.741 44.2157,139.741 47.5,142C 56.6441,148.977 65.6441,156.143 74.5,163.5C 68.345,170.296 65.345,178.296 65.5,187.5C 65.5,188.833 65.5,190.167 65.5,191.5C 65.7771,194.448 65.4438,197.281 64.5,200C 66.9717,204.444 69.305,208.944 71.5,213.5C 69.3677,216.614 69.0344,219.947 70.5,223.5C 71.1667,222.833 71.8333,222.167 72.5,221.5C 74.5225,223.173 76.8559,223.84 79.5,223.5C 79.2032,232.902 79.8699,242.235 81.5,251.5C 81.3603,254.043 80.6937,256.377 79.5,258.5C 81.396,259.466 83.396,259.799 85.5,259.5C 85.3345,263.514 85.5012,267.514 86,271.5C 88.3237,272.807 89.657,274.807 90,277.5C 90.2784,276.584 90.7784,275.918 91.5,275.5C 93.8927,282.51 96.3927,289.51 99,296.5C 112.029,324.62 132.195,331.12 159.5,316C 171.216,308.454 181.55,299.287 190.5,288.5C 191.167,290.5 191.833,292.5 192.5,294.5C 193.086,304.681 194.752,314.681 197.5,324.5C 196.754,333.147 196.254,341.813 196,350.5C 193.565,355.038 191.398,359.704 189.5,364.5C 188.662,364.842 188.328,365.508 188.5,366.5C 177.623,397.056 170.123,428.389 166,460.5C 170.099,464.13 174.599,467.13 179.5,469.5C 178.454,499.838 177.121,530.172 175.5,560.5C 175.806,563.385 175.473,566.052 174.5,568.5C 173.794,571.072 173.46,574.406 173.5,578.5C 173.75,583.601 174.416,588.601 175.5,593.5C 176.833,593.5 178.167,593.5 179.5,593.5C 179.622,616.853 180.289,640.186 181.5,663.5C 169.024,672.908 156.024,681.575 142.5,689.5C 122.763,690.414 103.763,695.081 85.5,703.5C 80.8333,703.5 76.1667,703.5 71.5,703.5C 71.5,700.833 71.5,698.167 71.5,695.5C 68.8333,695.5 66.1667,695.5 63.5,695.5C 63.5,698.167 63.5,700.833 63.5,703.5C 55.5,703.5 47.5,703.5 39.5,703.5C 39.5,700.833 39.5,698.167 39.5,695.5C 35.5,695.5 31.5,695.5 27.5,695.5C 27.5,692.833 27.5,690.167 27.5,687.5C 23.5,687.5 19.5,687.5 15.5,687.5C 15.5,676.833 15.5,666.167 15.5,655.5C 10.1667,655.5 4.83333,655.5 -0.5,655.5C -0.5,516.833 -0.5,378.167 -0.5,239.5C 4.83333,239.5 10.1667,239.5 15.5,239.5C 15.5,228.833 15.5,218.167 15.5,207.5C 23.5,207.5 31.5,207.5 39.5,207.5C 39.5,204.833 39.5,202.167 39.5,199.5C 36.8333,199.5 34.1667,199.5 31.5,199.5C 31.5,180.833 31.5,162.167 31.5,143.5C 26.1667,143.5 20.8333,143.5 15.5,143.5C 15.6584,140.639 14.9917,137.972 13.5,135.5C 15.3657,127.641 16.0323,119.641 15.5,111.5C 20.8333,111.5 26.1667,111.5 31.5,111.5C 31.5,106.167 31.5,100.833 31.5,95.5C 26.1667,95.5 20.8333,95.5 15.5,95.5C 17.0539,74.2036 17.7206,52.8703 17.5,31.5C 20.8984,31.8204 24.2317,31.487 27.5,30.5C 26.3112,29.5713 24.9778,29.238 23.5,29.5C 23.5,26.8333 23.5,24.1667 23.5,21.5C 19.1906,21.244 15.1906,22.244 11.5,24.5C 12.6888,25.4287 14.0222,25.762 15.5,25.5C 15.5,38.1667 15.5,50.8333 15.5,63.5C 10.1667,63.5 4.83333,63.5 -0.5,63.5C -0.5,42.1667 -0.5,20.8333 -0.5,-0.5 Z"/></g>
<g><path style="opacity:1" fill="#3c330b" d="M 121.5,77.5 C 123.426,81.0215 125.093,84.6882 126.5,88.5C 137.045,90.9355 147.712,92.7689 158.5,94C 163.912,96.3438 165.912,100.51 164.5,106.5C 161.533,132.304 157.699,157.97 153,183.5C 151.681,185.487 149.848,186.654 147.5,187C 142.23,187.674 137.064,187.174 132,185.5C 131.5,185.833 131,186.167 130.5,186.5C 133.256,190.772 134.089,195.439 133,200.5C 131.475,205.494 128.975,209.828 125.5,213.5C 124.778,213.082 124.278,212.416 124,211.5C 123.833,212.833 123.667,214.167 123.5,215.5C 124.038,217.652 124.538,219.652 125,221.5C 123.245,220.33 122.245,218.663 122,216.5C 121.601,216.728 121.435,217.062 121.5,217.5C 120.518,215.594 119.518,213.594 118.5,211.5C 116.239,209.545 114.239,207.378 112.5,205C 114.22,201.05 116.554,197.55 119.5,194.5C 120.946,195.171 121.612,196.338 121.5,198C 120.068,200.383 119.235,202.883 119,205.5C 121.112,207.922 123.112,207.922 125,205.5C 127.424,200.43 128.091,195.097 127,189.5C 124.103,184.845 119.937,183.345 114.5,185C 109.597,189.338 104.597,193.505 99.5,197.5C 98.314,195.806 98.4807,194.139 100,192.5C 102.797,188.701 105.964,185.201 109.5,182C 112.898,180.084 116.565,179.084 120.5,179C 113.342,174.265 106.342,174.598 99.5,180C 95.9046,184.104 91.9046,187.604 87.5,190.5C 86.438,188.901 86.438,187.234 87.5,185.5C 93.8269,177.325 102.16,172.158 112.5,170C 116.977,165.764 116.144,163.598 110,163.5C 99.7851,165.188 91.2851,169.855 84.5,177.5C 83.8333,177.5 83.5,177.833 83.5,178.5C 81.825,180.002 79.9917,181.335 78,182.5C 77.0565,181.737 76.5565,180.737 76.5,179.5C 83.5408,169.137 93.2075,162.47 105.5,159.5C 105.5,158.167 105.5,156.833 105.5,155.5C 90.946,156.072 80.2793,162.739 73.5,175.5C 72.7784,175.918 72.2784,176.584 72,177.5C 71.01,184.339 71.51,191.005 73.5,197.5C 72.7611,197.369 72.0944,197.536 71.5,198C 72.8627,200.129 72.5294,200.629 70.5,199.5C 69.3676,195.055 67.7009,191.055 65.5,187.5C 65.345,178.296 68.345,170.296 74.5,163.5C 65.6441,156.143 56.6441,148.977 47.5,142C 44.2157,139.741 42.2157,136.741 41.5,133C 43.5823,126.685 47.0823,121.185 52,116.5C 52.1802,113.044 52.8468,109.711 54,106.5C 57.3709,103.297 60.5375,99.9641 63.5,96.5C 65.8766,92.2828 68.8766,88.4495 72.5,85C 76.4726,84.4909 80.1393,85.3243 83.5,87.5C 93.0216,84.4929 102.355,80.9929 111.5,77C 114.888,76.3412 118.221,76.5078 121.5,77.5 Z"/></g>
<g><path style="opacity:1" fill="#f1cb82" d="M 93.5,89.5 C 94.3764,89.3691 95.0431,89.7025 95.5,90.5C 92.6368,111.495 89.8034,132.495 87,153.5C 86.6924,154.308 86.1924,154.975 85.5,155.5C 84.4164,154.335 83.5831,153.002 83,151.5C 77.728,134.79 72.8946,117.957 68.5,101C 69.1536,99.013 70.487,97.6797 72.5,97C 79.5877,94.4424 86.5877,91.9424 93.5,89.5 Z"/></g>
<g><path style="opacity:1" fill="#e2cb8c" d="M 63.5,104.5 C 66.264,110.887 68.0974,117.554 69,124.5C 65.2974,121.133 61.964,117.466 59,113.5C 58.3333,112.167 58.3333,110.833 59,109.5C 60.7073,107.963 62.2073,106.296 63.5,104.5 Z"/></g>
<g><path style="opacity:1" fill="#efcf8b" d="M 149.5,176.5 C 149.327,171.981 148.993,167.315 148.5,162.5C 150.803,153.501 152.47,144.335 153.5,135C 153.325,132.177 152.658,129.51 151.5,127C 152.137,125.287 153.137,125.121 154.5,126.5C 154.833,124 155.167,121.5 155.5,119C 154.899,113.733 154.566,108.566 154.5,103.5C 152.533,102.047 150.367,101.047 148,100.5C 144.791,101.854 141.624,101.687 138.5,100C 138.957,99.586 139.291,99.086 139.5,98.5C 135.955,97.2086 132.455,97.2086 129,98.5C 128.308,97.9747 127.808,97.3081 127.5,96.5C 119.528,95.5023 111.528,95.169 103.5,95.5C 105.629,100.316 104.629,104.316 100.5,107.5C 99.6764,110.785 99.1764,114.118 99,117.5C 98.8138,114.964 98.3138,112.631 97.5,110.5C 98.1306,106.196 98.6306,101.863 99,97.5C 99.4497,95.481 100.283,93.6477 101.5,92C 120.201,93.671 138.868,96.0043 157.5,99C 158,99.5 158.5,100 159,100.5C 156.531,125.884 153.364,151.218 149.5,176.5 Z"/></g>
<g><path style="opacity:1" fill="#f5ca82" d="M 149.5,176.5 C 149.607,178.903 148.607,180.736 146.5,182C 140.089,182.322 133.756,181.655 127.5,180C 125.372,176.87 122.872,174.037 120,171.5C 119.708,169.674 119.875,167.841 120.5,166C 119.781,160.782 116.781,158.282 111.5,158.5C 111.531,154.403 109.531,151.903 105.5,151C 101.134,150.114 96.9672,150.614 93,152.5C 93.5105,138.413 95.0105,124.413 97.5,110.5C 98.3138,112.631 98.8138,114.964 99,117.5C 99.1764,114.118 99.6764,110.785 100.5,107.5C 104.629,104.316 105.629,100.316 103.5,95.5C 111.528,95.169 119.528,95.5023 127.5,96.5C 127.808,97.3081 128.308,97.9747 129,98.5C 132.455,97.2086 135.955,97.2086 139.5,98.5C 139.291,99.086 138.957,99.586 138.5,100C 141.624,101.687 144.791,101.854 148,100.5C 150.367,101.047 152.533,102.047 154.5,103.5C 154.566,108.566 154.899,113.733 155.5,119C 155.167,121.5 154.833,124 154.5,126.5C 153.137,125.121 152.137,125.287 151.5,127C 152.658,129.51 153.325,132.177 153.5,135C 152.47,144.335 150.803,153.501 148.5,162.5C 148.993,167.315 149.327,171.981 149.5,176.5 Z"/></g>
<g><path style="opacity:1" fill="#dec789" d="M 113.5,81.5 C 117.388,80.9887 119.721,82.6553 120.5,86.5C 115.464,87.7549 110.464,87.5882 105.5,86C 108.191,84.3952 110.858,82.8952 113.5,81.5 Z"/></g>
<g><path style="opacity:1" fill="#e6ce99" d="M 121.5,77.5 C 118.221,76.5078 114.888,76.3412 111.5,77C 102.355,80.9929 93.0216,84.4929 83.5,87.5C 80.1393,85.3243 76.4726,84.4909 72.5,85C 68.8766,88.4495 65.8766,92.2828 63.5,96.5C 63.8914,91.7172 65.8914,87.7172 69.5,84.5C 76.8333,83.8333 84.1667,83.1667 91.5,82.5C 96.8333,80.5 102.167,78.5 107.5,76.5C 109.833,76.1667 112.167,75.8333 114.5,75.5C 117.269,75.5286 119.603,76.1952 121.5,77.5 Z"/></g>
<g><path style="opacity:1" fill="#f0ce88" d="M 55.5,119.5 C 56.4734,119.987 57.4734,120.487 58.5,121C 63.0226,126.52 67.856,131.687 73,136.5C 75.0601,143.515 77.2267,150.515 79.5,157.5C 79.1667,158.167 78.8333,158.833 78.5,159.5C 67.856,151.357 57.356,143.024 47,134.5C 46.4795,132.711 46.8129,131.044 48,129.5C 50.7524,126.316 53.2524,122.982 55.5,119.5 Z"/></g>
<g><path style="opacity:1" fill="#e9d5a1" d="M 347.5,157.5 C 346.325,157.719 345.325,157.386 344.5,156.5C 349.877,151.755 353.211,145.755 354.5,138.5C 362.098,141.817 368.598,140.15 374,133.5C 375.707,131.091 376.54,128.425 376.5,125.5C 377.771,127.42 377.771,130.087 376.5,133.5C 374.167,135.833 371.833,138.167 369.5,140.5C 364.833,141.167 360.167,141.833 355.5,142.5C 357.924,144.714 357.257,145.714 353.5,145.5C 352.55,150.067 350.55,154.067 347.5,157.5 Z"/></g>
<g><path style="opacity:1" fill="#312c04" d="M 299.5,-0.5 C 303.833,-0.5 308.167,-0.5 312.5,-0.5C 325.994,9.42 340.328,18.0867 355.5,25.5C 356.838,27.6698 358.672,29.3365 361,30.5C 368.79,38.3675 371.623,47.7008 369.5,58.5C 365.074,69.2503 357.074,75.5836 345.5,77.5C 351.169,83.0073 356.336,89.0073 361,95.5C 362.139,101.436 362.805,107.436 363,113.5C 363.471,115.246 364.138,116.913 365,118.5C 368.713,121.194 372.546,123.527 376.5,125.5C 376.54,128.425 375.707,131.091 374,133.5C 368.598,140.15 362.098,141.817 354.5,138.5C 353.211,145.755 349.877,151.755 344.5,156.5C 345.325,157.386 346.325,157.719 347.5,157.5C 348.78,158.931 350.447,159.598 352.5,159.5C 363.134,164.956 373.134,171.456 382.5,179C 387.751,182.563 390.918,187.396 392,193.5C 395.399,196.729 398.565,200.062 401.5,203.5C 401.992,205.819 402.992,207.819 404.5,209.5C 409.819,222.954 414.652,236.621 419,250.5C 421.289,257.324 422.789,264.324 423.5,271.5C 423.631,272.239 423.464,272.906 423,273.5C 420.526,268.47 419.193,263.136 419,257.5C 416.878,254.863 415.545,251.863 415,248.5C 414.329,247.748 413.496,247.414 412.5,247.5C 408.984,227.609 400.984,210.609 388.5,196.5C 386.283,195.225 383.949,194.225 381.5,193.5C 368.625,196.774 356.625,201.941 345.5,209C 326.032,217.953 305.698,224.286 284.5,228C 273.593,229.307 262.926,228.307 252.5,225C 233.845,216.857 217.845,205.024 204.5,189.5C 202.925,190.456 201.258,191.123 199.5,191.5C 198.347,190.687 198.347,189.687 199.5,188.5C 204.227,187.323 206.227,184.323 205.5,179.5C 206.978,179.762 208.311,179.429 209.5,178.5C 213.692,174.169 218.526,170.836 224,168.5C 224.333,168.833 224.667,169.167 225,169.5C 225.645,168.354 226.478,167.354 227.5,166.5C 230.645,165.197 233.645,165.197 236.5,166.5C 226.075,169.63 216.909,174.964 209,182.5C 208.333,183.5 208.333,184.5 209,185.5C 225.915,207.374 248.082,220.041 275.5,223.5C 296.33,220.968 316.33,215.468 335.5,207C 350.366,199.16 365.699,192.493 381.5,187C 368.884,173.208 353.384,164.042 335,159.5C 331.291,163.218 328.291,167.552 326,172.5C 321.75,177.352 316.917,181.352 311.5,184.5C 311.389,183.883 311.056,183.383 310.5,183C 312.679,182.558 313.345,181.558 312.5,180C 313.748,178.6 314.748,177.1 315.5,175.5C 317.992,172.531 320.492,169.531 323,166.5C 323.634,163.445 323.468,160.445 322.5,157.5C 321.954,151.933 322.621,146.6 324.5,141.5C 323.5,140.5 322.5,139.5 321.5,138.5C 320.158,141.321 319.492,141.154 319.5,138C 321.096,134.306 322.262,130.472 323,126.5C 324.952,125.253 326.785,123.919 328.5,122.5C 337.562,121.079 342.562,115.746 343.5,106.5C 343.36,104.97 342.693,103.97 341.5,103.5C 340.739,102.609 339.739,101.942 338.5,101.5C 337.502,103.49 336.502,105.49 335.5,107.5C 334.675,108.386 333.675,108.719 332.5,108.5C 332.274,105.751 332.607,103.084 333.5,100.5C 332.965,98.8987 331.965,98.3987 330.5,99C 328.733,103.468 327.066,107.968 325.5,112.5C 323.742,112.877 322.075,113.544 320.5,114.5C 318.787,114.121 317.787,113.121 317.5,111.5C 318.443,103.519 318.61,95.5188 318,87.5C 316,84.8333 314,82.1667 312,79.5C 309.635,71.9736 308.135,64.3069 307.5,56.5C 308.239,56.631 308.906,56.4643 309.5,56C 308.624,54.4152 307.291,53.4152 305.5,53C 306.737,52.7679 307.737,52.2679 308.5,51.5C 313.47,53.2145 318.47,55.0478 323.5,57C 329.345,60.9997 335.345,64.8331 341.5,68.5C 343.339,66.4729 343.839,64.1396 343,61.5C 330.143,50.1547 315.31,42.6547 298.5,39C 278.137,33.051 257.804,33.051 237.5,39C 231.592,41.5349 226.092,44.7016 221,48.5C 219,51.5 219,54.5 221,57.5C 221.708,56.6195 222.542,55.9528 223.5,55.5C 223.38,57.7345 223.713,59.9011 224.5,62C 223.697,73.8001 223.197,85.6334 223,97.5C 222.29,96.0267 221.124,95.3601 219.5,95.5C 219.357,93.7376 219.691,92.0709 220.5,90.5C 220.192,89.6919 219.692,89.0253 219,88.5C 218.48,82.9749 217.647,77.6416 216.5,72.5C 216.205,70.2646 216.539,68.2646 217.5,66.5C 217.215,68.288 217.548,69.9547 218.5,71.5C 220.948,64.7589 218.614,61.2589 211.5,61C 211.833,60.6667 212.167,60.3333 212.5,60C 209.179,59.0295 207.513,56.8628 207.5,53.5C 209.21,55.1996 211.21,56.5329 213.5,57.5C 212.814,50.0983 215.481,44.2649 221.5,40C 232.488,34.3381 244.155,30.6714 256.5,29C 280.275,27.7232 302.941,31.8899 324.5,41.5C 329.342,45.6313 334.676,49.1313 340.5,52C 344.383,54.8686 347.05,58.5352 348.5,63C 348.066,65.5684 347.4,68.0684 346.5,70.5C 347,70.8333 347.5,71.1667 348,71.5C 365.407,64.3638 369.407,52.6971 360,36.5C 359.329,35.7476 358.496,35.4142 357.5,35.5C 354.796,31.9733 351.462,29.1399 347.5,27C 340.5,23.3333 333.5,19.6667 326.5,16C 318.052,9.34071 309.052,3.84071 299.5,-0.5 Z"/></g>
<g><path style="opacity:1" fill="#463d0f" d="M 313.5,59.5 C 322.237,62.2418 330.07,66.5752 337,72.5C 340.186,76.8731 342.853,81.5398 345,86.5C 356.009,93.826 360.676,104.159 359,117.5C 360.598,122.099 363.765,124.932 368.5,126C 369.944,130.119 368.611,133.119 364.5,135C 361.833,135.667 359.167,135.667 356.5,135C 354.388,133.804 352.388,132.804 350.5,132C 349.691,138.907 347.358,145.241 343.5,151C 338.051,153.802 332.384,154.302 326.5,152.5C 327.287,144.178 327.954,135.844 328.5,127.5C 337.692,126.805 343.859,122.138 347,113.5C 347.301,110.026 348.134,106.692 349.5,103.5C 348.96,102.252 348.293,101.085 347.5,100C 336.273,96.4715 326.773,90.3048 319,81.5C 314.932,74.7835 313.098,67.4502 313.5,59.5 Z"/></g>
<g><path style="opacity:1" fill="#462803" d="M 289.5,88.5 C 290.5,88.5 291.5,88.5 292.5,88.5C 292.5,89.5 292.5,90.5 292.5,91.5C 286.529,92.2412 280.529,92.5745 274.5,92.5C 274.5,91.5 274.5,90.5 274.5,89.5C 279.695,89.8205 284.695,89.4872 289.5,88.5 Z"/></g>
<g><path style="opacity:1" fill="#dda952" d="M 227.5,59.5 C 227.176,63.5546 227.509,67.5546 228.5,71.5C 230.058,66.3055 231.058,66.3055 231.5,71.5C 237.537,71.1707 243.537,71.5041 249.5,72.5C 250.77,73.2876 251.77,74.2876 252.5,75.5C 246.769,72.8927 240.769,72.0594 234.5,73C 231.307,74.0255 229.974,76.1922 230.5,79.5C 234.796,78.5375 239.129,78.3708 243.5,79C 245.852,79.2401 247.852,80.0735 249.5,81.5C 247.11,81.8551 244.777,82.5217 242.5,83.5C 241.5,83.1667 240.5,82.8333 239.5,82.5C 242.276,80.7213 241.943,79.7213 238.5,79.5C 234.899,81.139 231.233,82.4724 227.5,83.5C 227.5,84.5 227.5,85.5 227.5,86.5C 225.985,81.4195 225.318,76.0862 225.5,70.5C 225.511,66.4348 226.178,62.7681 227.5,59.5 Z"/></g>
<g><path style="opacity:1" fill="#343005" d="M 287.5,75.5 C 281.757,78.0415 275.757,79.3748 269.5,79.5C 269.178,77.2776 269.845,75.4443 271.5,74C 274.096,72.8644 276.763,72.031 279.5,71.5C 282.579,71.7399 285.579,71.4066 288.5,70.5C 291.503,71.0851 294.503,71.7518 297.5,72.5C 293.737,72.8962 290.403,73.8962 287.5,75.5 Z"/></g>
<g><path style="opacity:1" fill="#3d3306" d="M 252.5,75.5 C 255.34,79.0517 254.34,81.0517 249.5,81.5C 247.852,80.0735 245.852,79.2401 243.5,79C 239.129,78.3708 234.796,78.5375 230.5,79.5C 229.974,76.1922 231.307,74.0255 234.5,73C 240.769,72.0594 246.769,72.8927 252.5,75.5 Z"/></g>
<g><path style="opacity:1" fill="#432d07" d="M 287.5,75.5 C 290.403,73.8962 293.737,72.8962 297.5,72.5C 294.503,71.7518 291.503,71.0851 288.5,70.5C 285.579,71.4066 282.579,71.7399 279.5,71.5C 286.522,67.1877 293.355,67.5211 300,72.5C 300.483,73.448 300.649,74.448 300.5,75.5C 296.11,74.4027 291.777,74.4027 287.5,75.5 Z"/></g>
<g><path style="opacity:1" fill="#d6ab60" d="M 243.5,52.5 C 244.239,52.369 244.906,52.5357 245.5,53C 239.42,55.0809 233.42,57.2476 227.5,59.5C 231.992,55.654 237.325,53.3206 243.5,52.5 Z"/></g>
<g><path style="opacity:1" fill="#403e0f" d="M 357.5,35.5 C 358.496,35.4142 359.329,35.7476 360,36.5C 369.407,52.6971 365.407,64.3638 348,71.5C 347.5,71.1667 347,70.8333 346.5,70.5C 347.4,68.0684 348.066,65.5684 348.5,63C 347.05,58.5352 344.383,54.8686 340.5,52C 334.676,49.1313 329.342,45.6313 324.5,41.5C 331.86,41.4422 339.194,40.9422 346.5,40C 349.193,39.657 351.193,38.3237 352.5,36C 354.134,35.5065 355.801,35.3398 357.5,35.5 Z"/></g>
<g><path style="opacity:1" fill="#494716" d="M 308.5,51.5 C 298.702,48.5068 288.702,46.3401 278.5,45C 262.425,43.1732 246.758,44.8398 231.5,50C 228.593,51.6091 225.927,53.4424 223.5,55.5C 222.542,55.9528 221.708,56.6195 221,57.5C 219,54.5 219,51.5 221,48.5C 226.092,44.7016 231.592,41.5349 237.5,39C 257.804,33.051 278.137,33.051 298.5,39C 315.31,42.6547 330.143,50.1547 343,61.5C 343.839,64.1396 343.339,66.4729 341.5,68.5C 335.345,64.8331 329.345,60.9997 323.5,57C 318.47,55.0478 313.47,53.2145 308.5,51.5 Z"/></g>
<g><path style="opacity:1" fill="#ce9f53" d="M 280.5,51.5 C 269.833,51.5 259.167,51.5 248.5,51.5C 259.173,48.9277 269.839,48.9277 280.5,51.5 Z"/></g>
<g><path style="opacity:1" fill="#4c3f11" d="M 317.5,111.5 C 317.787,113.121 318.787,114.121 320.5,114.5C 322.075,113.544 323.742,112.877 325.5,112.5C 325.171,115.228 325.837,117.562 327.5,119.5C 327.557,120.609 327.89,121.609 328.5,122.5C 326.785,123.919 324.952,125.253 323,126.5C 322.262,130.472 321.096,134.306 319.5,138C 319.492,141.154 320.158,141.321 321.5,138.5C 322.5,139.5 323.5,140.5 324.5,141.5C 322.621,146.6 321.954,151.933 322.5,157.5C 321.677,154.023 321.177,150.356 321,146.5C 320.617,147.056 320.117,147.389 319.5,147.5C 319.5,146.167 319.5,144.833 319.5,143.5C 318.178,143.67 317.011,143.337 316,142.5C 310.27,152.563 302.77,161.063 293.5,168C 283.381,172.624 272.715,174.791 261.5,174.5C 262.167,175.167 262.833,175.833 263.5,176.5C 269.463,177.496 275.463,177.829 281.5,177.5C 279.193,179.047 276.527,179.713 273.5,179.5C 269.459,179.327 265.459,178.827 261.5,178C 259.934,177.392 258.6,176.558 257.5,175.5C 257.279,174.265 256.612,173.265 255.5,172.5C 256.025,171.808 256.692,171.308 257.5,171C 247.366,162.915 240.032,152.749 235.5,140.5C 236.763,135.534 238.263,130.534 240,125.5C 241.73,123.598 243.563,121.931 245.5,120.5C 246.283,122.343 246.95,124.343 247.5,126.5C 252.757,127.991 258.09,128.491 263.5,128C 271.389,126.286 275.389,121.452 275.5,113.5C 276.404,114.209 276.737,115.209 276.5,116.5C 280.362,115.572 284.029,114.072 287.5,112C 290.5,111.333 293.5,111.333 296.5,112C 301.516,115.69 305.016,120.524 307,126.5C 309.54,127.876 311.54,127.21 313,124.5C 314.671,120.107 316.171,115.774 317.5,111.5 Z"/></g>
<g><path style="opacity:1" fill="#e1a647" d="M 271.5,150.5 C 268.833,150.5 266.167,150.5 263.5,150.5C 263.263,151.791 263.596,152.791 264.5,153.5C 265.058,154.79 266.058,155.623 267.5,156C 260.275,158.478 254.775,156.312 251,149.5C 249.259,146.691 248.092,143.691 247.5,140.5C 247.5,138.833 247.5,137.167 247.5,135.5C 248.833,135.5 250.167,135.5 251.5,135.5C 265.593,138.185 278.093,134.852 289,125.5C 289.418,127.788 288.751,129.788 287,131.5C 278.315,138.009 268.482,141.676 257.5,142.5C 270.46,145.8 281.627,142.466 291,132.5C 292.903,129.829 293.736,126.829 293.5,123.5C 295.438,122.539 296.938,123.205 298,125.5C 299.401,133.969 298.068,141.969 294,149.5C 290.365,155.181 285.532,156.681 279.5,154C 281.677,152.814 282.677,150.981 282.5,148.5C 278.767,148.87 275.101,149.537 271.5,150.5 Z"/></g>
<g><path style="opacity:1" fill="#885b14" d="M 271.5,150.5 C 268.841,150.917 266.508,151.917 264.5,153.5C 263.596,152.791 263.263,151.791 263.5,150.5C 266.167,150.5 268.833,150.5 271.5,150.5 Z"/></g>
<g><path style="opacity:1" fill="#332905" d="M 293.5,123.5 C 293.736,126.829 292.903,129.829 291,132.5C 281.627,142.466 270.46,145.8 257.5,142.5C 268.482,141.676 278.315,138.009 287,131.5C 288.751,129.788 289.418,127.788 289,125.5C 278.093,134.852 265.593,138.185 251.5,135.5C 248.185,132.383 246.185,133.049 245.5,137.5C 244.742,135.019 244.742,132.352 245.5,129.5C 248.32,129.248 250.986,129.748 253.5,131C 263.317,132.608 272.65,131.275 281.5,127C 285.011,124.153 288.511,121.32 292,118.5C 293.395,118.78 294.562,119.447 295.5,120.5C 294.388,121.265 293.721,122.265 293.5,123.5 Z"/></g>
<g><path style="opacity:1" fill="#d0ae6a" d="M 251.5,135.5 C 250.167,135.5 248.833,135.5 247.5,135.5C 247.5,137.167 247.5,138.833 247.5,140.5C 246.833,139.5 246.167,138.5 245.5,137.5C 246.185,133.049 248.185,132.383 251.5,135.5 Z"/></g>
<g><path style="opacity:1" fill="#352e02" d="M 319.5,147.5 C 318.833,148.833 318.167,150.167 317.5,151.5C 310.6,161.231 301.933,169.064 291.5,175C 288.28,176.352 284.947,177.186 281.5,177.5C 275.463,177.829 269.463,177.496 263.5,176.5C 262.833,175.833 262.167,175.167 261.5,174.5C 272.715,174.791 283.381,172.624 293.5,168C 302.77,161.063 310.27,152.563 316,142.5C 317.011,143.337 318.178,143.67 319.5,143.5C 319.5,144.833 319.5,146.167 319.5,147.5 Z"/></g>
<g><path style="opacity:1" fill="#edd39c" d="M 229.5,143.5 C 232.92,148.821 236.253,154.321 239.5,160C 228.134,163.851 217.467,169.017 207.5,175.5C 207.5,174.167 207.5,172.833 207.5,171.5C 216.047,167.955 224.38,163.955 232.5,159.5C 232.833,158.833 233.167,158.167 233.5,157.5C 231.346,153.041 230.013,148.374 229.5,143.5 Z"/></g>
<g><path style="opacity:1" fill="#bd8a2c" d="M 261.5,183.5 C 258.269,181.78 255.436,179.447 253,176.5C 252.251,175.365 252.417,174.365 253.5,173.5C 254.622,174.63 255.956,175.297 257.5,175.5C 258.6,176.558 259.934,177.392 261.5,178C 265.459,178.827 269.459,179.327 273.5,179.5C 276.527,179.713 279.193,179.047 281.5,177.5C 284.947,177.186 288.28,176.352 291.5,175C 301.933,169.064 310.6,161.231 317.5,151.5C 318.75,151.423 319.583,150.756 320,149.5C 321.708,156.468 320.041,162.468 315,167.5C 299.961,182.218 282.128,187.551 261.5,183.5 Z"/></g>
<g><path style="opacity:1" fill="#e1a84c" d="M 322.5,157.5 C 323.468,160.445 323.634,163.445 323,166.5C 320.492,169.531 317.992,172.531 315.5,175.5C 306.006,182.744 295.339,187.577 283.5,190C 274.897,191.74 267.564,189.574 261.5,183.5C 282.128,187.551 299.961,182.218 315,167.5C 320.041,162.468 321.708,156.468 320,149.5C 319.583,150.756 318.75,151.423 317.5,151.5C 318.167,150.167 318.833,148.833 319.5,147.5C 320.117,147.389 320.617,147.056 321,146.5C 321.177,150.356 321.677,154.023 322.5,157.5 Z"/></g>
<g><path style="opacity:1" fill="#dca84f" d="M 87.5,185.5 C 88.2177,181.758 90.2177,178.758 93.5,176.5C 92.5,176.167 91.5,175.833 90.5,175.5C 88.4649,176.204 86.4649,176.871 84.5,177.5C 91.2851,169.855 99.7851,165.188 110,163.5C 116.144,163.598 116.977,165.764 112.5,170C 102.16,172.158 93.8269,177.325 87.5,185.5 Z"/></g>
<g><path style="opacity:1" fill="#daa84d" d="M 83.5,178.5 C 82.4664,182.534 79.7997,184.201 75.5,183.5C 76.0356,180.302 75.369,177.635 73.5,175.5C 80.2793,162.739 90.946,156.072 105.5,155.5C 105.5,156.833 105.5,158.167 105.5,159.5C 93.2075,162.47 83.5408,169.137 76.5,179.5C 76.5565,180.737 77.0565,181.737 78,182.5C 79.9917,181.335 81.825,180.002 83.5,178.5 Z"/></g>
<g><path style="opacity:1" fill="#ebd39d" d="M 352.5,159.5 C 357.469,160.494 362.469,161.494 367.5,162.5C 368.833,164.5 370.167,166.5 371.5,168.5C 374.086,169.48 376.753,169.813 379.5,169.5C 379.5,171.5 379.5,173.5 379.5,175.5C 380.978,175.238 382.311,175.571 383.5,176.5C 389.563,181.618 393.896,187.951 396.5,195.5C 399.463,197.442 401.129,200.108 401.5,203.5C 398.565,200.062 395.399,196.729 392,193.5C 390.918,187.396 387.751,182.563 382.5,179C 373.134,171.456 363.134,164.956 352.5,159.5 Z"/></g>
<g><path style="opacity:1" fill="#dea84b" d="M 99.5,197.5 C 97.9652,196.156 96.6319,194.489 95.5,192.5C 96.6888,191.571 98.0222,191.238 99.5,191.5C 99.5772,188.988 98.5772,186.988 96.5,185.5C 94.614,186.93 92.9473,188.597 91.5,190.5C 90.0416,191.782 88.7082,191.782 87.5,190.5C 91.9046,187.604 95.9046,184.104 99.5,180C 106.342,174.598 113.342,174.265 120.5,179C 116.565,179.084 112.898,180.084 109.5,182C 105.964,185.201 102.797,188.701 100,192.5C 98.4807,194.139 98.314,195.806 99.5,197.5 Z"/></g>
<g><path style="opacity:1" fill="#434112" d="M 236.5,166.5 C 239.34,165.88 242.174,165.213 245,164.5C 246.061,169.104 246.727,173.771 247,178.5C 248.773,181.06 250.773,183.393 253,185.5C 253.414,185.043 253.914,184.709 254.5,184.5C 258.066,190.546 263.4,194.046 270.5,195C 285.583,196.979 299.25,193.479 311.5,184.5C 316.917,181.352 321.75,177.352 326,172.5C 328.291,167.552 331.291,163.218 335,159.5C 353.384,164.042 368.884,173.208 381.5,187C 365.699,192.493 350.366,199.16 335.5,207C 316.33,215.468 296.33,220.968 275.5,223.5C 248.082,220.041 225.915,207.374 209,185.5C 208.333,184.5 208.333,183.5 209,182.5C 216.909,174.964 226.075,169.63 236.5,166.5 Z"/></g>
<g><path style="opacity:1" fill="#e9a846" d="M 73.5,175.5 C 75.369,177.635 76.0356,180.302 75.5,183.5C 79.7997,184.201 82.4664,182.534 83.5,178.5C 83.5,177.833 83.8333,177.5 84.5,177.5C 86.4649,176.871 88.4649,176.204 90.5,175.5C 91.5,175.833 92.5,176.167 93.5,176.5C 90.2177,178.758 88.2177,181.758 87.5,185.5C 86.438,187.234 86.438,188.901 87.5,190.5C 88.7082,191.782 90.0416,191.782 91.5,190.5C 92.9473,188.597 94.614,186.93 96.5,185.5C 98.5772,186.988 99.5772,188.988 99.5,191.5C 98.0222,191.238 96.6888,191.571 95.5,192.5C 96.6319,194.489 97.9652,196.156 99.5,197.5C 104.597,193.505 109.597,189.338 114.5,185C 119.937,183.345 124.103,184.845 127,189.5C 128.091,195.097 127.424,200.43 125,205.5C 123.112,207.922 121.112,207.922 119,205.5C 119.235,202.883 120.068,200.383 121.5,198C 121.612,196.338 120.946,195.171 119.5,194.5C 116.554,197.55 114.22,201.05 112.5,205C 114.239,207.378 116.239,209.545 118.5,211.5C 119.518,213.594 120.518,215.594 121.5,217.5C 122.59,223.613 120.923,228.779 116.5,233C 106.493,239.979 97.6597,238.812 90,229.5C 84.2188,218.937 78.7188,208.27 73.5,197.5C 71.51,191.005 71.01,184.339 72,177.5C 72.2784,176.584 72.7784,175.918 73.5,175.5 Z"/></g>
<g><path style="opacity:1" fill="#2f2d02" d="M 228.5,183.5 C 239.694,194.098 252.694,201.598 267.5,206C 281.173,208.125 294.173,206.125 306.5,200C 314.01,196.245 321.343,192.578 328.5,189C 311.109,206.528 290.109,214.194 265.5,212C 252.554,208.363 241.721,201.53 233,191.5C 231.223,188.941 229.723,186.274 228.5,183.5 Z"/></g>
<g><path style="opacity:1" fill="#f1d399" d="M 65.5,191.5 C 70.3787,203.924 76.3787,215.924 83.5,227.5C 80.7197,231.05 79.8864,235.05 81,239.5C 84.6079,251.488 88.1079,263.488 91.5,275.5C 90.7784,275.918 90.2784,276.584 90,277.5C 89.657,274.807 88.3237,272.807 86,271.5C 85.5012,267.514 85.3345,263.514 85.5,259.5C 83.396,259.799 81.396,259.466 79.5,258.5C 80.6937,256.377 81.3603,254.043 81.5,251.5C 79.8699,242.235 79.2032,232.902 79.5,223.5C 76.8559,223.84 74.5225,223.173 72.5,221.5C 71.8333,222.167 71.1667,222.833 70.5,223.5C 69.0344,219.947 69.3677,216.614 71.5,213.5C 69.305,208.944 66.9717,204.444 64.5,200C 65.4438,197.281 65.7771,194.448 65.5,191.5 Z"/></g>
<g><path style="opacity:1" fill="#424012" d="M 412.5,247.5 C 415.844,256.024 417.844,264.858 418.5,274C 418.954,276.717 420.288,277.55 422.5,276.5C 422.833,280 423.167,283.5 423.5,287C 423.927,291.48 423.927,295.814 423.5,300C 425.032,303.975 425.698,308.142 425.5,312.5C 425.34,316.287 424.674,319.954 423.5,323.5C 423.608,324.442 423.941,325.275 424.5,326C 422.096,326.508 421.429,327.675 422.5,329.5C 422.023,330.931 421.357,332.264 420.5,333.5C 418.523,329.924 418.19,326.257 419.5,322.5C 417.801,322.34 416.134,322.506 414.5,323C 415.167,323.333 415.833,323.667 416.5,324C 408.493,327.331 400.16,329.498 391.5,330.5C 382.176,329.849 372.842,329.349 363.5,329C 356.807,328.188 350.307,326.688 344,324.5C 343.667,324.833 343.333,325.167 343,325.5C 340.342,322.627 337.342,321.961 334,323.5C 332.599,321.808 330.766,321.141 328.5,321.5C 330.893,319.264 332.727,316.597 334,313.5C 336.629,304.997 337.629,296.331 337,287.5C 336.654,285.782 336.154,284.115 335.5,282.5C 336.5,282.167 337.5,281.833 338.5,281.5C 356.565,285.883 374.899,288.383 393.5,289C 397.776,290.995 402.11,291.828 406.5,291.5C 401.358,287.596 395.692,284.763 389.5,283C 380.14,282.683 370.807,282.016 361.5,281C 360.234,280.691 359.067,280.191 358,279.5C 356.006,271.523 354.006,263.523 352,255.5C 350.94,246.021 351.607,236.688 354,227.5C 355.534,226.185 356.034,224.852 355.5,223.5C 349.083,229.728 345.75,237.394 345.5,246.5C 346.585,254.844 347.751,263.177 349,271.5C 349.303,273.888 350.137,276.055 351.5,278C 343.714,277.567 336.047,276.233 328.5,274C 326.353,271.763 324.02,269.763 321.5,268C 312.725,265.114 304.725,260.947 297.5,255.5C 294.933,250.358 291.266,249.025 286.5,251.5C 285.614,252.325 285.281,253.325 285.5,254.5C 282.852,253.316 280.185,251.982 277.5,250.5C 275.309,251.743 272.976,252.576 270.5,253C 272.167,253.333 273.833,253.667 275.5,254C 270.386,254.109 265.386,254.776 260.5,256C 257.615,259.274 255.948,263.107 255.5,267.5C 250.038,271.533 248.704,276.533 251.5,282.5C 251.125,284.916 250.459,287.25 249.5,289.5C 250.036,292.205 251.536,294.205 254,295.5C 253.674,299.47 253.674,303.47 254,307.5C 254.74,309.319 255.907,310.652 257.5,311.5C 257.5,313.5 257.5,315.5 257.5,317.5C 259.5,318.167 261.5,318.833 263.5,319.5C 263.81,322.713 263.477,325.713 262.5,328.5C 255.58,327.372 248.58,327.205 241.5,328C 239.656,329.182 237.823,330.349 236,331.5C 228.447,330.278 220.947,328.778 213.5,327C 209.599,326.324 206.099,324.824 203,322.5C 200.887,317.716 199.554,312.716 199,307.5C 196.078,285.212 195.744,262.879 198,240.5C 200.862,230.975 201.696,221.309 200.5,211.5C 197.852,217.608 195.686,223.942 194,230.5C 191.896,247.409 190.896,264.409 191,281.5C 187.335,283.828 184.002,287.162 181,291.5C 176.161,296.672 170.994,301.505 165.5,306C 163.393,307.687 161.226,308.187 159,307.5C 157.946,308.482 157.446,309.649 157.5,311C 149.081,315.535 140.081,318.369 130.5,319.5C 124.91,317.372 119.577,314.705 114.5,311.5C 115.552,310.47 116.886,309.803 118.5,309.5C 126.767,311.881 135.1,312.048 143.5,310C 146.127,308.69 148.46,307.023 150.5,305C 150,304.5 149.5,304 149,303.5C 148,303.833 147,304.167 146,304.5C 144.294,303.692 143.461,302.359 143.5,300.5C 144.833,300.5 146.167,300.5 147.5,300.5C 147.5,299.167 147.5,297.833 147.5,296.5C 140.869,297.331 134.202,297.664 127.5,297.5C 127.5,294.167 127.5,290.833 127.5,287.5C 133.229,287.212 138.896,287.546 144.5,288.5C 145.358,286.099 146.691,284.099 148.5,282.5C 149.79,281.942 150.623,280.942 151,279.5C 152.356,272.559 152.523,265.559 151.5,258.5C 157.284,260.438 161.784,264.104 165,269.5C 164.639,266.076 163.639,262.742 162,259.5C 158.671,254.672 154.505,250.672 149.5,247.5C 160.928,234.913 171.761,221.913 182,208.5C 187.729,202.603 193.562,196.936 199.5,191.5C 201.258,191.123 202.925,190.456 204.5,189.5C 217.845,205.024 233.845,216.857 252.5,225C 262.926,228.307 273.593,229.307 284.5,228C 305.698,224.286 326.032,217.953 345.5,209C 356.625,201.941 368.625,196.774 381.5,193.5C 383.949,194.225 386.283,195.225 388.5,196.5C 400.984,210.609 408.984,227.609 412.5,247.5 Z"/></g>
<g><path style="opacity:1" fill="#464413" d="M 148.5,282.5 C 146.691,284.099 145.358,286.099 144.5,288.5C 138.896,287.546 133.229,287.212 127.5,287.5C 127.5,290.833 127.5,294.167 127.5,297.5C 134.202,297.664 140.869,297.331 147.5,296.5C 147.5,297.833 147.5,299.167 147.5,300.5C 146.167,300.5 144.833,300.5 143.5,300.5C 143.461,302.359 144.294,303.692 146,304.5C 147,304.167 148,303.833 149,303.5C 149.5,304 150,304.5 150.5,305C 148.46,307.023 146.127,308.69 143.5,310C 135.1,312.048 126.767,311.881 118.5,309.5C 116.886,309.803 115.552,310.47 114.5,311.5C 109.667,306.484 105.834,300.817 103,294.5C 98.8631,280.424 94.5298,266.424 90,252.5C 88.3387,246.547 87.3387,240.547 87,234.5C 101.999,246.57 114.999,244.57 126,228.5C 129.387,233.452 132.887,238.286 136.5,243C 144.207,255.03 148.207,268.196 148.5,282.5 Z"/></g>
<g><path style="opacity:1" fill="#a58d50" d="M 294.5,257.5 C 294.833,258.167 295.167,258.833 295.5,259.5C 293.407,258.955 291.407,258.122 289.5,257C 291.265,256.36 292.932,256.527 294.5,257.5 Z"/></g>
<g><path style="opacity:1" fill="#dc9d42" d="M 299.5,266.5 C 299.5,266.833 299.5,267.167 299.5,267.5C 297.334,267.421 295.334,266.754 293.5,265.5C 288.798,267.259 288.632,268.925 293,270.5C 293.494,272.134 293.66,273.801 293.5,275.5C 284.68,271.46 275.347,268.96 265.5,268C 260.705,265.856 260.372,263.19 264.5,260C 276.853,258.946 288.52,261.113 299.5,266.5 Z"/></g>
<g><path style="opacity:1" fill="#c39f5a" d="M 315.5,271.5 C 313.824,272.183 313.157,273.517 313.5,275.5C 310.194,275.181 307.527,273.847 305.5,271.5C 307.55,271.961 309.55,272.628 311.5,273.5C 312.386,272.675 312.719,271.675 312.5,270.5C 313.791,270.263 314.791,270.596 315.5,271.5 Z"/></g>
<g><path style="opacity:1" fill="#302b04" d="M 328.5,321.5 C 325.507,321.995 323.174,323.495 321.5,326C 323.644,327.146 325.477,328.646 327,330.5C 349.066,338.851 371.732,344.185 395,346.5C 401.199,345.495 407.365,344.328 413.5,343C 414.126,342.25 414.626,341.416 415,340.5C 416.716,340.411 418.549,340.744 420.5,341.5C 424.01,335.641 426.343,329.307 427.5,322.5C 427.93,313.011 428.263,303.678 428.5,294.5C 431.522,307.601 431.022,320.601 427,333.5C 420.956,346.28 410.789,352.613 396.5,352.5C 384.709,352.011 373.376,349.677 362.5,345.5C 361.339,349.795 361.172,354.129 362,358.5C 366.644,375.578 371.144,392.578 375.5,409.5C 377.599,421.756 380.266,433.756 383.5,445.5C 384.574,452.537 385.907,459.537 387.5,466.5C 386.198,469.466 384.198,471.799 381.5,473.5C 378.702,474.1 376.035,475.1 373.5,476.5C 373.167,478.833 372.833,481.167 372.5,483.5C 373.255,505.825 373.755,528.158 374,550.5C 376.596,554.604 378.429,558.938 379.5,563.5C 379.84,569.033 380.506,574.533 381.5,580C 381.656,584.521 379.823,588.021 376,590.5C 375.777,607.858 375.277,625.191 374.5,642.5C 373.206,624.155 373.206,605.988 374.5,588C 372.981,588.331 371.648,588.164 370.5,587.5C 371.622,586.053 373.122,585.053 375,584.5C 375.167,582.5 375.333,580.5 375.5,578.5C 374.498,571.16 373.498,563.827 372.5,556.5C 361.496,559.233 350.496,561.566 339.5,563.5C 326.808,564.132 314.475,562.466 302.5,558.5C 301.893,558.624 301.56,558.957 301.5,559.5C 300.153,560.171 298.986,560.171 298,559.5C 297.83,568.676 297.33,577.676 296.5,586.5C 296.5,585.833 296.167,585.5 295.5,585.5C 295.334,575.494 295.5,565.494 296,555.5C 297.112,553.61 297.946,551.61 298.5,549.5C 294.963,536.338 291.297,523.338 287.5,510.5C 286.876,503.088 285.709,495.754 284,488.5C 277.575,487.556 271.075,486.889 264.5,486.5C 263.246,496.033 261.579,505.366 259.5,514.5C 258.076,516.515 257.41,518.848 257.5,521.5C 256.167,521.5 254.833,521.5 253.5,521.5C 253.354,524.826 254.021,527.993 255.5,531C 252.341,538.091 250.675,545.591 250.5,553.5C 248.356,551.439 248.023,552.105 249.5,555.5C 243.502,557.962 237.169,559.462 230.5,560C 220.12,560.785 209.787,560.619 199.5,559.5C 198.859,558.518 198.193,557.518 197.5,556.5C 193.033,556.165 189.367,554.498 186.5,551.5C 204.139,555.76 221.806,556.427 239.5,553.5C 241.414,552.815 243.414,552.315 245.5,552C 246.516,551.481 247.182,550.647 247.5,549.5C 251.898,528.073 255.898,506.573 259.5,485C 259.375,483.373 258.875,481.873 258,480.5C 251.985,478.65 245.818,477.816 239.5,478C 240.856,480.274 240.356,482.107 238,483.5C 222.24,481.511 206.74,478.344 191.5,474C 190.429,473.148 189.429,472.315 188.5,471.5C 192.838,471.378 193.172,471.045 189.5,470.5C 189.473,468.801 188.806,467.467 187.5,466.5C 193.545,469.127 199.879,471.294 206.5,473C 213.278,473.907 219.945,475.24 226.5,477C 229.76,477.784 232.927,477.617 236,476.5C 241.325,442.05 247.159,407.717 253.5,373.5C 244.946,375.637 238.613,372.97 234.5,365.5C 222.628,363.892 211.295,360.558 200.5,355.5C 198.474,358.897 196.474,362.23 194.5,365.5C 193.141,366.007 192.141,367.007 191.5,368.5C 190.735,367.388 189.735,366.721 188.5,366.5C 188.328,365.508 188.662,364.842 189.5,364.5C 189.435,364.938 189.601,365.272 190,365.5C 190.914,363.336 192.081,361.336 193.5,359.5C 194.192,360.025 194.692,360.692 195,361.5C 195.449,357.895 196.616,354.562 198.5,351.5C 204.054,354.671 210.721,356.838 218.5,358C 218.167,358.333 217.833,358.667 217.5,359C 220.367,359.029 222.867,359.862 225,361.5C 226.754,359.75 228.921,359.083 231.5,359.5C 232.833,359.5 234.167,359.5 235.5,359.5C 235.5,351.833 235.5,344.167 235.5,336.5C 235.917,335.876 236.584,335.543 237.5,335.5C 238.713,335.747 239.38,336.414 239.5,337.5C 239.334,346.839 239.5,356.173 240,365.5C 240.708,366.381 241.542,367.047 242.5,367.5C 253.294,369.058 264.294,369.725 275.5,369.5C 277.698,369.12 279.365,369.787 280.5,371.5C 279.942,372.79 278.942,373.623 277.5,374C 270.486,374.499 263.486,374.332 256.5,373.5C 259.266,408.827 262.099,444.161 265,479.5C 265.5,480 266,480.5 266.5,481C 295.438,483.649 324.104,482.149 352.5,476.5C 352.435,476.938 352.601,477.272 353,477.5C 362.219,474.4 371.385,471.067 380.5,467.5C 382.461,466.152 382.628,464.819 381,463.5C 377.307,439.763 371.974,416.43 365,393.5C 363.651,389.634 363.485,385.801 364.5,382C 360.808,376.146 358.808,369.312 358.5,361.5C 349.141,364.836 339.474,367.17 329.5,368.5C 328.167,368.5 326.833,368.5 325.5,368.5C 332.008,365.939 338.508,363.273 345,360.5C 347.041,361.423 349.208,361.756 351.5,361.5C 351.5,360.5 351.5,359.5 351.5,358.5C 358.637,355.202 359.47,350.536 354,344.5C 343.393,341.429 332.56,339.762 321.5,339.5C 318.167,339.5 314.833,339.5 311.5,339.5C 311.5,338.167 311.5,336.833 311.5,335.5C 315.846,335.666 320.179,335.499 324.5,335C 319.196,333.181 314.53,330.347 310.5,326.5C 314.226,323.463 313.392,322.796 308,324.5C 307.055,324.095 306.388,323.428 306,322.5C 304.951,323.517 303.784,323.684 302.5,323C 303.167,322.667 303.833,322.333 304.5,322C 312.268,321.785 319.935,320.952 327.5,319.5C 327.424,315.616 328.09,311.95 329.5,308.5C 332.649,298.924 332.149,289.591 328,280.5C 326.223,278.21 324.056,276.543 321.5,275.5C 319.853,273.674 317.853,272.34 315.5,271.5C 314.791,270.596 313.791,270.263 312.5,270.5C 312.719,271.675 312.386,272.675 311.5,273.5C 309.55,272.628 307.55,271.961 305.5,271.5C 303.795,269.808 301.795,268.475 299.5,267.5C 299.5,267.167 299.5,266.833 299.5,266.5C 300.583,266.539 301.583,266.873 302.5,267.5C 303.59,266.273 304.924,265.44 306.5,265C 302.723,263.39 299.056,261.557 295.5,259.5C 295.167,258.833 294.833,258.167 294.5,257.5C 294.821,255.952 295.821,255.285 297.5,255.5C 304.725,260.947 312.725,265.114 321.5,268C 324.02,269.763 326.353,271.763 328.5,274C 336.047,276.233 343.714,277.567 351.5,278C 350.137,276.055 349.303,273.888 349,271.5C 347.751,263.177 346.585,254.844 345.5,246.5C 345.75,237.394 349.083,229.728 355.5,223.5C 356.034,224.852 355.534,226.185 354,227.5C 351.607,236.688 350.94,246.021 352,255.5C 354.006,263.523 356.006,271.523 358,279.5C 359.067,280.191 360.234,280.691 361.5,281C 370.807,282.016 380.14,282.683 389.5,283C 395.692,284.763 401.358,287.596 406.5,291.5C 402.11,291.828 397.776,290.995 393.5,289C 374.899,288.383 356.565,285.883 338.5,281.5C 337.5,281.833 336.5,282.167 335.5,282.5C 336.154,284.115 336.654,285.782 337,287.5C 337.629,296.331 336.629,304.997 334,313.5C 332.727,316.597 330.893,319.264 328.5,321.5 Z"/></g>
<g><path style="opacity:1" fill="#3e2f07" d="M 265.5,281.5 C 273.465,282.821 281.132,285.155 288.5,288.5C 289.386,289.325 289.719,290.325 289.5,291.5C 279.672,288.897 269.672,286.897 259.5,285.5C 257.545,285.724 255.879,286.391 254.5,287.5C 253.566,286.432 253.232,285.099 253.5,283.5C 256.85,283.665 260.183,283.498 263.5,283C 264.416,282.722 265.082,282.222 265.5,281.5 Z"/></g>
<g><path style="opacity:1" fill="#e9a642" d="M 299.5,267.5 C 301.795,268.475 303.795,269.808 305.5,271.5C 307.527,273.847 310.194,275.181 313.5,275.5C 313.157,273.517 313.824,272.183 315.5,271.5C 317.853,272.34 319.853,273.674 321.5,275.5C 322.743,277.753 324.41,279.753 326.5,281.5C 329.31,288.644 329.977,295.977 328.5,303.5C 327.086,307.984 325.419,312.318 323.5,316.5C 323.5,317.167 323.167,317.5 322.5,317.5C 307.74,319.216 294.073,316.216 281.5,308.5C 273.066,307.833 266.066,306.833 260.5,305.5C 258.087,304.32 257.087,302.32 257.5,299.5C 266.842,300.701 276.175,302.034 285.5,303.5C 285.439,300.95 284.106,299.45 281.5,299C 273.201,296.873 264.868,294.873 256.5,293C 254.845,291.556 254.178,289.722 254.5,287.5C 255.879,286.391 257.545,285.724 259.5,285.5C 269.672,286.897 279.672,288.897 289.5,291.5C 289.719,290.325 289.386,289.325 288.5,288.5C 281.132,285.155 273.465,282.821 265.5,281.5C 262.167,280.833 258.833,280.167 255.5,279.5C 254.16,273.507 256.493,271.173 262.5,272.5C 267.184,272.836 271.851,273.336 276.5,274C 282.03,276.104 287.697,277.604 293.5,278.5C 293.5,277.5 293.5,276.5 293.5,275.5C 293.66,273.801 293.494,272.134 293,270.5C 288.632,268.925 288.798,267.259 293.5,265.5C 295.334,266.754 297.334,267.421 299.5,267.5 Z"/></g>
<g><path style="opacity:1" fill="#f8d391" d="M 511.5,287.5 C 511.5,292.833 511.5,298.167 511.5,303.5C 514.167,303.5 516.833,303.5 519.5,303.5C 519.5,306.167 519.5,308.833 519.5,311.5C 522.167,311.5 524.833,311.5 527.5,311.5C 527.5,314.167 527.5,316.833 527.5,319.5C 522.167,319.5 516.833,319.5 511.5,319.5C 511.5,322.167 511.5,324.833 511.5,327.5C 516.833,327.5 522.167,327.5 527.5,327.5C 527.5,330.167 527.5,332.833 527.5,335.5C 528.833,335.5 530.167,335.5 531.5,335.5C 531.5,340.833 531.5,346.167 531.5,351.5C 530.167,351.5 528.833,351.5 527.5,351.5C 527.5,356.833 527.5,362.167 527.5,367.5C 522.167,367.5 516.833,367.5 511.5,367.5C 511.5,372.833 511.5,378.167 511.5,383.5C 518.167,383.5 524.833,383.5 531.5,383.5C 532.037,388.739 531.37,393.739 529.5,398.5C 523.537,399.496 517.537,399.829 511.5,399.5C 511.5,404.833 511.5,410.167 511.5,415.5C 508.833,415.5 506.167,415.5 503.5,415.5C 503.5,420.833 503.5,426.167 503.5,431.5C 506.167,431.5 508.833,431.5 511.5,431.5C 511.5,447.5 511.5,463.5 511.5,479.5C 516.833,479.5 522.167,479.5 527.5,479.5C 527.5,484.833 527.5,490.167 527.5,495.5C 522.833,495.5 518.167,495.5 513.5,495.5C 512.833,506.167 512.167,516.833 511.5,527.5C 514.167,527.5 516.833,527.5 519.5,527.5C 519.5,530.167 519.5,532.833 519.5,535.5C 522.167,535.5 524.833,535.5 527.5,535.5C 527.5,538.167 527.5,540.833 527.5,543.5C 524.833,543.5 522.167,543.5 519.5,543.5C 519.5,554.167 519.5,564.833 519.5,575.5C 522.167,575.5 524.833,575.5 527.5,575.5C 527.5,602.167 527.5,628.833 527.5,655.5C 530.167,655.5 532.833,655.5 535.5,655.5C 535.5,658.167 535.5,660.833 535.5,663.5C 538.167,663.5 540.833,663.5 543.5,663.5C 543.5,671.5 543.5,679.5 543.5,687.5C 538.167,687.5 532.833,687.5 527.5,687.5C 527.5,692.833 527.5,698.167 527.5,703.5C 513.484,703.167 499.484,703.501 485.5,704.5C 483.668,705.248 482.001,706.248 480.5,707.5C 479.571,706.311 479.238,704.978 479.5,703.5C 473.605,702.946 467.938,703.612 462.5,705.5C 461.304,705.154 461.304,704.654 462.5,704C 460.866,703.506 459.199,703.34 457.5,703.5C 437.649,695.188 416.982,689.854 395.5,687.5C 393.667,687.585 392.334,688.252 391.5,689.5C 385.866,683.696 380.366,677.696 375,671.5C 374.5,661.839 374.334,652.172 374.5,642.5C 375.277,625.191 375.777,607.858 376,590.5C 379.823,588.021 381.656,584.521 381.5,580C 380.506,574.533 379.84,569.033 379.5,563.5C 379.704,558.583 378.704,553.917 376.5,549.5C 376.012,527.297 375.012,505.13 373.5,483C 373.833,481.833 374.167,480.667 374.5,479.5C 377.537,478.173 379.87,476.173 381.5,473.5C 384.198,471.799 386.198,469.466 387.5,466.5C 385.907,459.537 384.574,452.537 383.5,445.5C 382.554,434.835 380.887,424.168 378.5,413.5C 377.943,411.668 376.943,410.335 375.5,409.5C 373.296,397.605 371.962,385.605 371.5,373.5C 372.833,373.5 374.167,373.5 375.5,373.5C 375.5,376.167 375.5,378.833 375.5,381.5C 377.492,381.328 379.158,381.995 380.5,383.5C 381.509,379.463 382.509,375.463 383.5,371.5C 382.5,371.5 381.5,371.5 380.5,371.5C 380.657,372.873 380.49,374.207 380,375.5C 377.72,371.885 375.886,368.051 374.5,364C 375.191,362.933 375.691,361.766 376,360.5C 376.333,360.833 376.667,361.167 377,361.5C 377.49,360.207 377.657,358.873 377.5,357.5C 380.748,357.584 383.748,356.751 386.5,355C 386.167,354.667 385.833,354.333 385.5,354C 391.794,352.923 397.794,353.756 403.5,356.5C 400.497,357.608 399.997,359.275 402,361.5C 405.149,359.638 408.649,358.971 412.5,359.5C 412.258,363.917 414.258,366.583 418.5,367.5C 418.5,372.5 418.5,377.5 418.5,382.5C 429.167,382.5 439.833,382.5 450.5,382.5C 450.5,377.167 450.5,371.833 450.5,366.5C 453.5,366.5 456.5,366.5 459.5,366.5C 459.5,360.167 459.5,353.833 459.5,347.5C 461.861,347.674 464.194,348.007 466.5,348.5C 466.5,344.167 466.5,339.833 466.5,335.5C 465.5,335.5 464.5,335.5 463.5,335.5C 463.5,330.167 463.5,324.833 463.5,319.5C 468.833,319.5 474.167,319.5 479.5,319.5C 479.5,314.167 479.5,308.833 479.5,303.5C 484.833,303.5 490.167,303.5 495.5,303.5C 495.5,298.167 495.5,292.833 495.5,287.5C 500.833,287.5 506.167,287.5 511.5,287.5 Z"/></g>
<g><path style="opacity:1" fill="#8b7e60" d="M 190.5,288.5 C 190.56,287.957 190.893,287.624 191.5,287.5C 192.474,289.743 192.808,292.076 192.5,294.5C 191.833,292.5 191.167,290.5 190.5,288.5 Z"/></g>
<g><path style="opacity:1" fill="#daa851" d="M 321.5,275.5 C 324.056,276.543 326.223,278.21 328,280.5C 332.149,289.591 332.649,298.924 329.5,308.5C 327.997,311.489 325.997,314.156 323.5,316.5C 325.419,312.318 327.086,307.984 328.5,303.5C 329.977,295.977 329.31,288.644 326.5,281.5C 324.41,279.753 322.743,277.753 321.5,275.5 Z"/></g>
<g><path style="opacity:1" fill="#bb8735" d="M 260.5,305.5 C 266.066,306.833 273.066,307.833 281.5,308.5C 294.073,316.216 307.74,319.216 322.5,317.5C 321.942,318.79 320.942,319.623 319.5,320C 312.118,320.747 304.785,320.414 297.5,319C 285.276,313.874 272.942,309.374 260.5,305.5 Z"/></g>
<g><path style="opacity:1" fill="#f9d38e" d="M 543.5,239.5 C 543.5,380.833 543.5,522.167 543.5,663.5C 540.833,663.5 538.167,663.5 535.5,663.5C 535.5,660.833 535.5,658.167 535.5,655.5C 532.833,655.5 530.167,655.5 527.5,655.5C 527.5,628.833 527.5,602.167 527.5,575.5C 524.833,575.5 522.167,575.5 519.5,575.5C 519.5,564.833 519.5,554.167 519.5,543.5C 522.167,543.5 524.833,543.5 527.5,543.5C 527.5,540.833 527.5,538.167 527.5,535.5C 524.833,535.5 522.167,535.5 519.5,535.5C 519.5,532.833 519.5,530.167 519.5,527.5C 516.833,527.5 514.167,527.5 511.5,527.5C 512.167,516.833 512.833,506.167 513.5,495.5C 518.167,495.5 522.833,495.5 527.5,495.5C 527.5,490.167 527.5,484.833 527.5,479.5C 522.167,479.5 516.833,479.5 511.5,479.5C 511.5,463.5 511.5,447.5 511.5,431.5C 508.833,431.5 506.167,431.5 503.5,431.5C 503.5,426.167 503.5,420.833 503.5,415.5C 506.167,415.5 508.833,415.5 511.5,415.5C 511.5,410.167 511.5,404.833 511.5,399.5C 517.537,399.829 523.537,399.496 529.5,398.5C 531.37,393.739 532.037,388.739 531.5,383.5C 524.833,383.5 518.167,383.5 511.5,383.5C 511.5,378.167 511.5,372.833 511.5,367.5C 516.833,367.5 522.167,367.5 527.5,367.5C 527.5,362.167 527.5,356.833 527.5,351.5C 528.833,351.5 530.167,351.5 531.5,351.5C 531.5,346.167 531.5,340.833 531.5,335.5C 530.167,335.5 528.833,335.5 527.5,335.5C 527.5,332.833 527.5,330.167 527.5,327.5C 522.167,327.5 516.833,327.5 511.5,327.5C 511.5,324.833 511.5,322.167 511.5,319.5C 516.833,319.5 522.167,319.5 527.5,319.5C 527.5,316.833 527.5,314.167 527.5,311.5C 524.833,311.5 522.167,311.5 519.5,311.5C 519.5,308.833 519.5,306.167 519.5,303.5C 516.833,303.5 514.167,303.5 511.5,303.5C 511.5,298.167 511.5,292.833 511.5,287.5C 516.833,287.5 522.167,287.5 527.5,287.5C 527.5,282.167 527.5,276.833 527.5,271.5C 526.167,271.5 524.833,271.5 523.5,271.5C 523.5,266.167 523.5,260.833 523.5,255.5C 519.5,255.5 515.5,255.5 511.5,255.5C 511.5,250.167 511.5,244.833 511.5,239.5C 522.167,239.5 532.833,239.5 543.5,239.5 Z"/></g>
<g><path style="opacity:1" fill="#352c05" d="M 297.5,255.5 C 295.821,255.285 294.821,255.952 294.5,257.5C 292.932,256.527 291.265,256.36 289.5,257C 291.407,258.122 293.407,258.955 295.5,259.5C 299.056,261.557 302.723,263.39 306.5,265C 304.924,265.44 303.59,266.273 302.5,267.5C 301.583,266.873 300.583,266.539 299.5,266.5C 288.52,261.113 276.853,258.946 264.5,260C 260.372,263.19 260.705,265.856 265.5,268C 275.347,268.96 284.68,271.46 293.5,275.5C 293.5,276.5 293.5,277.5 293.5,278.5C 287.697,277.604 282.03,276.104 276.5,274C 271.851,273.336 267.184,272.836 262.5,272.5C 256.493,271.173 254.16,273.507 255.5,279.5C 258.833,280.167 262.167,280.833 265.5,281.5C 265.082,282.222 264.416,282.722 263.5,283C 260.183,283.498 256.85,283.665 253.5,283.5C 253.232,285.099 253.566,286.432 254.5,287.5C 254.178,289.722 254.845,291.556 256.5,293C 264.868,294.873 273.201,296.873 281.5,299C 284.106,299.45 285.439,300.95 285.5,303.5C 276.175,302.034 266.842,300.701 257.5,299.5C 257.087,302.32 258.087,304.32 260.5,305.5C 272.942,309.374 285.276,313.874 297.5,319C 304.785,320.414 312.118,320.747 319.5,320C 320.942,319.623 321.942,318.79 322.5,317.5C 323.167,317.5 323.5,317.167 323.5,316.5C 325.997,314.156 327.997,311.489 329.5,308.5C 328.09,311.95 327.424,315.616 327.5,319.5C 319.935,320.952 312.268,321.785 304.5,322C 303.833,322.333 303.167,322.667 302.5,323C 303.784,323.684 304.951,323.517 306,322.5C 306.388,323.428 307.055,324.095 308,324.5C 313.392,322.796 314.226,323.463 310.5,326.5C 298.227,324.908 286.56,321.408 275.5,316C 269.457,314.605 263.457,313.105 257.5,311.5C 255.907,310.652 254.74,309.319 254,307.5C 253.674,303.47 253.674,299.47 254,295.5C 251.536,294.205 250.036,292.205 249.5,289.5C 250.459,287.25 251.125,284.916 251.5,282.5C 248.704,276.533 250.038,271.533 255.5,267.5C 255.948,263.107 257.615,259.274 260.5,256C 265.386,254.776 270.386,254.109 275.5,254C 273.833,253.667 272.167,253.333 270.5,253C 272.976,252.576 275.309,251.743 277.5,250.5C 280.185,251.982 282.852,253.316 285.5,254.5C 285.281,253.325 285.614,252.325 286.5,251.5C 291.266,249.025 294.933,250.358 297.5,255.5 Z"/></g>
<g><path style="opacity:1" fill="#3a3c0c" d="M 257.5,311.5 C 263.457,313.105 269.457,314.605 275.5,316C 286.56,321.408 298.227,324.908 310.5,326.5C 314.53,330.347 319.196,333.181 324.5,335C 320.179,335.499 315.846,335.666 311.5,335.5C 302.384,335.029 293.384,335.695 284.5,337.5C 283.056,335.392 282.39,333.059 282.5,330.5C 275.745,328.694 269.078,328.027 262.5,328.5C 263.477,325.713 263.81,322.713 263.5,319.5C 261.5,318.833 259.5,318.167 257.5,317.5C 257.5,315.5 257.5,313.5 257.5,311.5 Z"/></g>
<g><path style="opacity:1" fill="#4e2c02" d="M 244.5,332.5 C 254.674,331.177 265.007,331.177 275.5,332.5C 276.612,333.265 277.279,334.265 277.5,335.5C 276.833,335.5 276.167,335.5 275.5,335.5C 265.39,333.683 255.056,332.683 244.5,332.5 Z"/></g>
<g><path style="opacity:1" fill="#a46f18" d="M 244.5,332.5 C 255.056,332.683 265.39,333.683 275.5,335.5C 274.022,335.238 272.689,335.571 271.5,336.5C 272.612,337.265 273.279,338.265 273.5,339.5C 264.304,337.727 254.971,337.061 245.5,337.5C 244.817,335.824 243.483,335.157 241.5,335.5C 241.5,333.5 242.5,332.5 244.5,332.5 Z"/></g>
<g><path style="opacity:1" fill="#f8d595" d="M 404.5,209.5 C 405.5,209.5 406.5,209.5 407.5,209.5C 407.5,210.833 407.5,212.167 407.5,213.5C 411.795,213.279 412.462,214.612 409.5,217.5C 410.191,219.891 411.191,219.891 412.5,217.5C 414.407,223.364 415.407,229.364 415.5,235.5C 416.833,235.5 418.167,235.5 419.5,235.5C 420.829,241.345 421.829,247.345 422.5,253.5C 425.212,255.26 428.212,255.927 431.5,255.5C 431.5,258.167 431.5,260.833 431.5,263.5C 434.167,263.5 436.833,263.5 439.5,263.5C 439.5,266.167 439.5,268.833 439.5,271.5C 447.5,271.5 455.5,271.5 463.5,271.5C 463.5,287.5 463.5,303.5 463.5,319.5C 463.5,324.833 463.5,330.167 463.5,335.5C 464.5,335.5 465.5,335.5 466.5,335.5C 466.5,339.833 466.5,344.167 466.5,348.5C 464.194,348.007 461.861,347.674 459.5,347.5C 459.5,353.833 459.5,360.167 459.5,366.5C 456.5,366.5 453.5,366.5 450.5,366.5C 450.5,371.833 450.5,377.167 450.5,382.5C 439.833,382.5 429.167,382.5 418.5,382.5C 418.5,377.5 418.5,372.5 418.5,367.5C 414.258,366.583 412.258,363.917 412.5,359.5C 408.649,358.971 405.149,359.638 402,361.5C 399.997,359.275 400.497,357.608 403.5,356.5C 397.794,353.756 391.794,352.923 385.5,354C 385.833,354.333 386.167,354.667 386.5,355C 383.748,356.751 380.748,357.584 377.5,357.5C 377.657,358.873 377.49,360.207 377,361.5C 376.667,361.167 376.333,360.833 376,360.5C 375.691,361.766 375.191,362.933 374.5,364C 375.886,368.051 377.72,371.885 380,375.5C 380.49,374.207 380.657,372.873 380.5,371.5C 381.5,371.5 382.5,371.5 383.5,371.5C 382.509,375.463 381.509,379.463 380.5,383.5C 379.158,381.995 377.492,381.328 375.5,381.5C 375.5,378.833 375.5,376.167 375.5,373.5C 374.167,373.5 372.833,373.5 371.5,373.5C 371.962,385.605 373.296,397.605 375.5,409.5C 371.144,392.578 366.644,375.578 362,358.5C 361.172,354.129 361.339,349.795 362.5,345.5C 373.376,349.677 384.709,352.011 396.5,352.5C 410.789,352.613 420.956,346.28 427,333.5C 431.022,320.601 431.522,307.601 428.5,294.5C 428.211,286.417 426.544,278.75 423.5,271.5C 422.789,264.324 421.289,257.324 419,250.5C 414.652,236.621 409.819,222.954 404.5,209.5 Z"/></g>
<g><path style="opacity:1" fill="#3c3b0e" d="M 412.5,247.5 C 413.496,247.414 414.329,247.748 415,248.5C 415.545,251.863 416.878,254.863 419,257.5C 419.193,263.136 420.526,268.47 423,273.5C 423.464,272.906 423.631,272.239 423.5,271.5C 426.544,278.75 428.211,286.417 428.5,294.5C 428.263,303.678 427.93,313.011 427.5,322.5C 426.343,329.307 424.01,335.641 420.5,341.5C 418.549,340.744 416.716,340.411 415,340.5C 414.626,341.416 414.126,342.25 413.5,343C 407.365,344.328 401.199,345.495 395,346.5C 371.732,344.185 349.066,338.851 327,330.5C 325.477,328.646 323.644,327.146 321.5,326C 323.174,323.495 325.507,321.995 328.5,321.5C 330.766,321.141 332.599,321.808 334,323.5C 337.342,321.961 340.342,322.627 343,325.5C 343.333,325.167 343.667,324.833 344,324.5C 350.307,326.688 356.807,328.188 363.5,329C 372.842,329.349 382.176,329.849 391.5,330.5C 400.16,329.498 408.493,327.331 416.5,324C 415.833,323.667 415.167,323.333 414.5,323C 416.134,322.506 417.801,322.34 419.5,322.5C 418.19,326.257 418.523,329.924 420.5,333.5C 421.357,332.264 422.023,330.931 422.5,329.5C 421.429,327.675 422.096,326.508 424.5,326C 423.941,325.275 423.608,324.442 423.5,323.5C 424.674,319.954 425.34,316.287 425.5,312.5C 425.698,308.142 425.032,303.975 423.5,300C 423.927,295.814 423.927,291.48 423.5,287C 423.167,283.5 422.833,280 422.5,276.5C 420.288,277.55 418.954,276.717 418.5,274C 417.844,264.858 415.844,256.024 412.5,247.5 Z"/></g>
<g><path style="opacity:1" fill="#6c4506" d="M 235.5,336.5 C 235.5,344.167 235.5,351.833 235.5,359.5C 234.167,359.5 232.833,359.5 231.5,359.5C 224.293,357.698 216.96,355.865 209.5,354C 206.898,353.023 204.398,351.856 202,350.5C 201.5,343.508 201.334,336.508 201.5,329.5C 212.574,332.565 223.908,334.898 235.5,336.5 Z"/></g>
<g><path style="opacity:1" fill="#6b4405" d="M 321.5,341.5 C 323.5,341.5 325.5,341.5 327.5,341.5C 327.538,344.621 328.205,347.621 329.5,350.5C 328.487,353.362 327.487,356.195 326.5,359C 326.957,359.414 327.291,359.914 327.5,360.5C 325.025,360.964 323.025,361.964 321.5,363.5C 308.833,363.5 296.167,363.5 283.5,363.5C 283.169,355.804 283.503,348.138 284.5,340.5C 296.783,341.48 309.116,341.813 321.5,341.5 Z"/></g>
<g><path style="opacity:1" fill="#563c08" d="M 321.5,339.5 C 332.56,339.762 343.393,341.429 354,344.5C 359.47,350.536 358.637,355.202 351.5,358.5C 341.665,361.125 331.665,362.792 321.5,363.5C 323.025,361.964 325.025,360.964 327.5,360.5C 327.291,359.914 326.957,359.414 326.5,359C 327.487,356.195 328.487,353.362 329.5,350.5C 328.205,347.621 327.538,344.621 327.5,341.5C 325.5,341.5 323.5,341.5 321.5,341.5C 321.5,340.833 321.5,340.167 321.5,339.5 Z"/></g>
<g><path style="opacity:1" fill="#ab6b0f" d="M 241.5,335.5 C 243.483,335.157 244.817,335.824 245.5,337.5C 245.5,346.167 245.5,354.833 245.5,363.5C 248.833,363.5 252.167,363.5 255.5,363.5C 258.087,364.816 261.087,365.483 264.5,365.5C 267.5,365.167 270.5,364.833 273.5,364.5C 274.544,363.377 275.21,362.044 275.5,360.5C 274.205,357.621 273.538,354.621 273.5,351.5C 273.5,347.5 273.5,343.5 273.5,339.5C 273.279,338.265 272.612,337.265 271.5,336.5C 272.689,335.571 274.022,335.238 275.5,335.5C 276.167,335.5 276.833,335.5 277.5,335.5C 278.795,345.628 278.795,355.628 277.5,365.5C 266.016,367.408 254.349,368.074 242.5,367.5C 241.542,367.047 240.708,366.381 240,365.5C 239.5,356.173 239.334,346.839 239.5,337.5C 240.167,336.833 240.833,336.167 241.5,335.5 Z"/></g>
<g><path style="opacity:1" fill="#9a6523" d="M 273.5,351.5 C 273.538,354.621 274.205,357.621 275.5,360.5C 275.21,362.044 274.544,363.377 273.5,364.5C 270.5,364.833 267.5,365.167 264.5,365.5C 261.087,365.483 258.087,364.816 255.5,363.5C 261.167,363.5 266.833,363.5 272.5,363.5C 272.183,359.298 272.517,355.298 273.5,351.5 Z"/></g>
<g><path style="opacity:1" fill="#352902" d="M 245.5,337.5 C 254.971,337.061 264.304,337.727 273.5,339.5C 273.5,343.5 273.5,347.5 273.5,351.5C 272.517,355.298 272.183,359.298 272.5,363.5C 266.833,363.5 261.167,363.5 255.5,363.5C 252.167,363.5 248.833,363.5 245.5,363.5C 245.5,354.833 245.5,346.167 245.5,337.5 Z"/></g>
<g><path style="opacity:1" fill="#6a4507" d="M 250.5,342.5 C 256.167,342.5 261.833,342.5 267.5,342.5C 267.5,348.167 267.5,353.833 267.5,359.5C 261.771,359.788 256.104,359.454 250.5,358.5C 249.823,353.208 249.823,347.874 250.5,342.5 Z"/></g>
<g><path style="opacity:1" fill="#9b6a23" d="M 277.5,365.5 C 277.267,367.062 276.6,368.395 275.5,369.5C 264.294,369.725 253.294,369.058 242.5,367.5C 254.349,368.074 266.016,367.408 277.5,365.5 Z"/></g>
<g><path style="opacity:1" fill="#434112" d="M 325.5,368.5 C 326.833,368.5 328.167,368.5 329.5,368.5C 328.294,369.88 328.627,371.047 330.5,372C 329.864,374.394 329.864,376.894 330.5,379.5C 334.056,379.275 334.39,380.108 331.5,382C 338.891,406.54 344.724,431.374 349,456.5C 349.249,459.177 350.249,461.51 352,463.5C 352.499,467.821 352.666,472.154 352.5,476.5C 324.104,482.149 295.438,483.649 266.5,481C 266,480.5 265.5,480 265,479.5C 262.099,444.161 259.266,408.827 256.5,373.5C 263.486,374.332 270.486,374.499 277.5,374C 278.942,373.623 279.942,372.79 280.5,371.5C 281.289,371.217 281.956,370.717 282.5,370C 296.85,369.725 311.184,369.225 325.5,368.5 Z"/></g>
<g><path style="opacity:1" fill="#454314" d="M 187.5,466.5 C 181.588,464.695 176.088,462.029 171,458.5C 170.833,457.5 170.667,456.5 170.5,455.5C 175.669,433.49 180.836,411.49 186,389.5C 188.837,381.476 191.67,373.476 194.5,365.5C 196.474,362.23 198.474,358.897 200.5,355.5C 211.295,360.558 222.628,363.892 234.5,365.5C 238.613,372.97 244.946,375.637 253.5,373.5C 247.159,407.717 241.325,442.05 236,476.5C 232.927,477.617 229.76,477.784 226.5,477C 219.945,475.24 213.278,473.907 206.5,473C 199.879,471.294 193.545,469.127 187.5,466.5 Z"/></g>
<g><path style="opacity:1" fill="#39390b" d="M 352.5,476.5 C 352.666,472.154 352.499,467.821 352,463.5C 350.249,461.51 349.249,459.177 349,456.5C 344.724,431.374 338.891,406.54 331.5,382C 334.39,380.108 334.056,379.275 330.5,379.5C 329.864,376.894 329.864,374.394 330.5,372C 328.627,371.047 328.294,369.88 329.5,368.5C 339.474,367.17 349.141,364.836 358.5,361.5C 358.808,369.312 360.808,376.146 364.5,382C 363.485,385.801 363.651,389.634 365,393.5C 371.974,416.43 377.307,439.763 381,463.5C 382.628,464.819 382.461,466.152 380.5,467.5C 371.385,471.067 362.219,474.4 353,477.5C 352.601,477.272 352.435,476.938 352.5,476.5 Z"/></g>
<g><path style="opacity:1" fill="#e8d2a1" d="M 375.5,409.5 C 376.943,410.335 377.943,411.668 378.5,413.5C 380.887,424.168 382.554,434.835 383.5,445.5C 380.266,433.756 377.599,421.756 375.5,409.5 Z"/></g>
<g><path style="opacity:1" fill="#3e3b10" d="M 252.5,403.5 C 253.756,403.461 254.756,403.961 255.5,405C 254.804,408.694 254.47,412.361 254.5,416C 256.648,435.392 257.982,454.892 258.5,474.5C 253.42,474.75 248.42,474.25 243.5,473C 242.919,472.107 242.585,471.107 242.5,470C 246.821,447.959 250.154,425.793 252.5,403.5 Z"/></g>
<g><path style="opacity:1" fill="#3b3a0b" d="M 358.5,554.5 C 356.704,551.156 355.537,547.489 355,543.5C 354.568,534.15 353.901,524.816 353,515.5C 351.887,512.019 350.72,508.519 349.5,505C 350.167,504.333 350.833,503.667 351.5,503C 347.78,501.237 344.447,498.904 341.5,496C 336.731,494.464 331.898,493.297 327,492.5C 317.903,493.82 308.737,494.986 299.5,496C 298.24,497.113 297.073,497.28 296,496.5C 294.89,498.037 293.39,498.703 291.5,498.5C 290.325,494.958 289.659,491.291 289.5,487.5C 300.838,487.667 312.172,487.5 323.5,487C 337.659,485.085 351.659,482.751 365.5,480C 367.038,501.598 368.038,523.264 368.5,545C 368.235,551.432 364.902,554.599 358.5,554.5 Z"/></g>
<g><path style="opacity:1" fill="#474515" d="M 186.5,475.5 C 187.461,477.265 187.795,479.265 187.5,481.5C 188.822,481.67 189.989,481.337 191,480.5C 194.011,482.941 197.511,484.107 201.5,484C 210.319,487.384 219.319,490.384 228.5,493C 232.288,495.121 235.455,497.954 238,501.5C 240.297,507.779 241.463,514.279 241.5,521C 240.04,531.783 239.373,542.616 239.5,553.5C 221.806,556.427 204.139,555.76 186.5,551.5C 185.17,545.202 184.503,538.535 184.5,531.5C 184.868,512.816 185.535,494.149 186.5,475.5 Z"/></g>
<g><path style="opacity:1" fill="#474414" d="M 358.5,554.5 C 340.738,559.992 323.071,559.826 305.5,554C 299.383,535.933 294.717,517.433 291.5,498.5C 293.39,498.703 294.89,498.037 296,496.5C 297.073,497.28 298.24,497.113 299.5,496C 308.737,494.986 317.903,493.82 327,492.5C 331.898,493.297 336.731,494.464 341.5,496C 344.447,498.904 347.78,501.237 351.5,503C 350.833,503.667 350.167,504.333 349.5,505C 350.72,508.519 351.887,512.019 353,515.5C 353.901,524.816 354.568,534.15 355,543.5C 355.537,547.489 356.704,551.156 358.5,554.5 Z"/></g>
<g><path style="opacity:1" fill="#3c3a0b" d="M 188.5,471.5 C 189.429,472.315 190.429,473.148 191.5,474C 206.74,478.344 222.24,481.511 238,483.5C 240.356,482.107 240.856,480.274 239.5,478C 245.818,477.816 251.985,478.65 258,480.5C 258.875,481.873 259.375,483.373 259.5,485C 255.898,506.573 251.898,528.073 247.5,549.5C 247.182,550.647 246.516,551.481 245.5,552C 243.414,552.315 241.414,552.815 239.5,553.5C 239.373,542.616 240.04,531.783 241.5,521C 241.463,514.279 240.297,507.779 238,501.5C 235.455,497.954 232.288,495.121 228.5,493C 219.319,490.384 210.319,487.384 201.5,484C 197.511,484.107 194.011,482.941 191,480.5C 189.989,481.337 188.822,481.67 187.5,481.5C 187.795,479.265 187.461,477.265 186.5,475.5C 186.157,473.517 186.824,472.183 188.5,471.5 Z"/></g>
<g><path style="opacity:1" fill="#ecd29b" d="M 179.5,469.5 C 180.748,470.334 181.415,471.667 181.5,473.5C 180.048,499.141 179.215,524.808 179,550.5C 177.308,553.776 176.141,557.109 175.5,560.5C 177.121,530.172 178.454,499.838 179.5,469.5 Z"/></g>
<g><path style="opacity:1" fill="#f8d38e" d="M 287.5,510.5 C 287.69,523.777 290.356,536.443 295.5,548.5C 294.288,555.087 293.621,561.754 293.5,568.5C 293.504,574.542 294.171,580.208 295.5,585.5C 295.067,589.861 296.734,593.195 300.5,595.5C 301.95,604.654 304.284,613.32 307.5,621.5C 309.824,634.445 311.824,647.445 313.5,660.5C 312.169,672.147 311.169,683.814 310.5,695.5C 309.512,690.36 309.179,685.026 309.5,679.5C 288.66,679.169 267.993,679.503 247.5,680.5C 246.105,676.409 245.438,672.076 245.5,667.5C 246.323,652.076 247.657,636.743 249.5,621.5C 250.008,611.089 251.174,600.756 253,590.5C 255,589.833 256.333,588.5 257,586.5C 257.667,576.167 257.667,565.833 257,555.5C 255.674,553.017 254.507,550.517 253.5,548C 255.987,536.913 257.987,525.746 259.5,514.5C 261.579,505.366 263.246,496.033 264.5,486.5C 271.075,486.889 277.575,487.556 284,488.5C 285.709,495.754 286.876,503.088 287.5,510.5 Z"/></g>
<g><path style="opacity:1" fill="#ead29e" d="M 381.5,473.5 C 379.87,476.173 377.537,478.173 374.5,479.5C 374.167,480.667 373.833,481.833 373.5,483C 375.012,505.13 376.012,527.297 376.5,549.5C 378.704,553.917 379.704,558.583 379.5,563.5C 378.429,558.938 376.596,554.604 374,550.5C 373.755,528.158 373.255,505.825 372.5,483.5C 372.833,481.167 373.167,478.833 373.5,476.5C 376.035,475.1 378.702,474.1 381.5,473.5 Z"/></g>
<g><path style="opacity:1" fill="#f0d299" d="M 287.5,510.5 C 291.297,523.338 294.963,536.338 298.5,549.5C 297.946,551.61 297.112,553.61 296,555.5C 295.5,565.494 295.334,575.494 295.5,585.5C 294.171,580.208 293.504,574.542 293.5,568.5C 293.621,561.754 294.288,555.087 295.5,548.5C 290.356,536.443 287.69,523.777 287.5,510.5 Z"/></g>
<g><path style="opacity:1" fill="#503c06" d="M 370.5,587.5 C 365.512,588.832 360.512,590.165 355.5,591.5C 356.183,589.824 357.517,589.157 359.5,589.5C 357.924,580.956 357.257,572.29 357.5,563.5C 351.5,563.5 345.5,563.5 339.5,563.5C 350.496,561.566 361.496,559.233 372.5,556.5C 373.498,563.827 374.498,571.16 375.5,578.5C 375.333,580.5 375.167,582.5 375,584.5C 373.122,585.053 371.622,586.053 370.5,587.5 Z"/></g>
<g><path style="opacity:1" fill="#594207" d="M 339.5,563.5 C 345.5,563.5 351.5,563.5 357.5,563.5C 357.257,572.29 357.924,580.956 359.5,589.5C 357.517,589.157 356.183,589.824 355.5,591.5C 338.267,594.755 321.267,593.922 304.5,589C 303.299,588.097 302.465,586.931 302,585.5C 301.5,576.84 301.334,568.173 301.5,559.5C 301.56,558.957 301.893,558.624 302.5,558.5C 314.475,562.466 326.808,564.132 339.5,563.5 Z"/></g>
<g><path style="opacity:1" fill="#332b05" d="M 194.5,365.5 C 191.67,373.476 188.837,381.476 186,389.5C 180.836,411.49 175.669,433.49 170.5,455.5C 170.667,456.5 170.833,457.5 171,458.5C 176.088,462.029 181.588,464.695 187.5,466.5C 188.806,467.467 189.473,468.801 189.5,470.5C 193.172,471.045 192.838,471.378 188.5,471.5C 186.824,472.183 186.157,473.517 186.5,475.5C 185.535,494.149 184.868,512.816 184.5,531.5C 184.503,538.535 185.17,545.202 186.5,551.5C 189.367,554.498 193.033,556.165 197.5,556.5C 198.193,557.518 198.859,558.518 199.5,559.5C 194.333,558.677 189.166,557.677 184,556.5C 183.228,556.645 182.561,556.978 182,557.5C 180.405,566.114 179.738,574.78 180,583.5C 194.968,590.89 210.801,593.39 227.5,591C 234.587,590.145 241.587,588.812 248.5,587C 249.931,586.535 251.097,585.701 252,584.5C 252.598,576.822 252.431,569.155 251.5,561.5C 251.461,559.048 250.794,557.048 249.5,555.5C 248.023,552.105 248.356,551.439 250.5,553.5C 250.675,545.591 252.341,538.091 255.5,531C 254.021,527.993 253.354,524.826 253.5,521.5C 254.833,521.5 256.167,521.5 257.5,521.5C 257.41,518.848 258.076,516.515 259.5,514.5C 257.987,525.746 255.987,536.913 253.5,548C 254.507,550.517 255.674,553.017 257,555.5C 257.667,565.833 257.667,576.167 257,586.5C 256.333,588.5 255,589.833 253,590.5C 251.174,600.756 250.008,611.089 249.5,621.5C 247.431,630.987 245.597,640.654 244,650.5C 243.132,656.423 243.632,662.089 245.5,667.5C 245.438,672.076 246.105,676.409 247.5,680.5C 247.666,686.509 247.499,692.509 247,698.5C 244.789,701.358 241.956,703.358 238.5,704.5C 237.207,703.842 235.707,703.508 234,703.5C 230.846,703.689 227.846,704.356 225,705.5C 220.154,705.242 219.654,704.242 223.5,702.5C 226.684,701.677 230.017,701.01 233.5,700.5C 236.466,699.602 239.3,698.269 242,696.5C 242.393,689.48 242.059,682.48 241,675.5C 239.363,669.947 238.196,664.281 237.5,658.5C 240.966,636.508 244.299,614.508 247.5,592.5C 227.481,597.724 207.481,597.724 187.5,592.5C 185.966,595.961 185.299,599.627 185.5,603.5C 185.997,616.667 186.664,629.667 187.5,642.5C 187.5,649.5 187.5,656.5 187.5,663.5C 185.725,659.614 184.892,655.28 185,650.5C 184.667,654.5 184.333,658.5 184,662.5C 183.823,658.644 183.323,654.977 182.5,651.5C 182.025,631.154 181.192,610.821 180,590.5C 178.045,589.547 176.378,588.213 175,586.5C 174.501,580.509 174.334,574.509 174.5,568.5C 175.473,566.052 175.806,563.385 175.5,560.5C 176.141,557.109 177.308,553.776 179,550.5C 179.215,524.808 180.048,499.141 181.5,473.5C 181.415,471.667 180.748,470.334 179.5,469.5C 174.599,467.13 170.099,464.13 166,460.5C 170.123,428.389 177.623,397.056 188.5,366.5C 189.735,366.721 190.735,367.388 191.5,368.5C 192.141,367.007 193.141,366.007 194.5,365.5 Z"/></g>
<g><path style="opacity:1" fill="#584107" d="M 249.5,555.5 C 250.794,557.048 251.461,559.048 251.5,561.5C 252.431,569.155 252.598,576.822 252,584.5C 251.097,585.701 249.931,586.535 248.5,587C 241.587,588.812 234.587,590.145 227.5,591C 210.801,593.39 194.968,590.89 180,583.5C 179.738,574.78 180.405,566.114 182,557.5C 182.561,556.978 183.228,556.645 184,556.5C 189.166,557.677 194.333,558.677 199.5,559.5C 209.787,560.619 220.12,560.785 230.5,560C 237.169,559.462 243.502,557.962 249.5,555.5 Z"/></g>
<g><path style="opacity:1" fill="#4e3c06" d="M 233.5,700.5 C 234.091,699.849 234.757,699.182 235.5,698.5C 232.46,684.44 230.46,670.107 229.5,655.5C 231.079,639.862 231.579,624.195 231,608.5C 229.748,606.999 228.748,605.332 228,603.5C 219.228,602.606 210.395,601.773 201.5,601C 200.675,599.312 199.675,599.145 198.5,600.5C 194.947,600.113 191.614,599.113 188.5,597.5C 187.501,612.485 187.167,627.485 187.5,642.5C 186.664,629.667 185.997,616.667 185.5,603.5C 185.299,599.627 185.966,595.961 187.5,592.5C 207.481,597.724 227.481,597.724 247.5,592.5C 244.299,614.508 240.966,636.508 237.5,658.5C 238.196,664.281 239.363,669.947 241,675.5C 242.059,682.48 242.393,689.48 242,696.5C 239.3,698.269 236.466,699.602 233.5,700.5 Z"/></g>
<g><path style="opacity:1" fill="#e4cf9a" d="M 295.5,585.5 C 296.167,585.5 296.5,585.833 296.5,586.5C 297.353,590.191 299.52,592.858 303,594.5C 305.012,603.421 306.512,612.421 307.5,621.5C 304.284,613.32 301.95,604.654 300.5,595.5C 296.734,593.195 295.067,589.861 295.5,585.5 Z"/></g>
<g><path style="opacity:1" fill="#e3c89a" d="M 174.5,568.5 C 174.334,574.509 174.501,580.509 175,586.5C 176.378,588.213 178.045,589.547 180,590.5C 181.192,610.821 182.025,631.154 182.5,651.5C 182.817,655.702 182.483,659.702 181.5,663.5C 180.289,640.186 179.622,616.853 179.5,593.5C 178.167,593.5 176.833,593.5 175.5,593.5C 174.416,588.601 173.75,583.601 173.5,578.5C 173.46,574.406 173.794,571.072 174.5,568.5 Z"/></g>
<g><path style="opacity:1" fill="#e8d19d" d="M 249.5,621.5 C 247.657,636.743 246.323,652.076 245.5,667.5C 243.632,662.089 243.132,656.423 244,650.5C 245.597,640.654 247.431,630.987 249.5,621.5 Z"/></g>
<g><path style="opacity:1" fill="#f8d38d" d="M -0.5,655.5 C 4.83333,655.5 10.1667,655.5 15.5,655.5C 15.5,666.167 15.5,676.833 15.5,687.5C 19.5,687.5 23.5,687.5 27.5,687.5C 27.5,690.167 27.5,692.833 27.5,695.5C 31.5,695.5 35.5,695.5 39.5,695.5C 39.5,698.167 39.5,700.833 39.5,703.5C 47.5,703.5 55.5,703.5 63.5,703.5C 63.5,700.833 63.5,698.167 63.5,695.5C 66.1667,695.5 68.8333,695.5 71.5,695.5C 71.5,698.167 71.5,700.833 71.5,703.5C 76.1667,703.5 80.8333,703.5 85.5,703.5C 78.9142,708.673 78.9142,713.84 85.5,719C 91.3333,722.055 97.3333,724.722 103.5,727C 116.919,729.954 130.252,732.787 143.5,735.5C 95.5,735.5 47.5,735.5 -0.5,735.5C -0.5,708.833 -0.5,682.167 -0.5,655.5 Z"/></g>
<g><path style="opacity:1" fill="#372d04" d="M 187.5,663.5 C 193.189,663.089 198.522,664.256 203.5,667C 198.206,666.347 192.872,666.013 187.5,666C 173.5,675.333 159.5,684.667 145.5,694C 140.699,697.799 136.199,701.966 132,706.5C 131.018,707.759 130.685,709.092 131,710.5C 134.546,712.681 138.38,714.181 142.5,715C 152.833,715.667 163.167,715.667 173.5,715C 190.342,711.4 207.009,707.233 223.5,702.5C 219.654,704.242 220.154,705.242 225,705.5C 227.846,704.356 230.846,703.689 234,703.5C 235.707,703.508 237.207,703.842 238.5,704.5C 226.677,705.449 215.344,708.282 204.5,713C 184.653,719.502 164.319,722.169 143.5,721C 136.66,720.163 130.827,717.33 126,712.5C 125.004,708.793 125.67,705.459 128,702.5C 133,698.267 137.834,693.933 142.5,689.5C 156.024,681.575 169.024,672.908 181.5,663.5C 182.483,659.702 182.817,655.702 182.5,651.5C 183.323,654.977 183.823,658.644 184,662.5C 184.333,658.5 184.667,654.5 185,650.5C 184.892,655.28 185.725,659.614 187.5,663.5 Z"/></g>
<g><path style="opacity:1" fill="#5b4307" d="M 233.5,700.5 C 230.017,701.01 226.684,701.677 223.5,702.5C 207.009,707.233 190.342,711.4 173.5,715C 163.167,715.667 152.833,715.667 142.5,715C 138.38,714.181 134.546,712.681 131,710.5C 130.685,709.092 131.018,707.759 132,706.5C 136.199,701.966 140.699,697.799 145.5,694C 159.5,684.667 173.5,675.333 187.5,666C 192.872,666.013 198.206,666.347 203.5,667C 198.522,664.256 193.189,663.089 187.5,663.5C 187.5,656.5 187.5,649.5 187.5,642.5C 187.167,627.485 187.501,612.485 188.5,597.5C 191.614,599.113 194.947,600.113 198.5,600.5C 199.675,599.145 200.675,599.312 201.5,601C 210.395,601.773 219.228,602.606 228,603.5C 228.748,605.332 229.748,606.999 231,608.5C 231.579,624.195 231.079,639.862 229.5,655.5C 230.46,670.107 232.46,684.44 235.5,698.5C 234.757,699.182 234.091,699.849 233.5,700.5 Z"/></g>
<g><path style="opacity:1" fill="#352d05" d="M 301.5,559.5 C 301.334,568.173 301.5,576.84 302,585.5C 302.465,586.931 303.299,588.097 304.5,589C 321.267,593.922 338.267,594.755 355.5,591.5C 360.512,590.165 365.512,588.832 370.5,587.5C 371.648,588.164 372.981,588.331 374.5,588C 373.206,605.988 373.206,624.155 374.5,642.5C 374.334,652.172 374.5,661.839 375,671.5C 380.366,677.696 385.866,683.696 391.5,689.5C 395.759,695.604 400.259,701.604 405,707.5C 413.286,723.075 408.453,731.241 390.5,732C 366.311,734.398 345.311,727.398 327.5,711C 322.256,708.797 317.422,705.964 313,702.5C 311.864,700.257 311.03,697.924 310.5,695.5C 311.169,683.814 312.169,672.147 313.5,660.5C 311.824,647.445 309.824,634.445 307.5,621.5C 306.512,612.421 305.012,603.421 303,594.5C 299.52,592.858 297.353,590.191 296.5,586.5C 297.33,577.676 297.83,568.676 298,559.5C 298.986,560.171 300.153,560.171 301.5,559.5 Z"/></g>
<g><path style="opacity:1" fill="#5b4507" d="M 383.5,699.5 C 388.885,704.214 393.885,709.38 398.5,715C 399.448,715.483 400.448,715.649 401.5,715.5C 401.5,717.833 401.5,720.167 401.5,722.5C 396.723,725.531 391.39,727.031 385.5,727C 364.017,727.286 345.35,720.286 329.5,706C 323.515,704.342 319.015,700.842 316,695.5C 315.833,693.5 315.667,691.5 315.5,689.5C 316.78,679.656 318.113,669.823 319.5,660C 318.679,654.856 318.012,649.689 317.5,644.5C 317.223,639.767 317.557,635.1 318.5,630.5C 317.675,629.614 316.675,629.281 315.5,629.5C 315.335,626.15 315.502,622.817 316,619.5C 316.308,620.308 316.808,620.975 317.5,621.5C 318.5,619.5 319.5,617.5 320.5,615.5C 323.833,634.145 324.167,652.811 321.5,671.5C 326.167,671.5 330.833,671.5 335.5,671.5C 335.5,676.833 335.5,682.167 335.5,687.5C 336.978,687.762 338.311,687.429 339.5,686.5C 339.5,684.833 339.5,683.167 339.5,681.5C 337.307,679.618 337.973,679.118 341.5,680C 340.366,681.016 340.699,681.683 342.5,682C 341.833,682.333 341.167,682.667 340.5,683C 341.687,684.019 342.687,685.186 343.5,686.5C 345.074,687.631 346.741,687.798 348.5,687C 347.552,686.517 346.552,686.351 345.5,686.5C 345.59,683.654 346.756,681.321 349,679.5C 349.182,682.226 349.682,684.893 350.5,687.5C 352.478,689.436 353.811,691.77 354.5,694.5C 355.474,692.257 355.808,689.924 355.5,687.5C 357.6,687.523 359.433,686.856 361,685.5C 362.879,687.013 365.046,687.679 367.5,687.5C 367.64,689.124 366.973,690.29 365.5,691C 368.167,691.667 368.167,692.333 365.5,693C 366.578,693.674 367.245,694.674 367.5,696C 366.849,698.363 366.849,700.863 367.5,703.5C 372.833,703.5 378.167,703.5 383.5,703.5C 383.5,702.167 383.5,700.833 383.5,699.5 Z"/></g>
<g><path style="opacity:1" fill="#5a4107" d="M 383.5,699.5 C 383.5,700.833 383.5,702.167 383.5,703.5C 378.167,703.5 372.833,703.5 367.5,703.5C 366.849,700.863 366.849,698.363 367.5,696C 367.245,694.674 366.578,693.674 365.5,693C 368.167,692.333 368.167,691.667 365.5,691C 366.973,690.29 367.64,689.124 367.5,687.5C 365.046,687.679 362.879,687.013 361,685.5C 359.433,686.856 357.6,687.523 355.5,687.5C 355.808,689.924 355.474,692.257 354.5,694.5C 353.811,691.77 352.478,689.436 350.5,687.5C 349.682,684.893 349.182,682.226 349,679.5C 346.756,681.321 345.59,683.654 345.5,686.5C 346.552,686.351 347.552,686.517 348.5,687C 346.741,687.798 345.074,687.631 343.5,686.5C 342.687,685.186 341.687,684.019 340.5,683C 341.167,682.667 341.833,682.333 342.5,682C 340.699,681.683 340.366,681.016 341.5,680C 337.973,679.118 337.307,679.618 339.5,681.5C 339.5,683.167 339.5,684.833 339.5,686.5C 338.311,687.429 336.978,687.762 335.5,687.5C 335.5,682.167 335.5,676.833 335.5,671.5C 330.833,671.5 326.167,671.5 321.5,671.5C 324.167,652.811 323.833,634.145 320.5,615.5C 319.5,617.5 318.5,619.5 317.5,621.5C 316.808,620.975 316.308,620.308 316,619.5C 315.502,622.817 315.335,626.15 315.5,629.5C 316.675,629.281 317.675,629.614 318.5,630.5C 317.557,635.1 317.223,639.767 317.5,644.5C 314.488,632.44 312.488,620.107 311.5,607.5C 311.5,605.833 311.5,604.167 311.5,602.5C 313.547,602.489 315.547,602.156 317.5,601.5C 319.557,603.312 321.724,603.645 324,602.5C 324.667,603.167 325.333,603.833 326,604.5C 330.15,602.998 334.15,603.331 338,605.5C 340.914,604.855 343.914,604.522 347,604.5C 351.331,604.33 355.498,604.997 359.5,606.5C 358.358,608.117 357.691,609.95 357.5,612C 358.442,630.817 358.775,649.651 358.5,668.5C 351.757,668.269 345.423,669.769 339.5,673C 345.115,672.484 350.782,672.484 356.5,673C 358.652,674.413 360.986,675.246 363.5,675.5C 368.008,682.388 373.508,688.722 380,694.5C 381.011,693.663 382.178,693.33 383.5,693.5C 383.5,695.5 383.5,697.5 383.5,699.5 Z"/></g>
<g><path style="opacity:1" fill="#4d3a05" d="M 401.5,722.5 C 401.5,720.167 401.5,717.833 401.5,715.5C 400.448,715.649 399.448,715.483 398.5,715C 393.885,709.38 388.885,704.214 383.5,699.5C 383.5,697.5 383.5,695.5 383.5,693.5C 382.178,693.33 381.011,693.663 380,694.5C 373.508,688.722 368.008,682.388 363.5,675.5C 360.986,675.246 358.652,674.413 356.5,673C 350.782,672.484 345.115,672.484 339.5,673C 345.423,669.769 351.757,668.269 358.5,668.5C 358.775,649.651 358.442,630.817 357.5,612C 357.691,609.95 358.358,608.117 359.5,606.5C 355.498,604.997 351.331,604.33 347,604.5C 343.914,604.522 340.914,604.855 338,605.5C 334.15,603.331 330.15,602.998 326,604.5C 325.333,603.833 324.667,603.167 324,602.5C 321.724,603.645 319.557,603.312 317.5,601.5C 315.547,602.156 313.547,602.489 311.5,602.5C 311.5,604.167 311.5,605.833 311.5,607.5C 309.561,603.469 309.061,599.136 310,594.5C 311.491,596.004 313.324,596.837 315.5,597C 333.027,599.522 350.36,598.688 367.5,594.5C 367.119,592.058 367.786,591.391 369.5,592.5C 369.833,598 370.167,603.5 370.5,609C 368.93,629.81 368.43,650.643 369,671.5C 378.247,684.084 388.247,696.084 399,707.5C 400.299,710.147 401.632,712.814 403,715.5C 403.667,717.5 403.667,719.5 403,721.5C 402.617,722.056 402.117,722.389 401.5,722.5 Z"/></g>
<g><path style="opacity:1" fill="#e1af52" d="M 310.5,695.5 C 311.03,697.924 311.864,700.257 313,702.5C 317.422,705.964 322.256,708.797 327.5,711C 345.311,727.398 366.311,734.398 390.5,732C 408.453,731.241 413.286,723.075 405,707.5C 400.259,701.604 395.759,695.604 391.5,689.5C 392.334,688.252 393.667,687.585 395.5,687.5C 416.982,689.854 437.649,695.188 457.5,703.5C 463.078,708.979 462.745,714.145 456.5,719C 438.843,727.243 420.51,732.743 401.5,735.5C 315.5,735.5 229.5,735.5 143.5,735.5C 130.252,732.787 116.919,729.954 103.5,727C 97.3333,724.722 91.3333,722.055 85.5,719C 78.9142,713.84 78.9142,708.673 85.5,703.5C 103.763,695.081 122.763,690.414 142.5,689.5C 137.834,693.933 133,698.267 128,702.5C 125.67,705.459 125.004,708.793 126,712.5C 130.827,717.33 136.66,720.163 143.5,721C 164.319,722.169 184.653,719.502 204.5,713C 215.344,708.282 226.677,705.449 238.5,704.5C 241.956,703.358 244.789,701.358 247,698.5C 247.499,692.509 247.666,686.509 247.5,680.5C 267.993,679.503 288.66,679.169 309.5,679.5C 309.179,685.026 309.512,690.36 310.5,695.5 Z"/></g>
<g><path style="opacity:1" fill="#f9d38c" d="M 543.5,687.5 C 543.5,703.5 543.5,719.5 543.5,735.5C 496.167,735.5 448.833,735.5 401.5,735.5C 420.51,732.743 438.843,727.243 456.5,719C 462.745,714.145 463.078,708.979 457.5,703.5C 459.199,703.34 460.866,703.506 462.5,704C 461.304,704.654 461.304,705.154 462.5,705.5C 467.938,703.612 473.605,702.946 479.5,703.5C 479.238,704.978 479.571,706.311 480.5,707.5C 482.001,706.248 483.668,705.248 485.5,704.5C 499.484,703.501 513.484,703.167 527.5,703.5C 527.5,698.167 527.5,692.833 527.5,687.5C 532.833,687.5 538.167,687.5 543.5,687.5 Z"/></g>
</svg>
