<?xml version="1.0" encoding="UTF-8"?>
<!DOCTYPE svg PUBLIC "-//W3C//DTD SVG 1.1//EN" "http://www.w3.org/Graphics/SVG/1.1/DTD/svg11.dtd">
<svg xmlns="http://www.w3.org/2000/svg" version="1.1" width="544px" height="736px" style="shape-rendering:geometricPrecision; text-rendering:geometricPrecision; image-rendering:optimizeQuality; fill-rule:evenodd; clip-rule:evenodd" xmlns:xlink="http://www.w3.org/1999/xlink">
<g><path style="opacity:1" fill="#fad898" d="M -0.5,-0.5 C 78.1667,-0.5 156.833,-0.5 235.5,-0.5C 234.167,0.833333 232.833,2.16667 231.5,3.5C 224.98,6.09338 218.647,9.26005 212.5,13C 204.274,20.8981 195.774,28.3981 187,35.5C 187.525,42.1715 185.858,48.1715 182,53.5C 179.453,64.1705 180.453,74.5039 185,84.5C 185.667,89.1667 185.667,93.8333 185,98.5C 182.544,103.741 180.377,109.075 178.5,114.5C 174.882,126.503 177.382,137.17 186,146.5C 186.167,147.833 186.333,149.167 186.5,150.5C 185.194,156.785 183.027,162.785 180,168.5C 179.333,172.167 179.333,175.833 180,179.5C 181.696,183.725 183.529,187.892 185.5,192C 185.192,193.459 184.525,194.626 183.5,195.5C 180.687,196.446 179.354,198.446 179.5,201.5C 178.167,201.5 176.833,201.5 175.5,201.5C 175.5,203.5 175.5,205.5 175.5,207.5C 172.102,207.18 168.768,207.513 165.5,208.5C 167.396,209.466 169.396,209.799 171.5,209.5C 170.763,212.238 170.763,214.905 171.5,217.5C 170.865,218.966 170.031,220.3 169,221.5C 168.667,220.833 168.333,220.167 168,219.5C 167.51,220.793 167.343,222.127 167.5,223.5C 166.167,223.5 164.833,223.5 163.5,223.5C 163.5,221.5 163.5,219.5 163.5,217.5C 162.167,217.5 160.833,217.5 159.5,217.5C 159.5,216.167 159.5,214.833 159.5,213.5C 157.396,213.799 155.396,213.466 153.5,212.5C 155.223,210.132 155.89,207.466 155.5,204.5C 156.847,200.788 158.18,197.122 159.5,193.5C 163.921,188.719 165.421,183.053 164,176.5C 154.548,171.192 145.048,166.025 135.5,161C 127.87,159.065 120.037,157.898 112,157.5C 103.875,158.905 95.7087,160.072 87.5,161C 81.2822,164.695 75.1156,168.529 69,172.5C 68.3333,174.167 68.3333,175.833 69,177.5C 75.5052,191.18 82.5052,204.514 90,217.5C 89.442,223.643 88.6087,229.809 87.5,236C 87.5653,238.591 88.0653,241.091 89,243.5C 90.944,247.11 93.2774,250.443 96,253.5C 101.969,258.467 107.635,263.801 113,269.5C 117.088,281.674 122.255,293.34 128.5,304.5C 131.083,307.997 133.416,311.664 135.5,315.5C 135.498,317.831 136.331,319.831 138,321.5C 138.333,321.167 138.667,320.833 139,320.5C 139.632,322.531 140.799,324.198 142.5,325.5C 143.429,326.689 143.762,328.022 143.5,329.5C 146.167,329.5 148.833,329.5 151.5,329.5C 151.5,330.833 151.5,332.167 151.5,333.5C 158.863,333.831 166.197,333.497 173.5,332.5C 174.522,331.646 175.355,330.646 176,329.5C 176.333,330.167 176.667,330.833 177,331.5C 178.786,329.901 180.953,329.067 183.5,329C 186.317,323.9 189.984,319.4 194.5,315.5C 195.429,314.311 195.762,312.978 195.5,311.5C 197.833,311.5 200.167,311.5 202.5,311.5C 202.071,315.677 201.071,319.677 199.5,323.5C 198.167,323.5 196.833,323.5 195.5,323.5C 194.744,328.342 193.41,333.009 191.5,337.5C 175.422,368.231 163.588,400.564 156,434.5C 141.115,510.413 130.281,586.913 123.5,664C 123.708,669.215 126.042,673.215 130.5,676C 143.415,682.791 157.081,687.291 171.5,689.5C 145.691,691.193 120.358,696.027 95.5,704C 83.0147,709.906 82.348,716.906 93.5,725C 104.547,729.756 115.88,733.256 127.5,735.5C 84.8333,735.5 42.1667,735.5 -0.5,735.5C -0.5,490.167 -0.5,244.833 -0.5,-0.5 Z"/></g>
<g><path style="opacity:1" fill="#f9d798" d="M 235.5,-0.5 C 314.5,-0.5 393.5,-0.5 472.5,-0.5C 472.5,4.83333 472.5,10.1667 472.5,15.5C 480.167,15.5 487.833,15.5 495.5,15.5C 495.735,22.6146 495.068,29.6146 493.5,36.5C 498.167,36.5 502.833,36.5 507.5,36.5C 507.5,35.1667 507.5,33.8333 507.5,32.5C 514.167,32.5 520.833,32.5 527.5,32.5C 526.678,43.1547 526.011,53.8213 525.5,64.5C 520.167,64.5 514.833,64.5 509.5,64.5C 509.5,67.1667 509.5,69.8333 509.5,72.5C 514.833,72.5 520.167,72.5 525.5,72.5C 525.5,75.1667 525.5,77.8333 525.5,80.5C 520.167,80.5 514.833,80.5 509.5,80.5C 510.249,90.8267 510.916,101.16 511.5,111.5C 509.5,111.5 507.5,111.5 505.5,111.5C 505.828,106.125 505.495,100.792 504.5,95.5C 504.118,106.666 503.118,117.666 501.5,128.5C 512.087,130.136 512.087,131.136 501.5,131.5C 501.334,140.839 501.5,150.173 502,159.5C 504.381,160.435 506.881,160.768 509.5,160.5C 510.322,171.155 510.989,181.821 511.5,192.5C 522.167,192.5 532.833,192.5 543.5,192.5C 543.5,197.833 543.5,203.167 543.5,208.5C 532.167,208.5 520.833,208.5 509.5,208.5C 509.5,224.167 509.5,239.833 509.5,255.5C 514.833,255.833 520.167,256.167 525.5,256.5C 525.5,261.833 525.5,267.167 525.5,272.5C 514.852,273.277 504.185,273.61 493.5,273.5C 493.5,278.167 493.5,282.833 493.5,287.5C 483.5,287.5 473.5,287.5 463.5,287.5C 463.5,282.833 463.5,278.167 463.5,273.5C 455.472,273.831 447.472,273.498 439.5,272.5C 442.086,271.52 444.753,271.187 447.5,271.5C 447.5,269.5 447.5,267.5 447.5,265.5C 441.463,265.171 435.463,265.504 429.5,266.5C 431.508,273.568 431.842,280.568 430.5,287.5C 430.5,286.5 430.5,285.5 430.5,284.5C 428.856,284.286 427.356,284.62 426,285.5C 425.692,284.692 425.192,284.025 424.5,283.5C 423.725,289.699 421.392,295.032 417.5,299.5C 421.765,288.66 421.265,277.993 416,267.5C 404.275,241.028 389.775,216.361 372.5,193.5C 369.804,190.612 367.471,187.446 365.5,184C 371.372,173.35 371.872,162.516 367,151.5C 362.952,147.12 359.285,142.454 356,137.5C 356.818,127.875 357.151,118.208 357,108.5C 355.185,104.204 352.852,100.204 350,96.5C 344.301,91.1352 338.967,85.4685 334,79.5C 330.839,71.8392 328.006,64.1725 325.5,56.5C 321.788,46.7449 318.955,36.7449 317,26.5C 314.958,24.396 312.458,23.2293 309.5,23C 300.833,12.7023 289.833,6.03564 276.5,3C 261.44,-0.49498 246.44,-0.328313 231.5,3.5C 232.833,2.16667 234.167,0.833333 235.5,-0.5 Z"/></g>
<g><path style="opacity:1" fill="#f8d694" d="M 472.5,-0.5 C 496.167,-0.5 519.833,-0.5 543.5,-0.5C 543.5,63.8333 543.5,128.167 543.5,192.5C 532.833,192.5 522.167,192.5 511.5,192.5C 510.989,181.821 510.322,171.155 509.5,160.5C 506.881,160.768 504.381,160.435 502,159.5C 501.5,150.173 501.334,140.839 501.5,131.5C 512.087,131.136 512.087,130.136 501.5,128.5C 503.118,117.666 504.118,106.666 504.5,95.5C 505.495,100.792 505.828,106.125 505.5,111.5C 507.5,111.5 509.5,111.5 511.5,111.5C 510.916,101.16 510.249,90.8267 509.5,80.5C 514.833,80.5 520.167,80.5 525.5,80.5C 525.5,77.8333 525.5,75.1667 525.5,72.5C 520.167,72.5 514.833,72.5 509.5,72.5C 509.5,69.8333 509.5,67.1667 509.5,64.5C 514.833,64.5 520.167,64.5 525.5,64.5C 526.011,53.8213 526.678,43.1547 527.5,32.5C 520.833,32.5 514.167,32.5 507.5,32.5C 507.5,33.8333 507.5,35.1667 507.5,36.5C 502.833,36.5 498.167,36.5 493.5,36.5C 495.068,29.6146 495.735,22.6146 495.5,15.5C 487.833,15.5 480.167,15.5 472.5,15.5C 472.5,10.1667 472.5,4.83333 472.5,-0.5 Z"/></g>
<g><path style="opacity:1" fill="#322305" d="M 325.5,56.5 C 325.719,57.675 325.386,58.675 324.5,59.5C 323.686,57.2338 323.186,54.9005 323,52.5C 322.355,51.354 321.522,50.354 320.5,49.5C 320.709,48.914 321.043,48.414 321.5,48C 320.094,45.5551 318.76,43.0551 317.5,40.5C 315.955,39.5481 314.288,39.2148 312.5,39.5C 288.212,37.7189 263.878,37.0522 239.5,37.5C 235.818,37.3347 232.152,37.5014 228.5,38C 227.584,38.2784 226.918,38.7784 226.5,39.5C 222.336,42.8316 218.669,46.665 215.5,51C 210.65,54.3634 205.983,57.8634 201.5,61.5C 199.574,62.2423 197.741,63.2423 196,64.5C 195.178,72.3446 195.344,80.0113 196.5,87.5C 196.619,100.974 199.119,113.974 204,126.5C 205.371,129.266 207.204,131.599 209.5,133.5C 214.78,142.436 222.447,148.436 232.5,151.5C 235.219,152.913 238.219,153.58 241.5,153.5C 241.5,154.5 241.5,155.5 241.5,156.5C 241.086,160.969 241.086,165.636 241.5,170.5C 240.923,171.773 240.257,171.773 239.5,170.5C 238.349,168.227 237.349,165.894 236.5,163.5C 233.356,164.573 230.356,165.907 227.5,167.5C 225.321,167.84 223.488,168.84 222,170.5C 221.693,182.377 227.526,189.377 239.5,191.5C 244.396,193.446 249.729,194.113 255.5,193.5C 255.5,194.833 255.5,196.167 255.5,197.5C 248.683,197.936 242.016,197.269 235.5,195.5C 223.851,192.183 217.184,184.517 215.5,172.5C 211.144,174.34 207.144,176.674 203.5,179.5C 202.486,178.326 201.153,177.66 199.5,177.5C 204.453,173.351 209.787,169.684 215.5,166.5C 222.095,164.178 228.762,161.844 235.5,159.5C 236.711,158.28 236.711,157.113 235.5,156C 230.643,155.811 225.976,154.811 221.5,153C 218.738,151.893 216.738,150.06 215.5,147.5C 214.761,147.631 214.094,147.464 213.5,147C 201.427,135.018 194.593,120.518 193,103.5C 191.809,90.8611 191.309,78.1944 191.5,65.5C 190.325,65.719 189.325,65.3857 188.5,64.5C 194.444,59.5211 200.777,55.0211 207.5,51C 210.33,47.6919 213.33,44.6919 216.5,42C 216.167,41.5 215.833,41 215.5,40.5C 206.976,42.3764 198.642,44.7097 190.5,47.5C 189.333,49.1667 188.167,50.8333 187,52.5C 185.449,59.4183 185.116,66.4183 186,73.5C 189.758,81.8509 190.925,90.5175 189.5,99.5C 183.915,108.772 181.249,118.772 181.5,129.5C 179.214,128.66 178.881,127.16 180.5,125C 179.938,121.346 179.271,117.846 178.5,114.5C 180.377,109.075 182.544,103.741 185,98.5C 185.667,93.8333 185.667,89.1667 185,84.5C 180.453,74.5039 179.453,64.1705 182,53.5C 185.858,48.1715 187.525,42.1715 187,35.5C 195.774,28.3981 204.274,20.8981 212.5,13C 218.647,9.26005 224.98,6.09338 231.5,3.5C 246.44,-0.328313 261.44,-0.49498 276.5,3C 289.833,6.03564 300.833,12.7023 309.5,23C 312.458,23.2293 314.958,24.396 317,26.5C 318.955,36.7449 321.788,46.7449 325.5,56.5 Z"/></g>
<g><path style="opacity:1" fill="#5c3908" d="M 244.5,5.5 C 254.731,5.24018 264.898,5.90685 275,7.5C 283.529,10.5651 291.696,14.3984 299.5,19C 300.793,19.49 302.127,19.6567 303.5,19.5C 303.5,20.5 303.5,21.5 303.5,22.5C 293.009,22.0124 282.509,21.679 272,21.5C 258.737,21.4678 245.737,22.1344 233,23.5C 232.506,21.8659 232.34,20.1992 232.5,18.5C 231.448,18.3505 230.448,18.5172 229.5,19C 228.733,21.0529 227.4,22.5529 225.5,23.5C 218.149,25.3341 210.816,26.3341 203.5,26.5C 215.143,15.5105 228.81,8.51048 244.5,5.5 Z"/></g>
<g><path style="opacity:1" fill="#a27330" d="M 293.5,27.5 C 288.833,27.5 284.167,27.5 279.5,27.5C 267.167,27.5 254.833,27.5 242.5,27.5C 259.506,24.9248 276.506,24.9248 293.5,27.5 Z"/></g>
<g><path style="opacity:1" fill="#ad752e" d="M 235.5,27.5 C 231.79,29.1357 227.79,29.8023 223.5,29.5C 227.183,27.7501 231.183,27.0834 235.5,27.5 Z"/></g>
<g><path style="opacity:1" fill="#b4711f" d="M 279.5,27.5 C 284.167,27.5 288.833,27.5 293.5,27.5C 300.319,27.1286 306.986,27.7952 313.5,29.5C 313.5,31.1667 313.5,32.8333 313.5,34.5C 291.196,32.3812 268.862,32.0479 246.5,33.5C 257.281,31.7562 268.281,31.0895 279.5,31.5C 279.5,30.1667 279.5,28.8333 279.5,27.5 Z"/></g>
<g><path style="opacity:1" fill="#df9218" d="M 235.5,27.5 C 237.833,27.5 240.167,27.5 242.5,27.5C 254.833,27.5 267.167,27.5 279.5,27.5C 279.5,28.8333 279.5,30.1667 279.5,31.5C 268.281,31.0895 257.281,31.7562 246.5,33.5C 228.766,33.9923 211.266,36.3256 194,40.5C 192.268,40.2664 191.434,39.2664 191.5,37.5C 192.189,35.6473 193.522,34.4807 195.5,34C 204.715,31.7076 214.048,30.2076 223.5,29.5C 227.79,29.8023 231.79,29.1357 235.5,27.5 Z"/></g>
<g><path style="opacity:1" fill="#5d3708" d="M 239.5,37.5 C 263.878,37.0522 288.212,37.7189 312.5,39.5C 314.491,42.1369 316.491,44.8036 318.5,47.5C 321.81,61.4235 326.644,74.7568 333,87.5C 339.985,92.8206 345.985,99.1539 351,106.5C 354.135,114.651 353.635,122.651 349.5,130.5C 350.213,132.776 350.713,135.109 351,137.5C 355.155,145.139 359.821,152.472 365,159.5C 365.625,166.086 364.625,172.419 362,178.5C 361.439,179.022 360.772,179.355 360,179.5C 349.657,171.77 338.157,166.436 325.5,163.5C 324.355,158.565 322.522,153.898 320,149.5C 319.667,149.833 319.333,150.167 319,150.5C 317.061,146.566 314.728,142.899 312,139.5C 311.333,133.5 311.333,127.5 312,121.5C 312.707,119.919 313.54,118.419 314.5,117C 314.167,116.667 313.833,116.333 313.5,116C 314.577,115.53 315.577,115.697 316.5,116.5C 316.447,119.061 317.447,121.061 319.5,122.5C 320.123,112.566 316.456,104.4 308.5,98C 293.99,89.9437 283.657,78.2771 277.5,63C 282.167,62.6667 286.833,62.3333 291.5,62C 292.337,60.9887 292.67,59.8221 292.5,58.5C 271.135,59.9591 252.468,53.7925 236.5,40C 238.119,39.7645 239.119,38.9311 239.5,37.5 Z"/></g>
<g><path style="opacity:1" fill="#cb9853" d="M 201.5,61.5 C 201.5,62.8333 201.5,64.1667 201.5,65.5C 200.167,65.5 198.833,65.5 197.5,65.5C 197.5,66.8333 197.5,68.1667 197.5,69.5C 204.057,67.5156 210.724,67.1823 217.5,68.5C 219.173,70.5225 219.84,72.8559 219.5,75.5C 212.07,75.3461 204.737,76.0128 197.5,77.5C 197.5,76.5 197.5,75.5 197.5,74.5C 196.515,78.6344 196.182,82.9677 196.5,87.5C 195.344,80.0113 195.178,72.3446 196,64.5C 197.741,63.2423 199.574,62.2423 201.5,61.5 Z"/></g>
<g><path style="opacity:1" fill="#382108" d="M 197.5,74.5 C 198.219,72.1119 199.885,70.6119 202.5,70C 206.833,69.3333 211.167,69.3333 215.5,70C 218.124,70.5764 218.791,71.9098 217.5,74C 212.5,74.3333 207.5,74.6667 202.5,75C 200.727,76.802 199.06,76.6353 197.5,74.5 Z"/></g>
<g><path style="opacity:1" fill="#cd9f5e" d="M 281.5,81.5 C 286.5,87.1667 291.833,92.5 297.5,97.5C 296.022,97.762 294.689,97.4287 293.5,96.5C 290.167,93.1667 286.833,89.8333 283.5,86.5C 282.544,84.9246 281.877,83.258 281.5,81.5 Z"/></g>
<g><path style="opacity:1" fill="#e49d4a" d="M 226.5,39.5 C 240.046,51.4404 255.712,59.4404 273.5,63.5C 276.176,69.5165 278.843,75.5165 281.5,81.5C 281.877,83.258 282.544,84.9246 283.5,86.5C 286.833,89.8333 290.167,93.1667 293.5,96.5C 294.689,97.4287 296.022,97.762 297.5,97.5C 299.041,106.599 295.041,109.932 285.5,107.5C 285.541,116.545 282.708,124.545 277,131.5C 269.881,140.135 261.048,146.135 250.5,149.5C 244.165,149.56 237.998,148.56 232,146.5C 230.831,145.991 229.998,145.158 229.5,144C 226.833,143.667 224.167,143.333 221.5,143C 219.709,140.894 219.042,138.394 219.5,135.5C 227.507,135.666 235.507,135.5 243.5,135C 243.167,134.667 242.833,134.333 242.5,134C 246.794,133.528 249.794,131.362 251.5,127.5C 251.5,126.167 251.5,124.833 251.5,123.5C 251.5,122.167 251.5,120.833 251.5,119.5C 249.533,119.739 247.699,119.406 246,118.5C 245.213,119.711 244.546,120.711 244,121.5C 242.278,121.389 242.112,120.889 243.5,120C 241.423,119.808 239.423,119.308 237.5,118.5C 238.167,117.833 238.833,117.167 239.5,116.5C 233.123,113.868 226.457,112.868 219.5,113.5C 219.5,112.167 219.5,110.833 219.5,109.5C 222.737,102.151 224.237,94.4845 224,86.5C 222.286,85.0745 220.953,85.4078 220,87.5C 218.368,96.4267 215.868,105.093 212.5,113.5C 213.263,117.431 215.597,119.931 219.5,121C 222.146,121.497 224.813,121.664 227.5,121.5C 230.167,122.167 232.833,122.833 235.5,123.5C 235.5,124.833 235.5,126.167 235.5,127.5C 229.465,127.092 223.465,126.426 217.5,125.5C 217.5,127.5 217.5,129.5 217.5,131.5C 216.448,131.351 215.448,131.517 214.5,132C 215.369,133.465 214.869,134.631 213,135.5C 211.923,134.571 210.756,133.904 209.5,133.5C 207.204,131.599 205.371,129.266 204,126.5C 199.119,113.974 196.619,100.974 196.5,87.5C 196.182,82.9677 196.515,78.6344 197.5,74.5C 197.5,75.5 197.5,76.5 197.5,77.5C 204.737,76.0128 212.07,75.3461 219.5,75.5C 219.84,72.8559 219.173,70.5225 217.5,68.5C 210.724,67.1823 204.057,67.5156 197.5,69.5C 197.5,68.1667 197.5,66.8333 197.5,65.5C 198.833,65.5 200.167,65.5 201.5,65.5C 201.5,64.1667 201.5,62.8333 201.5,61.5C 205.983,57.8634 210.65,54.3634 215.5,51C 218.669,46.665 222.336,42.8316 226.5,39.5 Z"/></g>
<g><path style="opacity:1" fill="#352204" d="M 202.5,88.5 C 204.292,90.4613 206.458,91.7946 209,92.5C 211.086,91.5819 213.253,90.9153 215.5,90.5C 212.736,97.749 208.569,98.4157 203,92.5C 202.51,91.2068 202.343,89.8734 202.5,88.5 Z"/></g>
<g><path style="opacity:1" fill="#cf9a5d" d="M 237.5,67.5 C 236.058,68.8195 235.392,70.4862 235.5,72.5C 239.171,72.2775 242.837,71.9442 246.5,71.5C 249.785,71.4474 252.785,72.1141 255.5,73.5C 248.167,73.5 240.833,73.5 233.5,73.5C 233.5,71.5 233.5,69.5 233.5,67.5C 234.833,67.5 236.167,67.5 237.5,67.5 Z"/></g>
<g><path style="opacity:1" fill="#3a2509" d="M 255.5,73.5 C 252.785,72.1141 249.785,71.4474 246.5,71.5C 242.837,71.9442 239.171,72.2775 235.5,72.5C 235.392,70.4862 236.058,68.8195 237.5,67.5C 243.865,66.0691 250.198,66.2358 256.5,68C 259.393,68.9408 261.726,70.6074 263.5,73C 263.387,74.2798 262.72,75.1131 261.5,75.5C 259.677,74.2528 257.677,73.5861 255.5,73.5 Z"/></g>
<g><path style="opacity:1" fill="#402b08" d="M 241.5,88.5 C 243.402,89.3679 245.235,90.3679 247,91.5C 249.744,90.6965 252.411,89.6965 255,88.5C 256.479,89.8731 256.312,91.3731 254.5,93C 250.086,96.3352 245.919,96.1685 242,92.5C 241.51,91.2068 241.343,89.8734 241.5,88.5 Z"/></g>
<g><path style="opacity:1" fill="#3f280b" d="M 219.5,109.5 C 218.193,111.223 218.193,113.057 219.5,115C 224.155,115.499 228.821,115.666 233.5,115.5C 233.649,116.552 233.483,117.552 233,118.5C 230.942,119.229 229.109,120.229 227.5,121.5C 224.813,121.664 222.146,121.497 219.5,121C 215.597,119.931 213.263,117.431 212.5,113.5C 215.868,105.093 218.368,96.4267 220,87.5C 220.953,85.4078 222.286,85.0745 224,86.5C 224.237,94.4845 222.737,102.151 219.5,109.5 Z"/></g>
<g><path style="opacity:1" fill="#5d3909" d="M 215.5,147.5 C 215.8,152.099 215.467,156.599 214.5,161C 215.313,162.314 216.313,163.481 217.5,164.5C 216.757,165.182 216.091,165.849 215.5,166.5C 209.787,169.684 204.453,173.351 199.5,177.5C 197.092,181.079 194.092,184.246 190.5,187C 188.865,187.54 187.532,187.04 186.5,185.5C 184.745,180.283 184.245,174.95 185,169.5C 187.159,163.337 189.326,157.17 191.5,151C 191.369,148.747 190.869,146.581 190,144.5C 186.636,139.77 183.803,134.77 181.5,129.5C 181.249,118.772 183.915,108.772 189.5,99.5C 190.925,90.5175 189.758,81.8509 186,73.5C 185.116,66.4183 185.449,59.4183 187,52.5C 188.167,50.8333 189.333,49.1667 190.5,47.5C 198.642,44.7097 206.976,42.3764 215.5,40.5C 215.833,41 216.167,41.5 216.5,42C 213.33,44.6919 210.33,47.6919 207.5,51C 200.777,55.0211 194.444,59.5211 188.5,64.5C 189.325,65.3857 190.325,65.719 191.5,65.5C 191.309,78.1944 191.809,90.8611 193,103.5C 194.593,120.518 201.427,135.018 213.5,147C 214.094,147.464 214.761,147.631 215.5,147.5 Z"/></g>
<g><path style="opacity:1" fill="#352304" d="M 239.5,37.5 C 239.119,38.9311 238.119,39.7645 236.5,40C 252.468,53.7925 271.135,59.9591 292.5,58.5C 292.67,59.8221 292.337,60.9887 291.5,62C 286.833,62.3333 282.167,62.6667 277.5,63C 283.657,78.2771 293.99,89.9437 308.5,98C 316.456,104.4 320.123,112.566 319.5,122.5C 317.447,121.061 316.447,119.061 316.5,116.5C 314.571,109.945 310.737,104.945 305,101.5C 302.983,105.022 300.816,108.522 298.5,112C 295.937,113.079 293.271,113.579 290.5,113.5C 288.605,118.646 287.272,123.979 286.5,129.5C 287.333,134.83 288.166,140.163 289,145.5C 292.294,151.112 297.127,154.946 303.5,157C 311.148,158.616 318.482,160.783 325.5,163.5C 338.157,166.436 349.657,171.77 360,179.5C 360.772,179.355 361.439,179.022 362,178.5C 364.625,172.419 365.625,166.086 365,159.5C 359.821,152.472 355.155,145.139 351,137.5C 350.713,135.109 350.213,132.776 349.5,130.5C 353.635,122.651 354.135,114.651 351,106.5C 345.985,99.1539 339.985,92.8206 333,87.5C 326.644,74.7568 321.81,61.4235 318.5,47.5C 316.491,44.8036 314.491,42.1369 312.5,39.5C 314.288,39.2148 315.955,39.5481 317.5,40.5C 318.76,43.0551 320.094,45.5551 321.5,48C 321.043,48.414 320.709,48.914 320.5,49.5C 321.522,50.354 322.355,51.354 323,52.5C 323.186,54.9005 323.686,57.2338 324.5,59.5C 325.386,58.675 325.719,57.675 325.5,56.5C 328.006,64.1725 330.839,71.8392 334,79.5C 338.967,85.4685 344.301,91.1352 350,96.5C 352.852,100.204 355.185,104.204 357,108.5C 357.151,118.208 356.818,127.875 356,137.5C 359.285,142.454 362.952,147.12 367,151.5C 371.872,162.516 371.372,173.35 365.5,184C 367.471,187.446 369.804,190.612 372.5,193.5C 371.876,193.917 371.543,194.584 371.5,195.5C 372.992,197.972 373.658,200.639 373.5,203.5C 367.128,193.624 359.128,185.124 349.5,178C 343.782,175.132 337.782,172.966 331.5,171.5C 331.66,173.199 331.494,174.866 331,176.5C 325.4,184.602 318.9,191.935 311.5,198.5C 307.156,200.671 303.156,203.337 299.5,206.5C 288.798,212.064 277.464,215.731 265.5,217.5C 257.5,217.5 249.5,217.5 241.5,217.5C 224.761,216.634 211.761,209.301 202.5,195.5C 200.986,191.871 199.32,188.538 197.5,185.5C 198.5,183.167 200.167,181.5 202.5,180.5C 204.711,193.361 211.711,202.361 223.5,207.5C 229.097,210.239 235.097,212.072 241.5,213C 253.887,214.288 265.887,213.121 277.5,209.5C 284.498,208.161 290.831,205.494 296.5,201.5C 298.153,201.34 299.486,200.674 300.5,199.5C 312.722,192.443 322.056,182.61 328.5,170C 323.985,168.201 319.319,166.701 314.5,165.5C 310.868,169.468 307.201,173.468 303.5,177.5C 301.833,178.5 300.5,179.833 299.5,181.5C 288.197,189.32 275.864,194.654 262.5,197.5C 260.167,197.5 257.833,197.5 255.5,197.5C 255.5,196.167 255.5,194.833 255.5,193.5C 249.729,194.113 244.396,193.446 239.5,191.5C 240.167,191.5 240.833,191.5 241.5,191.5C 262.656,194.608 281.322,189.274 297.5,175.5C 302.397,172.281 305.731,167.948 307.5,162.5C 298.811,161.238 291.644,157.238 286,150.5C 284.991,148.975 284.491,147.308 284.5,145.5C 283.911,141.131 283.078,136.798 282,132.5C 272.088,146.583 258.588,154.583 241.5,156.5C 241.5,155.5 241.5,154.5 241.5,153.5C 238.219,153.58 235.219,152.913 232.5,151.5C 237.511,151.666 242.511,151.499 247.5,151C 248.737,150.768 249.737,150.268 250.5,149.5C 261.048,146.135 269.881,140.135 277,131.5C 282.708,124.545 285.541,116.545 285.5,107.5C 295.041,109.932 299.041,106.599 297.5,97.5C 291.833,92.5 286.5,87.1667 281.5,81.5C 278.843,75.5165 276.176,69.5165 273.5,63.5C 255.712,59.4404 240.046,51.4404 226.5,39.5C 226.918,38.7784 227.584,38.2784 228.5,38C 232.152,37.5014 235.818,37.3347 239.5,37.5 Z"/></g>
<g><path style="opacity:1" fill="#372406" d="M 251.5,123.5 C 251.5,124.833 251.5,126.167 251.5,127.5C 243.145,134.087 233.811,135.92 223.5,133C 221.393,131.736 220.393,129.903 220.5,127.5C 231.04,131.265 240.706,129.598 249.5,122.5C 250.183,122.863 250.85,123.196 251.5,123.5 Z"/></g>
<g><path style="opacity:1" fill="#4a2f07" d="M 316.5,116.5 C 315.577,115.697 314.577,115.53 313.5,116C 313.833,116.333 314.167,116.667 314.5,117C 313.54,118.419 312.707,119.919 312,121.5C 311.333,127.5 311.333,133.5 312,139.5C 314.728,142.899 317.061,146.566 319,150.5C 319.333,150.167 319.667,149.833 320,149.5C 322.522,153.898 324.355,158.565 325.5,163.5C 318.482,160.783 311.148,158.616 303.5,157C 297.127,154.946 292.294,151.112 289,145.5C 288.166,140.163 287.333,134.83 286.5,129.5C 287.272,123.979 288.605,118.646 290.5,113.5C 293.271,113.579 295.937,113.079 298.5,112C 300.816,108.522 302.983,105.022 305,101.5C 310.737,104.945 314.571,109.945 316.5,116.5 Z"/></g>
<g><path style="opacity:1" fill="#da9d50" d="M 219.5,109.5 C 219.5,110.833 219.5,112.167 219.5,113.5C 226.457,112.868 233.123,113.868 239.5,116.5C 238.833,117.167 238.167,117.833 237.5,118.5C 239.423,119.308 241.423,119.808 243.5,120C 242.112,120.889 242.278,121.389 244,121.5C 244.546,120.711 245.213,119.711 246,118.5C 247.699,119.406 249.533,119.739 251.5,119.5C 251.5,120.833 251.5,122.167 251.5,123.5C 250.85,123.196 250.183,122.863 249.5,122.5C 240.706,129.598 231.04,131.265 220.5,127.5C 220.393,129.903 221.393,131.736 223.5,133C 233.811,135.92 243.145,134.087 251.5,127.5C 249.794,131.362 246.794,133.528 242.5,134C 242.833,134.333 243.167,134.667 243.5,135C 235.507,135.5 227.507,135.666 219.5,135.5C 219.042,138.394 219.709,140.894 221.5,143C 224.167,143.333 226.833,143.667 229.5,144C 229.998,145.158 230.831,145.991 232,146.5C 237.998,148.56 244.165,149.56 250.5,149.5C 249.737,150.268 248.737,150.768 247.5,151C 242.511,151.499 237.511,151.666 232.5,151.5C 222.447,148.436 214.78,142.436 209.5,133.5C 210.756,133.904 211.923,134.571 213,135.5C 214.869,134.631 215.369,133.465 214.5,132C 215.448,131.517 216.448,131.351 217.5,131.5C 217.5,129.5 217.5,127.5 217.5,125.5C 223.465,126.426 229.465,127.092 235.5,127.5C 235.5,126.167 235.5,124.833 235.5,123.5C 232.833,122.833 230.167,122.167 227.5,121.5C 229.109,120.229 230.942,119.229 233,118.5C 233.483,117.552 233.649,116.552 233.5,115.5C 228.821,115.666 224.155,115.499 219.5,115C 218.193,113.057 218.193,111.223 219.5,109.5 Z"/></g>
<g><path style="opacity:1" fill="#4c3009" d="M 215.5,147.5 C 216.738,150.06 218.738,151.893 221.5,153C 225.976,154.811 230.643,155.811 235.5,156C 236.711,157.113 236.711,158.28 235.5,159.5C 228.762,161.844 222.095,164.178 215.5,166.5C 216.091,165.849 216.757,165.182 217.5,164.5C 216.313,163.481 215.313,162.314 214.5,161C 215.467,156.599 215.8,152.099 215.5,147.5 Z"/></g>
<g><path style="opacity:1" fill="#c57a27" d="M 284.5,145.5 C 279.436,152.071 273.769,158.237 267.5,164C 259.623,168.846 251.457,170.013 243,167.5C 242.768,168.737 242.268,169.737 241.5,170.5C 241.086,165.636 241.086,160.969 241.5,156.5C 258.588,154.583 272.088,146.583 282,132.5C 283.078,136.798 283.911,141.131 284.5,145.5 Z"/></g>
<g><path style="opacity:1" fill="#e49c49" d="M 284.5,145.5 C 284.491,147.308 284.991,148.975 286,150.5C 291.644,157.238 298.811,161.238 307.5,162.5C 305.731,167.948 302.397,172.281 297.5,175.5C 294.465,175.521 292.132,176.854 290.5,179.5C 289.278,177.022 287.278,176.022 284.5,176.5C 284.007,178.806 283.674,181.139 283.5,183.5C 280.293,183.124 277.627,184.124 275.5,186.5C 270.198,187.329 264.864,187.829 259.5,188C 258.027,188.71 257.36,189.876 257.5,191.5C 252.167,191.5 246.833,191.5 241.5,191.5C 240.833,191.5 240.167,191.5 239.5,191.5C 239.279,190.265 238.612,189.265 237.5,188.5C 235.5,187.667 233.5,186.833 231.5,186C 232.793,185.51 234.127,185.343 235.5,185.5C 235.5,183.5 235.5,181.5 235.5,179.5C 232.266,180.576 228.932,181.243 225.5,181.5C 225.145,179.11 224.478,176.777 223.5,174.5C 224.457,171.895 225.79,169.561 227.5,167.5C 230.356,165.907 233.356,164.573 236.5,163.5C 237.349,165.894 238.349,168.227 239.5,170.5C 240.257,171.773 240.923,171.773 241.5,170.5C 242.268,169.737 242.768,168.737 243,167.5C 251.457,170.013 259.623,168.846 267.5,164C 273.769,158.237 279.436,152.071 284.5,145.5 Z"/></g>
<g><path style="opacity:1" fill="#d79e55" d="M 297.5,175.5 C 281.322,189.274 262.656,194.608 241.5,191.5C 246.833,191.5 252.167,191.5 257.5,191.5C 257.36,189.876 258.027,188.71 259.5,188C 264.864,187.829 270.198,187.329 275.5,186.5C 277.627,184.124 280.293,183.124 283.5,183.5C 283.674,181.139 284.007,178.806 284.5,176.5C 287.278,176.022 289.278,177.022 290.5,179.5C 292.132,176.854 294.465,175.521 297.5,175.5 Z"/></g>
<g><path style="opacity:1" fill="#dca350" d="M 227.5,167.5 C 225.79,169.561 224.457,171.895 223.5,174.5C 224.478,176.777 225.145,179.11 225.5,181.5C 228.932,181.243 232.266,180.576 235.5,179.5C 235.5,181.5 235.5,183.5 235.5,185.5C 234.127,185.343 232.793,185.51 231.5,186C 233.5,186.833 235.5,187.667 237.5,188.5C 238.612,189.265 239.279,190.265 239.5,191.5C 227.526,189.377 221.693,182.377 222,170.5C 223.488,168.84 225.321,167.84 227.5,167.5 Z"/></g>
<g><path style="opacity:1" fill="#e3c07a" d="M 300.5,199.5 C 299.232,198.213 299.565,197.213 301.5,196.5C 299.604,195.534 297.604,195.201 295.5,195.5C 295.5,194.5 295.5,193.5 295.5,192.5C 297.901,194.062 299.901,193.729 301.5,191.5C 308.974,192.019 313.64,188.685 315.5,181.5C 311.871,179.24 307.871,177.907 303.5,177.5C 307.201,173.468 310.868,169.468 314.5,165.5C 319.319,166.701 323.985,168.201 328.5,170C 322.056,182.61 312.722,192.443 300.5,199.5 Z"/></g>
<g><path style="opacity:1" fill="#311a11" d="M 313.5,175.5 C 317.161,175.35 318.161,176.85 316.5,180C 312.707,180.487 311.707,178.987 313.5,175.5 Z"/></g>
<g><path style="opacity:1" fill="#e9bd6e" d="M 303.5,177.5 C 307.871,177.907 311.871,179.24 315.5,181.5C 313.64,188.685 308.974,192.019 301.5,191.5C 298.826,188.51 296.826,188.843 295.5,192.5C 295.5,193.5 295.5,194.5 295.5,195.5C 297.604,195.201 299.604,195.534 301.5,196.5C 299.565,197.213 299.232,198.213 300.5,199.5C 299.486,200.674 298.153,201.34 296.5,201.5C 291.583,203.124 286.583,204.457 281.5,205.5C 281.5,203.5 281.5,201.5 281.5,199.5C 280.167,199.5 278.833,199.5 277.5,199.5C 277.328,197.508 277.995,195.842 279.5,194.5C 282.674,192.775 286.007,191.442 289.5,190.5C 291.156,188.671 293.156,187.337 295.5,186.5C 297.261,185.083 298.594,183.417 299.5,181.5C 300.5,179.833 301.833,178.5 303.5,177.5 Z"/></g>
<g><path style="opacity:1" fill="#e7c378" d="M 235.5,195.5 C 233.777,200.359 229.777,202.359 223.5,201.5C 223.5,203.5 223.5,205.5 223.5,207.5C 211.711,202.361 204.711,193.361 202.5,180.5C 202.5,179.833 202.833,179.5 203.5,179.5C 207.144,176.674 211.144,174.34 215.5,172.5C 217.184,184.517 223.851,192.183 235.5,195.5 Z"/></g>
<g><path style="opacity:1" fill="#3d2608" d="M 209.5,181.5 C 210.833,181.5 212.167,181.5 213.5,181.5C 213.5,182.833 213.5,184.167 213.5,185.5C 211.833,185.5 210.167,185.5 208.5,185.5C 208.433,184.041 208.766,182.708 209.5,181.5 Z"/></g>
<g><path style="opacity:1" fill="#ebc46e" d="M 155.5,193.5 C 154.35,196.298 153.017,198.965 151.5,201.5C 150.167,201.5 148.833,201.5 147.5,201.5C 147.036,206.891 145.37,211.891 142.5,216.5C 141.548,214.955 141.215,213.288 141.5,211.5C 139.5,211.5 137.5,211.5 135.5,211.5C 134.263,206.366 130.929,203.866 125.5,204C 124.484,202.323 123.484,200.657 122.5,199C 126.027,188.779 129.694,178.613 133.5,168.5C 135.466,167.628 137.466,167.795 139.5,169C 145.952,172.642 152.452,176.142 159,179.5C 159.667,181.5 159.667,183.5 159,185.5C 157.546,188.071 156.38,190.738 155.5,193.5 Z"/></g>
<g><path style="opacity:1" fill="#732904" d="M 373.5,203.5 C 390.099,226.46 403.766,251.127 414.5,277.5C 416.382,286.083 415.049,294.083 410.5,301.5C 394.675,317.03 377.009,329.697 357.5,339.5C 355.508,339.672 353.842,339.005 352.5,337.5C 351.43,332.431 348.763,328.431 344.5,325.5C 342.311,322.344 340.644,319.011 339.5,315.5C 340.552,315.649 341.552,315.483 342.5,315C 348.189,309.431 354.189,304.265 360.5,299.5C 361.429,298.311 361.762,296.978 361.5,295.5C 362.552,295.649 363.552,295.483 364.5,295C 370.761,287.403 378.427,281.736 387.5,278C 389.473,277.505 391.473,277.338 393.5,277.5C 393.5,276.167 393.5,274.833 393.5,273.5C 386.22,274.404 379.22,276.404 372.5,279.5C 369.163,274.824 365.83,270.157 362.5,265.5C 353.511,257.177 344.844,248.511 336.5,239.5C 333.086,234.682 331.42,229.349 331.5,223.5C 331.831,215.472 331.498,207.472 330.5,199.5C 329.202,202.422 328.202,205.422 327.5,208.5C 327.5,214.5 327.5,220.5 327.5,226.5C 321.337,253.653 314.671,280.653 307.5,307.5C 304.833,308.167 302.167,308.833 299.5,309.5C 275.207,311.182 250.874,311.849 226.5,311.5C 220.748,311.423 215.081,310.756 209.5,309.5C 208.199,294.542 203.699,280.542 196,267.5C 191.944,256.499 190.61,245.166 192,233.5C 194.188,225.419 196.688,217.419 199.5,209.5C 199.167,208.833 198.833,208.167 198.5,207.5C 197.158,209.005 195.492,209.672 193.5,209.5C 192.169,217.649 190.336,225.649 188,233.5C 187.067,242.956 187.567,252.29 189.5,261.5C 192.313,272.387 188.313,277.054 177.5,275.5C 174.401,273.618 171.068,272.285 167.5,271.5C 166.414,271.38 165.747,270.713 165.5,269.5C 168.566,254.031 172.232,238.698 176.5,223.5C 178.882,220.663 180.049,217.33 180,213.5C 184.139,202.913 189.972,193.579 197.5,185.5C 199.32,188.538 200.986,191.871 202.5,195.5C 211.761,209.301 224.761,216.634 241.5,217.5C 241.918,218.222 242.584,218.722 243.5,219C 247.167,219.167 250.833,219.333 254.5,219.5C 258.565,219.489 262.232,218.822 265.5,217.5C 277.464,215.731 288.798,212.064 299.5,206.5C 303.156,203.337 307.156,200.671 311.5,198.5C 318.9,191.935 325.4,184.602 331,176.5C 331.494,174.866 331.66,173.199 331.5,171.5C 337.782,172.966 343.782,175.132 349.5,178C 359.128,185.124 367.128,193.624 373.5,203.5 Z"/></g>
<g><path style="opacity:1" fill="#311806" d="M 219.5,196.5 C 221.167,196.5 222.833,196.5 224.5,196.5C 224.616,199.91 222.95,201.244 219.5,200.5C 219.5,199.167 219.5,197.833 219.5,196.5 Z"/></g>
<g><path style="opacity:1" fill="#3a240c" d="M 301.5,191.5 C 299.901,193.729 297.901,194.062 295.5,192.5C 296.826,188.843 298.826,188.51 301.5,191.5 Z"/></g>
<g><path style="opacity:1" fill="#281b07" d="M 155.5,193.5 C 156.833,193.5 158.167,193.5 159.5,193.5C 158.18,197.122 156.847,200.788 155.5,204.5C 152.001,210.839 149.001,217.506 146.5,224.5C 144.577,225.308 142.577,225.808 140.5,226C 139.358,228.45 138.358,230.95 137.5,233.5C 135.517,233.843 134.183,233.176 133.5,231.5C 133.893,229.716 134.559,228.05 135.5,226.5C 137.5,224.167 139.5,221.833 141.5,219.5C 142.189,220.774 143.023,220.774 144,219.5C 146.79,213.632 149.29,207.632 151.5,201.5C 153.017,198.965 154.35,196.298 155.5,193.5 Z"/></g>
<g><path style="opacity:1" fill="#e0bb78" d="M 299.5,181.5 C 298.594,183.417 297.261,185.083 295.5,186.5C 293.156,187.337 291.156,188.671 289.5,190.5C 286.007,191.442 282.674,192.775 279.5,194.5C 277.995,195.842 277.328,197.508 277.5,199.5C 278.833,199.5 280.167,199.5 281.5,199.5C 281.5,201.5 281.5,203.5 281.5,205.5C 286.583,204.457 291.583,203.124 296.5,201.5C 290.831,205.494 284.498,208.161 277.5,209.5C 276.156,207.965 274.489,206.632 272.5,205.5C 271.132,202.932 271.466,200.599 273.5,198.5C 269.893,197.511 266.226,197.177 262.5,197.5C 275.864,194.654 288.197,189.32 299.5,181.5 Z"/></g>
<g><path style="opacity:1" fill="#361605" d="M 274.5,200.5 C 277.5,200.167 278.833,201.5 278.5,204.5C 276.833,204.5 275.167,204.5 273.5,204.5C 273.433,203.041 273.766,201.708 274.5,200.5 Z"/></g>
<g><path style="opacity:1" fill="#e7bd6f" d="M 235.5,195.5 C 242.016,197.269 248.683,197.936 255.5,197.5C 257.833,197.5 260.167,197.5 262.5,197.5C 266.226,197.177 269.893,197.511 273.5,198.5C 271.466,200.599 271.132,202.932 272.5,205.5C 274.489,206.632 276.156,207.965 277.5,209.5C 265.887,213.121 253.887,214.288 241.5,213C 235.097,212.072 229.097,210.239 223.5,207.5C 223.5,205.5 223.5,203.5 223.5,201.5C 229.777,202.359 233.777,200.359 235.5,195.5 Z"/></g>
<g><path style="opacity:1" fill="#210f02" d="M 244.5,203.5 C 245.833,203.5 247.167,203.5 248.5,203.5C 248.5,204.833 248.5,206.167 248.5,207.5C 247.167,207.5 245.833,207.5 244.5,207.5C 244.5,206.167 244.5,204.833 244.5,203.5 Z"/></g>
<g><path style="opacity:1" fill="#4c2406" d="M 331.5,223.5 C 330.778,223.082 330.278,222.416 330,221.5C 329.667,216.833 329.333,212.167 329,207.5C 328.617,208.056 328.117,208.389 327.5,208.5C 328.202,205.422 329.202,202.422 330.5,199.5C 331.498,207.472 331.831,215.472 331.5,223.5 Z"/></g>
<g><path style="opacity:1" fill="#f8d795" d="M 543.5,208.5 C 543.5,309.5 543.5,410.5 543.5,511.5C 538.167,511.5 532.833,511.5 527.5,511.5C 527.5,506.167 527.5,500.833 527.5,495.5C 522.167,495.5 516.833,495.5 511.5,495.5C 511.5,490.167 511.5,484.833 511.5,479.5C 506.167,479.5 500.833,479.5 495.5,479.5C 495.5,474.167 495.5,468.833 495.5,463.5C 490.167,463.5 484.833,463.5 479.5,463.5C 479.5,458.167 479.5,452.833 479.5,447.5C 484.833,447.5 490.167,447.5 495.5,447.5C 495.5,442.167 495.5,436.833 495.5,431.5C 500.833,431.5 506.167,431.5 511.5,431.5C 511.5,426.167 511.5,420.833 511.5,415.5C 506.167,415.5 500.833,415.5 495.5,415.5C 495.5,410.167 495.5,404.833 495.5,399.5C 504.833,399.5 514.167,399.5 523.5,399.5C 523.5,396.833 523.5,394.167 523.5,391.5C 524.833,391.5 526.167,391.5 527.5,391.5C 527.5,383.5 527.5,375.5 527.5,367.5C 522.167,367.5 516.833,367.5 511.5,367.5C 511.5,356.833 511.5,346.167 511.5,335.5C 506.167,335.5 500.833,335.5 495.5,335.5C 495.5,330.167 495.5,324.833 495.5,319.5C 490.167,319.5 484.833,319.5 479.5,319.5C 479.5,324.833 479.5,330.167 479.5,335.5C 468.833,335.5 458.167,335.5 447.5,335.5C 447.5,330.167 447.5,324.833 447.5,319.5C 442.167,319.5 436.833,319.5 431.5,319.5C 430.625,308.86 430.291,298.194 430.5,287.5C 431.842,280.568 431.508,273.568 429.5,266.5C 435.463,265.504 441.463,265.171 447.5,265.5C 447.5,267.5 447.5,269.5 447.5,271.5C 444.753,271.187 442.086,271.52 439.5,272.5C 447.472,273.498 455.472,273.831 463.5,273.5C 463.5,278.167 463.5,282.833 463.5,287.5C 473.5,287.5 483.5,287.5 493.5,287.5C 493.5,282.833 493.5,278.167 493.5,273.5C 504.185,273.61 514.852,273.277 525.5,272.5C 525.5,267.167 525.5,261.833 525.5,256.5C 520.167,256.167 514.833,255.833 509.5,255.5C 509.5,239.833 509.5,224.167 509.5,208.5C 520.833,208.5 532.167,208.5 543.5,208.5 Z"/></g>
<g><path style="opacity:1" fill="#4f350c" d="M 135.5,212.5 C 138.19,214.193 140.19,216.527 141.5,219.5C 139.5,221.833 137.5,224.167 135.5,226.5C 136.167,224.181 136.334,221.847 136,219.5C 135.329,218.748 134.496,218.414 133.5,218.5C 133.253,216.142 133.919,214.142 135.5,212.5 Z"/></g>
<g><path style="opacity:1" fill="#dbb56e" d="M 151.5,201.5 C 149.29,207.632 146.79,213.632 144,219.5C 143.023,220.774 142.189,220.774 141.5,219.5C 140.19,216.527 138.19,214.193 135.5,212.5C 135.5,212.167 135.5,211.833 135.5,211.5C 137.5,211.5 139.5,211.5 141.5,211.5C 141.215,213.288 141.548,214.955 142.5,216.5C 145.37,211.891 147.036,206.891 147.5,201.5C 148.833,201.5 150.167,201.5 151.5,201.5 Z"/></g>
<g><path style="opacity:1" fill="#f4d799" d="M 183.5,195.5 C 179.325,203.186 175.825,211.186 173,219.5C 168.357,236.74 164.023,254.074 160,271.5C 155.967,267.132 151.634,263.132 147,259.5C 147.267,254.157 145.767,249.49 142.5,245.5C 141.263,242.755 139.43,240.422 137,238.5C 136.36,236.735 136.527,235.068 137.5,233.5C 138.358,230.95 139.358,228.45 140.5,226C 142.577,225.808 144.577,225.308 146.5,224.5C 149.001,217.506 152.001,210.839 155.5,204.5C 155.89,207.466 155.223,210.132 153.5,212.5C 155.396,213.466 157.396,213.799 159.5,213.5C 159.5,214.833 159.5,216.167 159.5,217.5C 160.833,217.5 162.167,217.5 163.5,217.5C 163.5,219.5 163.5,221.5 163.5,223.5C 164.833,223.5 166.167,223.5 167.5,223.5C 167.343,222.127 167.51,220.793 168,219.5C 168.333,220.167 168.667,220.833 169,221.5C 170.031,220.3 170.865,218.966 171.5,217.5C 170.763,214.905 170.763,212.238 171.5,209.5C 169.396,209.799 167.396,209.466 165.5,208.5C 168.768,207.513 172.102,207.18 175.5,207.5C 175.5,205.5 175.5,203.5 175.5,201.5C 176.833,201.5 178.167,201.5 179.5,201.5C 179.354,198.446 180.687,196.446 183.5,195.5 Z"/></g>
<g><path style="opacity:1" fill="#3e1f06" d="M 129.5,218.5 C 129.433,219.959 129.766,221.292 130.5,222.5C 127.656,227.184 125.656,232.184 124.5,237.5C 123.596,238.209 123.263,239.209 123.5,240.5C 122.167,240.5 120.833,240.5 119.5,240.5C 121.219,232.398 124.552,225.065 129.5,218.5 Z"/></g>
<g><path style="opacity:1" fill="#e7ac62" d="M 133.5,218.5 C 134.496,218.414 135.329,218.748 136,219.5C 136.334,221.847 136.167,224.181 135.5,226.5C 134.559,228.05 133.893,229.716 133.5,231.5C 130.396,236.661 131.062,241.328 135.5,245.5C 133.508,245.672 131.842,245.005 130.5,243.5C 129.833,239.5 129.167,235.5 128.5,231.5C 127.534,233.396 127.201,235.396 127.5,237.5C 126.5,237.5 125.5,237.5 124.5,237.5C 125.656,232.184 127.656,227.184 130.5,222.5C 131.488,221.205 132.488,219.872 133.5,218.5 Z"/></g>
<g><path style="opacity:1" fill="#e6a14a" d="M 101.5,235.5 C 102.735,235.279 103.735,234.612 104.5,233.5C 105.522,228.744 106.856,224.077 108.5,219.5C 109.487,222.768 109.82,226.102 109.5,229.5C 109.5,232.167 109.5,234.833 109.5,237.5C 110.675,237.719 111.675,237.386 112.5,236.5C 114.187,229.464 117.187,223.13 121.5,217.5C 124.088,215.92 126.422,213.92 128.5,211.5C 129.429,212.689 129.762,214.022 129.5,215.5C 129.5,216.5 129.5,217.5 129.5,218.5C 124.552,225.065 121.219,232.398 119.5,240.5C 120.833,240.5 122.167,240.5 123.5,240.5C 123.263,239.209 123.596,238.209 124.5,237.5C 125.5,237.5 126.5,237.5 127.5,237.5C 127.201,235.396 127.534,233.396 128.5,231.5C 129.167,235.5 129.833,239.5 130.5,243.5C 131.842,245.005 133.508,245.672 135.5,245.5C 137.812,247.146 139.812,249.146 141.5,251.5C 141.665,254.518 141.498,257.518 141,260.5C 139.303,263.02 137.47,265.353 135.5,267.5C 130.508,270.235 125.175,271.068 119.5,270C 113.694,262.86 107.194,256.36 100,250.5C 93.8306,244.028 91.8306,236.361 94,227.5C 95.2311,219.035 99.0644,212.035 105.5,206.5C 106.689,205.571 108.022,205.238 109.5,205.5C 106.959,211.57 104.126,217.57 101,223.5C 99.7173,227.414 98.8839,231.414 98.5,235.5C 99.5,235.5 100.5,235.5 101.5,235.5 Z"/></g>
<g><path style="opacity:1" fill="#312307" d="M 372.5,193.5 C 389.775,216.361 404.275,241.028 416,267.5C 421.265,277.993 421.765,288.66 417.5,299.5C 412.782,307.057 406.782,313.557 399.5,319C 387.131,328.209 374.131,336.375 360.5,343.5C 358.076,343.808 355.743,343.474 353.5,342.5C 355.332,341.943 356.665,340.943 357.5,339.5C 377.009,329.697 394.675,317.03 410.5,301.5C 415.049,294.083 416.382,286.083 414.5,277.5C 403.766,251.127 390.099,226.46 373.5,203.5C 373.658,200.639 372.992,197.972 371.5,195.5C 371.543,194.584 371.876,193.917 372.5,193.5 Z"/></g>
<g><path style="opacity:1" fill="#342709" d="M 159.5,193.5 C 158.167,193.5 156.833,193.5 155.5,193.5C 156.38,190.738 157.546,188.071 159,185.5C 159.667,183.5 159.667,181.5 159,179.5C 152.452,176.142 145.952,172.642 139.5,169C 137.466,167.795 135.466,167.628 133.5,168.5C 129.694,178.613 126.027,188.779 122.5,199C 123.484,200.657 124.484,202.323 125.5,204C 130.929,203.866 134.263,206.366 135.5,211.5C 135.5,211.833 135.5,212.167 135.5,212.5C 133.919,214.142 133.253,216.142 133.5,218.5C 132.488,219.872 131.488,221.205 130.5,222.5C 129.766,221.292 129.433,219.959 129.5,218.5C 129.5,217.5 129.5,216.5 129.5,215.5C 132.5,212.851 132.166,210.851 128.5,209.5C 127.558,209.608 126.725,209.941 126,210.5C 124.25,212.734 122.75,215.068 121.5,217.5C 117.187,223.13 114.187,229.464 112.5,236.5C 111.675,237.386 110.675,237.719 109.5,237.5C 109.5,234.833 109.5,232.167 109.5,229.5C 112.805,222.898 116.638,216.564 121,210.5C 121.495,208.527 121.662,206.527 121.5,204.5C 116.433,205.712 112.6,208.712 110,213.5C 105.991,220.374 103.158,227.707 101.5,235.5C 100.5,235.5 99.5,235.5 98.5,235.5C 98.8839,231.414 99.7173,227.414 101,223.5C 104.126,217.57 106.959,211.57 109.5,205.5C 108.022,205.238 106.689,205.571 105.5,206.5C 99.0644,212.035 95.2311,219.035 94,227.5C 91.8306,236.361 93.8306,244.028 100,250.5C 107.194,256.36 113.694,262.86 119.5,270C 125.175,271.068 130.508,270.235 135.5,267.5C 135.279,268.735 134.612,269.735 133.5,270.5C 133.957,271.298 134.624,271.631 135.5,271.5C 134.665,272.943 133.332,273.943 131.5,274.5C 128.232,275.487 124.898,275.82 121.5,275.5C 121.187,278.247 121.52,280.914 122.5,283.5C 126.056,289.28 129.056,295.28 131.5,301.5C 131.649,302.552 131.483,303.552 131,304.5C 130.23,303.402 129.397,303.402 128.5,304.5C 122.255,293.34 117.088,281.674 113,269.5C 107.635,263.801 101.969,258.467 96,253.5C 93.2774,250.443 90.944,247.11 89,243.5C 88.0653,241.091 87.5653,238.591 87.5,236C 88.6087,229.809 89.442,223.643 90,217.5C 82.5052,204.514 75.5052,191.18 69,177.5C 68.3333,175.833 68.3333,174.167 69,172.5C 75.1156,168.529 81.2822,164.695 87.5,161C 95.7087,160.072 103.875,158.905 112,157.5C 120.037,157.898 127.87,159.065 135.5,161C 145.048,166.025 154.548,171.192 164,176.5C 165.421,183.053 163.921,188.719 159.5,193.5 Z"/></g>
<g><path style="opacity:1" fill="#e1a65a" d="M 109.5,229.5 C 109.82,226.102 109.487,222.768 108.5,219.5C 106.856,224.077 105.522,228.744 104.5,233.5C 103.735,234.612 102.735,235.279 101.5,235.5C 103.158,227.707 105.991,220.374 110,213.5C 112.6,208.712 116.433,205.712 121.5,204.5C 121.662,206.527 121.495,208.527 121,210.5C 116.638,216.564 112.805,222.898 109.5,229.5 Z"/></g>
<g><path style="opacity:1" fill="#cc9d60" d="M 129.5,215.5 C 129.762,214.022 129.429,212.689 128.5,211.5C 126.422,213.92 124.088,215.92 121.5,217.5C 122.75,215.068 124.25,212.734 126,210.5C 126.725,209.941 127.558,209.608 128.5,209.5C 132.166,210.851 132.5,212.851 129.5,215.5 Z"/></g>
<g><path style="opacity:1" fill="#e5be61" d="M 83.5,168.5 C 85.2183,170.364 86.385,172.697 87,175.5C 89.4278,186.708 91.9278,197.875 94.5,209C 94.3687,211.253 93.8687,213.419 93,215.5C 86.2093,202.253 79.7093,188.92 73.5,175.5C 74.0096,173.912 75.0096,172.745 76.5,172C 79.1739,171.33 81.5073,170.163 83.5,168.5 Z"/></g>
<g><path style="opacity:1" fill="#e8c069" d="M 107.5,175.5 C 107.104,184.24 106.438,192.907 105.5,201.5C 103.385,203.891 100.719,205.224 97.5,205.5C 94.8333,192.167 92.1667,178.833 89.5,165.5C 91.5,165.5 93.5,165.5 95.5,165.5C 99.5341,165.495 103.534,165.162 107.5,164.5C 107.5,168.167 107.5,171.833 107.5,175.5 Z"/></g>
<g><path style="opacity:1" fill="#3b3109" d="M 108.5,163.5 C 110.292,163.366 111.958,163.699 113.5,164.5C 112.118,176.751 111.118,189.084 110.5,201.5C 108.833,201.5 107.167,201.5 105.5,201.5C 106.438,192.907 107.104,184.24 107.5,175.5C 108.483,171.702 108.817,167.702 108.5,163.5 Z"/></g>
<g><path style="opacity:1" fill="#eac26b" d="M 113.5,164.5 C 117.846,164.334 122.179,164.501 126.5,165C 127.516,165.519 128.182,166.353 128.5,167.5C 125.582,178.513 121.748,189.179 117,199.5C 115.211,201.229 113.044,201.896 110.5,201.5C 111.118,189.084 112.118,176.751 113.5,164.5 Z"/></g>
<g><path style="opacity:1" fill="#a38f59" d="M 108.5,163.5 C 108.817,167.702 108.483,171.702 107.5,175.5C 107.5,171.833 107.5,168.167 107.5,164.5C 103.534,165.162 99.5341,165.495 95.5,165.5C 99.5909,164.105 103.924,163.438 108.5,163.5 Z"/></g>
<g><path style="opacity:1" fill="#4c2907" d="M 133.5,231.5 C 134.183,233.176 135.517,233.843 137.5,233.5C 136.527,235.068 136.36,236.735 137,238.5C 139.43,240.422 141.263,242.755 142.5,245.5C 141.539,247.265 141.205,249.265 141.5,251.5C 139.812,249.146 137.812,247.146 135.5,245.5C 131.062,241.328 130.396,236.661 133.5,231.5 Z"/></g>
<g><path style="opacity:1" fill="#2b1e06" d="M 178.5,114.5 C 179.271,117.846 179.938,121.346 180.5,125C 178.881,127.16 179.214,128.66 181.5,129.5C 183.803,134.77 186.636,139.77 190,144.5C 190.869,146.581 191.369,148.747 191.5,151C 189.326,157.17 187.159,163.337 185,169.5C 184.245,174.95 184.745,180.283 186.5,185.5C 187.532,187.04 188.865,187.54 190.5,187C 194.092,184.246 197.092,181.079 199.5,177.5C 201.153,177.66 202.486,178.326 203.5,179.5C 202.833,179.5 202.5,179.833 202.5,180.5C 200.167,181.5 198.5,183.167 197.5,185.5C 189.972,193.579 184.139,202.913 180,213.5C 180.049,217.33 178.882,220.663 176.5,223.5C 172.232,238.698 168.566,254.031 165.5,269.5C 165.747,270.713 166.414,271.38 167.5,271.5C 166.817,273.176 165.483,273.843 163.5,273.5C 163.762,274.978 163.429,276.311 162.5,277.5C 161.476,276.147 160.143,275.48 158.5,275.5C 156.031,272.866 153.364,270.366 150.5,268C 149.552,267.517 148.552,267.351 147.5,267.5C 147.853,265.365 147.02,264.032 145,263.5C 142.693,265.439 140.86,267.772 139.5,270.5C 138.311,271.429 136.978,271.762 135.5,271.5C 134.624,271.631 133.957,271.298 133.5,270.5C 134.612,269.735 135.279,268.735 135.5,267.5C 137.47,265.353 139.303,263.02 141,260.5C 141.498,257.518 141.665,254.518 141.5,251.5C 141.205,249.265 141.539,247.265 142.5,245.5C 145.767,249.49 147.267,254.157 147,259.5C 151.634,263.132 155.967,267.132 160,271.5C 164.023,254.074 168.357,236.74 173,219.5C 175.825,211.186 179.325,203.186 183.5,195.5C 184.525,194.626 185.192,193.459 185.5,192C 183.529,187.892 181.696,183.725 180,179.5C 179.333,175.833 179.333,172.167 180,168.5C 183.027,162.785 185.194,156.785 186.5,150.5C 186.333,149.167 186.167,147.833 186,146.5C 177.382,137.17 174.882,126.503 178.5,114.5 Z"/></g>
<g><path style="opacity:1" fill="#3a1d03" d="M 167.5,271.5 C 171.068,272.285 174.401,273.618 177.5,275.5C 178.743,277.753 180.41,279.753 182.5,281.5C 183.833,282.833 183.833,284.167 182.5,285.5C 180.167,283.167 177.833,280.833 175.5,278.5C 172.191,277.285 168.858,276.285 165.5,275.5C 165.238,276.978 165.571,278.311 166.5,279.5C 173.733,284.309 177.566,290.975 178,299.5C 177.344,297.014 175.844,295.347 173.5,294.5C 173.271,292.567 172.438,290.9 171,289.5C 167.055,284.588 162.888,279.922 158.5,275.5C 160.143,275.48 161.476,276.147 162.5,277.5C 163.429,276.311 163.762,274.978 163.5,273.5C 165.483,273.843 166.817,273.176 167.5,271.5 Z"/></g>
<g><path style="opacity:1" fill="#f9d897" d="M 430.5,287.5 C 430.291,298.194 430.625,308.86 431.5,319.5C 436.833,319.5 442.167,319.5 447.5,319.5C 447.5,324.833 447.5,330.167 447.5,335.5C 458.167,335.5 468.833,335.5 479.5,335.5C 479.5,330.167 479.5,324.833 479.5,319.5C 484.833,319.5 490.167,319.5 495.5,319.5C 495.5,324.833 495.5,330.167 495.5,335.5C 500.833,335.5 506.167,335.5 511.5,335.5C 511.5,346.167 511.5,356.833 511.5,367.5C 516.833,367.5 522.167,367.5 527.5,367.5C 527.5,375.5 527.5,383.5 527.5,391.5C 526.167,391.5 524.833,391.5 523.5,391.5C 523.5,394.167 523.5,396.833 523.5,399.5C 514.167,399.5 504.833,399.5 495.5,399.5C 495.5,404.833 495.5,410.167 495.5,415.5C 500.833,415.5 506.167,415.5 511.5,415.5C 511.5,420.833 511.5,426.167 511.5,431.5C 506.167,431.5 500.833,431.5 495.5,431.5C 495.5,436.833 495.5,442.167 495.5,447.5C 490.167,447.5 484.833,447.5 479.5,447.5C 479.5,452.833 479.5,458.167 479.5,463.5C 484.833,463.5 490.167,463.5 495.5,463.5C 495.5,468.833 495.5,474.167 495.5,479.5C 500.833,479.5 506.167,479.5 511.5,479.5C 511.5,484.833 511.5,490.167 511.5,495.5C 516.833,495.5 522.167,495.5 527.5,495.5C 527.5,500.833 527.5,506.167 527.5,511.5C 532.833,511.5 538.167,511.5 543.5,511.5C 543.5,519.5 543.5,527.5 543.5,535.5C 516.833,535.5 490.167,535.5 463.5,535.5C 463.5,543.5 463.5,551.5 463.5,559.5C 453.383,559.761 443.383,560.094 433.5,560.5C 433.5,570.833 433.5,581.167 433.5,591.5C 437.434,591.021 441.101,591.688 444.5,593.5C 447.899,591.688 451.566,591.021 455.5,591.5C 455.5,594.167 455.5,596.833 455.5,599.5C 447.568,600.824 439.568,601.491 431.5,601.5C 431.778,617.886 431.111,634.22 429.5,650.5C 423.492,610.955 417.325,571.289 411,531.5C 404.327,489.14 394.66,447.474 382,406.5C 376.55,390.944 370.05,375.944 362.5,361.5C 360.452,356.401 358.118,351.401 355.5,346.5C 357.36,345.675 359.026,344.675 360.5,343.5C 374.131,336.375 387.131,328.209 399.5,319C 406.782,313.557 412.782,307.057 417.5,299.5C 421.392,295.032 423.725,289.699 424.5,283.5C 425.192,284.025 425.692,284.692 426,285.5C 427.356,284.62 428.856,284.286 430.5,284.5C 430.5,285.5 430.5,286.5 430.5,287.5 Z"/></g>
<g><path style="opacity:1" fill="#602705" d="M 189.5,261.5 C 192.196,269.753 195.196,277.919 198.5,286C 196.471,294.085 193.637,301.918 190,309.5C 187.368,313.162 184.534,316.495 181.5,319.5C 182.288,316.566 182.954,313.566 183.5,310.5C 183.33,308.285 182.663,306.285 181.5,304.5C 183.856,303.346 184.023,302.013 182,300.5C 179.281,301.444 176.448,301.777 173.5,301.5C 173.5,299.167 173.5,296.833 173.5,294.5C 175.844,295.347 177.344,297.014 178,299.5C 177.566,290.975 173.733,284.309 166.5,279.5C 165.571,278.311 165.238,276.978 165.5,275.5C 168.858,276.285 172.191,277.285 175.5,278.5C 177.833,280.833 180.167,283.167 182.5,285.5C 183.833,284.167 183.833,282.833 182.5,281.5C 180.41,279.753 178.743,277.753 177.5,275.5C 188.313,277.054 192.313,272.387 189.5,261.5 Z"/></g>
<g><path style="opacity:1" fill="#762e05" d="M 158.5,275.5 C 162.888,279.922 167.055,284.588 171,289.5C 172.438,290.9 173.271,292.567 173.5,294.5C 173.5,296.833 173.5,299.167 173.5,301.5C 176.448,301.777 179.281,301.444 182,300.5C 184.023,302.013 183.856,303.346 181.5,304.5C 182.663,306.285 183.33,308.285 183.5,310.5C 182.954,313.566 182.288,316.566 181.5,319.5C 179.866,320.207 178.532,321.373 177.5,323C 157.348,329.594 143.015,323.094 134.5,303.5C 133.735,302.388 132.735,301.721 131.5,301.5C 129.056,295.28 126.056,289.28 122.5,283.5C 121.52,280.914 121.187,278.247 121.5,275.5C 124.898,275.82 128.232,275.487 131.5,274.5C 133.332,273.943 134.665,272.943 135.5,271.5C 136.978,271.762 138.311,271.429 139.5,270.5C 140.86,267.772 142.693,265.439 145,263.5C 147.02,264.032 147.853,265.365 147.5,267.5C 148.552,267.351 149.552,267.517 150.5,268C 153.364,270.366 156.031,272.866 158.5,275.5 Z"/></g>
<g><path style="opacity:1" fill="#ebd29e" d="M 192.5,337.5 C 192.167,337.5 191.833,337.5 191.5,337.5C 193.41,333.009 194.744,328.342 195.5,323.5C 196.833,323.5 198.167,323.5 199.5,323.5C 201.071,319.677 202.071,315.677 202.5,311.5C 200.167,311.5 197.833,311.5 195.5,311.5C 195.762,312.978 195.429,314.311 194.5,315.5C 189.984,319.4 186.317,323.9 183.5,329C 180.953,329.067 178.786,329.901 177,331.5C 176.667,330.833 176.333,330.167 176,329.5C 175.355,330.646 174.522,331.646 173.5,332.5C 166.197,333.497 158.863,333.831 151.5,333.5C 151.5,332.167 151.5,330.833 151.5,329.5C 148.833,329.5 146.167,329.5 143.5,329.5C 143.762,328.022 143.429,326.689 142.5,325.5C 140.799,324.198 139.632,322.531 139,320.5C 138.667,320.833 138.333,321.167 138,321.5C 136.331,319.831 135.498,317.831 135.5,315.5C 140.428,320.928 146.095,325.428 152.5,329C 168.182,333.574 181.015,329.408 191,316.5C 195.469,309.229 199.135,301.562 202,293.5C 202.973,295.392 203.64,297.392 204,299.5C 204.667,306.167 204.667,312.833 204,319.5C 199.397,325.048 195.563,331.048 192.5,337.5 Z"/></g>
<g><path style="opacity:1" fill="#332104" d="M 226.5,311.5 C 227.952,312.302 229.618,312.802 231.5,313C 244.833,313.667 258.167,313.667 271.5,313C 281.139,312.991 290.472,311.824 299.5,309.5C 302.167,308.833 304.833,308.167 307.5,307.5C 311.474,306.521 315.474,305.521 319.5,304.5C 326.243,285.979 331.577,266.979 335.5,247.5C 331.97,240.783 329.304,233.783 327.5,226.5C 327.5,220.5 327.5,214.5 327.5,208.5C 328.117,208.389 328.617,208.056 329,207.5C 329.333,212.167 329.667,216.833 330,221.5C 330.278,222.416 330.778,223.082 331.5,223.5C 331.42,229.349 333.086,234.682 336.5,239.5C 344.844,248.511 353.511,257.177 362.5,265.5C 365.83,270.157 369.163,274.824 372.5,279.5C 379.22,276.404 386.22,274.404 393.5,273.5C 393.5,274.833 393.5,276.167 393.5,277.5C 391.473,277.338 389.473,277.505 387.5,278C 378.427,281.736 370.761,287.403 364.5,295C 363.552,295.483 362.552,295.649 361.5,295.5C 361.762,296.978 361.429,298.311 360.5,299.5C 354.189,304.265 348.189,309.431 342.5,315C 341.552,315.483 340.552,315.649 339.5,315.5C 340.644,319.011 342.311,322.344 344.5,325.5C 348.763,328.431 351.43,332.431 352.5,337.5C 353.842,339.005 355.508,339.672 357.5,339.5C 356.665,340.943 355.332,341.943 353.5,342.5C 355.743,343.474 358.076,343.808 360.5,343.5C 359.026,344.675 357.36,345.675 355.5,346.5C 358.118,351.401 360.452,356.401 362.5,361.5C 362.565,361.938 362.399,362.272 362,362.5C 361.692,361.692 361.192,361.025 360.5,360.5C 359.571,361.689 359.238,363.022 359.5,364.5C 357.664,360.665 355.664,356.832 353.5,353C 352.631,351.298 351.298,350.131 349.5,349.5C 345.229,352.477 340.563,354.477 335.5,355.5C 337.484,364.123 340.817,372.123 345.5,379.5C 345.762,380.978 345.429,382.311 344.5,383.5C 341.09,375.681 337.423,368.014 333.5,360.5C 332.449,359.115 331.116,358.115 329.5,357.5C 323.614,358.987 317.614,359.987 311.5,360.5C 307.226,361.97 303.226,363.97 299.5,366.5C 295.555,367.491 291.555,367.824 287.5,367.5C 287.5,366.167 287.5,364.833 287.5,363.5C 284.813,363.664 282.146,363.497 279.5,363C 277.456,362.502 276.122,361.335 275.5,359.5C 274.051,357.836 272.051,357.002 269.5,357C 268.874,356.25 268.374,355.416 268,354.5C 267.575,349.755 266.075,345.422 263.5,341.5C 264.937,339.423 265.604,337.09 265.5,334.5C 260.833,334.5 256.167,334.5 251.5,334.5C 251.473,332.801 250.806,331.467 249.5,330.5C 262.488,332.987 273.822,329.987 283.5,321.5C 295.968,315.324 308.968,313.99 322.5,317.5C 322.833,317.167 323.167,316.833 323.5,316.5C 321.829,314.49 321.162,312.157 321.5,309.5C 294.517,315.598 267.184,318.265 239.5,317.5C 229.338,316.647 219.338,315.314 209.5,313.5C 209.457,316.587 209.29,319.587 209,322.5C 213.095,324.529 217.262,326.196 221.5,327.5C 219.403,328.353 217.403,328.353 215.5,327.5C 214.287,327.747 213.62,328.414 213.5,329.5C 212.833,329.5 212.167,329.5 211.5,329.5C 210.076,327.845 208.243,326.512 206,325.5C 205.5,325.833 205,326.167 204.5,326.5C 199.869,333.451 195.536,340.451 191.5,347.5C 191.248,344.756 191.915,342.256 193.5,340C 193.257,339.098 192.923,338.265 192.5,337.5C 195.563,331.048 199.397,325.048 204,319.5C 204.667,312.833 204.667,306.167 204,299.5C 203.64,297.392 202.973,295.392 202,293.5C 199.135,301.562 195.469,309.229 191,316.5C 181.015,329.408 168.182,333.574 152.5,329C 146.095,325.428 140.428,320.928 135.5,315.5C 133.416,311.664 131.083,307.997 128.5,304.5C 129.397,303.402 130.23,303.402 131,304.5C 131.483,303.552 131.649,302.552 131.5,301.5C 132.735,301.721 133.735,302.388 134.5,303.5C 143.015,323.094 157.348,329.594 177.5,323C 178.532,321.373 179.866,320.207 181.5,319.5C 184.534,316.495 187.368,313.162 190,309.5C 193.637,301.918 196.471,294.085 198.5,286C 195.196,277.919 192.196,269.753 189.5,261.5C 187.567,252.29 187.067,242.956 188,233.5C 190.336,225.649 192.169,217.649 193.5,209.5C 195.492,209.672 197.158,209.005 198.5,207.5C 198.833,208.167 199.167,208.833 199.5,209.5C 196.688,217.419 194.188,225.419 192,233.5C 190.61,245.166 191.944,256.499 196,267.5C 203.699,280.542 208.199,294.542 209.5,309.5C 215.081,310.756 220.748,311.423 226.5,311.5 Z"/></g>
<g><path style="opacity:1" fill="#583408" d="M 239.5,317.5 C 245.463,318.83 251.796,319.496 258.5,319.5C 264.833,319.333 271.167,319.167 277.5,319C 279.25,317.681 281.25,317.181 283.5,317.5C 283.5,318.833 283.5,320.167 283.5,321.5C 273.822,329.987 262.488,332.987 249.5,330.5C 240.15,329.632 230.817,328.632 221.5,327.5C 217.262,326.196 213.095,324.529 209,322.5C 209.29,319.587 209.457,316.587 209.5,313.5C 219.338,315.314 229.338,316.647 239.5,317.5 Z"/></g>
<g><path style="opacity:1" fill="#50350c" d="M 283.5,321.5 C 283.5,320.167 283.5,318.833 283.5,317.5C 281.25,317.181 279.25,317.681 277.5,319C 271.167,319.167 264.833,319.333 258.5,319.5C 251.796,319.496 245.463,318.83 239.5,317.5C 267.184,318.265 294.517,315.598 321.5,309.5C 321.162,312.157 321.829,314.49 323.5,316.5C 323.167,316.833 322.833,317.167 322.5,317.5C 308.968,313.99 295.968,315.324 283.5,321.5 Z"/></g>
<g><path style="opacity:1" fill="#653010" d="M 299.5,309.5 C 290.472,311.824 281.139,312.991 271.5,313C 258.167,313.667 244.833,313.667 231.5,313C 229.618,312.802 227.952,312.302 226.5,311.5C 250.874,311.849 275.207,311.182 299.5,309.5 Z"/></g>
<g><path style="opacity:1" fill="#f3d69c" d="M 359.5,291.5 C 359.279,290.265 358.612,289.265 357.5,288.5C 358.391,287.41 359.391,287.41 360.5,288.5C 360.833,287.667 361.167,286.833 361.5,286C 360.183,281.918 359.183,277.752 358.5,273.5C 357.377,272.456 356.044,271.79 354.5,271.5C 351.034,272.898 348.367,271.898 346.5,268.5C 347.59,267.391 347.59,266.391 346.5,265.5C 345.808,266.025 345.308,266.692 345,267.5C 344.417,265.998 343.584,264.665 342.5,263.5C 338.779,268.275 336.112,273.609 334.5,279.5C 333.782,289.531 333.616,299.531 334,309.5C 334.333,309.833 334.667,310.167 335,310.5C 339.862,308.149 344.028,304.816 347.5,300.5C 348.689,299.571 350.022,299.238 351.5,299.5C 345.648,306.097 338.981,311.764 331.5,316.5C 329.742,315.872 328.242,314.872 327,313.5C 326.333,308.5 326.333,303.5 327,298.5C 331.514,282.776 336.18,267.11 341,251.5C 351.851,260.841 361.017,271.508 368.5,283.5C 365.697,286.399 362.697,289.066 359.5,291.5 Z"/></g>
<g><path style="opacity:1" fill="#f9d694" d="M 359.5,291.5 C 357.833,295.167 355.167,297.833 351.5,299.5C 350.022,299.238 348.689,299.571 347.5,300.5C 344.028,304.816 339.862,308.149 335,310.5C 334.667,310.167 334.333,309.833 334,309.5C 333.616,299.531 333.782,289.531 334.5,279.5C 336.112,273.609 338.779,268.275 342.5,263.5C 343.584,264.665 344.417,265.998 345,267.5C 345.308,266.692 345.808,266.025 346.5,265.5C 347.59,266.391 347.59,267.391 346.5,268.5C 348.367,271.898 351.034,272.898 354.5,271.5C 356.044,271.79 357.377,272.456 358.5,273.5C 359.183,277.752 360.183,281.918 361.5,286C 361.167,286.833 360.833,287.667 360.5,288.5C 359.391,287.41 358.391,287.41 357.5,288.5C 358.612,289.265 359.279,290.265 359.5,291.5 Z"/></g>
<g><path style="opacity:1" fill="#612403" d="M 327.5,226.5 C 329.304,233.783 331.97,240.783 335.5,247.5C 331.577,266.979 326.243,285.979 319.5,304.5C 315.474,305.521 311.474,306.521 307.5,307.5C 314.671,280.653 321.337,253.653 327.5,226.5 Z"/></g>
<g><path style="opacity:1" fill="#542709" d="M 241.5,217.5 C 249.5,217.5 257.5,217.5 265.5,217.5C 262.232,218.822 258.565,219.489 254.5,219.5C 250.833,219.333 247.167,219.167 243.5,219C 242.584,218.722 241.918,218.222 241.5,217.5 Z"/></g>
<g><path style="opacity:1" fill="#d0934c" d="M 339.5,327.5 C 336.968,326.32 334.301,325.32 331.5,324.5C 319.9,322.63 308.233,321.63 296.5,321.5C 297.609,320.71 298.942,320.21 300.5,320C 312.895,320.257 325.228,321.59 337.5,324C 338.823,324.816 339.489,325.983 339.5,327.5 Z"/></g>
<g><path style="opacity:1" fill="#e19742" d="M 295.5,321.5 C 295.833,321.5 296.167,321.5 296.5,321.5C 308.233,321.63 319.9,322.63 331.5,324.5C 334.301,325.32 336.968,326.32 339.5,327.5C 340.496,327.414 341.329,327.748 342,328.5C 351.655,340.707 348.822,348.374 333.5,351.5C 326.8,351.83 320.134,351.497 313.5,350.5C 315.173,348.477 315.84,346.144 315.5,343.5C 312.753,343.813 310.086,343.48 307.5,342.5C 308.689,341.571 310.022,341.238 311.5,341.5C 311.975,338.918 311.308,336.918 309.5,335.5C 308.167,335.5 306.833,335.5 305.5,335.5C 303.824,334.817 303.157,333.483 303.5,331.5C 308.404,331.39 308.737,330.057 304.5,327.5C 303.833,327.5 303.5,327.167 303.5,326.5C 300.311,325.834 296.977,325.167 293.5,324.5C 294.612,323.735 295.279,322.735 295.5,321.5 Z"/></g>
<g><path style="opacity:1" fill="#d69a53" d="M 295.5,321.5 C 295.279,322.735 294.612,323.735 293.5,324.5C 296.977,325.167 300.311,325.834 303.5,326.5C 291.002,328.917 280.336,334.75 271.5,344C 270.552,344.483 269.552,344.649 268.5,344.5C 268.34,342.801 268.506,341.134 269,339.5C 276.112,330.876 284.945,324.876 295.5,321.5 Z"/></g>
<g><path style="opacity:1" fill="#6f2e08" d="M 251.5,334.5 C 256.167,334.5 260.833,334.5 265.5,334.5C 265.604,337.09 264.937,339.423 263.5,341.5C 266.075,345.422 267.575,349.755 268,354.5C 268.374,355.416 268.874,356.25 269.5,357C 272.051,357.002 274.051,357.836 275.5,359.5C 272.167,359.5 268.833,359.5 265.5,359.5C 264.578,356.874 263.578,354.207 262.5,351.5C 263.491,349.877 262.824,348.877 260.5,348.5C 259.757,347.092 258.923,345.759 258,344.5C 258.708,350.772 259.208,357.105 259.5,363.5C 256.697,353.961 254.03,344.295 251.5,334.5 Z"/></g>
<g><path style="opacity:1" fill="#472304" d="M 211.5,329.5 C 212.167,329.5 212.833,329.5 213.5,329.5C 217.971,328.911 221.971,329.577 225.5,331.5C 222.167,331.5 218.833,331.5 215.5,331.5C 215.762,332.978 215.429,334.311 214.5,335.5C 212.833,336.5 211.5,337.833 210.5,339.5C 208.164,344.644 205.664,349.644 203,354.5C 203.044,347.203 205.544,340.87 210.5,335.5C 211.466,333.604 211.799,331.604 211.5,329.5 Z"/></g>
<g><path style="opacity:1" fill="#d4994f" d="M 304.5,327.5 C 308.737,330.057 308.404,331.39 303.5,331.5C 303.157,333.483 303.824,334.817 305.5,335.5C 295.072,339.397 285.739,345.23 277.5,353C 275.866,353.494 274.199,353.66 272.5,353.5C 272.34,351.801 272.506,350.134 273,348.5C 281.23,339.25 291.23,332.917 303,329.5C 304.03,329.164 304.53,328.497 304.5,327.5 Z"/></g>
<g><path style="opacity:1" fill="#d5984d" d="M 309.5,335.5 C 311.308,336.918 311.975,338.918 311.5,341.5C 310.022,341.238 308.689,341.571 307.5,342.5C 310.086,343.48 312.753,343.813 315.5,343.5C 315.84,346.144 315.173,348.477 313.5,350.5C 320.134,351.497 326.8,351.83 333.5,351.5C 326.714,353.046 319.714,354.213 312.5,355C 306.713,357.394 301.046,360.06 295.5,363C 293.866,363.494 292.199,363.66 290.5,363.5C 290.393,361.097 291.393,359.264 293.5,358C 299.759,353.204 306.759,350.037 314.5,348.5C 314.778,346.654 314.111,345.32 312.5,344.5C 302.799,347.516 294.133,352.35 286.5,359C 284.231,359.758 282.064,359.591 280,358.5C 279.251,357.365 279.417,356.365 280.5,355.5C 288.608,347.28 298.275,341.947 309.5,339.5C 309.5,338.167 309.5,336.833 309.5,335.5 Z"/></g>
<g><path style="opacity:1" fill="#732a03" d="M 275.5,359.5 C 276.122,361.335 277.456,362.502 279.5,363C 282.146,363.497 284.813,363.664 287.5,363.5C 287.5,364.833 287.5,366.167 287.5,367.5C 291.555,367.824 295.555,367.491 299.5,366.5C 303.226,363.97 307.226,361.97 311.5,360.5C 317.614,359.987 323.614,358.987 329.5,357.5C 331.116,358.115 332.449,359.115 333.5,360.5C 337.423,368.014 341.09,375.681 344.5,383.5C 345.429,382.311 345.762,380.978 345.5,379.5C 345.5,378.167 345.5,376.833 345.5,375.5C 346.833,375.5 348.167,375.5 349.5,375.5C 359.215,392.293 366.215,410.293 370.5,429.5C 373.451,436.637 375.784,443.971 377.5,451.5C 383.8,482.969 389.134,514.635 393.5,546.5C 393.025,548.873 393.025,551.039 393.5,553C 390.921,554.729 390.921,556.562 393.5,558.5C 394.325,559.386 395.325,559.719 396.5,559.5C 396.811,569.983 398.978,579.983 403,589.5C 404.667,605.837 406.334,622.17 408,638.5C 408.42,644.027 409.586,649.36 411.5,654.5C 411.672,658.7 411.338,663.033 410.5,667.5C 408.022,668.722 407.022,670.722 407.5,673.5C 397.678,676.898 387.678,679.564 377.5,681.5C 381.639,678.423 386.305,676.089 391.5,674.5C 385.101,673.698 379.101,672.032 373.5,669.5C 373.5,668.167 373.5,666.833 373.5,665.5C 368.363,666.43 363.363,667.763 358.5,669.5C 357.833,668.833 357.167,668.167 356.5,667.5C 355.158,669.005 353.492,669.672 351.5,669.5C 351.5,662.167 351.5,654.833 351.5,647.5C 346.167,647.5 340.833,647.5 335.5,647.5C 335.5,644.833 335.5,642.167 335.5,639.5C 334.167,639.5 332.833,639.5 331.5,639.5C 331.5,638.167 331.5,636.833 331.5,635.5C 328.833,635.5 326.167,635.5 323.5,635.5C 323.5,636.833 323.5,638.167 323.5,639.5C 316.971,637.852 310.305,637.185 303.5,637.5C 303.5,632.833 303.5,628.167 303.5,623.5C 308.875,623.828 314.208,623.495 319.5,622.5C 308.856,621.132 298.189,620.132 287.5,619.5C 287.217,624.934 287.217,630.434 287.5,636C 286.07,637.889 285.403,640.055 285.5,642.5C 287.06,644.556 287.727,647.556 287.5,651.5C 292.833,651.5 298.167,651.5 303.5,651.5C 303.5,656.833 303.5,662.167 303.5,667.5C 298.167,667.5 292.833,667.5 287.5,667.5C 288.036,664.302 287.369,661.635 285.5,659.5C 285.666,655.486 285.499,651.486 285,647.5C 284.617,646.944 284.117,646.611 283.5,646.5C 283.5,638.833 283.5,631.167 283.5,623.5C 283.666,616.159 283.5,608.826 283,601.5C 282.79,599.942 282.29,598.609 281.5,597.5C 280.971,564.581 278.971,531.915 275.5,499.5C 275.666,492.825 275.5,486.158 275,479.5C 272.372,460.95 270.372,440.95 269,419.5C 266.16,400.801 262.994,382.135 259.5,363.5C 259.208,357.105 258.708,350.772 258,344.5C 258.923,345.759 259.757,347.092 260.5,348.5C 262.824,348.877 263.491,349.877 262.5,351.5C 263.578,354.207 264.578,356.874 265.5,359.5C 268.833,359.5 272.167,359.5 275.5,359.5 Z"/></g>
<g><path style="opacity:1" fill="#f8d694" d="M 543.5,535.5 C 543.5,602.167 543.5,668.833 543.5,735.5C 502.167,735.5 460.833,735.5 419.5,735.5C 429.6,732.631 439.6,729.131 449.5,725C 458.893,719.91 459.893,713.576 452.5,706C 442.546,701.355 432.213,697.855 421.5,695.5C 404.483,692.528 387.483,690.528 370.5,689.5C 389.217,685.983 407.217,680.15 424.5,672C 426.71,670.491 428.543,668.658 430,666.5C 430.022,661.182 429.855,655.849 429.5,650.5C 431.111,634.22 431.778,617.886 431.5,601.5C 439.568,601.491 447.568,600.824 455.5,599.5C 455.5,596.833 455.5,594.167 455.5,591.5C 451.566,591.021 447.899,591.688 444.5,593.5C 441.101,591.688 437.434,591.021 433.5,591.5C 433.5,581.167 433.5,570.833 433.5,560.5C 443.383,560.094 453.383,559.761 463.5,559.5C 463.5,551.5 463.5,543.5 463.5,535.5C 490.167,535.5 516.833,535.5 543.5,535.5 Z"/></g>
<g><path style="opacity:1" fill="#622402" d="M 359.5,364.5 C 363.549,374.267 367.882,383.934 372.5,393.5C 387.468,437.737 398.134,483.071 404.5,529.5C 408,548.159 411.5,566.826 415,585.5C 416.334,603.668 418.834,621.668 422.5,639.5C 423.665,648.482 423.832,657.482 423,666.5C 417.927,668.951 412.761,671.285 407.5,673.5C 407.022,670.722 408.022,668.722 410.5,667.5C 411.338,663.033 411.672,658.7 411.5,654.5C 409.586,649.36 408.42,644.027 408,638.5C 406.334,622.17 404.667,605.837 403,589.5C 398.978,579.983 396.811,569.983 396.5,559.5C 395.325,559.719 394.325,559.386 393.5,558.5C 390.921,556.562 390.921,554.729 393.5,553C 393.025,551.039 393.025,548.873 393.5,546.5C 389.134,514.635 383.8,482.969 377.5,451.5C 375.784,443.971 373.451,436.637 370.5,429.5C 366.215,410.293 359.215,392.293 349.5,375.5C 348.167,375.5 346.833,375.5 345.5,375.5C 345.5,376.833 345.5,378.167 345.5,379.5C 340.817,372.123 337.484,364.123 335.5,355.5C 340.563,354.477 345.229,352.477 349.5,349.5C 351.298,350.131 352.631,351.298 353.5,353C 355.664,356.832 357.664,360.665 359.5,364.5 Z"/></g>
<g><path style="opacity:1" fill="#742a04" d="M 211.5,329.5 C 211.799,331.604 211.466,333.604 210.5,335.5C 205.544,340.87 203.044,347.203 203,354.5C 205.664,349.644 208.164,344.644 210.5,339.5C 211.5,337.833 212.833,336.5 214.5,335.5C 215.429,334.311 215.762,332.978 215.5,331.5C 218.833,331.5 222.167,331.5 225.5,331.5C 230.012,332.981 234.678,333.648 239.5,333.5C 237.623,341.259 234.623,348.593 230.5,355.5C 221.813,382.919 215.313,410.919 211,439.5C 210.667,438.833 210.333,438.167 210,437.5C 204.553,494.639 201.053,551.972 199.5,609.5C 197.526,619.111 196.859,629.111 197.5,639.5C 197.5,655.5 197.5,671.5 197.5,687.5C 178.978,686.192 160.978,682.526 143.5,676.5C 139.015,674.347 134.682,672.014 130.5,669.5C 130.167,666.667 129.833,663.833 129.5,661C 133.992,608.228 140.159,555.728 148,503.5C 150.853,487.44 153.686,471.44 156.5,455.5C 161.063,433.585 166.729,411.918 173.5,390.5C 178.687,375.796 184.687,361.463 191.5,347.5C 195.536,340.451 199.869,333.451 204.5,326.5C 205,326.167 205.5,325.833 206,325.5C 208.243,326.512 210.076,327.845 211.5,329.5 Z"/></g>
<g><path style="opacity:1" fill="#e0b366" d="M 370.5,689.5 C 387.483,690.528 404.483,692.528 421.5,695.5C 421.631,696.376 421.298,697.043 420.5,697.5C 418.117,696.095 415.95,696.429 414,698.5C 412.667,697.833 411.333,697.167 410,696.5C 402.735,696.993 395.568,697.993 388.5,699.5C 383.218,696.783 377.551,695.449 371.5,695.5C 371.5,696.833 371.5,698.167 371.5,699.5C 369.234,699.859 367.401,699.192 366,697.5C 365.692,698.308 365.192,698.975 364.5,699.5C 363.719,698.271 363.219,696.938 363,695.5C 360.76,695.09 358.593,695.757 356.5,697.5C 352.418,695.654 348.085,694.987 343.5,695.5C 343.83,702.2 343.497,708.866 342.5,715.5C 335.912,721.293 328.246,724.627 319.5,725.5C 320.29,724.206 321.29,723.039 322.5,722C 329.522,721.441 335.688,718.941 341,714.5C 342.791,707.554 342.958,700.554 341.5,693.5C 351.222,692.54 360.888,691.206 370.5,689.5 Z"/></g>
<g><path style="opacity:1" fill="#302105" d="M 221.5,327.5 C 230.817,328.632 240.15,329.632 249.5,330.5C 250.806,331.467 251.473,332.801 251.5,334.5C 254.03,344.295 256.697,353.961 259.5,363.5C 262.994,382.135 266.16,400.801 269,419.5C 270.372,440.95 272.372,460.95 275,479.5C 275.5,486.158 275.666,492.825 275.5,499.5C 273.861,493.889 272.861,487.889 272.5,481.5C 271.571,482.689 271.238,484.022 271.5,485.5C 268.878,460.298 266.045,434.964 263,409.5C 259.713,384.399 254.38,359.732 247,335.5C 246.107,334.289 245.274,334.289 244.5,335.5C 232.947,359.704 224.78,385.037 220,411.5C 211.611,463.819 206.611,516.486 205,569.5C 203.345,601.816 202.178,634.149 201.5,666.5C 201.518,674.235 202.185,681.735 203.5,689C 228.767,691.636 254.1,693.136 279.5,693.5C 280.918,695.308 282.918,695.975 285.5,695.5C 285.5,694.167 285.5,692.833 285.5,691.5C 316.725,692.383 347.392,689.05 377.5,681.5C 387.678,679.564 397.678,676.898 407.5,673.5C 412.761,671.285 417.927,668.951 423,666.5C 423.832,657.482 423.665,648.482 422.5,639.5C 418.834,621.668 416.334,603.668 415,585.5C 411.5,566.826 408,548.159 404.5,529.5C 398.134,483.071 387.468,437.737 372.5,393.5C 367.882,383.934 363.549,374.267 359.5,364.5C 359.238,363.022 359.571,361.689 360.5,360.5C 361.192,361.025 361.692,361.692 362,362.5C 362.399,362.272 362.565,361.938 362.5,361.5C 370.05,375.944 376.55,390.944 382,406.5C 394.66,447.474 404.327,489.14 411,531.5C 417.325,571.289 423.492,610.955 429.5,650.5C 429.855,655.849 430.022,661.182 430,666.5C 428.543,668.658 426.71,670.491 424.5,672C 407.217,680.15 389.217,685.983 370.5,689.5C 360.888,691.206 351.222,692.54 341.5,693.5C 342.958,700.554 342.791,707.554 341,714.5C 335.688,718.941 329.522,721.441 322.5,722C 321.29,723.039 320.29,724.206 319.5,725.5C 313.285,729.107 306.952,732.44 300.5,735.5C 289.5,735.5 278.5,735.5 267.5,735.5C 267.336,732.813 267.503,730.146 268,727.5C 270.624,721.74 273.791,716.407 277.5,711.5C 281.269,707.229 285.269,703.062 289.5,699C 276.487,698.167 263.487,698.334 250.5,699.5C 249.893,703.489 249.227,707.489 248.5,711.5C 245.326,712.692 242.326,714.025 239.5,715.5C 234.009,716.559 228.675,716.559 223.5,715.5C 225.322,713.766 227.655,712.766 230.5,712.5C 232.225,714.092 233.225,713.758 233.5,711.5C 237.601,710.85 241.434,709.517 245,707.5C 245.498,704.183 245.665,700.85 245.5,697.5C 229.731,697.127 214.064,695.794 198.5,693.5C 192.446,696.858 186.446,700.191 180.5,703.5C 178.219,703.923 176.552,703.256 175.5,701.5C 180.305,698.929 184.972,696.096 189.5,693C 183.592,691.323 177.592,690.156 171.5,689.5C 157.081,687.291 143.415,682.791 130.5,676C 126.042,673.215 123.708,669.215 123.5,664C 130.281,586.913 141.115,510.413 156,434.5C 163.588,400.564 175.422,368.231 191.5,337.5C 191.833,337.5 192.167,337.5 192.5,337.5C 192.923,338.265 193.257,339.098 193.5,340C 191.915,342.256 191.248,344.756 191.5,347.5C 184.687,361.463 178.687,375.796 173.5,390.5C 166.729,411.918 161.063,433.585 156.5,455.5C 153.686,471.44 150.853,487.44 148,503.5C 140.159,555.728 133.992,608.228 129.5,661C 129.833,663.833 130.167,666.667 130.5,669.5C 134.682,672.014 139.015,674.347 143.5,676.5C 160.978,682.526 178.978,686.192 197.5,687.5C 197.5,671.5 197.5,655.5 197.5,639.5C 199.474,629.889 200.141,619.889 199.5,609.5C 201.053,551.972 204.553,494.639 210,437.5C 210.333,438.167 210.667,438.833 211,439.5C 215.313,410.919 221.813,382.919 230.5,355.5C 234.623,348.593 237.623,341.259 239.5,333.5C 234.678,333.648 230.012,332.981 225.5,331.5C 221.971,329.577 217.971,328.911 213.5,329.5C 213.62,328.414 214.287,327.747 215.5,327.5C 217.403,328.353 219.403,328.353 221.5,327.5 Z"/></g>
<g><path style="opacity:1" fill="#3e2104" d="M 283.5,646.5 C 284.117,646.611 284.617,646.944 285,647.5C 285.499,651.486 285.666,655.486 285.5,659.5C 285.5,669.5 285.5,679.5 285.5,689.5C 283.517,675.539 282.85,661.206 283.5,646.5 Z"/></g>
<g><path style="opacity:1" fill="#452107" d="M 199.5,609.5 C 200.141,619.889 199.474,629.889 197.5,639.5C 196.859,629.111 197.526,619.111 199.5,609.5 Z"/></g>
<g><path style="opacity:1" fill="#762b03" d="M 377.5,681.5 C 347.392,689.05 316.725,692.383 285.5,691.5C 285.5,690.833 285.5,690.167 285.5,689.5C 285.5,679.5 285.5,669.5 285.5,659.5C 287.369,661.635 288.036,664.302 287.5,667.5C 292.833,667.5 298.167,667.5 303.5,667.5C 303.5,662.167 303.5,656.833 303.5,651.5C 298.167,651.5 292.833,651.5 287.5,651.5C 287.727,647.556 287.06,644.556 285.5,642.5C 285.403,640.055 286.07,637.889 287.5,636C 287.217,630.434 287.217,624.934 287.5,619.5C 298.189,620.132 308.856,621.132 319.5,622.5C 314.208,623.495 308.875,623.828 303.5,623.5C 303.5,628.167 303.5,632.833 303.5,637.5C 310.305,637.185 316.971,637.852 323.5,639.5C 323.5,638.167 323.5,636.833 323.5,635.5C 326.167,635.5 328.833,635.5 331.5,635.5C 331.5,636.833 331.5,638.167 331.5,639.5C 332.833,639.5 334.167,639.5 335.5,639.5C 335.5,642.167 335.5,644.833 335.5,647.5C 340.833,647.5 346.167,647.5 351.5,647.5C 351.5,654.833 351.5,662.167 351.5,669.5C 353.492,669.672 355.158,669.005 356.5,667.5C 357.167,668.167 357.833,668.833 358.5,669.5C 363.363,667.763 368.363,666.43 373.5,665.5C 373.5,666.833 373.5,668.167 373.5,669.5C 379.101,672.032 385.101,673.698 391.5,674.5C 386.305,676.089 381.639,678.423 377.5,681.5 Z"/></g>
<g><path style="opacity:1" fill="#5b3110" d="M 281.5,597.5 C 282.29,598.609 282.79,599.942 283,601.5C 283.5,608.826 283.666,616.159 283.5,623.5C 282.182,615.032 281.515,606.365 281.5,597.5 Z"/></g>
<g><path style="opacity:1" fill="#2b2001" d="M 275.5,499.5 C 278.971,531.915 280.971,564.581 281.5,597.5C 281.515,606.365 282.182,615.032 283.5,623.5C 283.5,631.167 283.5,638.833 283.5,646.5C 282.85,661.206 283.517,675.539 285.5,689.5C 285.5,690.167 285.5,690.833 285.5,691.5C 285.5,692.833 285.5,694.167 285.5,695.5C 282.918,695.975 280.918,695.308 279.5,693.5C 280.66,681.007 280.827,668.34 280,655.5C 277.404,598.81 274.571,542.143 271.5,485.5C 271.238,484.022 271.571,482.689 272.5,481.5C 272.861,487.889 273.861,493.889 275.5,499.5 Z"/></g>
<g><path style="opacity:1" fill="#5b4820" d="M 271.5,485.5 C 274.571,542.143 277.404,598.81 280,655.5C 280.827,668.34 280.66,681.007 279.5,693.5C 254.1,693.136 228.767,691.636 203.5,689C 202.185,681.735 201.518,674.235 201.5,666.5C 202.178,634.149 203.345,601.816 205,569.5C 206.611,516.486 211.611,463.819 220,411.5C 224.78,385.037 232.947,359.704 244.5,335.5C 245.274,334.289 246.107,334.289 247,335.5C 254.38,359.732 259.713,384.399 263,409.5C 266.045,434.964 268.878,460.298 271.5,485.5 Z"/></g>
<g><path style="opacity:1" fill="#5a3104" d="M 310.5,695.5 C 319.413,695.902 328.413,695.902 337.5,695.5C 337.828,700.875 337.495,706.208 336.5,711.5C 334.619,713.734 332.285,715.067 329.5,715.5C 329.5,714.167 329.5,712.833 329.5,711.5C 328.448,711.351 327.448,711.517 326.5,712C 311.942,727.649 293.942,734.483 272.5,732.5C 272.402,728.75 273.569,725.417 276,722.5C 282.258,714.327 288.758,706.327 295.5,698.5C 300.9,698.131 305.9,697.131 310.5,695.5 Z"/></g>
<g><path style="opacity:1" fill="#e4b360" d="M 421.5,695.5 C 432.213,697.855 442.546,701.355 452.5,706C 459.893,713.576 458.893,719.91 449.5,725C 439.6,729.131 429.6,732.631 419.5,735.5C 379.833,735.5 340.167,735.5 300.5,735.5C 306.952,732.44 313.285,729.107 319.5,725.5C 328.246,724.627 335.912,721.293 342.5,715.5C 343.497,708.866 343.83,702.2 343.5,695.5C 348.085,694.987 352.418,695.654 356.5,697.5C 358.593,695.757 360.76,695.09 363,695.5C 363.219,696.938 363.719,698.271 364.5,699.5C 365.192,698.975 365.692,698.308 366,697.5C 367.401,699.192 369.234,699.859 371.5,699.5C 371.5,698.167 371.5,696.833 371.5,695.5C 377.551,695.449 383.218,696.783 388.5,699.5C 395.568,697.993 402.735,696.993 410,696.5C 411.333,697.167 412.667,697.833 414,698.5C 415.95,696.429 418.117,696.095 420.5,697.5C 421.298,697.043 421.631,696.376 421.5,695.5 Z"/></g>
<g><path style="opacity:1" fill="#d9b36f" d="M 277.5,711.5 C 278.218,707.758 280.218,704.758 283.5,702.5C 272.941,700.311 262.274,699.311 251.5,699.5C 252.036,706.42 251.036,713.087 248.5,719.5C 247.571,718.311 247.238,716.978 247.5,715.5C 244.833,715.5 242.167,715.5 239.5,715.5C 242.326,714.025 245.326,712.692 248.5,711.5C 249.227,707.489 249.893,703.489 250.5,699.5C 263.487,698.334 276.487,698.167 289.5,699C 285.269,703.062 281.269,707.229 277.5,711.5 Z"/></g>
<g><path style="opacity:1" fill="#e4b361" d="M 171.5,689.5 C 177.592,690.156 183.592,691.323 189.5,693C 184.972,696.096 180.305,698.929 175.5,701.5C 169.251,705.215 163.417,709.548 158,714.5C 153.953,719.694 155.12,723.194 161.5,725C 175.638,727.383 189.638,726.716 203.5,723C 210.229,720.591 216.896,718.091 223.5,715.5C 228.675,716.559 234.009,716.559 239.5,715.5C 242.167,715.5 244.833,715.5 247.5,715.5C 247.238,716.978 247.571,718.311 248.5,719.5C 251.036,713.087 252.036,706.42 251.5,699.5C 262.274,699.311 272.941,700.311 283.5,702.5C 280.218,704.758 278.218,707.758 277.5,711.5C 273.791,716.407 270.624,721.74 268,727.5C 267.503,730.146 267.336,732.813 267.5,735.5C 220.833,735.5 174.167,735.5 127.5,735.5C 115.88,733.256 104.547,729.756 93.5,725C 82.348,716.906 83.0147,709.906 95.5,704C 120.358,696.027 145.691,691.193 171.5,689.5 Z"/></g>
<g><path style="opacity:1" fill="#5d3104" d="M 233.5,711.5 C 229.51,710.81 225.51,710.643 221.5,711C 202.649,720.007 182.982,722.841 162.5,719.5C 161.479,718.998 161.312,718.332 162,717.5C 168.089,712.557 174.256,707.891 180.5,703.5C 186.446,700.191 192.446,696.858 198.5,693.5C 214.064,695.794 229.731,697.127 245.5,697.5C 245.665,700.85 245.498,704.183 245,707.5C 241.434,709.517 237.601,710.85 233.5,711.5 Z"/></g>
<g><path style="opacity:1" fill="#362503" d="M 175.5,701.5 C 176.552,703.256 178.219,703.923 180.5,703.5C 174.256,707.891 168.089,712.557 162,717.5C 161.312,718.332 161.479,718.998 162.5,719.5C 182.982,722.841 202.649,720.007 221.5,711C 225.51,710.643 229.51,710.81 233.5,711.5C 233.225,713.758 232.225,714.092 230.5,712.5C 227.655,712.766 225.322,713.766 223.5,715.5C 216.896,718.091 210.229,720.591 203.5,723C 189.638,726.716 175.638,727.383 161.5,725C 155.12,723.194 153.953,719.694 158,714.5C 163.417,709.548 169.251,705.215 175.5,701.5 Z"/></g>
</svg>
