<?xml version="1.0" encoding="UTF-8"?>
<!DOCTYPE svg PUBLIC "-//W3C//DTD SVG 1.1//EN" "http://www.w3.org/Graphics/SVG/1.1/DTD/svg11.dtd">
<svg xmlns="http://www.w3.org/2000/svg" version="1.1" width="544px" height="736px" style="shape-rendering:geometricPrecision; text-rendering:geometricPrecision; image-rendering:optimizeQuality; fill-rule:evenodd; clip-rule:evenodd" xmlns:xlink="http://www.w3.org/1999/xlink">
<g><path style="opacity:1" fill="#fad998" d="M -0.5,-0.5 C 76.8333,-0.5 154.167,-0.5 231.5,-0.5C 216.408,4.38839 204.075,13.2217 194.5,26C 191.966,26.5163 189.8,27.683 188,29.5C 188.604,36.8215 186.937,43.4882 183,49.5C 180.817,58.5981 181.15,67.5981 184,76.5C 184.667,81.5 184.667,86.5 184,91.5C 181.368,96.8137 178.701,102.147 176,107.5C 171.263,119.728 173.263,130.728 182,140.5C 182.167,141.833 182.333,143.167 182.5,144.5C 181.194,150.785 179.027,156.785 176,162.5C 175.204,168.005 175.871,173.338 178,178.5C 180.597,183.371 183.431,188.038 186.5,192.5C 182.232,200.377 179.065,208.71 177,217.5C 174.259,234.432 172.092,251.432 170.5,268.5C 169.841,271.455 169.508,274.455 169.5,277.5C 162.984,273.162 156.317,268.995 149.5,265C 147.536,255.897 142.203,249.73 133.5,246.5C 132.291,241.879 132.291,237.213 133.5,232.5C 138.175,233.661 140.841,231.994 141.5,227.5C 143.183,211.689 143.683,195.689 143,179.5C 141.491,177.081 139.325,176.081 136.5,176.5C 136.703,174.61 136.037,173.11 134.5,172C 131.367,172.046 128.7,171.046 126.5,169C 114.156,167.139 101.823,167.139 89.5,169C 86.6089,170.274 83.9422,171.774 81.5,173.5C 75.7223,174.444 70.7223,176.944 66.5,181C 58.6913,188.414 52.0247,196.581 46.5,205.5C 46.6667,206.5 46.8333,207.5 47,208.5C 59.3654,220.034 71.532,231.7 83.5,243.5C 83.0306,252.217 85.364,260.05 90.5,267C 94.8984,269.857 99.2317,272.691 103.5,275.5C 107.18,278.464 110.68,281.797 114,285.5C 114.333,285.167 114.667,284.833 115,284.5C 115.112,287.447 116.612,288.78 119.5,288.5C 122.062,294.335 125.062,299.335 128.5,303.5C 130.578,305.92 132.912,307.92 135.5,309.5C 143.815,319.981 153.815,328.481 165.5,335C 175.021,338.781 184.021,337.947 192.5,332.5C 193.423,331.697 194.423,331.53 195.5,332C 190.335,338.495 186.335,345.661 183.5,353.5C 173.336,373.325 165.336,393.991 159.5,415.5C 156.806,421.826 154.473,428.493 152.5,435.5C 150.213,447.102 148.379,458.768 147,470.5C 145.795,471.071 144.628,471.738 143.5,472.5C 145.346,476.582 146.013,480.915 145.5,485.5C 138.564,536.727 132.397,588.061 127,639.5C 126.19,647.498 125.857,655.498 126,663.5C 127.4,666.902 129.567,669.736 132.5,672C 137.159,675.226 142.159,677.893 147.5,680C 160.055,684.138 172.721,687.304 185.5,689.5C 180.5,689.5 175.5,689.5 170.5,689.5C 167.306,689.73 164.306,689.064 161.5,687.5C 159.833,688.167 158.167,688.833 156.5,689.5C 152.908,688.274 149.242,688.941 145.5,691.5C 144.5,691 143.5,690.5 142.5,690C 144.061,689.682 145.228,688.849 146,687.5C 146.333,687.833 146.667,688.167 147,688.5C 147.333,687.167 147.667,685.833 148,684.5C 148.654,685.696 149.154,685.696 149.5,684.5C 148.833,683.833 148.167,683.167 147.5,682.5C 143.463,681.491 139.463,680.491 135.5,679.5C 135.5,682.167 135.5,684.833 135.5,687.5C 131.5,687.5 127.5,687.5 123.5,687.5C 123.5,688.833 123.5,690.167 123.5,691.5C 122.167,691.5 120.833,691.5 119.5,691.5C 119.5,692.833 119.5,694.167 119.5,695.5C 115.317,695.137 111.317,695.804 107.5,697.5C 106.353,697.182 105.519,696.516 105,695.5C 102.045,695.678 98.8788,695.678 95.5,695.5C 95.5,692.833 95.5,690.167 95.5,687.5C 90.1667,687.5 84.8333,687.5 79.5,687.5C 79.5,692.833 79.5,698.167 79.5,703.5C 68.8333,703.5 58.1667,703.5 47.5,703.5C 47.5,706.167 47.5,708.833 47.5,711.5C 42.1667,711.5 36.8333,711.5 31.5,711.5C 31.5,708.833 31.5,706.167 31.5,703.5C 20.8333,703.5 10.1667,703.5 -0.5,703.5C -0.5,468.833 -0.5,234.167 -0.5,-0.5 Z"/></g>
<g><path style="opacity:1" fill="#fad997" d="M 283.5,-0.5 C 370.167,-0.5 456.833,-0.5 543.5,-0.5C 543.5,111.5 543.5,223.5 543.5,335.5C 536.833,335.5 530.167,335.5 523.5,335.5C 522.833,346.167 522.167,356.833 521.5,367.5C 518.167,367.5 514.833,367.5 511.5,367.5C 511.5,372.833 511.5,378.167 511.5,383.5C 514.167,383.5 516.833,383.5 519.5,383.5C 519.5,388.833 519.5,394.167 519.5,399.5C 516.833,399.5 514.167,399.5 511.5,399.5C 511.5,452.833 511.5,506.167 511.5,559.5C 506.167,559.5 500.833,559.5 495.5,559.5C 495.5,564.167 495.5,568.833 495.5,573.5C 474.167,574.167 474.167,574.833 495.5,575.5C 495.5,580.833 495.5,586.167 495.5,591.5C 500.833,591.5 506.167,591.5 511.5,591.5C 511.5,596.833 511.5,602.167 511.5,607.5C 506.167,607.5 500.833,607.5 495.5,607.5C 495.5,612.833 495.5,618.167 495.5,623.5C 500.833,623.5 506.167,623.5 511.5,623.5C 511.5,644.833 511.5,666.167 511.5,687.5C 506.167,687.5 500.833,687.5 495.5,687.5C 495.5,692.833 495.5,698.167 495.5,703.5C 496.833,703.5 498.167,703.5 499.5,703.5C 499.5,706.167 499.5,708.833 499.5,711.5C 495.5,711.5 491.5,711.5 487.5,711.5C 487.5,708.833 487.5,706.167 487.5,703.5C 478.827,703.334 470.16,703.5 461.5,704C 463.942,707.377 464.109,710.877 462,714.5C 461.517,713.552 461.351,712.552 461.5,711.5C 460.167,711.5 458.833,711.5 457.5,711.5C 454.862,706.873 450.862,704.206 445.5,703.5C 438.711,699.792 431.378,697.292 423.5,696C 405.112,692.942 386.779,690.442 368.5,688.5C 387.652,685.616 405.652,679.45 422.5,670C 425.106,668.062 426.939,665.562 428,662.5C 428.169,657.172 428.002,651.838 427.5,646.5C 426.612,624.783 424.945,603.116 422.5,581.5C 420.729,580.965 420.396,580.131 421.5,579C 419.933,574.846 418.266,571.346 416.5,568.5C 409.476,520.876 400.309,473.542 389,426.5C 381.816,399.776 371.983,374.109 359.5,349.5C 359.5,347.5 359.5,345.5 359.5,343.5C 363.243,341.477 367.243,339.81 371.5,338.5C 379.818,332.007 388.485,326.007 397.5,320.5C 399.005,319.158 399.672,317.492 399.5,315.5C 400.978,315.762 402.311,315.429 403.5,314.5C 408.573,308.756 414.24,303.756 420.5,299.5C 424.5,289.5 424.5,279.5 420.5,269.5C 419.735,268.388 418.735,267.721 417.5,267.5C 403.691,236.53 385.858,208.197 364,182.5C 364.019,180.893 364.185,179.226 364.5,177.5C 368.869,168.347 368.369,159.347 363,150.5C 359.244,145.751 355.911,140.751 353,135.5C 353.408,126.8 354.075,118.134 355,109.5C 351.02,98.8742 345.02,89.5408 337,81.5C 332.131,72.0278 328.797,62.0278 327,51.5C 323.114,42.0734 320.114,32.4067 318,22.5C 316.642,19.2122 314.142,17.7122 310.5,18C 307.341,13.4198 303.341,9.75311 298.5,7C 293.408,4.45406 288.408,1.95406 283.5,-0.5 Z"/></g>
<g><path style="opacity:1" fill="#332204" d="M 231.5,-0.5 C 248.833,-0.5 266.167,-0.5 283.5,-0.5C 288.408,1.95406 293.408,4.45406 298.5,7C 303.341,9.75311 307.341,13.4198 310.5,18C 314.142,17.7122 316.642,19.2122 318,22.5C 320.114,32.4067 323.114,42.0734 327,51.5C 328.797,62.0278 332.131,72.0278 337,81.5C 345.02,89.5408 351.02,98.8742 355,109.5C 354.075,118.134 353.408,126.8 353,135.5C 355.911,140.751 359.244,145.751 363,150.5C 368.369,159.347 368.869,168.347 364.5,177.5C 363.5,177.5 362.5,177.5 361.5,177.5C 361.5,180.167 361.5,182.833 361.5,185.5C 357.018,183.865 353.185,181.198 350,177.5C 346.279,176.057 342.779,174.223 339.5,172C 336.773,171.182 334.106,171.348 331.5,172.5C 327.822,178.164 323.822,183.497 319.5,188.5C 318.311,189.429 316.978,189.762 315.5,189.5C 315.649,190.552 315.483,191.552 315,192.5C 291.998,211.266 265.498,218.766 235.5,215C 229.352,212.536 223.186,210.036 217,207.5C 215.012,206.012 213.179,204.346 211.5,202.5C 210.311,201.571 208.978,201.238 207.5,201.5C 205.262,195.84 202.262,190.507 198.5,185.5C 195.989,187.844 193.655,190.344 191.5,193C 188.164,200.497 184.997,207.997 182,215.5C 178.52,232.671 176.354,250.004 175.5,267.5C 173.964,269.025 172.964,271.025 172.5,273.5C 171.83,271.709 171.163,270.042 170.5,268.5C 172.092,251.432 174.259,234.432 177,217.5C 179.065,208.71 182.232,200.377 186.5,192.5C 183.431,188.038 180.597,183.371 178,178.5C 175.871,173.338 175.204,168.005 176,162.5C 179.027,156.785 181.194,150.785 182.5,144.5C 182.333,143.167 182.167,141.833 182,140.5C 173.263,130.728 171.263,119.728 176,107.5C 178.701,102.147 181.368,96.8137 184,91.5C 184.667,86.5 184.667,81.5 184,76.5C 181.15,67.5981 180.817,58.5981 183,49.5C 186.937,43.4882 188.604,36.8215 188,29.5C 189.8,27.683 191.966,26.5163 194.5,26C 204.075,13.2217 216.408,4.38839 231.5,-0.5 Z"/></g>
<g><path style="opacity:1" fill="#b26f1d" d="M 279.5,21.5 C 290.536,21.2515 301.536,21.7515 312.5,23C 313.769,25.1385 313.769,27.3052 312.5,29.5C 300.234,28.0699 287.901,27.4033 275.5,27.5C 274.391,26.71 273.058,26.21 271.5,26C 272.793,25.51 274.127,25.3433 275.5,25.5C 276.833,25.5 278.167,25.5 279.5,25.5C 279.5,24.1667 279.5,22.8333 279.5,21.5 Z"/></g>
<g><path style="opacity:1" fill="#de901b" d="M 275.5,25.5 C 274.127,25.3433 272.793,25.51 271.5,26C 273.058,26.21 274.391,26.71 275.5,27.5C 247.292,27.1057 219.626,30.439 192.5,37.5C 192.083,34.9208 192.75,32.7542 194.5,31C 203.285,28.0532 212.285,26.2199 221.5,25.5C 233.327,24.8716 245.16,24.2049 257,23.5C 262.833,23.6667 268.667,23.8333 274.5,24C 275.056,24.3826 275.389,24.8826 275.5,25.5 Z"/></g>
<g><path style="opacity:1" fill="#d28b24" d="M 279.5,21.5 C 279.5,22.8333 279.5,24.1667 279.5,25.5C 278.167,25.5 276.833,25.5 275.5,25.5C 275.389,24.8826 275.056,24.3826 274.5,24C 268.667,23.8333 262.833,23.6667 257,23.5C 245.16,24.2049 233.327,24.8716 221.5,25.5C 228.616,23.8558 235.949,22.6891 243.5,22C 255.495,21.5001 267.495,21.3335 279.5,21.5 Z"/></g>
<g><path style="opacity:1" fill="#5b3909" d="M 245.5,1.5 C 263.181,0.00395975 279.847,3.17063 295.5,11C 298.167,13 300.833,15 303.5,17C 293.011,17.0389 282.511,16.8722 272,16.5C 259.124,16.4923 246.291,17.159 233.5,18.5C 233.824,15.306 232.658,14.306 230,15.5C 229.51,16.7932 229.343,18.1266 229.5,19.5C 220.762,20.5693 212.095,21.736 203.5,23C 214.966,10.7677 228.966,3.601 245.5,1.5 Z"/></g>
<g><path style="opacity:1" fill="#e19f4f" d="M 279.5,71.5 C 278.167,71.5 276.833,71.5 275.5,71.5C 275.171,66.8464 273.837,62.513 271.5,58.5C 265.443,57.4219 259.443,56.0886 253.5,54.5C 250.412,53.9208 247.745,52.5875 245.5,50.5C 243.604,49.5344 241.604,49.2011 239.5,49.5C 240.074,54.6483 239.407,59.4816 237.5,64C 244.3,64.0391 249.633,63.2058 253.5,61.5C 256.915,61.9567 260.248,62.6234 263.5,63.5C 264.576,66.7345 265.243,70.0678 265.5,73.5C 257.5,73.5 249.5,73.5 241.5,73.5C 240.082,75.3079 238.082,75.9746 235.5,75.5C 235.073,72.2123 235.74,69.2123 237.5,66.5C 236.012,64.4228 234.012,63.4228 231.5,63.5C 231.5,60.8333 231.5,58.1667 231.5,55.5C 228.833,55.5 226.167,55.5 223.5,55.5C 223.5,56.8333 223.5,58.1667 223.5,59.5C 218.642,59.8272 215.975,62.4938 215.5,67.5C 217.483,67.1568 218.817,67.8235 219.5,69.5C 214.195,68.5581 208.861,68.3914 203.5,69C 200.307,70.0255 198.974,72.1922 199.5,75.5C 203.094,74.5426 206.76,73.8759 210.5,73.5C 213.527,73.9379 216.527,74.1045 219.5,74C 220.252,73.3292 220.586,72.4959 220.5,71.5C 221.697,73.8407 221.031,75.8407 218.5,77.5C 215.656,76.7418 212.989,77.4085 210.5,79.5C 209.158,77.9951 207.492,77.3285 205.5,77.5C 205.795,81.477 207.461,84.8104 210.5,87.5C 213.364,84.8975 216.197,84.8975 219,87.5C 219.333,86.8333 219.667,86.1667 220,85.5C 220.495,87.4727 220.662,89.4727 220.5,91.5C 219.702,96.0611 218.202,100.394 216,104.5C 213.933,110.586 215.767,114.752 221.5,117C 224.146,117.497 226.813,117.664 229.5,117.5C 229.762,118.978 229.429,120.311 228.5,121.5C 227.304,121.154 227.304,120.654 228.5,120C 226.333,119.833 224.167,119.667 222,119.5C 219.3,119.391 216.8,119.891 214.5,121C 213.177,131.658 217.677,138.158 228,140.5C 229.183,139.269 230.349,139.269 231.5,140.5C 228.833,141.833 228.833,143.167 231.5,144.5C 234.5,144.833 237.5,145.167 240.5,145.5C 245.875,144.977 251.208,144.311 256.5,143.5C 244.417,149.532 232.75,148.699 221.5,141C 209.169,130.663 202.002,117.496 200,101.5C 197.946,87.535 197.446,73.535 198.5,59.5C 203.85,56.4924 208.85,52.9924 213.5,49C 218.066,44.4336 222.566,39.9336 227,35.5C 233.552,40.3777 240.385,44.8777 247.5,49C 255.88,52.738 264.547,55.5713 273.5,57.5C 275.512,62.1881 277.512,66.8548 279.5,71.5 Z"/></g>
<g><path style="opacity:1" fill="#392208" d="M 219.5,69.5 C 219.833,70.1667 220.167,70.8333 220.5,71.5C 220.586,72.4959 220.252,73.3292 219.5,74C 216.527,74.1045 213.527,73.9379 210.5,73.5C 206.76,73.8759 203.094,74.5426 199.5,75.5C 198.974,72.1922 200.307,70.0255 203.5,69C 208.861,68.3914 214.195,68.5581 219.5,69.5 Z"/></g>
<g><path style="opacity:1" fill="#df9e50" d="M 254.5,85.5 C 254.389,86.1174 254.056,86.6174 253.5,87C 249.882,87.966 246.549,87.466 243.5,85.5C 243.54,88.8832 245.54,90.8832 249.5,91.5C 253.599,90.9403 256.599,88.9403 258.5,85.5C 257.675,84.6143 256.675,84.281 255.5,84.5C 256.568,83.5655 257.901,83.2322 259.5,83.5C 259.215,87.0248 259.881,90.3582 261.5,93.5C 260.246,95.3337 259.579,97.3337 259.5,99.5C 258.167,99.5 256.833,99.5 255.5,99.5C 255.5,98.1667 255.5,96.8333 255.5,95.5C 251.445,95.8242 247.445,95.4909 243.5,94.5C 245.807,92.6724 245.474,91.0057 242.5,89.5C 240.633,92.2291 239.633,91.8957 239.5,88.5C 238.448,88.3505 237.448,88.5172 236.5,89C 237.646,91.5572 236.646,92.8905 233.5,93C 234.5,93.3333 235.5,93.6667 236.5,94C 235.128,94.4017 233.795,94.9017 232.5,95.5C 231.167,84.8333 229.833,84.8333 228.5,95.5C 227.833,96.1667 227.167,96.8333 226.5,97.5C 225.509,101.445 225.176,105.445 225.5,109.5C 233.014,109.693 240.347,109.026 247.5,107.5C 250.167,107.833 252.833,108.167 255.5,108.5C 253.076,110.714 253.743,111.714 257.5,111.5C 257.666,115.514 257.499,119.514 257,123.5C 255.374,123.854 253.541,123.854 251.5,123.5C 253.348,121.484 255.015,119.317 256.5,117C 256.333,115.5 255.5,114.667 254,114.5C 246.344,122.442 237.177,125.442 226.5,123.5C 229.572,123.817 232.572,123.484 235.5,122.5C 237.005,121.158 237.672,119.492 237.5,117.5C 234.833,117.5 232.167,117.5 229.5,117.5C 231.291,116.609 233.124,115.609 235,114.5C 235.49,113.207 235.657,111.873 235.5,110.5C 232.307,111.011 229.141,111.678 226,112.5C 223.739,112.561 221.739,111.894 220,110.5C 221.231,105.474 222.898,100.474 225,95.5C 225.499,90.8452 225.666,86.1785 225.5,81.5C 224.167,81.5 222.833,81.5 221.5,81.5C 223.077,78.9832 224.91,78.9832 227,81.5C 230.077,80.097 233.243,78.7637 236.5,77.5C 241.047,83.4404 247.047,86.1071 254.5,85.5 Z"/></g>
<g><path style="opacity:1" fill="#291a08" d="M 204.5,86.5 C 206.67,87.7485 209.004,88.7485 211.5,89.5C 213.274,89.1132 214.941,88.4465 216.5,87.5C 217.273,91.0935 215.606,93.0935 211.5,93.5C 207.448,92.7816 205.115,90.4483 204.5,86.5 Z"/></g>
<g><path style="opacity:1" fill="#d49a55" d="M 281.5,75.5 C 287.562,82.2285 293.895,88.5618 300.5,94.5C 299.435,102.531 295.101,105.198 287.5,102.5C 289.948,101.527 292.615,101.194 295.5,101.5C 295.82,98.1016 295.487,94.7683 294.5,91.5C 290.5,87.5 286.5,83.5 282.5,79.5C 281.571,78.3112 281.238,76.9778 281.5,75.5 Z"/></g>
<g><path style="opacity:1" fill="#322206" d="M 221.5,81.5 C 222.833,81.5 224.167,81.5 225.5,81.5C 225.666,86.1785 225.499,90.8452 225,95.5C 222.898,100.474 221.231,105.474 220,110.5C 221.739,111.894 223.739,112.561 226,112.5C 229.141,111.678 232.307,111.011 235.5,110.5C 235.657,111.873 235.49,113.207 235,114.5C 233.124,115.609 231.291,116.609 229.5,117.5C 226.813,117.664 224.146,117.497 221.5,117C 215.767,114.752 213.933,110.586 216,104.5C 218.202,100.394 219.702,96.0611 220.5,91.5C 221.479,88.3752 221.813,85.0419 221.5,81.5 Z"/></g>
<g><path style="opacity:1" fill="#5d3708" d="M 325.5,161.5 C 325.663,159.143 325.497,156.81 325,154.5C 321.051,151.054 319.218,146.721 319.5,141.5C 318.178,141.67 317.011,141.337 316,140.5C 312.886,135.572 310.719,130.239 309.5,124.5C 310.632,120.359 311.965,116.026 313.5,111.5C 314.833,111.5 316.167,111.5 317.5,111.5C 318.078,114.37 319.745,116.037 322.5,116.5C 322.038,109.578 319.872,103.245 316,97.5C 310.265,92.7144 304.099,88.5477 297.5,85C 288.85,77.5255 282.85,68.3589 279.5,57.5C 283.514,57.6655 287.514,57.4988 291.5,57C 293.107,55.951 293.773,54.451 293.5,52.5C 271.582,54.1973 252.249,48.1973 235.5,34.5C 261.49,32.1391 287.49,31.9724 313.5,34C 316.673,38.5142 319.173,43.3475 321,48.5C 323.37,59.3535 326.37,70.0201 330,80.5C 333.854,86.2001 338.188,91.5334 343,96.5C 345.254,100.007 347.254,103.673 349,107.5C 349.313,117.555 348.979,127.555 348,137.5C 352.365,144.52 356.698,151.52 361,158.5C 361.706,164.87 361.539,171.203 360.5,177.5C 359.448,177.649 358.448,177.483 357.5,177C 348.031,169.433 337.364,164.266 325.5,161.5 Z"/></g>
<g><path style="opacity:1" fill="#352005" d="M 251.5,123.5 C 242.67,128.489 233.337,129.656 223.5,127C 222.306,124.342 223.306,123.176 226.5,123.5C 237.177,125.442 246.344,122.442 254,114.5C 255.5,114.667 256.333,115.5 256.5,117C 255.015,119.317 253.348,121.484 251.5,123.5 Z"/></g>
<g><path style="opacity:1" fill="#e49c49" d="M 279.5,71.5 C 280.674,72.5137 281.34,73.847 281.5,75.5C 281.238,76.9778 281.571,78.3112 282.5,79.5C 286.5,83.5 290.5,87.5 294.5,91.5C 295.487,94.7683 295.82,98.1016 295.5,101.5C 292.615,101.194 289.948,101.527 287.5,102.5C 286.762,111.213 283.928,119.213 279,126.5C 274.833,130.667 270.667,134.833 266.5,139C 263.52,141.324 260.187,142.824 256.5,143.5C 251.208,144.311 245.875,144.977 240.5,145.5C 237.5,145.167 234.5,144.833 231.5,144.5C 228.833,143.167 228.833,141.833 231.5,140.5C 230.349,139.269 229.183,139.269 228,140.5C 217.677,138.158 213.177,131.658 214.5,121C 216.8,119.891 219.3,119.391 222,119.5C 224.167,119.667 226.333,119.833 228.5,120C 227.304,120.654 227.304,121.154 228.5,121.5C 229.429,120.311 229.762,118.978 229.5,117.5C 232.167,117.5 234.833,117.5 237.5,117.5C 237.672,119.492 237.005,121.158 235.5,122.5C 232.572,123.484 229.572,123.817 226.5,123.5C 223.306,123.176 222.306,124.342 223.5,127C 233.337,129.656 242.67,128.489 251.5,123.5C 253.541,123.854 255.374,123.854 257,123.5C 257.499,119.514 257.666,115.514 257.5,111.5C 253.743,111.714 253.076,110.714 255.5,108.5C 252.833,108.167 250.167,107.833 247.5,107.5C 240.347,109.026 233.014,109.693 225.5,109.5C 225.176,105.445 225.509,101.445 226.5,97.5C 227.167,96.8333 227.833,96.1667 228.5,95.5C 229.833,84.8333 231.167,84.8333 232.5,95.5C 233.795,94.9017 235.128,94.4017 236.5,94C 235.5,93.6667 234.5,93.3333 233.5,93C 236.646,92.8905 237.646,91.5572 236.5,89C 237.448,88.5172 238.448,88.3505 239.5,88.5C 239.633,91.8957 240.633,92.2291 242.5,89.5C 245.474,91.0057 245.807,92.6724 243.5,94.5C 247.445,95.4909 251.445,95.8242 255.5,95.5C 255.5,96.8333 255.5,98.1667 255.5,99.5C 256.833,99.5 258.167,99.5 259.5,99.5C 259.579,97.3337 260.246,95.3337 261.5,93.5C 259.881,90.3582 259.215,87.0248 259.5,83.5C 257.901,83.2322 256.568,83.5655 255.5,84.5C 255.5,85.1667 255.167,85.5 254.5,85.5C 247.047,86.1071 241.047,83.4404 236.5,77.5C 233.243,78.7637 230.077,80.097 227,81.5C 224.91,78.9832 223.077,78.9832 221.5,81.5C 221.813,85.0419 221.479,88.3752 220.5,91.5C 220.662,89.4727 220.495,87.4727 220,85.5C 219.667,86.1667 219.333,86.8333 219,87.5C 216.197,84.8975 213.364,84.8975 210.5,87.5C 207.461,84.8104 205.795,81.477 205.5,77.5C 207.492,77.3285 209.158,77.9951 210.5,79.5C 212.989,77.4085 215.656,76.7418 218.5,77.5C 221.031,75.8407 221.697,73.8407 220.5,71.5C 220.167,70.8333 219.833,70.1667 219.5,69.5C 218.817,67.8235 217.483,67.1568 215.5,67.5C 215.975,62.4938 218.642,59.8272 223.5,59.5C 223.5,58.1667 223.5,56.8333 223.5,55.5C 226.167,55.5 228.833,55.5 231.5,55.5C 231.5,58.1667 231.5,60.8333 231.5,63.5C 234.012,63.4228 236.012,64.4228 237.5,66.5C 235.74,69.2123 235.073,72.2123 235.5,75.5C 238.082,75.9746 240.082,75.3079 241.5,73.5C 249.5,73.5 257.5,73.5 265.5,73.5C 265.243,70.0678 264.576,66.7345 263.5,63.5C 260.248,62.6234 256.915,61.9567 253.5,61.5C 249.633,63.2058 244.3,64.0391 237.5,64C 239.407,59.4816 240.074,54.6483 239.5,49.5C 241.604,49.2011 243.604,49.5344 245.5,50.5C 247.745,52.5875 250.412,53.9208 253.5,54.5C 259.443,56.0886 265.443,57.4219 271.5,58.5C 273.837,62.513 275.171,66.8464 275.5,71.5C 276.833,71.5 278.167,71.5 279.5,71.5 Z"/></g>
<g><path style="opacity:1" fill="#2d1608" d="M 255.5,84.5 C 256.675,84.281 257.675,84.6143 258.5,85.5C 256.599,88.9403 253.599,90.9403 249.5,91.5C 245.54,90.8832 243.54,88.8832 243.5,85.5C 246.549,87.466 249.882,87.966 253.5,87C 254.056,86.6174 254.389,86.1174 254.5,85.5C 255.167,85.5 255.5,85.1667 255.5,84.5 Z"/></g>
<g><path style="opacity:1" fill="#3a240a" d="M 241.5,73.5 C 235.872,73.413 235.205,71.5797 239.5,68C 247.686,64.4573 255.686,64.7907 263.5,69C 264.337,70.0113 264.67,71.1779 264.5,72.5C 257.523,71.5432 250.523,71.3766 243.5,72C 242.584,72.2784 241.918,72.7784 241.5,73.5 Z"/></g>
<g><path style="opacity:1" fill="#4a2f08" d="M 317.5,111.5 C 316.167,111.5 314.833,111.5 313.5,111.5C 311.965,116.026 310.632,120.359 309.5,124.5C 310.719,130.239 312.886,135.572 316,140.5C 317.011,141.337 318.178,141.67 319.5,141.5C 319.218,146.721 321.051,151.054 325,154.5C 325.497,156.81 325.663,159.143 325.5,161.5C 311.837,158.936 300.003,152.936 290,143.5C 288.017,138.897 287.184,134.064 287.5,129C 287.667,125.833 287.833,122.667 288,119.5C 290.103,116.171 291.27,112.504 291.5,108.5C 300.102,108.376 304.436,104.042 304.5,95.5C 311.699,98.3779 316.032,103.711 317.5,111.5 Z"/></g>
<g><path style="opacity:1" fill="#5d3809" d="M 207.5,134.5 C 208.526,138.607 209.86,142.607 211.5,146.5C 211.167,147.167 210.833,147.833 210.5,148.5C 211.244,151.443 211.744,154.443 212,157.5C 212.71,158.973 213.876,159.64 215.5,159.5C 215.762,160.978 215.429,162.311 214.5,163.5C 213.575,164.641 212.741,164.641 212,163.5C 211.51,164.793 211.343,166.127 211.5,167.5C 202.921,172.576 195.755,179.243 190,187.5C 181.891,179.686 179.225,170.353 182,159.5C 186.054,153.404 187.72,146.738 187,139.5C 184.083,135.334 181.416,131.001 179,126.5C 178.07,119.996 178.736,113.662 181,107.5C 188.18,97.9595 190.847,87.2929 189,75.5C 185.389,65.3477 185.722,55.3477 190,45.5C 191.952,43.1064 194.452,41.6064 197.5,41C 204.007,38.7142 210.673,37.7142 217.5,38C 209.371,45.8922 200.371,52.5588 190.5,58C 191.728,79.2915 194.895,100.458 200,121.5C 202.018,126.215 204.518,130.549 207.5,134.5 Z"/></g>
<g><path style="opacity:1" fill="#4c3207" d="M 207.5,134.5 C 211.634,138.8 215.968,142.966 220.5,147C 225.904,149.875 231.571,151.875 237.5,153C 236.91,154.509 236.244,156.009 235.5,157.5C 227.274,160.279 219.274,163.613 211.5,167.5C 211.343,166.127 211.51,164.793 212,163.5C 212.741,164.641 213.575,164.641 214.5,163.5C 215.429,162.311 215.762,160.978 215.5,159.5C 213.876,159.64 212.71,158.973 212,157.5C 211.744,154.443 211.244,151.443 210.5,148.5C 210.833,147.833 211.167,147.167 211.5,146.5C 209.86,142.607 208.526,138.607 207.5,134.5 Z"/></g>
<g><path style="opacity:1" fill="#c37725" d="M 283.5,141.5 C 275.3,158.675 261.634,166.675 242.5,165.5C 242.737,166.791 242.404,167.791 241.5,168.5C 241.5,163.167 241.5,157.833 241.5,152.5C 258.368,151.317 271.868,143.983 282,130.5C 283.415,133.958 283.915,137.625 283.5,141.5 Z"/></g>
<g><path style="opacity:1" fill="#2f2408" d="M 141.5,227.5 C 141.665,224.15 141.498,220.817 141,217.5C 140.74,221.25 140.073,224.916 139,228.5C 138.768,227.263 138.268,226.263 137.5,225.5C 137.5,222.167 137.5,218.833 137.5,215.5C 138.573,204.344 139.239,193.011 139.5,181.5C 128.852,180.336 118.185,179.336 107.5,178.5C 107.5,190.167 107.5,201.833 107.5,213.5C 108.791,213.263 109.791,213.596 110.5,214.5C 109.022,214.762 107.689,214.429 106.5,213.5C 105.4,209.061 104.4,204.728 103.5,200.5C 103.666,192.826 103.5,185.159 103,177.5C 98.9341,178.464 94.7675,178.797 90.5,178.5C 90.5,179.833 90.5,181.167 90.5,182.5C 89.8333,185.833 89.1667,189.167 88.5,192.5C 87.5045,188.529 86.5045,184.529 85.5,180.5C 85,180.167 84.5,179.833 84,179.5C 81.8458,180.274 79.6792,180.941 77.5,181.5C 76.645,180.469 75.9783,179.303 75.5,178C 77.6265,176.507 79.6265,175.007 81.5,173.5C 83.9422,171.774 86.6089,170.274 89.5,169C 101.823,167.139 114.156,167.139 126.5,169C 128.7,171.046 131.367,172.046 134.5,172C 136.037,173.11 136.703,174.61 136.5,176.5C 139.325,176.081 141.491,177.081 143,179.5C 143.683,195.689 143.183,211.689 141.5,227.5 Z"/></g>
<g><path style="opacity:1" fill="#e39c49" d="M 283.5,141.5 C 285.394,146.082 288.394,149.916 292.5,153C 297.807,155.372 302.807,158.205 307.5,161.5C 289.265,184.489 265.599,193.322 236.5,188C 225.881,185.07 221.381,178.236 223,167.5C 227.426,165.371 231.926,163.371 236.5,161.5C 237.934,163.22 238.767,165.22 239,167.5C 239.671,168.252 240.504,168.586 241.5,168.5C 242.404,167.791 242.737,166.791 242.5,165.5C 261.634,166.675 275.3,158.675 283.5,141.5 Z"/></g>
<g><path style="opacity:1" fill="#ecbf68" d="M 137.5,215.5 C 137.5,218.833 137.5,222.167 137.5,225.5C 137.209,226.649 136.376,227.316 135,227.5C 132.869,226.46 131.036,224.96 129.5,223C 125.734,223.066 123.734,221.233 123.5,217.5C 123.279,216.265 122.612,215.265 121.5,214.5C 117.629,212.874 113.629,211.874 109.5,211.5C 109.5,200.833 109.5,190.167 109.5,179.5C 116.24,180.342 122.906,181.508 129.5,183C 128.692,183.308 128.025,183.808 127.5,184.5C 132.694,186.058 132.694,187.058 127.5,187.5C 127.201,189.604 127.534,191.604 128.5,193.5C 129.328,192.585 130.328,191.919 131.5,191.5C 133.334,192.754 135.334,193.421 137.5,193.5C 137.5,200.833 137.5,208.167 137.5,215.5 Z"/></g>
<g><path style="opacity:1" fill="#e3bd76" d="M 277.5,206.5 C 277.5,205.5 277.5,204.5 277.5,203.5C 276.167,203.5 274.833,203.5 273.5,203.5C 273.5,202.5 273.5,201.5 273.5,200.5C 275.042,201.301 276.708,201.634 278.5,201.5C 278.567,200.041 278.234,198.708 277.5,197.5C 278.833,197.5 280.167,197.5 281.5,197.5C 281.5,198.833 281.5,200.167 281.5,201.5C 284.247,201.813 286.914,201.48 289.5,200.5C 288.833,199.833 288.167,199.167 287.5,198.5C 290.702,197.953 293.702,196.953 296.5,195.5C 297.833,194.167 297.833,192.833 296.5,191.5C 295.833,192.167 295.167,192.833 294.5,193.5C 293.534,191.604 293.201,189.604 293.5,187.5C 289.077,187.69 284.744,188.357 280.5,189.5C 293.993,183.489 305.16,174.489 314,162.5C 318.394,164.223 322.894,165.556 327.5,166.5C 324.39,174.811 319.39,181.978 312.5,188C 302.256,196.789 290.59,202.956 277.5,206.5 Z"/></g>
<g><path style="opacity:1" fill="#35180a" d="M 312.5,172.5 C 315.95,171.756 317.616,173.09 317.5,176.5C 314.05,177.244 312.384,175.91 312.5,172.5 Z"/></g>
<g><path style="opacity:1" fill="#e4be74" d="M 279.5,189.5 C 278.385,192.08 276.385,193.746 273.5,194.5C 265.568,196.156 257.568,197.156 249.5,197.5C 249.5,198.5 249.5,199.5 249.5,200.5C 247.335,200.116 245.668,200.783 244.5,202.5C 245.668,204.217 247.335,204.884 249.5,204.5C 249.5,203.5 249.5,202.5 249.5,201.5C 251.176,202.183 251.843,203.517 251.5,205.5C 249.5,205.5 247.5,205.5 245.5,205.5C 245.5,206.5 245.5,207.5 245.5,208.5C 243.265,208.205 241.265,208.539 239.5,209.5C 220.876,207.861 208.876,198.194 203.5,180.5C 207.215,176.463 211.548,173.13 216.5,170.5C 217.978,182.142 224.312,189.642 235.5,193C 250.52,195.776 265.186,194.609 279.5,189.5 Z"/></g>
<g><path style="opacity:1" fill="#261807" d="M 210.5,180.5 C 213.694,180.176 214.694,181.342 213.5,184C 212.207,184.49 210.873,184.657 209.5,184.5C 209.433,183.041 209.766,181.708 210.5,180.5 Z"/></g>
<g><path style="opacity:1" fill="#e5bc6a" d="M 88.5,192.5 C 90.8174,201.706 91.984,211.039 92,220.5C 91,221.5 90,222.5 89,223.5C 82.7723,210.876 76.939,198.042 71.5,185C 73.0339,183.065 75.0339,181.899 77.5,181.5C 79.6792,180.941 81.8458,180.274 84,179.5C 84.5,179.833 85,180.167 85.5,180.5C 86.5045,184.529 87.5045,188.529 88.5,192.5 Z"/></g>
<g><path style="opacity:1" fill="#732a04" d="M 361.5,185.5 C 361.238,186.978 361.571,188.311 362.5,189.5C 365.167,192.167 367.833,194.833 370.5,197.5C 379.468,211.79 388.801,225.79 398.5,239.5C 404.797,251.096 410.297,263.096 415,275.5C 416.469,282.991 415.303,289.991 411.5,296.5C 396.269,313.408 378.269,326.408 357.5,335.5C 355.545,334.547 353.878,333.213 352.5,331.5C 349.558,325.683 345.891,320.349 341.5,315.5C 342.754,313.666 343.421,311.666 343.5,309.5C 347.27,308.95 349.937,306.95 351.5,303.5C 352.239,303.631 352.906,303.464 353.5,303C 361.194,295.306 368.86,287.64 376.5,280C 381.59,276.358 387.257,274.192 393.5,273.5C 393.5,272.5 393.5,271.5 393.5,270.5C 389.44,270.485 385.44,270.985 381.5,272C 378.281,273.955 374.947,275.288 371.5,276C 361.671,262.006 350.005,249.84 336.5,239.5C 330.317,226.808 328.15,213.475 330,199.5C 329.71,201.044 329.044,202.377 328,203.5C 327.5,210.826 327.334,218.159 327.5,225.5C 327.664,228.187 327.497,230.854 327,233.5C 324.801,236.157 323.968,238.99 324.5,242C 321.539,251.512 319.205,261.179 317.5,271C 314.907,279.21 312.24,287.377 309.5,295.5C 310.121,297.998 309.455,300.332 307.5,302.5C 302.493,303.895 297.826,305.562 293.5,307.5C 271.64,310.615 249.64,311.115 227.5,309C 222.322,308.472 217.322,307.305 212.5,305.5C 210.239,292.092 205.406,279.759 198,268.5C 191.705,248.007 192.205,227.673 199.5,207.5C 199.167,206.833 198.833,206.167 198.5,205.5C 185,227.512 184,250.179 195.5,273.5C 196.042,277.259 194.708,279.926 191.5,281.5C 190.652,279.907 189.319,278.74 187.5,278C 183.689,276.261 179.689,275.428 175.5,275.5C 175.5,272.833 175.5,270.167 175.5,267.5C 176.354,250.004 178.52,232.671 182,215.5C 184.997,207.997 188.164,200.497 191.5,193C 193.655,190.344 195.989,187.844 198.5,185.5C 202.262,190.507 205.262,195.84 207.5,201.5C 208.978,201.238 210.311,201.571 211.5,202.5C 213.179,204.346 215.012,206.012 217,207.5C 223.186,210.036 229.352,212.536 235.5,215C 265.498,218.766 291.998,211.266 315,192.5C 315.483,191.552 315.649,190.552 315.5,189.5C 316.978,189.762 318.311,189.429 319.5,188.5C 323.822,183.497 327.822,178.164 331.5,172.5C 334.106,171.348 336.773,171.182 339.5,172C 342.779,174.223 346.279,176.057 350,177.5C 353.185,181.198 357.018,183.865 361.5,185.5 Z"/></g>
<g><path style="opacity:1" fill="#311a08" d="M 221.5,194.5 C 224.694,194.176 225.694,195.342 224.5,198C 223.207,198.49 221.873,198.657 220.5,198.5C 220.433,197.041 220.766,195.708 221.5,194.5 Z"/></g>
<g><path style="opacity:1" fill="#251100" d="M 297.5,186.5 C 300.166,186.066 301.333,187.066 301,189.5C 297.403,191.066 296.237,190.066 297.5,186.5 Z"/></g>
<g><path style="opacity:1" fill="#2c1e08" d="M 81.5,173.5 C 79.6265,175.007 77.6265,176.507 75.5,178C 75.9783,179.303 76.645,180.469 77.5,181.5C 75.0339,181.899 73.0339,183.065 71.5,185C 76.939,198.042 82.7723,210.876 89,223.5C 90,222.5 91,221.5 92,220.5C 91.984,211.039 90.8174,201.706 88.5,192.5C 89.1667,189.167 89.8333,185.833 90.5,182.5C 92.4949,193.801 94.4949,205.134 96.5,216.5C 98.8067,216.986 100.973,216.986 103,216.5C 103.499,211.177 103.666,205.844 103.5,200.5C 104.4,204.728 105.4,209.061 106.5,213.5C 107.689,214.429 109.022,214.762 110.5,214.5C 112.787,216.565 115.287,216.898 118,215.5C 119.939,215.954 121.772,216.621 123.5,217.5C 123.734,221.233 125.734,223.066 129.5,223C 131.036,224.96 132.869,226.46 135,227.5C 136.376,227.316 137.209,226.649 137.5,225.5C 138.268,226.263 138.768,227.263 139,228.5C 140.073,224.916 140.74,221.25 141,217.5C 141.498,220.817 141.665,224.15 141.5,227.5C 140.841,231.994 138.175,233.661 133.5,232.5C 132.291,237.213 132.291,241.879 133.5,246.5C 133.44,247.043 133.107,247.376 132.5,247.5C 131.833,245.5 131.167,243.5 130.5,241.5C 129.831,243.631 129.165,245.631 128.5,247.5C 127.844,246.378 127.511,245.045 127.5,243.5C 128.662,238.872 129.162,234.205 129,229.5C 127.981,228.313 126.814,227.313 125.5,226.5C 124.199,228.444 123.199,230.444 122.5,232.5C 121.883,232.611 121.383,232.944 121,233.5C 120.722,232.584 120.222,231.918 119.5,231.5C 120.345,228.174 120.845,224.84 121,221.5C 119.333,220.167 117.667,220.167 116,221.5C 112.429,228.787 110.262,236.454 109.5,244.5C 109.663,246.857 109.497,249.19 109,251.5C 108.29,252.973 107.124,253.64 105.5,253.5C 104.649,248.223 104.816,242.89 106,237.5C 107.357,233.216 108.523,228.882 109.5,224.5C 112.455,221.515 111.955,219.182 108,217.5C 106.97,217.836 106.47,218.503 106.5,219.5C 103.6,222.958 101.433,226.958 100,231.5C 98.9054,236.78 98.4054,242.113 98.5,247.5C 98.9689,250.393 97.9689,252.393 95.5,253.5C 93.4852,242.866 94.8185,232.533 99.5,222.5C 97.1567,221.275 95.3234,221.941 94,224.5C 88.9063,232.799 87.2396,241.799 89,251.5C 89.2794,254.457 90.1127,257.123 91.5,259.5C 91.5,260.167 91.5,260.833 91.5,261.5C 89.6026,259.731 88.436,257.398 88,254.5C 87.6667,250.833 87.3333,247.167 87,243.5C 86.0138,242.829 84.8471,242.829 83.5,243.5C 71.532,231.7 59.3654,220.034 47,208.5C 46.8333,207.5 46.6667,206.5 46.5,205.5C 52.0247,196.581 58.6913,188.414 66.5,181C 70.7223,176.944 75.7223,174.444 81.5,173.5 Z"/></g>
<g><path style="opacity:1" fill="#e0c073" d="M 66.5,187.5 C 68.335,188.122 69.5017,189.456 70,191.5C 75.357,203.192 80.357,214.859 85,226.5C 77.3333,215.833 69.6667,205.167 62,194.5C 61.3333,193.5 61.3333,192.5 62,191.5C 63.6667,190.267 65.1667,188.933 66.5,187.5 Z"/></g>
<g><path style="opacity:1" fill="#e6be6a" d="M 103.5,200.5 C 103.666,205.844 103.499,211.177 103,216.5C 100.973,216.986 98.8067,216.986 96.5,216.5C 94.4949,205.134 92.4949,193.801 90.5,182.5C 90.5,181.167 90.5,179.833 90.5,178.5C 94.7675,178.797 98.9341,178.464 103,177.5C 103.5,185.159 103.666,192.826 103.5,200.5 Z"/></g>
<g><path style="opacity:1" fill="#2c1607" d="M 249.5,200.5 C 249.5,200.833 249.5,201.167 249.5,201.5C 249.5,202.5 249.5,203.5 249.5,204.5C 247.335,204.884 245.668,204.217 244.5,202.5C 245.668,200.783 247.335,200.116 249.5,200.5 Z"/></g>
<g><path style="opacity:1" fill="#e9bd6b" d="M 277.5,197.5 C 275.027,197.088 273.694,198.088 273.5,200.5C 273.5,201.5 273.5,202.5 273.5,203.5C 274.833,203.5 276.167,203.5 277.5,203.5C 277.5,204.5 277.5,205.5 277.5,206.5C 275.958,207.301 274.292,207.634 272.5,207.5C 262.196,208.534 251.862,209.2 241.5,209.5C 240.833,209.5 240.167,209.5 239.5,209.5C 241.265,208.539 243.265,208.205 245.5,208.5C 245.5,207.5 245.5,206.5 245.5,205.5C 247.5,205.5 249.5,205.5 251.5,205.5C 251.843,203.517 251.176,202.183 249.5,201.5C 249.5,201.167 249.5,200.833 249.5,200.5C 249.5,199.5 249.5,198.5 249.5,197.5C 257.568,197.156 265.568,196.156 273.5,194.5C 276.385,193.746 278.385,192.08 279.5,189.5C 279.833,189.5 280.167,189.5 280.5,189.5C 284.744,188.357 289.077,187.69 293.5,187.5C 293.201,189.604 293.534,191.604 294.5,193.5C 295.167,192.833 295.833,192.167 296.5,191.5C 297.833,192.833 297.833,194.167 296.5,195.5C 293.702,196.953 290.702,197.953 287.5,198.5C 288.167,199.167 288.833,199.833 289.5,200.5C 286.914,201.48 284.247,201.813 281.5,201.5C 281.5,200.167 281.5,198.833 281.5,197.5C 280.167,197.5 278.833,197.5 277.5,197.5 Z"/></g>
<g><path style="opacity:1" fill="#2d1503" d="M 277.5,197.5 C 278.234,198.708 278.567,200.041 278.5,201.5C 276.708,201.634 275.042,201.301 273.5,200.5C 273.694,198.088 275.027,197.088 277.5,197.5 Z"/></g>
<g><path style="opacity:1" fill="#e4c173" d="M 137.5,215.5 C 137.5,208.167 137.5,200.833 137.5,193.5C 135.334,193.421 133.334,192.754 131.5,191.5C 130.328,191.919 129.328,192.585 128.5,193.5C 127.534,191.604 127.201,189.604 127.5,187.5C 132.694,187.058 132.694,186.058 127.5,184.5C 128.025,183.808 128.692,183.308 129.5,183C 122.906,181.508 116.24,180.342 109.5,179.5C 109.5,190.167 109.5,200.833 109.5,211.5C 113.629,211.874 117.629,212.874 121.5,214.5C 122.612,215.265 123.279,216.265 123.5,217.5C 121.772,216.621 119.939,215.954 118,215.5C 115.287,216.898 112.787,216.565 110.5,214.5C 109.791,213.596 108.791,213.263 107.5,213.5C 107.5,201.833 107.5,190.167 107.5,178.5C 118.185,179.336 128.852,180.336 139.5,181.5C 139.239,193.011 138.573,204.344 137.5,215.5 Z"/></g>
<g><path style="opacity:1" fill="#d5b983" d="M 272.5,207.5 C 262.29,210.406 251.956,211.072 241.5,209.5C 251.862,209.2 262.196,208.534 272.5,207.5 Z"/></g>
<g><path style="opacity:1" fill="#e6c271" d="M 57.5,197.5 C 59.0174,197.511 60.1841,198.177 61,199.5C 68.6132,210.78 76.6132,221.78 85,232.5C 85.3247,234.553 84.9913,236.553 84,238.5C 73.3333,228.167 62.6667,217.833 52,207.5C 51.3333,206.167 51.3333,204.833 52,203.5C 54.0396,201.63 55.8729,199.63 57.5,197.5 Z"/></g>
<g><path style="opacity:1" fill="#c4a368" d="M 109.5,224.5 C 109.5,222.833 109.5,221.167 109.5,219.5C 108.5,219.5 107.5,219.5 106.5,219.5C 106.47,218.503 106.97,217.836 108,217.5C 111.955,219.182 112.455,221.515 109.5,224.5 Z"/></g>
<g><path style="opacity:1" fill="#e0a258" d="M 106.5,219.5 C 107.5,219.5 108.5,219.5 109.5,219.5C 109.5,221.167 109.5,222.833 109.5,224.5C 108.523,228.882 107.357,233.216 106,237.5C 104.816,242.89 104.649,248.223 105.5,253.5C 103.905,251.889 102.739,249.889 102,247.5C 101.08,237.157 99.913,237.157 98.5,247.5C 98.4054,242.113 98.9054,236.78 100,231.5C 101.433,226.958 103.6,222.958 106.5,219.5 Z"/></g>
<g><path style="opacity:1" fill="#dca25a" d="M 119.5,231.5 C 116.633,238.57 115.966,245.903 117.5,253.5C 115.964,251.975 114.964,249.975 114.5,247.5C 113.833,244.167 113.167,240.833 112.5,237.5C 111.682,240.107 111.182,242.774 111,245.5C 110.617,244.944 110.117,244.611 109.5,244.5C 110.262,236.454 112.429,228.787 116,221.5C 117.667,220.167 119.333,220.167 121,221.5C 120.845,224.84 120.345,228.174 119.5,231.5 Z"/></g>
<g><path style="opacity:1" fill="#602403" d="M 327.5,225.5 C 328.987,228.546 329.987,231.879 330.5,235.5C 333.164,239.497 334.83,243.831 335.5,248.5C 332.174,261.482 328.841,274.482 325.5,287.5C 323.679,291.81 322.346,296.477 321.5,301.5C 317.916,301.975 314.583,302.975 311.5,304.5C 305.5,305.5 299.5,306.5 293.5,307.5C 297.826,305.562 302.493,303.895 307.5,302.5C 309.455,300.332 310.121,297.998 309.5,295.5C 312.24,287.377 314.907,279.21 317.5,271C 319.205,261.179 321.539,251.512 324.5,242C 323.968,238.99 324.801,236.157 327,233.5C 327.497,230.854 327.664,228.187 327.5,225.5 Z"/></g>
<g><path style="opacity:1" fill="#dca459" d="M 95.5,253.5 C 95.9175,254.222 96.5842,254.722 97.5,255C 95.5273,255.495 93.5273,255.662 91.5,255.5C 91.5,256.833 91.5,258.167 91.5,259.5C 90.1127,257.123 89.2794,254.457 89,251.5C 87.2396,241.799 88.9063,232.799 94,224.5C 95.3234,221.941 97.1567,221.275 99.5,222.5C 94.8185,232.533 93.4852,242.866 95.5,253.5 Z"/></g>
<g><path style="opacity:1" fill="#442512" d="M 119.5,231.5 C 120.222,231.918 120.722,232.584 121,233.5C 121.383,232.944 121.883,232.611 122.5,232.5C 121.793,238.8 121.293,245.133 121,251.5C 120.184,252.823 119.017,253.489 117.5,253.5C 115.966,245.903 116.633,238.57 119.5,231.5 Z"/></g>
<g><path style="opacity:1" fill="#301d03" d="M 351.5,303.5 C 354.754,299.24 358.421,295.24 362.5,291.5C 363.782,290.042 363.782,288.708 362.5,287.5C 364.127,285.37 365.96,283.37 368,281.5C 368.667,280.833 368.667,280.167 368,279.5C 360.429,268.759 351.596,259.092 341.5,250.5C 337.191,263.734 333.191,277.067 329.5,290.5C 328.076,292.515 327.41,294.848 327.5,297.5C 326.434,295.171 326.434,292.671 327.5,290C 327.316,288.624 326.649,287.791 325.5,287.5C 328.841,274.482 332.174,261.482 335.5,248.5C 334.83,243.831 333.164,239.497 330.5,235.5C 329.987,231.879 328.987,228.546 327.5,225.5C 327.334,218.159 327.5,210.826 328,203.5C 329.044,202.377 329.71,201.044 330,199.5C 328.15,213.475 330.317,226.808 336.5,239.5C 350.005,249.84 361.671,262.006 371.5,276C 374.947,275.288 378.281,273.955 381.5,272C 385.44,270.985 389.44,270.485 393.5,270.5C 393.5,271.5 393.5,272.5 393.5,273.5C 387.257,274.192 381.59,276.358 376.5,280C 368.86,287.64 361.194,295.306 353.5,303C 352.906,303.464 352.239,303.631 351.5,303.5 Z"/></g>
<g><path style="opacity:1" fill="#e29d4a" d="M 128.5,247.5 C 133.426,250.921 137.926,254.921 142,259.5C 145.209,269.924 141.709,277.424 131.5,282C 129.179,282.837 126.845,283.17 124.5,283C 122.129,280.294 119.463,277.961 116.5,276C 107.812,271.66 99.4784,266.827 91.5,261.5C 91.5,260.833 91.5,260.167 91.5,259.5C 91.5,258.167 91.5,256.833 91.5,255.5C 93.5273,255.662 95.5273,255.495 97.5,255C 96.5842,254.722 95.9175,254.222 95.5,253.5C 97.9689,252.393 98.9689,250.393 98.5,247.5C 99.913,237.157 101.08,237.157 102,247.5C 102.739,249.889 103.905,251.889 105.5,253.5C 107.124,253.64 108.29,252.973 109,251.5C 109.497,249.19 109.663,246.857 109.5,244.5C 110.117,244.611 110.617,244.944 111,245.5C 111.182,242.774 111.682,240.107 112.5,237.5C 113.167,240.833 113.833,244.167 114.5,247.5C 114.964,249.975 115.964,251.975 117.5,253.5C 119.017,253.489 120.184,252.823 121,251.5C 121.293,245.133 121.793,238.8 122.5,232.5C 123.199,230.444 124.199,228.444 125.5,226.5C 126.814,227.313 127.981,228.313 129,229.5C 129.162,234.205 128.662,238.872 127.5,243.5C 127.511,245.045 127.844,246.378 128.5,247.5 Z"/></g>
<g><path style="opacity:1" fill="#f8d898" d="M 362.5,287.5 C 360.167,289.5 357.833,291.5 355.5,293.5C 354.022,293.238 352.689,293.571 351.5,294.5C 346.759,299.912 341.426,304.579 335.5,308.5C 333.604,309.466 331.604,309.799 329.5,309.5C 329.5,303.167 329.5,296.833 329.5,290.5C 333.191,277.067 337.191,263.734 341.5,250.5C 351.596,259.092 360.429,268.759 368,279.5C 368.667,280.167 368.667,280.833 368,281.5C 365.96,283.37 364.127,285.37 362.5,287.5 Z"/></g>
<g><path style="opacity:1" fill="#312306" d="M 133.5,246.5 C 142.203,249.73 147.536,255.897 149.5,265C 156.317,268.995 162.984,273.162 169.5,277.5C 168.082,279.308 166.082,279.975 163.5,279.5C 158.754,276.709 153.92,274.043 149,271.5C 145.911,276.593 142.078,281.093 137.5,285C 133.926,285.469 130.592,286.636 127.5,288.5C 131.41,295.085 135.743,301.418 140.5,307.5C 146.167,313.167 151.833,318.833 157.5,324.5C 161.901,327.367 166.568,329.7 171.5,331.5C 173.743,332.812 176.41,333.478 179.5,333.5C 182.956,333.32 186.289,332.653 189.5,331.5C 190.584,331.685 191.584,332.018 192.5,332.5C 184.021,337.947 175.021,338.781 165.5,335C 153.815,328.481 143.815,319.981 135.5,309.5C 129.795,301.939 124.628,293.939 120,285.5C 115.123,281.119 109.623,277.786 103.5,275.5C 99.2317,272.691 94.8984,269.857 90.5,267C 85.364,260.05 83.0306,252.217 83.5,243.5C 84.8471,242.829 86.0138,242.829 87,243.5C 87.3333,247.167 87.6667,250.833 88,254.5C 88.436,257.398 89.6026,259.731 91.5,261.5C 99.4784,266.827 107.812,271.66 116.5,276C 119.463,277.961 122.129,280.294 124.5,283C 126.845,283.17 129.179,282.837 131.5,282C 141.709,277.424 145.209,269.924 142,259.5C 137.926,254.921 133.426,250.921 128.5,247.5C 129.165,245.631 129.831,243.631 130.5,241.5C 131.167,243.5 131.833,245.5 132.5,247.5C 133.107,247.376 133.44,247.043 133.5,246.5 Z"/></g>
<g><path style="opacity:1" fill="#361e02" d="M 175.5,267.5 C 175.5,270.167 175.5,272.833 175.5,275.5C 179.689,275.428 183.689,276.261 187.5,278C 189.319,278.74 190.652,279.907 191.5,281.5C 193.054,282.914 194.388,284.581 195.5,286.5C 194.311,287.429 192.978,287.762 191.5,287.5C 191.548,284.708 190.215,282.875 187.5,282C 184.02,281.699 180.687,280.865 177.5,279.5C 175.893,279.637 174.559,280.304 173.5,281.5C 179.848,286.182 185.181,291.849 189.5,298.5C 189.167,298.833 188.833,299.167 188.5,299.5C 180.369,292.346 172.035,285.679 163.5,279.5C 166.082,279.975 168.082,279.308 169.5,277.5C 169.508,274.455 169.841,271.455 170.5,268.5C 171.163,270.042 171.83,271.709 172.5,273.5C 172.964,271.025 173.964,269.025 175.5,267.5 Z"/></g>
<g><path style="opacity:1" fill="#f0d5a1" d="M 103.5,275.5 C 109.623,277.786 115.123,281.119 120,285.5C 124.628,293.939 129.795,301.939 135.5,309.5C 132.912,307.92 130.578,305.92 128.5,303.5C 125.062,299.335 122.062,294.335 119.5,288.5C 116.612,288.78 115.112,287.447 115,284.5C 114.667,284.833 114.333,285.167 114,285.5C 110.68,281.797 107.18,278.464 103.5,275.5 Z"/></g>
<g><path style="opacity:1" fill="#efd7a3" d="M 417.5,267.5 C 418.735,267.721 419.735,268.388 420.5,269.5C 424.5,279.5 424.5,289.5 420.5,299.5C 414.24,303.756 408.573,308.756 403.5,314.5C 402.311,315.429 400.978,315.762 399.5,315.5C 407.607,309.224 414.107,301.557 419,292.5C 421.248,283.978 420.748,275.645 417.5,267.5 Z"/></g>
<g><path style="opacity:1" fill="#742d05" d="M 163.5,279.5 C 172.035,285.679 180.369,292.346 188.5,299.5C 188.833,299.167 189.167,298.833 189.5,298.5C 185.181,291.849 179.848,286.182 173.5,281.5C 174.559,280.304 175.893,279.637 177.5,279.5C 180.687,280.865 184.02,281.699 187.5,282C 190.215,282.875 191.548,284.708 191.5,287.5C 191.118,291.976 192.285,295.976 195,299.5C 195.333,298.833 195.667,298.167 196,297.5C 196.217,300.488 197.217,303.155 199,305.5C 199.667,307.5 199.667,309.5 199,311.5C 197.191,314.041 196.691,316.708 197.5,319.5C 195.745,325.09 192.079,328.923 186.5,331C 181.511,331.499 176.511,331.666 171.5,331.5C 166.568,329.7 161.901,327.367 157.5,324.5C 151.833,318.833 146.167,313.167 140.5,307.5C 135.743,301.418 131.41,295.085 127.5,288.5C 130.592,286.636 133.926,285.469 137.5,285C 142.078,281.093 145.911,276.593 149,271.5C 153.92,274.043 158.754,276.709 163.5,279.5 Z"/></g>
<g><path style="opacity:1" fill="#5d2504" d="M 195.5,273.5 C 202.183,283.054 205.349,293.721 205,305.5C 202.691,308.424 201.358,311.757 201,315.5C 200.502,317.544 199.335,318.878 197.5,319.5C 196.691,316.708 197.191,314.041 199,311.5C 199.667,309.5 199.667,307.5 199,305.5C 197.217,303.155 196.217,300.488 196,297.5C 195.667,298.167 195.333,298.833 195,299.5C 192.285,295.976 191.118,291.976 191.5,287.5C 192.978,287.762 194.311,287.429 195.5,286.5C 194.388,284.581 193.054,282.914 191.5,281.5C 194.708,279.926 196.042,277.259 195.5,273.5 Z"/></g>
<g><path style="opacity:1" fill="#53360a" d="M 321.5,313.5 C 312.827,313.334 304.16,313.5 295.5,314C 292.833,315 290.167,316 287.5,317C 282.537,321.142 277.204,324.642 271.5,327.5C 258.956,327.879 246.622,327.212 234.5,325.5C 247.517,325.832 260.517,325.499 273.5,324.5C 274.833,323.167 276.167,321.833 277.5,320.5C 270.833,319.833 264.167,319.167 257.5,318.5C 256.833,317.833 256.167,317.167 255.5,316.5C 240.808,315.665 226.141,314.665 211.5,313.5C 211.5,315.5 211.5,317.5 211.5,319.5C 210.414,319.38 209.747,318.713 209.5,317.5C 210,315.5 210.5,313.5 211,311.5C 211.725,310.941 212.558,310.608 213.5,310.5C 233.33,314.277 253.33,315.443 273.5,314C 285.189,312.444 296.856,310.944 308.5,309.5C 313.025,307.559 317.692,307.225 322.5,308.5C 324.173,310.761 323.84,312.428 321.5,313.5 Z"/></g>
<g><path style="opacity:1" fill="#593406" d="M 234.5,325.5 C 226.268,325.193 218.602,323.193 211.5,319.5C 211.5,317.5 211.5,315.5 211.5,313.5C 226.141,314.665 240.808,315.665 255.5,316.5C 256.167,317.167 256.833,317.833 257.5,318.5C 264.167,319.167 270.833,319.833 277.5,320.5C 276.167,321.833 274.833,323.167 273.5,324.5C 260.517,325.499 247.517,325.832 234.5,325.5 Z"/></g>
<g><path style="opacity:1" fill="#e19744" d="M 327.5,319.5 C 330.85,319.335 334.183,319.502 337.5,320C 342.083,323.912 345.917,328.412 349,333.5C 349.495,335.473 349.662,337.473 349.5,339.5C 344.277,345.445 337.611,348.778 329.5,349.5C 324.125,349.828 318.792,349.495 313.5,348.5C 314.612,347.735 315.279,346.735 315.5,345.5C 315.5,344.5 315.5,343.5 315.5,342.5C 311.327,342.877 307.327,343.877 303.5,345.5C 296.338,345.387 296.005,344.387 302.5,342.5C 304.039,340.592 305.706,338.925 307.5,337.5C 308.209,336.596 309.209,336.263 310.5,336.5C 310.5,335.5 310.5,334.5 310.5,333.5C 306.767,333.87 303.101,334.537 299.5,335.5C 297.396,335.799 295.396,335.466 293.5,334.5C 295.409,332.92 297.075,331.253 298.5,329.5C 300.588,328.061 302.921,327.394 305.5,327.5C 305.5,326.167 305.5,324.833 305.5,323.5C 304.167,323.5 302.833,323.5 301.5,323.5C 298.753,323.813 296.086,323.48 293.5,322.5C 294.391,321.41 295.391,321.41 296.5,322.5C 297.386,321.675 297.719,320.675 297.5,319.5C 307.5,319.5 317.5,319.5 327.5,319.5 Z"/></g>
<g><path style="opacity:1" fill="#d7994e" d="M 319.5,317.5 C 322.167,318.167 324.833,318.833 327.5,319.5C 317.5,319.5 307.5,319.5 297.5,319.5C 297.719,320.675 297.386,321.675 296.5,322.5C 295.391,321.41 294.391,321.41 293.5,322.5C 296.086,323.48 298.753,323.813 301.5,323.5C 296.137,325.678 290.804,328.178 285.5,331C 280.979,335.022 276.312,338.856 271.5,342.5C 270.28,342.113 269.613,341.28 269.5,340C 276.157,328.317 286.157,320.984 299.5,318C 306.158,317.5 312.825,317.334 319.5,317.5 Z"/></g>
<g><path style="opacity:1" fill="#ecd6a8" d="M 399.5,315.5 C 399.672,317.492 399.005,319.158 397.5,320.5C 388.485,326.007 379.818,332.007 371.5,338.5C 367.243,339.81 363.243,341.477 359.5,343.5C 359.5,345.5 359.5,347.5 359.5,349.5C 357.821,348 356.488,346.167 355.5,344C 371.047,335.735 385.713,326.235 399.5,315.5 Z"/></g>
<g><path style="opacity:1" fill="#351f04" d="M 321.5,313.5 C 320.833,314.833 320.167,316.167 319.5,317.5C 312.825,317.334 306.158,317.5 299.5,318C 286.157,320.984 276.157,328.317 269.5,340C 269.613,341.28 270.28,342.113 271.5,342.5C 276.312,338.856 280.979,335.022 285.5,331C 290.804,328.178 296.137,325.678 301.5,323.5C 302.833,323.5 304.167,323.5 305.5,323.5C 305.5,324.833 305.5,326.167 305.5,327.5C 302.921,327.394 300.588,328.061 298.5,329.5C 289.847,332.59 282.347,337.59 276,344.5C 274.924,346.067 274.091,347.734 273.5,349.5C 274.457,352.15 276.124,352.817 278.5,351.5C 284.974,345.344 291.974,340.011 299.5,335.5C 303.101,334.537 306.767,333.87 310.5,333.5C 310.5,334.5 310.5,335.5 310.5,336.5C 309.209,336.263 308.209,336.596 307.5,337.5C 297.703,340.655 289.203,345.988 282,353.5C 281.51,354.793 281.343,356.127 281.5,357.5C 284.32,357.752 286.986,357.252 289.5,356C 293.785,351.867 298.452,348.367 303.5,345.5C 307.327,343.877 311.327,342.877 315.5,342.5C 315.5,343.5 315.5,344.5 315.5,345.5C 306.453,348.027 298.453,352.527 291.5,359C 292.997,361.207 294.997,361.874 297.5,361C 302.691,357.236 308.358,354.236 314.5,352C 319.788,351.988 324.788,351.155 329.5,349.5C 337.611,348.778 344.277,345.445 349.5,339.5C 350.222,339.082 350.722,338.416 351,337.5C 351.526,341.599 352.359,345.599 353.5,349.5C 352.141,348.993 351.141,347.993 350.5,346.5C 345.771,349.065 340.938,351.399 336,353.5C 335.338,359.172 337.171,363.839 341.5,367.5C 343.01,371.364 344.343,375.364 345.5,379.5C 345.167,380.167 344.833,380.833 344.5,381.5C 341.467,374.038 338.133,366.705 334.5,359.5C 333.859,358.518 333.193,357.518 332.5,356.5C 321.081,354.396 310.748,356.729 301.5,363.5C 297.742,365.183 293.742,365.849 289.5,365.5C 289.5,364.167 289.5,362.833 289.5,361.5C 286.102,361.82 282.768,361.487 279.5,360.5C 277.995,359.158 277.328,357.492 277.5,355.5C 271.201,355.911 268.368,352.911 269,346.5C 268,345.5 267,344.5 266,343.5C 265.563,339.377 266.063,335.377 267.5,331.5C 268.833,331.5 270.167,331.5 271.5,331.5C 271.5,330.167 271.5,328.833 271.5,327.5C 277.204,324.642 282.537,321.142 287.5,317C 290.167,316 292.833,315 295.5,314C 304.16,313.5 312.827,313.334 321.5,313.5 Z"/></g>
<g><path style="opacity:1" fill="#d39752" d="M 298.5,329.5 C 297.075,331.253 295.409,332.92 293.5,334.5C 295.396,335.466 297.396,335.799 299.5,335.5C 291.974,340.011 284.974,345.344 278.5,351.5C 276.124,352.817 274.457,352.15 273.5,349.5C 274.091,347.734 274.924,346.067 276,344.5C 282.347,337.59 289.847,332.59 298.5,329.5 Z"/></g>
<g><path style="opacity:1" fill="#d39851" d="M 307.5,337.5 C 305.706,338.925 304.039,340.592 302.5,342.5C 296.005,344.387 296.338,345.387 303.5,345.5C 298.452,348.367 293.785,351.867 289.5,356C 286.986,357.252 284.32,357.752 281.5,357.5C 281.343,356.127 281.51,354.793 282,353.5C 289.203,345.988 297.703,340.655 307.5,337.5 Z"/></g>
<g><path style="opacity:1" fill="#d1934d" d="M 315.5,345.5 C 315.279,346.735 314.612,347.735 313.5,348.5C 318.792,349.495 324.125,349.828 329.5,349.5C 324.788,351.155 319.788,351.988 314.5,352C 308.358,354.236 302.691,357.236 297.5,361C 294.997,361.874 292.997,361.207 291.5,359C 298.453,352.527 306.453,348.027 315.5,345.5 Z"/></g>
<g><path style="opacity:1" fill="#311f02" d="M 293.5,307.5 C 299.5,306.5 305.5,305.5 311.5,304.5C 310.047,305.849 309.047,307.515 308.5,309.5C 296.856,310.944 285.189,312.444 273.5,314C 253.33,315.443 233.33,314.277 213.5,310.5C 212.558,310.608 211.725,310.941 211,311.5C 210.5,313.5 210,315.5 209.5,317.5C 209.747,318.713 210.414,319.38 211.5,319.5C 218.602,323.193 226.268,325.193 234.5,325.5C 246.622,327.212 258.956,327.879 271.5,327.5C 271.5,328.833 271.5,330.167 271.5,331.5C 270.167,331.5 268.833,331.5 267.5,331.5C 262.833,331.5 258.167,331.5 253.5,331.5C 256.01,346.22 259.177,360.886 263,375.5C 264.244,386.957 266.077,398.29 268.5,409.5C 270.811,430.796 272.644,452.129 274,473.5C 274.333,472.167 274.667,470.833 275,469.5C 275.5,476.158 275.666,482.825 275.5,489.5C 274.778,489.918 274.278,490.584 274,491.5C 273.899,488.3 273.232,485.3 272,482.5C 271.517,483.448 271.351,484.448 271.5,485.5C 268.354,451.575 264.52,417.575 260,383.5C 257.165,365.821 252.998,348.487 247.5,331.5C 246.914,331.709 246.414,332.043 246,332.5C 232.086,360.583 222.752,390.25 218,421.5C 215.092,440.43 212.759,459.43 211,478.5C 208.503,512.468 206.669,546.468 205.5,580.5C 204.883,580.389 204.383,580.056 204,579.5C 203.667,584.833 203.333,590.167 203,595.5C 202.826,590.649 202.326,585.982 201.5,581.5C 201.5,578.833 201.5,576.167 201.5,573.5C 201.5,561.5 201.5,549.5 201.5,537.5C 202.222,537.082 202.722,536.416 203,535.5C 203.819,486.235 209.486,437.568 220,389.5C 223.755,378.975 227.089,368.308 230,357.5C 233.365,348.437 237.532,339.77 242.5,331.5C 234.192,329.98 225.858,328.646 217.5,327.5C 216.833,327.5 216.167,327.5 215.5,327.5C 212.757,325.142 209.423,323.809 205.5,323.5C 205.5,324.833 205.5,326.167 205.5,327.5C 204.167,327.5 202.833,327.5 201.5,327.5C 201.799,329.604 201.466,331.604 200.5,333.5C 195.752,339.026 192.085,345.026 189.5,351.5C 188.167,351.5 186.833,351.5 185.5,351.5C 185.762,352.978 185.429,354.311 184.5,355.5C 183.702,355.043 183.369,354.376 183.5,353.5C 186.335,345.661 190.335,338.495 195.5,332C 194.423,331.53 193.423,331.697 192.5,332.5C 191.584,332.018 190.584,331.685 189.5,331.5C 186.289,332.653 182.956,333.32 179.5,333.5C 176.41,333.478 173.743,332.812 171.5,331.5C 176.511,331.666 181.511,331.499 186.5,331C 192.079,328.923 195.745,325.09 197.5,319.5C 199.335,318.878 200.502,317.544 201,315.5C 201.358,311.757 202.691,308.424 205,305.5C 205.349,293.721 202.183,283.054 195.5,273.5C 184,250.179 185,227.512 198.5,205.5C 198.833,206.167 199.167,206.833 199.5,207.5C 192.205,227.673 191.705,248.007 198,268.5C 205.406,279.759 210.239,292.092 212.5,305.5C 217.322,307.305 222.322,308.472 227.5,309C 249.64,311.115 271.64,310.615 293.5,307.5 Z"/></g>
<g><path style="opacity:1" fill="#5f2905" d="M 334.5,359.5 C 328.575,359.808 322.741,359.475 317,358.5C 314.904,359.715 315.071,360.549 317.5,361C 312.113,361.645 306.78,362.478 301.5,363.5C 310.748,356.729 321.081,354.396 332.5,356.5C 333.193,357.518 333.859,358.518 334.5,359.5 Z"/></g>
<g><path style="opacity:1" fill="#742a03" d="M 267.5,331.5 C 266.063,335.377 265.563,339.377 266,343.5C 267,344.5 268,345.5 269,346.5C 268.368,352.911 271.201,355.911 277.5,355.5C 277.328,357.492 277.995,359.158 279.5,360.5C 282.768,361.487 286.102,361.82 289.5,361.5C 289.5,362.833 289.5,364.167 289.5,365.5C 293.742,365.849 297.742,365.183 301.5,363.5C 306.78,362.478 312.113,361.645 317.5,361C 315.071,360.549 314.904,359.715 317,358.5C 322.741,359.475 328.575,359.808 334.5,359.5C 338.133,366.705 341.467,374.038 344.5,381.5C 344.833,380.833 345.167,380.167 345.5,379.5C 344.343,375.364 343.01,371.364 341.5,367.5C 341.34,365.801 341.506,364.134 342,362.5C 343.333,363.833 344.667,365.167 346,366.5C 350.162,373.488 354.328,380.488 358.5,387.5C 362.517,396.738 366.017,406.071 369,415.5C 374.821,438.767 380.154,462.1 385,485.5C 389.585,524.483 395.418,562.483 402.5,599.5C 405,623.093 407.667,646.427 410.5,669.5C 409.18,670.942 407.514,671.608 405.5,671.5C 407.573,667.025 407.907,662.358 406.5,657.5C 404.395,655.657 403.228,653.324 403,650.5C 402.64,652.421 401.806,654.088 400.5,655.5C 399.353,653.235 399.186,650.902 400,648.5C 401.049,649.517 402.216,649.684 403.5,649C 402.437,647.812 401.103,647.312 399.5,647.5C 399.196,643.785 399.863,640.285 401.5,637C 401.355,631.515 401.022,625.682 400.5,619.5C 399.875,626.007 399.542,632.673 399.5,639.5C 396.833,639.5 394.167,639.5 391.5,639.5C 391.5,636.833 391.5,634.167 391.5,631.5C 378.167,631.5 364.833,631.5 351.5,631.5C 351.5,628.833 351.5,626.167 351.5,623.5C 356.833,623.5 362.167,623.5 367.5,623.5C 367.5,620.833 367.5,618.167 367.5,615.5C 367.5,612.833 367.5,610.167 367.5,607.5C 356.833,607.5 346.167,607.5 335.5,607.5C 335.5,602.167 335.5,596.833 335.5,591.5C 346.187,591.832 356.854,591.499 367.5,590.5C 362.208,589.505 356.875,589.172 351.5,589.5C 351.366,585.698 352.033,582.032 353.5,578.5C 351.514,571.647 350.514,564.647 350.5,557.5C 356.206,557.829 361.872,557.495 367.5,556.5C 362.208,555.505 356.875,555.172 351.5,555.5C 351.5,552.833 351.5,550.167 351.5,547.5C 354.167,547.5 356.833,547.5 359.5,547.5C 359.5,548.833 359.5,550.167 359.5,551.5C 360.833,551.5 362.167,551.5 363.5,551.5C 363.521,548.465 364.854,546.132 367.5,544.5C 356.854,543.501 346.187,543.168 335.5,543.5C 335.5,538.167 335.5,532.833 335.5,527.5C 330.167,527.5 324.833,527.5 319.5,527.5C 319.5,532.833 319.5,538.167 319.5,543.5C 308.833,543.5 298.167,543.5 287.5,543.5C 287.345,549.662 287.345,555.662 287.5,561.5C 287.333,562.167 287.167,562.833 287,563.5C 285.736,563.36 284.569,563.36 283.5,563.5C 284.706,565.149 286.039,566.649 287.5,568C 286.833,568.333 286.167,568.667 285.5,569C 287.487,571.47 287.987,574.303 287,577.5C 286.29,576.027 285.124,575.36 283.5,575.5C 281.421,564.92 281.088,554.254 282.5,543.5C 283.281,544.729 283.781,546.062 284,547.5C 286,545.833 286,544.167 284,542.5C 283.501,538.848 283.335,535.182 283.5,531.5C 282.167,531.5 280.833,531.5 279.5,531.5C 279.832,522.143 279.498,512.81 278.5,503.5C 278.08,500.384 277.08,497.717 275.5,495.5C 275.5,493.5 275.5,491.5 275.5,489.5C 275.666,482.825 275.5,476.158 275,469.5C 274.667,470.833 274.333,472.167 274,473.5C 272.644,452.129 270.811,430.796 268.5,409.5C 266.077,398.29 264.244,386.957 263,375.5C 259.177,360.886 256.01,346.22 253.5,331.5C 258.167,331.5 262.833,331.5 267.5,331.5 Z"/></g>
<g><path style="opacity:1" fill="#752b05" d="M 215.5,327.5 C 213.202,330.023 210.868,332.689 208.5,335.5C 206.634,340.906 204.467,346.24 202,351.5C 201.333,352.833 201.333,354.167 202,355.5C 206.417,345.657 211.584,336.324 217.5,327.5C 225.858,328.646 234.192,329.98 242.5,331.5C 237.532,339.77 233.365,348.437 230,357.5C 227.089,368.308 223.755,378.975 220,389.5C 209.486,437.568 203.819,486.235 203,535.5C 202.722,536.416 202.222,537.082 201.5,537.5C 201.832,527.81 201.498,518.144 200.5,508.5C 199.719,509.729 199.219,511.062 199,512.5C 197.989,511.663 196.822,511.33 195.5,511.5C 195.762,510.022 195.429,508.689 194.5,507.5C 193.859,509.296 192.859,510.796 191.5,512C 193.957,513.512 193.957,514.846 191.5,516C 194.167,516.667 194.167,517.333 191.5,518C 192.167,518.333 192.833,518.667 193.5,519C 191.808,520.401 191.141,522.234 191.5,524.5C 186.167,524.5 180.833,524.5 175.5,524.5C 175.5,525.5 175.5,526.5 175.5,527.5C 170.167,527.5 164.833,527.5 159.5,527.5C 159.5,523.5 159.5,519.5 159.5,515.5C 158.127,515.343 156.793,515.51 155.5,516C 157.662,518.522 157.995,521.355 156.5,524.5C 154.297,521.891 153.297,518.891 153.5,515.5C 152.022,515.762 150.689,515.429 149.5,514.5C 149.058,513.261 148.391,512.261 147.5,511.5C 152.757,464.287 163.257,418.287 179,373.5C 182.257,365.988 185.757,358.655 189.5,351.5C 192.085,345.026 195.752,339.026 200.5,333.5C 201.466,331.604 201.799,329.604 201.5,327.5C 202.833,327.5 204.167,327.5 205.5,327.5C 205.5,326.167 205.5,324.833 205.5,323.5C 209.423,323.809 212.757,325.142 215.5,327.5 Z"/></g>
<g><path style="opacity:1" fill="#441d02" d="M 215.5,327.5 C 216.167,327.5 216.833,327.5 217.5,327.5C 211.584,336.324 206.417,345.657 202,355.5C 201.333,354.167 201.333,352.833 202,351.5C 204.467,346.24 206.634,340.906 208.5,335.5C 210.868,332.689 213.202,330.023 215.5,327.5 Z"/></g>
<g><path style="opacity:1" fill="#efd5a0" d="M 159.5,415.5 C 154.385,438.881 149.719,462.215 145.5,485.5C 146.013,480.915 145.346,476.582 143.5,472.5C 144.628,471.738 145.795,471.071 147,470.5C 148.379,458.768 150.213,447.102 152.5,435.5C 154.473,428.493 156.806,421.826 159.5,415.5 Z"/></g>
<g><path style="opacity:1" fill="#302207" d="M 364.5,177.5 C 364.185,179.226 364.019,180.893 364,182.5C 385.858,208.197 403.691,236.53 417.5,267.5C 420.748,275.645 421.248,283.978 419,292.5C 414.107,301.557 407.607,309.224 399.5,315.5C 385.713,326.235 371.047,335.735 355.5,344C 356.488,346.167 357.821,348 359.5,349.5C 371.983,374.109 381.816,399.776 389,426.5C 400.309,473.542 409.476,520.876 416.5,568.5C 419.854,594.681 423.52,620.681 427.5,646.5C 428.002,651.838 428.169,657.172 428,662.5C 426.939,665.562 425.106,668.062 422.5,670C 405.652,679.45 387.652,685.616 368.5,688.5C 361.676,688.963 354.676,688.963 347.5,688.5C 356.426,686.743 365.426,685.577 374.5,685C 374.799,683.927 374.799,682.76 374.5,681.5C 380.879,680.155 387.212,678.655 393.5,677C 397.894,675.969 401.894,674.136 405.5,671.5C 407.514,671.608 409.18,670.942 410.5,669.5C 412.288,669.785 413.955,669.452 415.5,668.5C 417.647,666.263 419.98,664.263 422.5,662.5C 422.833,660.333 423.167,658.167 423.5,656C 416.201,606.446 408.701,555.613 401,503.5C 394.763,474.086 388.097,444.752 381,415.5C 373.713,392.607 364.546,370.607 353.5,349.5C 352.359,345.599 351.526,341.599 351,337.5C 350.722,338.416 350.222,339.082 349.5,339.5C 349.662,337.473 349.495,335.473 349,333.5C 345.917,328.412 342.083,323.912 337.5,320C 334.183,319.502 330.85,319.335 327.5,319.5C 324.833,318.833 322.167,318.167 319.5,317.5C 320.167,316.167 320.833,314.833 321.5,313.5C 323.84,312.428 324.173,310.761 322.5,308.5C 317.692,307.225 313.025,307.559 308.5,309.5C 309.047,307.515 310.047,305.849 311.5,304.5C 314.583,302.975 317.916,301.975 321.5,301.5C 322.346,296.477 323.679,291.81 325.5,287.5C 326.649,287.791 327.316,288.624 327.5,290C 326.434,292.671 326.434,295.171 327.5,297.5C 325.94,302.687 326.44,307.687 329,312.5C 330,313.167 331,313.833 332,314.5C 340.326,308.005 348.159,301.005 355.5,293.5C 357.833,291.5 360.167,289.5 362.5,287.5C 363.782,288.708 363.782,290.042 362.5,291.5C 358.421,295.24 354.754,299.24 351.5,303.5C 349.937,306.95 347.27,308.95 343.5,309.5C 343.421,311.666 342.754,313.666 341.5,315.5C 345.891,320.349 349.558,325.683 352.5,331.5C 353.878,333.213 355.545,334.547 357.5,335.5C 378.269,326.408 396.269,313.408 411.5,296.5C 415.303,289.991 416.469,282.991 415,275.5C 410.297,263.096 404.797,251.096 398.5,239.5C 388.801,225.79 379.468,211.79 370.5,197.5C 367.833,194.833 365.167,192.167 362.5,189.5C 361.571,188.311 361.238,186.978 361.5,185.5C 361.5,182.833 361.5,180.167 361.5,177.5C 362.5,177.5 363.5,177.5 364.5,177.5 Z"/></g>
<g><path style="opacity:1" fill="#e4cd9b" d="M 329.5,290.5 C 329.5,296.833 329.5,303.167 329.5,309.5C 331.604,309.799 333.604,309.466 335.5,308.5C 341.426,304.579 346.759,299.912 351.5,294.5C 352.689,293.571 354.022,293.238 355.5,293.5C 348.159,301.005 340.326,308.005 332,314.5C 331,313.833 330,313.167 329,312.5C 326.44,307.687 325.94,302.687 327.5,297.5C 327.41,294.848 328.076,292.515 329.5,290.5 Z"/></g>
<g><path style="opacity:1" fill="#f9d693" d="M 543.5,335.5 C 543.5,468.833 543.5,602.167 543.5,735.5C 501.833,735.5 460.167,735.5 418.5,735.5C 429.765,732.757 440.765,728.924 451.5,724C 453.333,722.167 455.167,720.333 457,718.5C 457.497,716.19 457.663,713.857 457.5,711.5C 458.833,711.5 460.167,711.5 461.5,711.5C 461.351,712.552 461.517,713.552 462,714.5C 464.109,710.877 463.942,707.377 461.5,704C 470.16,703.5 478.827,703.334 487.5,703.5C 487.5,706.167 487.5,708.833 487.5,711.5C 491.5,711.5 495.5,711.5 499.5,711.5C 499.5,708.833 499.5,706.167 499.5,703.5C 498.167,703.5 496.833,703.5 495.5,703.5C 495.5,698.167 495.5,692.833 495.5,687.5C 500.833,687.5 506.167,687.5 511.5,687.5C 511.5,666.167 511.5,644.833 511.5,623.5C 506.167,623.5 500.833,623.5 495.5,623.5C 495.5,618.167 495.5,612.833 495.5,607.5C 500.833,607.5 506.167,607.5 511.5,607.5C 511.5,602.167 511.5,596.833 511.5,591.5C 506.167,591.5 500.833,591.5 495.5,591.5C 495.5,586.167 495.5,580.833 495.5,575.5C 474.167,574.833 474.167,574.167 495.5,573.5C 495.5,568.833 495.5,564.167 495.5,559.5C 500.833,559.5 506.167,559.5 511.5,559.5C 511.5,506.167 511.5,452.833 511.5,399.5C 514.167,399.5 516.833,399.5 519.5,399.5C 519.5,394.167 519.5,388.833 519.5,383.5C 516.833,383.5 514.167,383.5 511.5,383.5C 511.5,378.167 511.5,372.833 511.5,367.5C 514.833,367.5 518.167,367.5 521.5,367.5C 522.167,356.833 522.833,346.167 523.5,335.5C 530.167,335.5 536.833,335.5 543.5,335.5 Z"/></g>
<g><path style="opacity:1" fill="#5c4821" d="M 271.5,485.5 C 275.345,551.299 278.678,617.132 281.5,683C 281.498,686.021 281.164,688.854 280.5,691.5C 280.628,689.345 280.128,687.345 279,685.5C 278.667,686.167 278.333,686.833 278,687.5C 277.781,686.062 277.281,684.729 276.5,683.5C 276.436,684.365 276.103,685.365 275.5,686.5C 274.311,687.429 272.978,687.762 271.5,687.5C 271.5,684.833 271.5,682.167 271.5,679.5C 260.833,678.833 250.167,678.167 239.5,677.5C 239.5,675.5 239.5,673.5 239.5,671.5C 250.167,671.5 260.833,671.5 271.5,671.5C 271.5,670.5 271.5,669.5 271.5,668.5C 273.575,668.698 275.575,668.865 277.5,669C 275.75,667.681 273.75,667.181 271.5,667.5C 271.351,666.448 271.517,665.448 272,664.5C 276.717,667.485 277.55,666.652 274.5,662C 275.246,659.907 275.579,657.907 275.5,656C 274.258,655.689 273.258,656.189 272.5,657.5C 271.505,651.872 271.171,646.206 271.5,640.5C 273.484,640.383 275.15,641.05 276.5,642.5C 276.833,638 277.167,633.5 277.5,629C 276.979,614.533 275.979,600.033 274.5,585.5C 273.808,584.975 273.308,584.308 273,583.5C 272.667,583.833 272.333,584.167 272,584.5C 271.833,587.667 271.667,590.833 271.5,594C 271.584,597.693 272.25,601.193 273.5,604.5C 272.585,605.328 271.919,606.328 271.5,607.5C 272.368,610.066 273.368,612.566 274.5,615C 273.552,615.483 272.552,615.649 271.5,615.5C 271.5,623.5 271.5,631.5 271.5,639.5C 266.167,639.5 260.833,639.5 255.5,639.5C 255.5,644.167 255.5,648.833 255.5,653.5C 252.833,653.5 250.167,653.5 247.5,653.5C 247.5,648.833 247.5,644.167 247.5,639.5C 236.833,639.5 226.167,639.5 215.5,639.5C 215.5,648.833 215.5,658.167 215.5,667.5C 212.833,667.5 210.167,667.5 207.5,667.5C 208.366,671.399 208.366,675.399 207.5,679.5C 213.925,679.13 220.258,679.63 226.5,681C 225.62,682.356 225.286,683.856 225.5,685.5C 234.267,685.71 242.934,685.71 251.5,685.5C 251.35,689.161 252.85,690.161 256,688.5C 261.517,688.823 266.684,689.823 271.5,691.5C 248.372,691.419 225.372,689.752 202.5,686.5C 202.774,651.084 203.774,615.75 205.5,580.5C 206.669,546.468 208.503,512.468 211,478.5C 212.759,459.43 215.092,440.43 218,421.5C 222.752,390.25 232.086,360.583 246,332.5C 246.414,332.043 246.914,331.709 247.5,331.5C 252.998,348.487 257.165,365.821 260,383.5C 264.52,417.575 268.354,451.575 271.5,485.5 Z"/></g>
<g><path style="opacity:1" fill="#5a491d" d="M 239.5,415.5 C 244.833,415.5 250.167,415.5 255.5,415.5C 255.602,420.878 255.602,426.045 255.5,431C 256.793,431.49 258.127,431.657 259.5,431.5C 259.907,438.049 260.907,438.049 262.5,431.5C 263.064,435.644 263.897,439.644 265,443.5C 265.667,448.167 265.667,452.833 265,457.5C 263.951,456.483 262.784,456.316 261.5,457C 263.158,457.725 263.658,458.892 263,460.5C 261.866,459.575 260.699,458.575 259.5,457.5C 259.622,455.006 260.622,454.339 262.5,455.5C 263.655,452.554 263.821,449.554 263,446.5C 260.667,447.167 258.333,447.833 256,448.5C 255.5,457.494 255.334,466.494 255.5,475.5C 257.857,475.337 260.19,475.503 262.5,476C 261.192,476.824 259.692,477.324 258,477.5C 258.305,479.443 258.305,481.443 258,483.5C 256.294,484.308 255.461,485.641 255.5,487.5C 252.833,487.5 250.167,487.5 247.5,487.5C 247.5,484.833 247.5,482.167 247.5,479.5C 239.5,479.5 231.5,479.5 223.5,479.5C 223.5,468.833 223.5,458.167 223.5,447.5C 228.833,447.5 234.167,447.5 239.5,447.5C 240.362,436.931 240.362,426.265 239.5,415.5 Z"/></g>
<g><path style="opacity:1" fill="#612403" d="M 353.5,349.5 C 364.546,370.607 373.713,392.607 381,415.5C 388.097,444.752 394.763,474.086 401,503.5C 408.701,555.613 416.201,606.446 423.5,656C 423.167,658.167 422.833,660.333 422.5,662.5C 419.98,664.263 417.647,666.263 415.5,668.5C 413.955,669.452 412.288,669.785 410.5,669.5C 407.667,646.427 405,623.093 402.5,599.5C 395.418,562.483 389.585,524.483 385,485.5C 380.154,462.1 374.821,438.767 369,415.5C 366.017,406.071 362.517,396.738 358.5,387.5C 354.328,380.488 350.162,373.488 346,366.5C 344.667,365.167 343.333,363.833 342,362.5C 341.506,364.134 341.34,365.801 341.5,367.5C 337.171,363.839 335.338,359.172 336,353.5C 340.938,351.399 345.771,349.065 350.5,346.5C 351.141,347.993 352.141,348.993 353.5,349.5 Z"/></g>
<g><path style="opacity:1" fill="#732c03" d="M 275.5,495.5 C 277.08,497.717 278.08,500.384 278.5,503.5C 279.498,512.81 279.832,522.143 279.5,531.5C 280.833,531.5 282.167,531.5 283.5,531.5C 283.335,535.182 283.501,538.848 284,542.5C 286,544.167 286,545.833 284,547.5C 283.781,546.062 283.281,544.729 282.5,543.5C 281.088,554.254 281.421,564.92 283.5,575.5C 285.124,575.36 286.29,576.027 287,577.5C 287.987,574.303 287.487,571.47 285.5,569C 286.167,568.667 286.833,568.333 287.5,568C 286.039,566.649 284.706,565.149 283.5,563.5C 284.569,563.36 285.736,563.36 287,563.5C 287.167,562.833 287.333,562.167 287.5,561.5C 287.345,555.662 287.345,549.662 287.5,543.5C 298.167,543.5 308.833,543.5 319.5,543.5C 319.5,538.167 319.5,532.833 319.5,527.5C 324.833,527.5 330.167,527.5 335.5,527.5C 335.5,532.833 335.5,538.167 335.5,543.5C 346.187,543.168 356.854,543.501 367.5,544.5C 364.854,546.132 363.521,548.465 363.5,551.5C 362.167,551.5 360.833,551.5 359.5,551.5C 359.5,550.167 359.5,548.833 359.5,547.5C 356.833,547.5 354.167,547.5 351.5,547.5C 351.5,550.167 351.5,552.833 351.5,555.5C 356.875,555.172 362.208,555.505 367.5,556.5C 361.872,557.495 356.206,557.829 350.5,557.5C 350.514,564.647 351.514,571.647 353.5,578.5C 352.033,582.032 351.366,585.698 351.5,589.5C 356.875,589.172 362.208,589.505 367.5,590.5C 356.854,591.499 346.187,591.832 335.5,591.5C 335.5,596.833 335.5,602.167 335.5,607.5C 346.167,607.5 356.833,607.5 367.5,607.5C 367.5,610.167 367.5,612.833 367.5,615.5C 356.167,615.5 344.833,615.5 333.5,615.5C 334.167,620.833 334.833,626.167 335.5,631.5C 332.833,631.5 330.167,631.5 327.5,631.5C 327.5,628.167 327.5,624.833 327.5,621.5C 324.833,621.5 322.167,621.5 319.5,621.5C 319.5,614.167 319.5,606.833 319.5,599.5C 316.833,599.5 314.167,599.5 311.5,599.5C 311.5,594.167 311.5,588.833 311.5,583.5C 308.833,583.5 306.167,583.5 303.5,583.5C 303.5,586.167 303.5,588.833 303.5,591.5C 298.156,591.666 292.823,591.499 287.5,591C 286.845,589.513 285.845,588.347 284.5,587.5C 283.509,591.445 283.176,595.445 283.5,599.5C 282.18,596.572 281.514,593.239 281.5,589.5C 280.22,558.099 278.22,526.766 275.5,495.5 Z"/></g>
<g><path style="opacity:1" fill="#59491d" d="M 219.5,540.5 C 226.131,541.331 232.798,541.664 239.5,541.5C 239.5,544.833 239.5,548.167 239.5,551.5C 242.167,551.5 244.833,551.5 247.5,551.5C 247.5,564.833 247.5,578.167 247.5,591.5C 250.167,591.5 252.833,591.5 255.5,591.5C 255.5,594.167 255.5,596.833 255.5,599.5C 258.167,599.5 260.833,599.5 263.5,599.5C 263.5,602.167 263.5,604.833 263.5,607.5C 250.167,607.5 236.833,607.5 223.5,607.5C 223.5,609.5 223.5,611.5 223.5,613.5C 221.5,613.5 219.5,613.5 217.5,613.5C 217.82,616.898 217.487,620.232 216.5,623.5C 215.52,620.914 215.187,618.247 215.5,615.5C 214.167,615.5 212.833,615.5 211.5,615.5C 211.813,618.247 211.48,620.914 210.5,623.5C 209.5,599.509 209.167,575.509 209.5,551.5C 211.5,551.5 213.5,551.5 215.5,551.5C 215.5,550.167 215.5,548.833 215.5,547.5C 214.167,547.5 212.833,547.5 211.5,547.5C 211.869,542.154 214.202,540.82 218.5,543.5C 219.386,542.675 219.719,541.675 219.5,540.5 Z"/></g>
<g><path style="opacity:1" fill="#772b04" d="M 201.5,537.5 C 201.5,549.5 201.5,561.5 201.5,573.5C 200.778,573.918 200.278,574.584 200,575.5C 199.5,588.829 199.333,602.163 199.5,615.5C 199.5,622.833 199.5,630.167 199.5,637.5C 198.686,635.369 198.186,633.036 198,630.5C 197.5,648.83 197.333,667.164 197.5,685.5C 187.534,683.911 177.534,682.411 167.5,681C 162.694,679.35 158.027,677.517 153.5,675.5C 153.461,674.417 153.127,673.417 152.5,672.5C 156,672.167 159.5,671.833 163,671.5C 167.023,671.575 170.856,672.242 174.5,673.5C 175.496,667.537 175.829,661.537 175.5,655.5C 172.833,655.5 170.167,655.5 167.5,655.5C 167.5,652.833 167.5,650.167 167.5,647.5C 164.833,647.5 162.167,647.5 159.5,647.5C 159.5,638.167 159.5,628.833 159.5,619.5C 164.833,619.5 170.167,619.5 175.5,619.5C 175.5,617.5 175.5,615.5 175.5,613.5C 180.833,613.5 186.167,613.5 191.5,613.5C 191.5,611.167 191.5,608.833 191.5,606.5C 186.167,606.5 180.833,606.5 175.5,606.5C 175.5,604.833 175.5,603.167 175.5,601.5C 180.833,601.5 186.167,601.5 191.5,601.5C 191.5,597.833 191.5,594.167 191.5,590.5C 184.808,590.665 178.141,590.332 171.5,589.5C 170.167,589.833 168.833,590.167 167.5,590.5C 170.086,591.48 172.753,591.813 175.5,591.5C 175.5,592.833 175.5,594.167 175.5,595.5C 170.167,595.5 164.833,595.5 159.5,595.5C 159.5,590.833 159.5,586.167 159.5,581.5C 164.833,581.5 170.167,581.5 175.5,581.5C 175.5,577.5 175.5,573.5 175.5,569.5C 170.167,569.5 164.833,569.5 159.5,569.5C 159.5,571.5 159.5,573.5 159.5,575.5C 153.5,575.5 147.5,575.5 141.5,575.5C 141.5,570.167 141.5,564.833 141.5,559.5C 142.846,543.402 144.846,527.402 147.5,511.5C 148.391,512.261 149.058,513.261 149.5,514.5C 150.689,515.429 152.022,515.762 153.5,515.5C 153.297,518.891 154.297,521.891 156.5,524.5C 157.995,521.355 157.662,518.522 155.5,516C 156.793,515.51 158.127,515.343 159.5,515.5C 159.5,519.5 159.5,523.5 159.5,527.5C 164.833,527.5 170.167,527.5 175.5,527.5C 175.5,526.5 175.5,525.5 175.5,524.5C 180.833,524.5 186.167,524.5 191.5,524.5C 191.141,522.234 191.808,520.401 193.5,519C 192.833,518.667 192.167,518.333 191.5,518C 194.167,517.333 194.167,516.667 191.5,516C 193.957,514.846 193.957,513.512 191.5,512C 192.859,510.796 193.859,509.296 194.5,507.5C 195.429,508.689 195.762,510.022 195.5,511.5C 196.822,511.33 197.989,511.663 199,512.5C 199.219,511.062 199.719,509.729 200.5,508.5C 201.498,518.144 201.832,527.81 201.5,537.5 Z"/></g>
<g><path style="opacity:1" fill="#742b04" d="M 141.5,559.5 C 141.5,564.833 141.5,570.167 141.5,575.5C 147.5,575.5 153.5,575.5 159.5,575.5C 159.5,573.5 159.5,571.5 159.5,569.5C 164.833,569.5 170.167,569.5 175.5,569.5C 175.5,573.5 175.5,577.5 175.5,581.5C 170.167,581.5 164.833,581.5 159.5,581.5C 159.5,586.167 159.5,590.833 159.5,595.5C 164.833,595.5 170.167,595.5 175.5,595.5C 175.5,594.167 175.5,592.833 175.5,591.5C 172.753,591.813 170.086,591.48 167.5,590.5C 168.833,590.167 170.167,589.833 171.5,589.5C 178.141,590.332 184.808,590.665 191.5,590.5C 191.5,594.167 191.5,597.833 191.5,601.5C 186.167,601.5 180.833,601.5 175.5,601.5C 175.5,603.167 175.5,604.833 175.5,606.5C 180.833,606.5 186.167,606.5 191.5,606.5C 191.5,608.833 191.5,611.167 191.5,613.5C 186.167,613.5 180.833,613.5 175.5,613.5C 175.5,615.5 175.5,617.5 175.5,619.5C 170.167,619.5 164.833,619.5 159.5,619.5C 159.5,628.833 159.5,638.167 159.5,647.5C 162.167,647.5 164.833,647.5 167.5,647.5C 167.5,650.167 167.5,652.833 167.5,655.5C 170.167,655.5 172.833,655.5 175.5,655.5C 175.829,661.537 175.496,667.537 174.5,673.5C 170.856,672.242 167.023,671.575 163,671.5C 159.5,671.833 156,672.167 152.5,672.5C 153.127,673.417 153.461,674.417 153.5,675.5C 133.078,671.836 125.912,659.836 132,639.5C 134.219,612.563 137.386,585.896 141.5,559.5 Z"/></g>
<g><path style="opacity:1" fill="#f5d7a1" d="M 427.5,646.5 C 423.52,620.681 419.854,594.681 416.5,568.5C 418.266,571.346 419.933,574.846 421.5,579C 420.396,580.131 420.729,580.965 422.5,581.5C 424.945,603.116 426.612,624.783 427.5,646.5 Z"/></g>
<g><path style="opacity:1" fill="#772b03" d="M 367.5,615.5 C 367.5,618.167 367.5,620.833 367.5,623.5C 362.167,623.5 356.833,623.5 351.5,623.5C 351.5,626.167 351.5,628.833 351.5,631.5C 364.833,631.5 378.167,631.5 391.5,631.5C 391.5,634.167 391.5,636.833 391.5,639.5C 394.167,639.5 396.833,639.5 399.5,639.5C 399.542,632.673 399.875,626.007 400.5,619.5C 401.022,625.682 401.355,631.515 401.5,637C 399.863,640.285 399.196,643.785 399.5,647.5C 401.103,647.312 402.437,647.812 403.5,649C 402.216,649.684 401.049,649.517 400,648.5C 399.186,650.902 399.353,653.235 400.5,655.5C 401.806,654.088 402.64,652.421 403,650.5C 403.228,653.324 404.395,655.657 406.5,657.5C 407.907,662.358 407.573,667.025 405.5,671.5C 401.894,674.136 397.894,675.969 393.5,677C 387.212,678.655 380.879,680.155 374.5,681.5C 358.937,684.775 343.27,686.775 327.5,687.5C 322.167,686.833 316.833,686.167 311.5,685.5C 311.5,675.5 311.5,665.5 311.5,655.5C 314.167,655.5 316.833,655.5 319.5,655.5C 319.5,650.167 319.5,644.833 319.5,639.5C 314.167,639.5 308.833,639.5 303.5,639.5C 303.5,634.833 303.5,630.167 303.5,625.5C 297.481,624.982 291.648,625.649 286,627.5C 285.098,627.257 284.265,626.923 283.5,626.5C 283.5,617.5 283.5,608.5 283.5,599.5C 283.176,595.445 283.509,591.445 284.5,587.5C 285.845,588.347 286.845,589.513 287.5,591C 292.823,591.499 298.156,591.666 303.5,591.5C 303.5,588.833 303.5,586.167 303.5,583.5C 306.167,583.5 308.833,583.5 311.5,583.5C 311.5,588.833 311.5,594.167 311.5,599.5C 314.167,599.5 316.833,599.5 319.5,599.5C 319.5,606.833 319.5,614.167 319.5,621.5C 322.167,621.5 324.833,621.5 327.5,621.5C 327.5,624.833 327.5,628.167 327.5,631.5C 330.167,631.5 332.833,631.5 335.5,631.5C 334.833,626.167 334.167,620.833 333.5,615.5C 344.833,615.5 356.167,615.5 367.5,615.5 Z"/></g>
<g><path style="opacity:1" fill="#3d1c07" d="M 201.5,573.5 C 201.5,576.167 201.5,578.833 201.5,581.5C 201.667,593.505 201.5,605.505 201,617.5C 200.722,616.584 200.222,615.918 199.5,615.5C 199.333,602.163 199.5,588.829 200,575.5C 200.278,574.584 200.778,573.918 201.5,573.5 Z"/></g>
<g><path style="opacity:1" fill="#742c03" d="M 327.5,687.5 C 327.082,688.222 326.416,688.722 325.5,689C 315.283,689.08 305.283,689.913 295.5,691.5C 292.167,691.5 288.833,691.5 285.5,691.5C 285.5,684.167 285.5,676.833 285.5,669.5C 285.667,657.162 285.5,644.829 285,632.5C 284.802,634.382 284.302,636.048 283.5,637.5C 283.5,633.833 283.5,630.167 283.5,626.5C 284.265,626.923 285.098,627.257 286,627.5C 291.648,625.649 297.481,624.982 303.5,625.5C 303.5,630.167 303.5,634.833 303.5,639.5C 308.833,639.5 314.167,639.5 319.5,639.5C 319.5,644.833 319.5,650.167 319.5,655.5C 316.833,655.5 314.167,655.5 311.5,655.5C 311.5,665.5 311.5,675.5 311.5,685.5C 316.833,686.167 322.167,686.833 327.5,687.5 Z"/></g>
<g><path style="opacity:1" fill="#312208" d="M 189.5,351.5 C 185.757,358.655 182.257,365.988 179,373.5C 163.257,418.287 152.757,464.287 147.5,511.5C 144.846,527.402 142.846,543.402 141.5,559.5C 137.386,585.896 134.219,612.563 132,639.5C 125.912,659.836 133.078,671.836 153.5,675.5C 158.027,677.517 162.694,679.35 167.5,681C 177.534,682.411 187.534,683.911 197.5,685.5C 196.833,687.5 195.5,688.833 193.5,689.5C 190.833,689.5 188.167,689.5 185.5,689.5C 172.721,687.304 160.055,684.138 147.5,680C 142.159,677.893 137.159,675.226 132.5,672C 129.567,669.736 127.4,666.902 126,663.5C 125.857,655.498 126.19,647.498 127,639.5C 132.397,588.061 138.564,536.727 145.5,485.5C 149.719,462.215 154.385,438.881 159.5,415.5C 165.336,393.991 173.336,373.325 183.5,353.5C 183.369,354.376 183.702,355.043 184.5,355.5C 185.429,354.311 185.762,352.978 185.5,351.5C 186.833,351.5 188.167,351.5 189.5,351.5 Z"/></g>
<g><path style="opacity:1" fill="#49260c" d="M 199.5,637.5 C 199.888,653.701 199.222,669.701 197.5,685.5C 197.333,667.164 197.5,648.83 198,630.5C 198.186,633.036 198.686,635.369 199.5,637.5 Z"/></g>
<g><path style="opacity:1" fill="#45250b" d="M 285.5,669.5 C 284.883,669.389 284.383,669.056 284,668.5C 283.5,658.172 283.334,647.839 283.5,637.5C 284.302,636.048 284.802,634.382 285,632.5C 285.5,644.829 285.667,657.162 285.5,669.5 Z"/></g>
<g><path style="opacity:1" fill="#2d1f01" d="M 275.5,489.5 C 275.5,491.5 275.5,493.5 275.5,495.5C 278.22,526.766 280.22,558.099 281.5,589.5C 281.514,593.239 282.18,596.572 283.5,599.5C 283.5,608.5 283.5,617.5 283.5,626.5C 283.5,630.167 283.5,633.833 283.5,637.5C 283.334,647.839 283.5,658.172 284,668.5C 284.383,669.056 284.883,669.389 285.5,669.5C 285.5,676.833 285.5,684.167 285.5,691.5C 288.833,691.5 292.167,691.5 295.5,691.5C 304.173,691.334 312.84,691.5 321.5,692C 321.957,692.414 322.291,692.914 322.5,693.5C 321.398,694.176 320.398,694.842 319.5,695.5C 312.112,695.253 304.779,695.753 297.5,697C 293.963,700.369 290.629,703.869 287.5,707.5C 287.843,705.517 287.176,704.183 285.5,703.5C 286.833,701.833 288.167,700.167 289.5,698.5C 290.289,698.217 290.956,697.717 291.5,697C 277.837,696.5 264.171,696.333 250.5,696.5C 249.8,700.798 249.467,705.131 249.5,709.5C 247.872,705.378 246.539,701.044 245.5,696.5C 230.273,694.937 214.94,693.437 199.5,692C 193.111,695.856 186.778,699.689 180.5,703.5C 179.127,703.343 177.793,703.51 176.5,704C 174.374,704.898 172.374,706.065 170.5,707.5C 169.702,707.043 169.369,706.376 169.5,705.5C 177.946,700.626 185.946,695.293 193.5,689.5C 195.5,688.833 196.833,687.5 197.5,685.5C 199.222,669.701 199.888,653.701 199.5,637.5C 199.5,630.167 199.5,622.833 199.5,615.5C 200.222,615.918 200.722,616.584 201,617.5C 201.5,605.505 201.667,593.505 201.5,581.5C 202.326,585.982 202.826,590.649 203,595.5C 203.333,590.167 203.667,584.833 204,579.5C 204.383,580.056 204.883,580.389 205.5,580.5C 203.774,615.75 202.774,651.084 202.5,686.5C 225.372,689.752 248.372,691.419 271.5,691.5C 274.5,691.5 277.5,691.5 280.5,691.5C 281.164,688.854 281.498,686.021 281.5,683C 278.678,617.132 275.345,551.299 271.5,485.5C 271.351,484.448 271.517,483.448 272,482.5C 273.232,485.3 273.899,488.3 274,491.5C 274.278,490.584 274.778,489.918 275.5,489.5 Z"/></g>
<g><path style="opacity:1" fill="#5b491d" d="M 280.5,691.5 C 277.5,691.5 274.5,691.5 271.5,691.5C 266.684,689.823 261.517,688.823 256,688.5C 252.85,690.161 251.35,689.161 251.5,685.5C 242.934,685.71 234.267,685.71 225.5,685.5C 225.286,683.856 225.62,682.356 226.5,681C 220.258,679.63 213.925,679.13 207.5,679.5C 208.366,675.399 208.366,671.399 207.5,667.5C 210.167,667.5 212.833,667.5 215.5,667.5C 215.5,658.167 215.5,648.833 215.5,639.5C 226.167,639.5 236.833,639.5 247.5,639.5C 247.5,644.167 247.5,648.833 247.5,653.5C 250.167,653.5 252.833,653.5 255.5,653.5C 255.5,648.833 255.5,644.167 255.5,639.5C 260.833,639.5 266.167,639.5 271.5,639.5C 271.5,631.5 271.5,623.5 271.5,615.5C 272.552,615.649 273.552,615.483 274.5,615C 273.368,612.566 272.368,610.066 271.5,607.5C 271.919,606.328 272.585,605.328 273.5,604.5C 272.25,601.193 271.584,597.693 271.5,594C 271.667,590.833 271.833,587.667 272,584.5C 272.333,584.167 272.667,583.833 273,583.5C 273.308,584.308 273.808,584.975 274.5,585.5C 275.979,600.033 276.979,614.533 277.5,629C 277.167,633.5 276.833,638 276.5,642.5C 275.15,641.05 273.484,640.383 271.5,640.5C 271.171,646.206 271.505,651.872 272.5,657.5C 273.258,656.189 274.258,655.689 275.5,656C 275.579,657.907 275.246,659.907 274.5,662C 277.55,666.652 276.717,667.485 272,664.5C 271.517,665.448 271.351,666.448 271.5,667.5C 273.75,667.181 275.75,667.681 277.5,669C 275.575,668.865 273.575,668.698 271.5,668.5C 271.5,669.5 271.5,670.5 271.5,671.5C 260.833,671.5 250.167,671.5 239.5,671.5C 239.5,673.5 239.5,675.5 239.5,677.5C 250.167,678.167 260.833,678.833 271.5,679.5C 271.5,682.167 271.5,684.833 271.5,687.5C 272.978,687.762 274.311,687.429 275.5,686.5C 276.103,685.365 276.436,684.365 276.5,683.5C 277.281,684.729 277.781,686.062 278,687.5C 278.333,686.833 278.667,686.167 279,685.5C 280.128,687.345 280.628,689.345 280.5,691.5 Z"/></g>
<g><path style="opacity:1" fill="#dfb46b" d="M 368.5,688.5 C 386.779,690.442 405.112,692.942 423.5,696C 431.378,697.292 438.711,699.792 445.5,703.5C 440.959,703.948 436.626,703.281 432.5,701.5C 427.062,703.388 421.395,704.054 415.5,703.5C 415.919,700.675 414.919,698.509 412.5,697C 413.167,696.667 413.833,696.333 414.5,696C 400.42,694.137 386.253,692.637 372,691.5C 363.334,692.934 353.834,693.601 343.5,693.5C 343.666,701.507 343.5,709.507 343,717.5C 342.667,716.833 342.333,716.167 342,715.5C 339.14,718.688 335.64,721.021 331.5,722.5C 327.463,723.509 323.463,724.509 319.5,725.5C 320.29,724.206 321.29,723.039 322.5,722C 341.303,720.558 347.636,710.724 341.5,692.5C 350.527,691.353 359.527,690.02 368.5,688.5 Z"/></g>
<g><path style="opacity:1" fill="#e4b460" d="M 445.5,703.5 C 450.862,704.206 454.862,706.873 457.5,711.5C 457.663,713.857 457.497,716.19 457,718.5C 455.167,720.333 453.333,722.167 451.5,724C 440.765,728.924 429.765,732.757 418.5,735.5C 379.167,735.5 339.833,735.5 300.5,735.5C 306.925,732.453 313.259,729.12 319.5,725.5C 323.463,724.509 327.463,723.509 331.5,722.5C 335.64,721.021 339.14,718.688 342,715.5C 342.333,716.167 342.667,716.833 343,717.5C 343.5,709.507 343.666,701.507 343.5,693.5C 353.834,693.601 363.334,692.934 372,691.5C 386.253,692.637 400.42,694.137 414.5,696C 413.833,696.333 413.167,696.667 412.5,697C 414.919,698.509 415.919,700.675 415.5,703.5C 421.395,704.054 427.062,703.388 432.5,701.5C 436.626,703.281 440.959,703.948 445.5,703.5 Z"/></g>
<g><path style="opacity:1" fill="#5d3104" d="M 245.5,696.5 C 246.055,700.997 245.389,705.164 243.5,709C 239.563,710.151 235.563,710.984 231.5,711.5C 229.392,711.14 227.392,710.473 225.5,709.5C 205.914,718.906 185.247,722.74 163.5,721C 162.643,720.311 161.977,719.478 161.5,718.5C 167.682,713.251 174.015,708.251 180.5,703.5C 186.778,699.689 193.111,695.856 199.5,692C 214.94,693.437 230.273,694.937 245.5,696.5 Z"/></g>
<g><path style="opacity:1" fill="#b39d71" d="M 289.5,698.5 C 277.011,697.505 264.344,697.171 251.5,697.5C 251.149,701.684 250.482,705.684 249.5,709.5C 249.467,705.131 249.8,700.798 250.5,696.5C 264.171,696.333 277.837,696.5 291.5,697C 290.956,697.717 290.289,698.217 289.5,698.5 Z"/></g>
<g><path style="opacity:1" fill="#fad794" d="M 170.5,689.5 C 151.541,691.669 132.541,694.503 113.5,698C 103.852,700.077 95.0187,703.91 87,709.5C 84.2189,715.044 85.3856,719.544 90.5,723C 101.855,728.358 113.521,732.525 125.5,735.5C 83.5,735.5 41.5,735.5 -0.5,735.5C -0.5,724.833 -0.5,714.167 -0.5,703.5C 10.1667,703.5 20.8333,703.5 31.5,703.5C 31.5,706.167 31.5,708.833 31.5,711.5C 36.8333,711.5 42.1667,711.5 47.5,711.5C 47.5,708.833 47.5,706.167 47.5,703.5C 58.1667,703.5 68.8333,703.5 79.5,703.5C 79.5,698.167 79.5,692.833 79.5,687.5C 84.8333,687.5 90.1667,687.5 95.5,687.5C 95.5,690.167 95.5,692.833 95.5,695.5C 98.8788,695.678 102.045,695.678 105,695.5C 105.519,696.516 106.353,697.182 107.5,697.5C 111.317,695.804 115.317,695.137 119.5,695.5C 119.5,694.167 119.5,692.833 119.5,691.5C 120.833,691.5 122.167,691.5 123.5,691.5C 123.5,690.167 123.5,688.833 123.5,687.5C 127.5,687.5 131.5,687.5 135.5,687.5C 135.5,684.833 135.5,682.167 135.5,679.5C 139.463,680.491 143.463,681.491 147.5,682.5C 148.167,683.167 148.833,683.833 149.5,684.5C 149.154,685.696 148.654,685.696 148,684.5C 147.667,685.833 147.333,687.167 147,688.5C 146.667,688.167 146.333,687.833 146,687.5C 145.228,688.849 144.061,689.682 142.5,690C 143.5,690.5 144.5,691 145.5,691.5C 149.242,688.941 152.908,688.274 156.5,689.5C 158.167,688.833 159.833,688.167 161.5,687.5C 164.306,689.064 167.306,689.73 170.5,689.5 Z"/></g>
<g><path style="opacity:1" fill="#5c3103" d="M 319.5,695.5 C 325.167,695.5 330.833,695.5 336.5,695.5C 337.011,698.633 337.344,701.8 337.5,705C 338.173,712.358 335.339,714.525 329,711.5C 328.167,711.667 327.333,711.833 326.5,712C 311.828,727.499 293.828,734.332 272.5,732.5C 272.838,730.146 273.338,727.813 274,725.5C 278.717,719.623 283.217,713.623 287.5,707.5C 290.629,703.869 293.963,700.369 297.5,697C 304.779,695.753 312.112,695.253 319.5,695.5 Z"/></g>
<g><path style="opacity:1" fill="#e4b461" d="M 170.5,689.5 C 175.5,689.5 180.5,689.5 185.5,689.5C 188.167,689.5 190.833,689.5 193.5,689.5C 185.946,695.293 177.946,700.626 169.5,705.5C 164.857,708.644 160.691,712.311 157,716.5C 156.333,718.5 156.333,720.5 157,722.5C 159.543,724.354 162.376,725.521 165.5,726C 185.485,727.836 204.485,724.336 222.5,715.5C 231.468,716.93 240.135,715.763 248.5,712C 249.252,711.329 249.586,710.496 249.5,709.5C 250.482,705.684 251.149,701.684 251.5,697.5C 264.344,697.171 277.011,697.505 289.5,698.5C 288.167,700.167 286.833,701.833 285.5,703.5C 278.37,710.477 272.537,718.477 268,727.5C 267.503,730.146 267.336,732.813 267.5,735.5C 220.167,735.5 172.833,735.5 125.5,735.5C 113.521,732.525 101.855,728.358 90.5,723C 85.3856,719.544 84.2189,715.044 87,709.5C 95.0187,703.91 103.852,700.077 113.5,698C 132.541,694.503 151.541,691.669 170.5,689.5 Z"/></g>
<g><path style="opacity:1" fill="#342402" d="M 245.5,696.5 C 246.539,701.044 247.872,705.378 249.5,709.5C 249.586,710.496 249.252,711.329 248.5,712C 240.135,715.763 231.468,716.93 222.5,715.5C 204.485,724.336 185.485,727.836 165.5,726C 162.376,725.521 159.543,724.354 157,722.5C 156.333,720.5 156.333,718.5 157,716.5C 160.691,712.311 164.857,708.644 169.5,705.5C 169.369,706.376 169.702,707.043 170.5,707.5C 172.374,706.065 174.374,704.898 176.5,704C 177.793,703.51 179.127,703.343 180.5,703.5C 174.015,708.251 167.682,713.251 161.5,718.5C 161.977,719.478 162.643,720.311 163.5,721C 185.247,722.74 205.914,718.906 225.5,709.5C 227.392,710.473 229.392,711.14 231.5,711.5C 235.563,710.984 239.563,710.151 243.5,709C 245.389,705.164 246.055,700.997 245.5,696.5 Z"/></g>
<g><path style="opacity:1" fill="#342304" d="M 374.5,681.5 C 374.799,682.76 374.799,683.927 374.5,685C 365.426,685.577 356.426,686.743 347.5,688.5C 354.676,688.963 361.676,688.963 368.5,688.5C 359.527,690.02 350.527,691.353 341.5,692.5C 347.636,710.724 341.303,720.558 322.5,722C 321.29,723.039 320.29,724.206 319.5,725.5C 313.259,729.12 306.925,732.453 300.5,735.5C 289.5,735.5 278.5,735.5 267.5,735.5C 267.336,732.813 267.503,730.146 268,727.5C 272.537,718.477 278.37,710.477 285.5,703.5C 287.176,704.183 287.843,705.517 287.5,707.5C 283.217,713.623 278.717,719.623 274,725.5C 273.338,727.813 272.838,730.146 272.5,732.5C 293.828,734.332 311.828,727.499 326.5,712C 327.333,711.833 328.167,711.667 329,711.5C 335.339,714.525 338.173,712.358 337.5,705C 337.344,701.8 337.011,698.633 336.5,695.5C 330.833,695.5 325.167,695.5 319.5,695.5C 320.398,694.842 321.398,694.176 322.5,693.5C 322.291,692.914 321.957,692.414 321.5,692C 312.84,691.5 304.173,691.334 295.5,691.5C 305.283,689.913 315.283,689.08 325.5,689C 326.416,688.722 327.082,688.222 327.5,687.5C 343.27,686.775 358.937,684.775 374.5,681.5 Z"/></g>
</svg>
