<?xml version="1.0" encoding="UTF-8"?>
<!DOCTYPE svg PUBLIC "-//W3C//DTD SVG 1.1//EN" "http://www.w3.org/Graphics/SVG/1.1/DTD/svg11.dtd">
<svg xmlns="http://www.w3.org/2000/svg" version="1.1" width="544px" height="736px" style="shape-rendering:geometricPrecision; text-rendering:geometricPrecision; image-rendering:optimizeQuality; fill-rule:evenodd; clip-rule:evenodd" xmlns:xlink="http://www.w3.org/1999/xlink">
<g><path style="opacity:1" fill="#f8d78b" d="M -0.5,-0.5 C 68.8333,-0.5 138.167,-0.5 207.5,-0.5C 207.5,4.83333 207.5,10.1667 207.5,15.5C 218.167,15.5 228.833,15.5 239.5,15.5C 239.5,16.5 239.5,17.5 239.5,18.5C 240.833,18.5 242.167,18.5 243.5,18.5C 240.628,19.3254 237.628,20.1588 234.5,21C 232.549,22.7342 231.549,24.9009 231.5,27.5C 230.666,32.8906 227.833,37.2239 223,40.5C 218.498,46.4879 215.664,53.1546 214.5,60.5C 213.87,73.0643 212.87,85.731 211.5,98.5C 209.618,103.265 207.452,107.932 205,112.5C 202.262,118.725 201.929,125.058 204,131.5C 205.723,136.613 207.723,141.613 210,146.5C 210.667,149.167 210.667,151.833 210,154.5C 206.344,159.128 202.678,163.794 199,168.5C 196.236,174.374 195.902,180.374 198,186.5C 200.104,189.71 201.937,193.043 203.5,196.5C 197.494,207.145 192.994,218.478 190,230.5C 186.153,245.217 182.653,259.884 179.5,274.5C 176.929,273.238 176.929,271.905 179.5,270.5C 177.533,267.988 177.2,265.321 178.5,262.5C 179.325,261.614 180.325,261.281 181.5,261.5C 181.5,260.167 181.5,258.833 181.5,257.5C 176.889,256.515 172.222,255.848 167.5,255.5C 167.5,260.833 167.5,266.167 167.5,271.5C 164.833,271.5 162.167,271.5 159.5,271.5C 159.5,276.833 159.5,282.167 159.5,287.5C 154.167,287.5 148.833,287.5 143.5,287.5C 143.5,308.833 143.5,330.167 143.5,351.5C 138.167,351.5 132.833,351.5 127.5,351.5C 127.5,356.833 127.5,362.167 127.5,367.5C 122.167,367.5 116.833,367.5 111.5,367.5C 111.5,370.167 111.5,372.833 111.5,375.5C 114.167,375.5 116.833,375.5 119.5,375.5C 119.5,378.167 119.5,380.833 119.5,383.5C 116.833,383.5 114.167,383.5 111.5,383.5C 111.5,388.833 111.5,394.167 111.5,399.5C 106.167,399.5 100.833,399.5 95.5,399.5C 95.5,407.5 95.5,415.5 95.5,423.5C 98.1667,423.5 100.833,423.5 103.5,423.5C 103.5,426.167 103.5,428.833 103.5,431.5C 106.167,431.5 108.833,431.5 111.5,431.5C 111.5,434.167 111.5,436.833 111.5,439.5C 117.5,439.5 123.5,439.5 129.5,439.5C 128.271,446.77 127.605,454.104 127.5,461.5C 130.167,460.833 132.833,460.167 135.5,459.5C 134.863,454.999 135.863,450.999 138.5,447.5C 140.311,452.312 141.978,456.978 143.5,461.5C 145.805,472.256 150.138,482.089 156.5,491C 158.134,491.494 159.801,491.66 161.5,491.5C 155.09,551.256 149.423,611.089 144.5,671C 143.691,675.549 145.024,679.215 148.5,682C 154.647,685.74 160.98,688.907 167.5,691.5C 164.167,691.5 160.833,691.5 157.5,691.5C 156.378,690.053 154.878,689.053 153,688.5C 147.928,689.471 142.762,689.805 137.5,689.5C 137.5,690.833 137.5,692.167 137.5,693.5C 130.889,693.671 124.556,694.338 118.5,695.5C 118.167,695.167 117.833,694.833 117.5,694.5C 120.304,693.895 122.971,693.062 125.5,692C 123,692.167 120.5,692.333 118,692.5C 116.671,691.506 115.338,690.506 114,689.5C 113.055,689.905 112.388,690.572 112,691.5C 111.503,688.854 111.336,686.187 111.5,683.5C 108.833,683.5 106.167,683.5 103.5,683.5C 103.5,686.167 103.5,688.833 103.5,691.5C 100.833,691.5 98.1667,691.5 95.5,691.5C 95.5,692.833 95.5,694.167 95.5,695.5C 98.1667,695.5 100.833,695.5 103.5,695.5C 103.662,697.527 103.495,699.527 103,701.5C 101.649,700.039 100.149,698.706 98.5,697.5C 97.1667,700.167 95.8333,700.167 94.5,697.5C 93.7492,698.376 93.2492,699.376 93,700.5C 92.3457,699.304 91.8457,699.304 91.5,700.5C 92.0253,701.192 92.6919,701.692 93.5,702C 91.7505,703.319 89.7505,703.819 87.5,703.5C 87.5,702.167 87.5,700.833 87.5,699.5C 86.1667,699.5 84.8333,699.5 83.5,699.5C 83.5,700.833 83.5,702.167 83.5,703.5C 76.8333,703.5 70.1667,703.5 63.5,703.5C 63.5,698.167 63.5,692.833 63.5,687.5C 58.1667,687.5 52.8333,687.5 47.5,687.5C 47.5,691.5 47.5,695.5 47.5,699.5C 48.8333,699.5 50.1667,699.5 51.5,699.5C 51.5,700.833 51.5,702.167 51.5,703.5C 44.8333,703.5 38.1667,703.5 31.5,703.5C 31.5,706.167 31.5,708.833 31.5,711.5C 28.8333,711.5 26.1667,711.5 23.5,711.5C 23.5,708.833 23.5,706.167 23.5,703.5C 20.8333,703.5 18.1667,703.5 15.5,703.5C 15.5,702.167 15.5,700.833 15.5,699.5C 20.8333,699.5 26.1667,699.5 31.5,699.5C 31.5,695.5 31.5,691.5 31.5,687.5C 26.1667,687.5 20.8333,687.5 15.5,687.5C 15.1686,678.808 15.502,670.141 16.5,661.5C 18.5225,663.173 20.8559,663.84 23.5,663.5C 23.5,662.167 23.5,660.833 23.5,659.5C 26.1667,659.5 28.8333,659.5 31.5,659.5C 31.5,658.167 31.5,656.833 31.5,655.5C 30.1667,655.5 28.8333,655.5 27.5,655.5C 27.5,654.167 27.5,652.833 27.5,651.5C 26.1667,651.5 24.8333,651.5 23.5,651.5C 23.5,652.833 23.5,654.167 23.5,655.5C 19.5,655.5 15.5,655.5 11.5,655.5C 11.83,662.2 11.4967,668.866 10.5,675.5C 9.57131,674.311 9.23798,672.978 9.5,671.5C 6.16667,671.5 2.83333,671.5 -0.5,671.5C -0.5,447.5 -0.5,223.5 -0.5,-0.5 Z"/></g>
<g><path style="opacity:1" fill="#f8d78b" d="M 207.5,-0.5 C 319.5,-0.5 431.5,-0.5 543.5,-0.5C 543.5,199.833 543.5,400.167 543.5,600.5C 537.833,600.5 532.167,600.5 526.5,600.5C 526.5,597.5 526.5,594.5 526.5,591.5C 524.833,591.5 523.167,591.5 521.5,591.5C 521.64,593.124 520.973,594.29 519.5,595C 521.362,598.149 522.029,601.649 521.5,605.5C 519.396,605.201 517.396,605.534 515.5,606.5C 519.445,607.491 523.445,607.824 527.5,607.5C 527.5,612.833 527.5,618.167 527.5,623.5C 522.833,623.5 518.167,623.5 513.5,623.5C 511.836,628.657 511.17,633.99 511.5,639.5C 514.167,639.5 516.833,639.5 519.5,639.5C 519.5,644.833 519.5,650.167 519.5,655.5C 516.833,655.5 514.167,655.5 511.5,655.5C 511.5,660.833 511.5,666.167 511.5,671.5C 508.833,671.5 506.167,671.5 503.5,671.5C 503.5,672.833 503.5,674.167 503.5,675.5C 502.167,675.5 500.833,675.5 499.5,675.5C 497.852,682.029 497.185,688.695 497.5,695.5C 496.5,695.5 495.5,695.5 494.5,695.5C 494.833,700.833 495.167,706.167 495.5,711.5C 494.167,711.5 492.833,711.5 491.5,711.5C 491.5,708.833 491.5,706.167 491.5,703.5C 487.5,703.5 483.5,703.5 479.5,703.5C 479.5,698.167 479.5,692.833 479.5,687.5C 468.833,687.5 458.167,687.5 447.5,687.5C 447.5,684.833 447.5,682.167 447.5,679.5C 442.167,679.5 436.833,679.5 431.5,679.5C 431.762,678.022 431.429,676.689 430.5,675.5C 425.736,677.608 420.736,678.942 415.5,679.5C 415.5,682.167 415.5,684.833 415.5,687.5C 413.5,687.5 411.5,687.5 409.5,687.5C 409.543,683.107 409.043,682.774 408,686.5C 407.368,684.469 406.201,682.802 404.5,681.5C 403.205,684.012 402.539,686.679 402.5,689.5C 395.5,689.5 388.5,689.5 381.5,689.5C 386.358,687.26 391.358,685.094 396.5,683C 399.266,681.533 401.766,679.7 404,677.5C 401.417,620.332 396.584,563.332 389.5,506.5C 389.269,500.898 391.936,498.065 397.5,498C 400.848,495.499 403.182,492.332 404.5,488.5C 407.155,487.999 409.322,486.666 411,484.5C 412.801,480.925 414.301,477.258 415.5,473.5C 416.829,467.872 417.496,461.872 417.5,455.5C 417.5,449.324 417.166,443.324 416.5,437.5C 415.949,434.193 415.616,430.86 415.5,427.5C 414.493,410.515 413.159,393.849 411.5,377.5C 408.993,331.951 402.66,286.951 392.5,242.5C 395.1,240.084 397.933,237.751 401,235.5C 405.688,228.187 404.022,223.187 396,220.5C 394.596,218.361 393.763,216.028 393.5,213.5C 397.287,207.188 400.453,200.521 403,193.5C 403.667,188.833 403.667,184.167 403,179.5C 398.667,171.167 394.333,162.833 390,154.5C 389.527,147.756 390.027,141.089 391.5,134.5C 391.77,128.143 389.936,122.476 386,117.5C 379.333,112.167 373.333,106.167 368,99.5C 363.791,90.9972 361.624,81.9972 361.5,72.5C 361.832,62.8104 361.498,53.1437 360.5,43.5C 359.158,41.9951 357.492,41.3285 355.5,41.5C 354.504,41.5858 353.671,41.2524 353,40.5C 344.083,22.9293 329.916,12.096 310.5,8C 288.776,2.78725 268.443,6.12058 249.5,18C 247.527,18.4955 245.527,18.6621 243.5,18.5C 242.167,18.5 240.833,18.5 239.5,18.5C 239.5,17.5 239.5,16.5 239.5,15.5C 228.833,15.5 218.167,15.5 207.5,15.5C 207.5,10.1667 207.5,4.83333 207.5,-0.5 Z"/></g>
<g><path style="opacity:1" fill="#e1ca93" d="M 355.5,41.5 C 357.492,41.3285 359.158,41.9951 360.5,43.5C 361.498,53.1437 361.832,62.8104 361.5,72.5C 359.893,63.3896 359.06,54.0562 359,44.5C 357.855,43.3636 356.688,42.3636 355.5,41.5 Z"/></g>
<g><path style="opacity:1" fill="#dbc48f" d="M 214.5,60.5 C 215.089,69.8328 215.256,79.1661 215,88.5C 214.698,92.2451 213.531,95.5784 211.5,98.5C 212.87,85.731 213.87,73.0643 214.5,60.5 Z"/></g>
<g><path style="opacity:1" fill="#674006" d="M 260.5,37.5 C 250.649,43.1819 240.316,48.0153 229.5,52C 228.101,53.0616 227.101,54.395 226.5,56C 227.536,59.1208 227.703,62.2875 227,65.5C 221.833,82.4748 220.166,99.8081 222,117.5C 223.169,128.828 227.336,138.828 234.5,147.5C 236.338,158.943 233.004,168.276 224.5,175.5C 223.571,176.689 223.238,178.022 223.5,179.5C 217.235,183.265 211.735,187.931 207,193.5C 204.563,189.101 202.73,184.434 201.5,179.5C 201.622,176.302 202.455,173.302 204,170.5C 207.911,165.678 211.578,160.678 215,155.5C 215.667,152.5 215.667,149.5 215,146.5C 205.757,130.682 206.423,115.349 217,100.5C 220.639,89.7463 221.473,78.7463 219.5,67.5C 219.402,55.3672 223.902,45.3672 233,37.5C 242.404,35.5345 251.904,35.0345 261.5,36C 260.944,36.3826 260.611,36.8826 260.5,37.5 Z"/></g>
<g><path style="opacity:1" fill="#523504" d="M 234.5,147.5 C 238.62,151.529 242.953,155.363 247.5,159C 251.273,160.354 254.94,161.854 258.5,163.5C 259.983,166.885 259.149,169.552 256,171.5C 255.586,171.043 255.086,170.709 254.5,170.5C 251.724,170.946 249.224,171.946 247,173.5C 246.586,173.043 246.086,172.709 245.5,172.5C 242.953,172.771 240.953,173.771 239.5,175.5C 237.143,175.337 234.81,175.503 232.5,176C 229.47,177.284 226.47,178.451 223.5,179.5C 223.238,178.022 223.571,176.689 224.5,175.5C 233.004,168.276 236.338,158.943 234.5,147.5 Z"/></g>
<g><path style="opacity:1" fill="#372804" d="M 355.5,41.5 C 356.688,42.3636 357.855,43.3636 359,44.5C 359.06,54.0562 359.893,63.3896 361.5,72.5C 361.624,81.9972 363.791,90.9972 368,99.5C 373.333,106.167 379.333,112.167 386,117.5C 389.936,122.476 391.77,128.143 391.5,134.5C 390.027,141.089 389.527,147.756 390,154.5C 394.333,162.833 398.667,171.167 403,179.5C 403.667,184.167 403.667,188.833 403,193.5C 400.453,200.521 397.287,207.188 393.5,213.5C 393.763,216.028 394.596,218.361 396,220.5C 404.022,223.187 405.688,228.187 401,235.5C 397.933,237.751 395.1,240.084 392.5,242.5C 390.159,240.546 389.493,238.212 390.5,235.5C 394.247,235.747 396.58,234.08 397.5,230.5C 393.993,225.378 390.66,220.045 387.5,214.5C 389.338,207.825 392.504,201.825 397,196.5C 398.97,191.657 399.636,186.657 399,181.5C 395.422,173.619 391.089,166.286 386,159.5C 384.128,151.547 384.628,143.714 387.5,136C 387.484,131.117 386.15,126.617 383.5,122.5C 377.57,116.948 371.737,111.282 366,105.5C 364.333,102.5 362.667,99.5 361,96.5C 357.712,84.681 355.378,72.681 354,60.5C 349.836,56.7531 345.003,54.4197 339.5,53.5C 321.712,45.3716 303.045,40.2049 283.5,38C 297.559,48.7578 313.226,55.7578 330.5,59C 329.359,59.7412 329.359,60.5745 330.5,61.5C 326.753,62.6013 323.087,62.268 319.5,60.5C 317.531,73.6153 319.031,86.282 324,98.5C 325.357,101.898 327.19,104.898 329.5,107.5C 336.121,115.96 342.954,124.293 350,132.5C 352.505,137.018 354.005,141.852 354.5,147C 354.604,149.145 353.937,150.979 352.5,152.5C 351.387,146.448 349.22,140.781 346,135.5C 345.292,134.619 344.458,133.953 343.5,133.5C 340.571,129.394 337.404,125.394 334,121.5C 329.132,125.178 323.965,128.178 318.5,130.5C 317.812,134.209 316.312,137.542 314,140.5C 313.152,147.899 313.485,155.233 315,162.5C 317.292,166.788 320.792,169.622 325.5,171C 339.846,175.397 353.846,180.897 367.5,187.5C 370.831,191 373.998,194.666 377,198.5C 381.07,206.635 384.57,214.968 387.5,223.5C 386.022,223.238 384.689,223.571 383.5,224.5C 385.387,229.321 386.721,234.321 387.5,239.5C 386.414,239.38 385.747,238.713 385.5,237.5C 382.386,225.031 378.052,213.031 372.5,201.5C 370.06,197.771 367.06,194.605 363.5,192C 360.854,191.503 358.187,191.336 355.5,191.5C 355.649,192.552 355.483,193.552 355,194.5C 351.018,199.649 346.518,204.315 341.5,208.5C 340.311,209.429 338.978,209.762 337.5,209.5C 337.672,211.492 337.005,213.158 335.5,214.5C 330.078,216.378 325.078,219.044 320.5,222.5C 319.614,223.325 319.281,224.325 319.5,225.5C 316.813,225.336 314.146,225.503 311.5,226C 305.659,228.459 299.659,230.292 293.5,231.5C 294.348,229.907 295.681,228.74 297.5,228C 293.179,227.501 288.846,227.334 284.5,227.5C 312.844,223.496 335.51,209.996 352.5,187C 348.207,184.455 343.707,182.288 339,180.5C 317.599,205.064 290.765,214.731 258.5,209.5C 258.167,209.5 257.833,209.5 257.5,209.5C 251.667,207.325 246.5,203.992 242,199.5C 240.544,196.924 239.377,194.258 238.5,191.5C 238.693,187.551 239.193,187.551 240,191.5C 240.705,187.335 241.539,183.335 242.5,179.5C 242.009,194.522 249.342,203.022 264.5,205C 278.036,206.945 291.036,205.278 303.5,200C 309.325,197.255 314.992,194.255 320.5,191C 325.023,187.977 328.69,184.144 331.5,179.5C 326.456,177.096 321.456,174.596 316.5,172C 313.519,169.536 311.186,166.703 309.5,163.5C 308.734,158.501 307.9,153.501 307,148.5C 295.526,158.815 282.026,163.982 266.5,164C 265.54,167.73 265.207,171.563 265.5,175.5C 264.844,176.278 264.011,176.944 263,177.5C 261.521,176.244 259.855,175.244 258,174.5C 253.797,175.426 249.63,176.426 245.5,177.5C 243.898,175.926 241.898,175.259 239.5,175.5C 240.953,173.771 242.953,172.771 245.5,172.5C 246.086,172.709 246.586,173.043 247,173.5C 249.224,171.946 251.724,170.946 254.5,170.5C 255.086,170.709 255.586,171.043 256,171.5C 259.149,169.552 259.983,166.885 258.5,163.5C 254.94,161.854 251.273,160.354 247.5,159C 242.953,155.363 238.62,151.529 234.5,147.5C 227.336,138.828 223.169,128.828 222,117.5C 220.166,99.8081 221.833,82.4748 227,65.5C 227.703,62.2875 227.536,59.1208 226.5,56C 227.101,54.395 228.101,53.0616 229.5,52C 240.316,48.0153 250.649,43.1819 260.5,37.5C 261.94,36.6371 263.274,36.6371 264.5,37.5C 268.578,35.0411 268.245,33.2078 263.5,32C 254.164,30.4721 244.83,30.9721 235.5,33.5C 235.435,31.3043 234.768,29.3043 233.5,27.5C 232.351,29.9248 231.684,29.9248 231.5,27.5C 231.549,24.9009 232.549,22.7342 234.5,21C 237.628,20.1588 240.628,19.3254 243.5,18.5C 245.527,18.6621 247.527,18.4955 249.5,18C 268.443,6.12058 288.776,2.78725 310.5,8C 329.916,12.096 344.083,22.9293 353,40.5C 353.671,41.2524 354.504,41.5858 355.5,41.5 Z"/></g>
<g><path style="opacity:1" fill="#4f3404" d="M 343.5,133.5 C 342.265,133.279 341.265,132.612 340.5,131.5C 338.566,139.982 339.566,147.982 343.5,155.5C 349.07,159.411 354.57,163.411 360,167.5C 360.333,167.167 360.667,166.833 361,166.5C 361.521,169.874 362.854,172.874 365,175.5C 365.943,179.496 366.776,183.496 367.5,187.5C 353.846,180.897 339.846,175.397 325.5,171C 320.792,169.622 317.292,166.788 315,162.5C 313.485,155.233 313.152,147.899 314,140.5C 316.312,137.542 317.812,134.209 318.5,130.5C 323.965,128.178 329.132,125.178 334,121.5C 337.404,125.394 340.571,129.394 343.5,133.5 Z"/></g>
<g><path style="opacity:1" fill="#663e05" d="M 339.5,53.5 C 345.003,54.4197 349.836,56.7531 354,60.5C 355.378,72.681 357.712,84.681 361,96.5C 362.667,99.5 364.333,102.5 366,105.5C 371.737,111.282 377.57,116.948 383.5,122.5C 386.15,126.617 387.484,131.117 387.5,136C 384.628,143.714 384.128,151.547 386,159.5C 391.089,166.286 395.422,173.619 399,181.5C 399.636,186.657 398.97,191.657 397,196.5C 392.504,201.825 389.338,207.825 387.5,214.5C 390.66,220.045 393.993,225.378 397.5,230.5C 396.58,234.08 394.247,235.747 390.5,235.5C 389.512,231.516 388.512,227.516 387.5,223.5C 384.57,214.968 381.07,206.635 377,198.5C 373.998,194.666 370.831,191 367.5,187.5C 366.776,183.496 365.943,179.496 365,175.5C 362.854,172.874 361.521,169.874 361,166.5C 360.667,166.833 360.333,167.167 360,167.5C 354.57,163.411 349.07,159.411 343.5,155.5C 339.566,147.982 338.566,139.982 340.5,131.5C 341.265,132.612 342.265,133.279 343.5,133.5C 344.458,133.953 345.292,134.619 346,135.5C 349.22,140.781 351.387,146.448 352.5,152.5C 353.937,150.979 354.604,149.145 354.5,147C 354.005,141.852 352.505,137.018 350,132.5C 342.954,124.293 336.121,115.96 329.5,107.5C 327.099,100.797 324.599,94.1307 322,87.5C 321.5,79.5069 321.334,71.5069 321.5,63.5C 325.5,63.5 329.5,63.5 333.5,63.5C 332.424,60.2655 331.757,56.9322 331.5,53.5C 334.167,53.5 336.833,53.5 339.5,53.5 Z"/></g>
<g><path style="opacity:1" fill="#e09937" d="M 227.5,119.5 C 227.5,109.5 227.5,99.5 227.5,89.5C 227.5,88.8333 227.5,88.1667 227.5,87.5C 229.863,89.5705 231.529,92.2371 232.5,95.5C 232.727,92.9628 233.56,90.2961 235,87.5C 236.694,91.5997 237.694,96.2663 238,101.5C 238.333,100.5 238.667,99.5 239,98.5C 239.186,100.9 239.686,103.234 240.5,105.5C 241.524,106.853 242.857,107.52 244.5,107.5C 244.833,107.5 245.167,107.5 245.5,107.5C 247.743,108.812 250.41,109.478 253.5,109.5C 256.59,109.478 259.257,108.812 261.5,107.5C 261.53,106.503 261.03,105.836 260,105.5C 256.158,104.721 252.325,103.887 248.5,103C 247.313,101.981 246.313,100.814 245.5,99.5C 252.236,93.4412 256.903,86.1079 259.5,77.5C 259.5,76.1667 259.5,74.8333 259.5,73.5C 258.022,73.762 256.689,73.4287 255.5,72.5C 257.076,70.4229 259.076,68.9229 261.5,68C 257.816,65.126 253.816,62.9593 249.5,61.5C 249.261,63.4672 249.594,65.3005 250.5,67C 248.1,67.1858 245.766,67.6858 243.5,68.5C 241.995,69.8415 241.328,71.5082 241.5,73.5C 239.692,74.9179 239.025,76.9179 239.5,79.5C 236.833,79.5 234.167,79.5 231.5,79.5C 231.5,75.5 231.5,71.5 231.5,67.5C 231.5,66.8333 231.5,66.1667 231.5,65.5C 232.978,64.5525 233.978,63.2191 234.5,61.5C 235.265,61.9234 236.098,62.2568 237,62.5C 242.634,59.6773 248.467,57.344 254.5,55.5C 255.452,53.9547 255.785,52.288 255.5,50.5C 254.167,49.8333 252.833,49.1667 251.5,48.5C 258.642,44.4274 265.642,40.0941 272.5,35.5C 277.997,40.158 283.664,44.658 289.5,49C 296.928,53.0479 304.595,56.5479 312.5,59.5C 311.127,81.1944 316.793,100.694 329.5,118C 328.846,119.987 327.513,121.32 325.5,122C 322.518,122.498 319.518,122.665 316.5,122.5C 311.663,137.511 301.996,148.344 287.5,155C 260.954,163.313 241.787,154.813 230,129.5C 228.648,126.28 227.814,122.947 227.5,119.5 Z"/></g>
<g><path style="opacity:1" fill="#36190b" d="M 277.5,119.5 C 278.172,120.267 279.005,120.934 280,121.5C 280.089,124.022 279.255,124.188 277.5,122C 268.896,120.613 260.729,121.78 253,125.5C 251.97,125.164 251.47,124.497 251.5,123.5C 253.998,122.088 256.664,120.921 259.5,120C 265.491,119.501 271.491,119.334 277.5,119.5 Z"/></g>
<g><path style="opacity:1" fill="#d29948" d="M 277.5,119.5 C 271.491,119.334 265.491,119.501 259.5,120C 256.664,120.921 253.998,122.088 251.5,123.5C 251.5,122.167 251.5,120.833 251.5,119.5C 256.773,118.572 262.106,117.905 267.5,117.5C 271.239,117.514 274.572,118.18 277.5,119.5 Z"/></g>
<g><path style="opacity:1" fill="#ba9358" d="M 245.5,107.5 C 250.864,108.787 256.198,108.787 261.5,107.5C 259.257,108.812 256.59,109.478 253.5,109.5C 250.41,109.478 247.743,108.812 245.5,107.5 Z"/></g>
<g><path style="opacity:1" fill="#c49b53" d="M 227.5,89.5 C 227.5,99.5 227.5,109.5 227.5,119.5C 224.833,109.5 224.833,99.5 227.5,89.5 Z"/></g>
<g><path style="opacity:1" fill="#392606" d="M 259.5,77.5 C 256.903,86.1079 252.236,93.4412 245.5,99.5C 246.313,100.814 247.313,101.981 248.5,103C 252.325,103.887 256.158,104.721 260,105.5C 261.03,105.836 261.53,106.503 261.5,107.5C 256.198,108.787 250.864,108.787 245.5,107.5C 245.167,107.5 244.833,107.5 244.5,107.5C 243.542,106.038 242.376,104.705 241,103.5C 240.333,101.5 240.333,99.5 241,97.5C 243.623,94.3753 246.456,91.3753 249.5,88.5C 252.131,85.1042 254.298,81.4375 256,77.5C 257.145,76.3157 258.312,76.3157 259.5,77.5 Z"/></g>
<g><path style="opacity:1" fill="#d89a44" d="M 281.5,91.5 C 280.167,91.5 278.833,91.5 277.5,91.5C 277.171,85.4632 277.504,79.4632 278.5,73.5C 280.247,70.7761 282.747,69.4427 286,69.5C 288.341,70.0206 290.508,70.0206 292.5,69.5C 293.583,70.365 293.749,71.365 293,72.5C 292.667,72.1667 292.333,71.8333 292,71.5C 291.5,78.1583 291.334,84.825 291.5,91.5C 288.639,91.3416 285.972,92.0083 283.5,93.5C 282.287,93.2528 281.62,92.5862 281.5,91.5 Z"/></g>
<g><path style="opacity:1" fill="#382803" d="M 281.5,91.5 C 278.639,87.2981 277.806,82.6314 279,77.5C 281.155,71.9917 284.155,71.325 288,75.5C 288.937,80.4033 288.27,85.0699 286,89.5C 284.89,91.0368 283.39,91.7035 281.5,91.5 Z"/></g>
<g><path style="opacity:1" fill="#dc9840" d="M 259.5,77.5 C 258.312,76.3157 257.145,76.3157 256,77.5C 254.298,81.4375 252.131,85.1042 249.5,88.5C 246.456,91.3753 243.623,94.3753 241,97.5C 240.333,99.5 240.333,101.5 241,103.5C 242.376,104.705 243.542,106.038 244.5,107.5C 242.857,107.52 241.524,106.853 240.5,105.5C 239.686,103.234 239.186,100.9 239,98.5C 238.667,99.5 238.333,100.5 238,101.5C 237.694,96.2663 236.694,91.5997 235,87.5C 233.56,90.2961 232.727,92.9628 232.5,95.5C 231.529,92.2371 229.863,89.5705 227.5,87.5C 228.352,80.6155 229.685,73.9489 231.5,67.5C 231.5,71.5 231.5,75.5 231.5,79.5C 234.167,79.5 236.833,79.5 239.5,79.5C 239.025,76.9179 239.692,74.9179 241.5,73.5C 241.328,71.5082 241.995,69.8415 243.5,68.5C 245.766,67.6858 248.1,67.1858 250.5,67C 249.594,65.3005 249.261,63.4672 249.5,61.5C 253.816,62.9593 257.816,65.126 261.5,68C 259.076,68.9229 257.076,70.4229 255.5,72.5C 256.689,73.4287 258.022,73.762 259.5,73.5C 259.5,74.8333 259.5,76.1667 259.5,77.5 Z"/></g>
<g><path style="opacity:1" fill="#3b2c0a" d="M 241.5,73.5 C 242.837,72.6851 243.837,71.5185 244.5,70C 246.807,69.2214 248.807,69.7214 250.5,71.5C 252.221,76.9057 251.221,81.7391 247.5,86C 245.299,86.8249 243.466,86.3249 242,84.5C 241.501,80.8484 241.335,77.1817 241.5,73.5 Z"/></g>
<g><path style="opacity:1" fill="#372a06" d="M 278.5,52.5 C 286.204,53.5941 293.537,55.9275 300.5,59.5C 301.5,60.8333 302.5,62.1667 303.5,63.5C 303.113,64.7199 302.28,65.3865 301,65.5C 293.477,62.2155 285.811,59.5489 278,57.5C 277.36,55.735 277.527,54.0683 278.5,52.5 Z"/></g>
<g><path style="opacity:1" fill="#3c2a03" d="M 255.5,50.5 C 255.785,52.288 255.452,53.9547 254.5,55.5C 248.467,57.344 242.634,59.6773 237,62.5C 236.098,62.2568 235.265,61.9234 234.5,61.5C 235.143,58.0125 237.143,55.5125 240.5,54C 245.099,51.133 250.099,49.9664 255.5,50.5 Z"/></g>
<g><path style="opacity:1" fill="#b59356" d="M 251.5,48.5 C 252.833,49.1667 254.167,49.8333 255.5,50.5C 250.099,49.9664 245.099,51.133 240.5,54C 237.143,55.5125 235.143,58.0125 234.5,61.5C 233.978,63.2191 232.978,64.5525 231.5,65.5C 231.709,61.6988 232.709,58.1988 234.5,55C 240.073,52.5321 245.74,50.3654 251.5,48.5 Z"/></g>
<g><path style="opacity:1" fill="#644109" d="M 339.5,53.5 C 336.833,53.5 334.167,53.5 331.5,53.5C 331.757,56.9322 332.424,60.2655 333.5,63.5C 329.5,63.5 325.5,63.5 321.5,63.5C 321.334,71.5069 321.5,79.5069 322,87.5C 324.599,94.1307 327.099,100.797 329.5,107.5C 327.19,104.898 325.357,101.898 324,98.5C 319.031,86.282 317.531,73.6153 319.5,60.5C 323.087,62.268 326.753,62.6013 330.5,61.5C 329.359,60.5745 329.359,59.7412 330.5,59C 313.226,55.7578 297.559,48.7578 283.5,38C 303.045,40.2049 321.712,45.3716 339.5,53.5 Z"/></g>
<g><path style="opacity:1" fill="#b67611" d="M 271.5,25.5 C 299.645,27.7862 326.645,34.6195 352.5,46C 354.396,47.8083 354.896,49.975 354,52.5C 343.132,48.542 332.299,44.3754 321.5,40C 308.904,37.1218 296.237,34.4551 283.5,32C 267.886,29.4128 252.219,28.9128 236.5,30.5C 236.216,28.5853 236.549,26.9187 237.5,25.5C 248.876,25.0833 260.209,25.0833 271.5,25.5 Z"/></g>
<g><path style="opacity:1" fill="#633f06" d="M 280.5,11.5 C 298.816,9.99111 315.816,13.8244 331.5,23C 335.678,26.6788 339.678,30.5121 343.5,34.5C 342.277,35.6139 340.944,35.7805 339.5,35C 320.228,28.4319 300.562,23.5986 280.5,20.5C 280.762,19.0222 280.429,17.6888 279.5,16.5C 278.326,18.234 276.66,19.234 274.5,19.5C 270.183,18.8683 265.85,18.3683 261.5,18C 267.694,15.2267 274.027,13.0601 280.5,11.5 Z"/></g>
<g><path style="opacity:1" fill="#a66a15" d="M 271.5,25.5 C 260.209,25.0833 248.876,25.0833 237.5,25.5C 237.918,24.7784 238.584,24.2784 239.5,24C 249.167,23.3333 258.833,23.3333 268.5,24C 269.737,24.2321 270.737,24.7321 271.5,25.5 Z"/></g>
<g><path style="opacity:1" fill="#bb7a20" d="M 309.5,163.5 C 308.766,164.878 308.099,166.378 307.5,168C 294.449,175.786 280.449,178.286 265.5,175.5C 265.207,171.563 265.54,167.73 266.5,164C 282.026,163.982 295.526,158.815 307,148.5C 307.9,153.501 308.734,158.501 309.5,163.5 Z"/></g>
<g><path style="opacity:1" fill="#e09a39" d="M 309.5,163.5 C 311.186,166.703 313.519,169.536 316.5,172C 321.456,174.596 326.456,177.096 331.5,179.5C 328.69,184.144 325.023,187.977 320.5,191C 314.992,194.255 309.325,197.255 303.5,200C 291.036,205.278 278.036,206.945 264.5,205C 249.342,203.022 242.009,194.522 242.5,179.5C 242.973,178.094 243.973,177.427 245.5,177.5C 249.63,176.426 253.797,175.426 258,174.5C 259.855,175.244 261.521,176.244 263,177.5C 264.011,176.944 264.844,176.278 265.5,175.5C 280.449,178.286 294.449,175.786 307.5,168C 308.099,166.378 308.766,164.878 309.5,163.5 Z"/></g>
<g><path style="opacity:1" fill="#e2bf5e" d="M 238.5,191.5 C 239.377,194.258 240.544,196.924 242,199.5C 246.5,203.992 251.667,207.325 257.5,209.5C 251.971,208.905 246.971,206.905 242.5,203.5C 241.52,206.086 241.187,208.753 241.5,211.5C 238.918,211.975 236.918,211.308 235.5,209.5C 233.824,210.183 233.157,211.517 233.5,213.5C 225.898,205.73 223.398,196.397 226,185.5C 229.378,182.977 233.045,180.977 237,179.5C 237.176,183.688 237.676,187.688 238.5,191.5 Z"/></g>
<g><path style="opacity:1" fill="#341903" d="M 228.5,189.5 C 229.833,189.5 231.167,189.5 232.5,189.5C 232.5,190.833 232.5,192.167 232.5,193.5C 231.167,193.5 229.833,193.5 228.5,193.5C 228.5,192.167 228.5,190.833 228.5,189.5 Z"/></g>
<g><path style="opacity:1" fill="#e5bd5a" d="M 284.5,227.5 C 277.825,227.666 271.158,227.5 264.5,227C 262.942,226.79 261.609,226.29 260.5,225.5C 266.206,225.829 271.872,225.495 277.5,224.5C 278.816,223.193 279.816,221.693 280.5,220C 282.134,219.506 283.801,219.34 285.5,219.5C 285.672,217.508 285.005,215.842 283.5,214.5C 277.537,213.504 271.537,213.171 265.5,213.5C 266.167,219.5 263.5,222.167 257.5,221.5C 257.205,219.265 257.539,217.265 258.5,215.5C 258.343,216.873 258.51,218.207 259,219.5C 259.718,220.451 260.551,220.617 261.5,220C 264.487,216.792 263.82,214.959 259.5,214.5C 260.718,213.839 262.051,213.172 263.5,212.5C 261.577,211.692 259.577,211.192 257.5,211C 258.056,210.617 258.389,210.117 258.5,209.5C 290.765,214.731 317.599,205.064 339,180.5C 343.707,182.288 348.207,184.455 352.5,187C 335.51,209.996 312.844,223.496 284.5,227.5 Z"/></g>
<g><path style="opacity:1" fill="#732f03" d="M 293.5,231.5 C 299.659,230.292 305.659,228.459 311.5,226C 314.146,225.503 316.813,225.336 319.5,225.5C 319.281,224.325 319.614,223.325 320.5,222.5C 325.078,219.044 330.078,216.378 335.5,214.5C 337.005,213.158 337.672,211.492 337.5,209.5C 338.978,209.762 340.311,209.429 341.5,208.5C 346.518,204.315 351.018,199.649 355,194.5C 355.483,193.552 355.649,192.552 355.5,191.5C 358.187,191.336 360.854,191.503 363.5,192C 367.06,194.605 370.06,197.771 372.5,201.5C 378.052,213.031 382.386,225.031 385.5,237.5C 385.747,238.713 386.414,239.38 387.5,239.5C 391.035,256.015 393.869,272.681 396,289.5C 396.333,289.167 396.667,288.833 397,288.5C 398.585,300.177 400.085,311.844 401.5,323.5C 401.334,331.174 401.5,338.841 402,346.5C 402.333,344.833 402.667,343.167 403,341.5C 402.871,347.916 403.705,353.916 405.5,359.5C 405.5,360.833 405.5,362.167 405.5,363.5C 405.5,378.833 405.5,394.167 405.5,409.5C 395.549,412.04 385.549,412.04 375.5,409.5C 368.079,359.302 356.912,309.968 342,261.5C 340.312,249.576 339.145,237.576 338.5,225.5C 337.507,230.12 337.173,234.786 337.5,239.5C 335.528,248.495 333.861,257.828 332.5,267.5C 331.479,269.619 329.979,271.286 328,272.5C 327.667,275.833 327.333,279.167 327,282.5C 324.694,285.912 322.86,289.579 321.5,293.5C 321.709,294.086 322.043,294.586 322.5,295C 320.683,296.8 319.516,298.966 319,301.5C 318,302.167 317,302.833 316,303.5C 315.11,310.385 313.61,317.052 311.5,323.5C 304.481,326.011 297.148,327.844 289.5,329C 270.725,330.207 252.058,329.374 233.5,326.5C 228.281,324.24 223.115,321.907 218,319.5C 217.471,306.047 214.137,293.38 208,281.5C 204.787,268.946 204.12,256.28 206,243.5C 210.018,233.265 213.184,222.765 215.5,212C 215.167,210.833 214.833,209.667 214.5,208.5C 211.86,212.579 209.694,216.912 208,221.5C 206.365,229.77 203.865,237.77 200.5,245.5C 199.167,254.833 199.167,264.167 200.5,273.5C 203.65,285.116 207.483,296.45 212,307.5C 215.036,320.701 211.87,332.034 202.5,341.5C 191.709,358.869 184.043,377.536 179.5,397.5C 171.776,397.927 165.11,395.594 159.5,390.5C 168.314,354.246 176.647,317.913 184.5,281.5C 187.118,259.595 192.118,238.261 199.5,217.5C 203.308,209.218 207.641,201.218 212.5,193.5C 214.228,191.774 216.228,190.441 218.5,189.5C 220.025,209.53 230.358,222.697 249.5,229C 255.568,230.017 261.568,231.35 267.5,233C 276.244,233.745 284.911,233.245 293.5,231.5 Z"/></g>
<g><path style="opacity:1" fill="#e9bf52" d="M 257.5,209.5 C 257.833,209.5 258.167,209.5 258.5,209.5C 258.389,210.117 258.056,210.617 257.5,211C 259.577,211.192 261.577,211.692 263.5,212.5C 262.051,213.172 260.718,213.839 259.5,214.5C 259.5,215.167 259.167,215.5 258.5,215.5C 257.539,217.265 257.205,219.265 257.5,221.5C 263.5,222.167 266.167,219.5 265.5,213.5C 271.537,213.171 277.537,213.504 283.5,214.5C 285.005,215.842 285.672,217.508 285.5,219.5C 283.801,219.34 282.134,219.506 280.5,220C 279.816,221.693 278.816,223.193 277.5,224.5C 271.872,225.495 266.206,225.829 260.5,225.5C 250.186,224.184 241.186,220.184 233.5,213.5C 233.157,211.517 233.824,210.183 235.5,209.5C 236.918,211.308 238.918,211.975 241.5,211.5C 241.187,208.753 241.52,206.086 242.5,203.5C 246.971,206.905 251.971,208.905 257.5,209.5 Z"/></g>
<g><path style="opacity:1" fill="#312007" d="M 259.5,214.5 C 263.82,214.959 264.487,216.792 261.5,220C 260.551,220.617 259.718,220.451 259,219.5C 258.51,218.207 258.343,216.873 258.5,215.5C 259.167,215.5 259.5,215.167 259.5,214.5 Z"/></g>
<g><path style="opacity:1" fill="#332209" d="M 287.5,214.5 C 288.833,214.5 290.167,214.5 291.5,214.5C 291.849,217.045 291.016,219.045 289,220.5C 286.521,218.912 286.021,216.912 287.5,214.5 Z"/></g>
<g><path style="opacity:1" fill="#2a1702" d="M 312.5,207.5 C 315.91,207.384 317.244,209.05 316.5,212.5C 315.167,212.5 313.833,212.5 312.5,212.5C 312.5,210.833 312.5,209.167 312.5,207.5 Z"/></g>
<g><path style="opacity:1" fill="#35240a" d="M 235.5,209.5 C 235.384,206.09 237.05,204.756 240.5,205.5C 241.078,209.935 239.411,211.268 235.5,209.5 Z"/></g>
<g><path style="opacity:1" fill="#382308" d="M 333.5,192.5 C 336.966,193.109 337.966,194.942 336.5,198C 332.537,198.118 331.537,196.284 333.5,192.5 Z"/></g>
<g><path style="opacity:1" fill="#322808" d="M 387.5,223.5 C 388.512,227.516 389.512,231.516 390.5,235.5C 389.493,238.212 390.159,240.546 392.5,242.5C 402.66,286.951 408.993,331.951 411.5,377.5C 411.79,388.884 411.457,400.217 410.5,411.5C 409.668,394.338 409.168,377.005 409,359.5C 407.812,360.563 407.312,361.897 407.5,363.5C 406.833,363.5 406.167,363.5 405.5,363.5C 405.5,362.167 405.5,360.833 405.5,359.5C 405.83,352.8 405.497,346.134 404.5,339.5C 404.134,333.771 403.134,328.437 401.5,323.5C 400.085,311.844 398.585,300.177 397,288.5C 396.667,288.833 396.333,289.167 396,289.5C 393.869,272.681 391.035,256.015 387.5,239.5C 386.721,234.321 385.387,229.321 383.5,224.5C 384.689,223.571 386.022,223.238 387.5,223.5 Z"/></g>
<g><path style="opacity:1" fill="#eace91" d="M 175.5,296.5 C 172.452,313.17 168.452,329.503 163.5,345.5C 163.189,340.368 163.855,335.368 165.5,330.5C 165.21,328.956 164.544,327.623 163.5,326.5C 164.391,325.41 165.391,325.41 166.5,326.5C 169.064,315.846 171.564,305.18 174,294.5C 174.278,295.416 174.778,296.082 175.5,296.5 Z"/></g>
<g><path style="opacity:1" fill="#612e08" d="M 401.5,323.5 C 403.134,328.437 404.134,333.771 404.5,339.5C 405.497,346.134 405.83,352.8 405.5,359.5C 403.705,353.916 402.871,347.916 403,341.5C 402.667,343.167 402.333,344.833 402,346.5C 401.5,338.841 401.334,331.174 401.5,323.5 Z"/></g>
<g><path style="opacity:1" fill="#332603" d="M 231.5,27.5 C 231.684,29.9248 232.351,29.9248 233.5,27.5C 234.768,29.3043 235.435,31.3043 235.5,33.5C 244.83,30.9721 254.164,30.4721 263.5,32C 268.245,33.2078 268.578,35.0411 264.5,37.5C 263.274,36.6371 261.94,36.6371 260.5,37.5C 260.611,36.8826 260.944,36.3826 261.5,36C 251.904,35.0345 242.404,35.5345 233,37.5C 223.902,45.3672 219.402,55.3672 219.5,67.5C 221.473,78.7463 220.639,89.7463 217,100.5C 206.423,115.349 205.757,130.682 215,146.5C 215.667,149.5 215.667,152.5 215,155.5C 211.578,160.678 207.911,165.678 204,170.5C 202.455,173.302 201.622,176.302 201.5,179.5C 202.73,184.434 204.563,189.101 207,193.5C 211.735,187.931 217.235,183.265 223.5,179.5C 226.47,178.451 229.47,177.284 232.5,176C 234.81,175.503 237.143,175.337 239.5,175.5C 241.898,175.259 243.898,175.926 245.5,177.5C 243.973,177.427 242.973,178.094 242.5,179.5C 241.539,183.335 240.705,187.335 240,191.5C 239.193,187.551 238.693,187.551 238.5,191.5C 237.676,187.688 237.176,183.688 237,179.5C 233.045,180.977 229.378,182.977 226,185.5C 223.398,196.397 225.898,205.73 233.5,213.5C 241.186,220.184 250.186,224.184 260.5,225.5C 261.609,226.29 262.942,226.79 264.5,227C 271.158,227.5 277.825,227.666 284.5,227.5C 288.846,227.334 293.179,227.501 297.5,228C 295.681,228.74 294.348,229.907 293.5,231.5C 284.911,233.245 276.244,233.745 267.5,233C 261.568,231.35 255.568,230.017 249.5,229C 230.358,222.697 220.025,209.53 218.5,189.5C 216.228,190.441 214.228,191.774 212.5,193.5C 207.641,201.218 203.308,209.218 199.5,217.5C 192.118,238.261 187.118,259.595 184.5,281.5C 176.647,317.913 168.314,354.246 159.5,390.5C 165.11,395.594 171.776,397.927 179.5,397.5C 184.043,377.536 191.709,358.869 202.5,341.5C 211.87,332.034 215.036,320.701 212,307.5C 207.483,296.45 203.65,285.116 200.5,273.5C 199.167,264.167 199.167,254.833 200.5,245.5C 203.865,237.77 206.365,229.77 208,221.5C 209.694,216.912 211.86,212.579 214.5,208.5C 214.833,209.667 215.167,210.833 215.5,212C 213.184,222.765 210.018,233.265 206,243.5C 204.12,256.28 204.787,268.946 208,281.5C 214.137,293.38 217.471,306.047 218,319.5C 223.115,321.907 228.281,324.24 233.5,326.5C 252.058,329.374 270.725,330.207 289.5,329C 297.148,327.844 304.481,326.011 311.5,323.5C 318.42,323.049 325.086,321.716 331.5,319.5C 332.108,313.456 333.108,307.456 334.5,301.5C 336.518,297.102 338.685,292.769 341,288.5C 342.071,281.248 341.238,274.248 338.5,267.5C 337.502,258.19 337.168,248.857 337.5,239.5C 337.173,234.786 337.507,230.12 338.5,225.5C 339.145,237.576 340.312,249.576 342,261.5C 356.912,309.968 368.079,359.302 375.5,409.5C 377.025,411.036 379.025,412.036 381.5,412.5C 377.463,413.509 373.463,414.509 369.5,415.5C 370.036,412.302 369.369,409.635 367.5,407.5C 363.405,393.049 358.571,378.716 353,364.5C 347.853,354.195 341.686,344.529 334.5,335.5C 330.393,337.553 326.393,339.553 322.5,341.5C 329.416,350.608 334.416,360.608 337.5,371.5C 337.799,373.604 337.466,375.604 336.5,377.5C 333.748,364.996 328.081,353.996 319.5,344.5C 317.333,344.167 315.167,343.833 313,343.5C 301.539,345.059 290.039,346.226 278.5,347C 277.941,347.725 277.608,348.558 277.5,349.5C 279.256,354.723 279.756,360.057 279,365.5C 277.488,359.817 275.988,354.151 274.5,348.5C 268.202,347.504 261.868,347.17 255.5,347.5C 256.222,357.027 258.055,366.36 261,375.5C 262.752,392.203 264.752,408.87 267,425.5C 267.511,443.538 268.344,461.538 269.5,479.5C 269.5,484.833 269.5,490.167 269.5,495.5C 269.302,528.85 269.969,562.183 271.5,595.5C 271.333,604.167 271.167,612.833 271,621.5C 270.667,622.167 270.333,622.833 270,623.5C 269.667,618.167 269.333,612.833 269,607.5C 268.5,618.161 268.333,628.828 268.5,639.5C 267.701,588.988 266.535,538.322 265,487.5C 264.029,463.117 262.363,438.784 260,414.5C 257.743,392.963 254.41,371.629 250,350.5C 246.191,358.778 242.691,367.111 239.5,375.5C 239.889,372.447 239.223,369.78 237.5,367.5C 238.908,361.76 241.241,356.426 244.5,351.5C 245.466,349.604 245.799,347.604 245.5,345.5C 239.259,344.131 232.926,343.464 226.5,343.5C 225.245,350.432 223.078,357.099 220,363.5C 220.353,359.422 221.353,355.422 223,351.5C 223.499,347.514 223.666,343.514 223.5,339.5C 220.437,339.137 217.437,338.47 214.5,337.5C 213.5,337.833 212.5,338.167 211.5,338.5C 204.645,348.204 198.812,358.537 194,369.5C 186.026,391.686 179.859,414.352 175.5,437.5C 172.832,452.877 170.165,468.211 167.5,483.5C 167.5,480.167 167.5,476.833 167.5,473.5C 166.167,473.5 164.833,473.5 163.5,473.5C 163.799,471.396 163.466,469.396 162.5,467.5C 161.52,470.086 161.187,472.753 161.5,475.5C 160.082,471.713 159.082,467.713 158.5,463.5C 158.19,460.287 158.523,457.287 159.5,454.5C 159.169,458.759 160.002,462.759 162,466.5C 162.333,466.167 162.667,465.833 163,465.5C 164.064,454.651 163.564,443.985 161.5,433.5C 161.5,430.833 161.5,428.167 161.5,425.5C 162.833,425.5 164.167,425.5 165.5,425.5C 165.334,435.506 165.5,445.506 166,455.5C 169.491,440.213 172.657,424.88 175.5,409.5C 176.283,407.657 176.95,405.657 177.5,403.5C 171.135,402.489 165.135,400.489 159.5,397.5C 153.114,407.565 149.281,418.565 148,430.5C 147.5,438.493 147.334,446.493 147.5,454.5C 145.072,445.309 145.072,435.976 147.5,426.5C 147.167,425.833 146.833,425.167 146.5,424.5C 148.501,419.203 150.501,413.87 152.5,408.5C 152.167,407.833 151.833,407.167 151.5,406.5C 154.96,403.386 156.627,399.719 156.5,395.5C 155.482,396.193 154.482,396.859 153.5,397.5C 156.442,380.121 159.776,362.788 163.5,345.5C 168.452,329.503 172.452,313.17 175.5,296.5C 176.96,289.198 178.294,281.865 179.5,274.5C 182.653,259.884 186.153,245.217 190,230.5C 192.994,218.478 197.494,207.145 203.5,196.5C 201.937,193.043 200.104,189.71 198,186.5C 195.902,180.374 196.236,174.374 199,168.5C 202.678,163.794 206.344,159.128 210,154.5C 210.667,151.833 210.667,149.167 210,146.5C 207.723,141.613 205.723,136.613 204,131.5C 201.929,125.058 202.262,118.725 205,112.5C 207.452,107.932 209.618,103.265 211.5,98.5C 213.531,95.5784 214.698,92.2451 215,88.5C 215.256,79.1661 215.089,69.8328 214.5,60.5C 215.664,53.1546 218.498,46.4879 223,40.5C 227.833,37.2239 230.666,32.8906 231.5,27.5 Z"/></g>
<g><path style="opacity:1" fill="#4f3407" d="M 330.5,323.5 C 331.473,325.948 331.806,328.615 331.5,331.5C 319.311,336.214 306.645,339.381 293.5,341C 277.5,341.667 261.5,341.667 245.5,341C 235.776,339.57 226.443,336.904 217.5,333C 216.594,331.301 216.261,329.467 216.5,327.5C 226.669,330 237.002,332 247.5,333.5C 273.291,336.721 298.624,334.555 323.5,327C 325.994,325.968 328.328,324.802 330.5,323.5 Z"/></g>
<g><path style="opacity:1" fill="#f6d58a" d="M 353.5,326.5 C 354.259,334.218 355.592,341.884 357.5,349.5C 357.167,350.833 356.833,352.167 356.5,353.5C 354.76,352.284 353.76,350.618 353.5,348.5C 352.932,346.796 352.932,345.296 353.5,344C 351.527,343.505 349.527,343.338 347.5,343.5C 335.774,332.531 333.274,319.531 340,304.5C 341.545,300.702 343.379,297.035 345.5,293.5C 348.952,304.307 351.618,315.307 353.5,326.5 Z"/></g>
<g><path style="opacity:1" fill="#5d2902" d="M 337.5,239.5 C 337.168,248.857 337.502,258.19 338.5,267.5C 341.238,274.248 342.071,281.248 341,288.5C 338.685,292.769 336.518,297.102 334.5,301.5C 333.108,307.456 332.108,313.456 331.5,319.5C 325.086,321.716 318.42,323.049 311.5,323.5C 313.61,317.052 315.11,310.385 316,303.5C 317,302.833 318,302.167 319,301.5C 319.516,298.966 320.683,296.8 322.5,295C 322.043,294.586 321.709,294.086 321.5,293.5C 322.86,289.579 324.694,285.912 327,282.5C 327.333,279.167 327.667,275.833 328,272.5C 329.979,271.286 331.479,269.619 332.5,267.5C 333.861,257.828 335.528,248.495 337.5,239.5 Z"/></g>
<g><path style="opacity:1" fill="#732f03" d="M 337.5,371.5 C 337.18,368.102 337.513,364.768 338.5,361.5C 344.623,378.307 350.957,394.973 357.5,411.5C 358.191,413.891 359.191,413.891 360.5,411.5C 361.493,416.12 361.827,420.786 361.5,425.5C 361.038,427.757 360.038,429.757 358.5,431.5C 357.334,443.486 357.167,455.486 358,467.5C 358.5,468.5 359,469.5 359.5,470.5C 362.086,471.48 364.753,471.813 367.5,471.5C 367.173,479.601 367.839,487.601 369.5,495.5C 367.508,495.672 365.842,495.005 364.5,493.5C 363.833,494.167 363.167,494.833 362.5,495.5C 359.475,494.217 356.475,493.884 353.5,494.5C 354.025,495.192 354.692,495.692 355.5,496C 354.833,496.167 354.167,496.333 353.5,496.5C 343.299,495.589 332.965,495.589 322.5,496.5C 321.833,496.167 321.167,495.833 320.5,495.5C 319.505,490.208 319.172,484.875 319.5,479.5C 314.714,479.898 310.381,479.898 306.5,479.5C 305.833,480.167 305.167,480.833 304.5,481.5C 303.785,479.222 302.618,477.889 301,477.5C 300.667,478.167 300.333,478.833 300,479.5C 300.128,477.555 299.962,475.722 299.5,474C 300.167,473.667 300.833,473.333 301.5,473C 297.898,472.365 297.232,471.032 299.5,469C 296.611,464.722 292.611,462.888 287.5,463.5C 287.5,464.833 287.5,466.167 287.5,467.5C 289.575,467.302 291.575,467.135 293.5,467C 297.154,472.206 295.988,473.706 290,471.5C 287.977,473.769 287.144,476.436 287.5,479.5C 282.167,479.5 276.833,479.5 271.5,479.5C 270.833,479.5 270.167,479.5 269.5,479.5C 268.344,461.538 267.511,443.538 267,425.5C 264.752,408.87 262.752,392.203 261,375.5C 258.055,366.36 256.222,357.027 255.5,347.5C 261.868,347.17 268.202,347.504 274.5,348.5C 275.988,354.151 277.488,359.817 279,365.5C 279.756,360.057 279.256,354.723 277.5,349.5C 277.608,348.558 277.941,347.725 278.5,347C 290.039,346.226 301.539,345.059 313,343.5C 315.167,343.833 317.333,344.167 319.5,344.5C 328.081,353.996 333.748,364.996 336.5,377.5C 337.466,375.604 337.799,373.604 337.5,371.5 Z"/></g>
<g><path style="opacity:1" fill="#e6cd8f" d="M 353.5,326.5 C 356.99,338.875 359.656,351.541 361.5,364.5C 361.768,366.099 361.434,367.432 360.5,368.5C 356.934,359.699 352.601,351.366 347.5,343.5C 349.527,343.338 351.527,343.505 353.5,344C 352.932,345.296 352.932,346.796 353.5,348.5C 353.76,350.618 354.76,352.284 356.5,353.5C 356.833,352.167 357.167,350.833 357.5,349.5C 355.592,341.884 354.259,334.218 353.5,326.5 Z"/></g>
<g><path style="opacity:1" fill="#733004" d="M 237.5,367.5 C 233.135,380.701 229.302,394.034 226,407.5C 222.939,426.605 220.106,445.605 217.5,464.5C 217.334,457.825 217.5,451.158 218,444.5C 218.654,445.696 219.154,445.696 219.5,444.5C 218.248,442.999 217.248,441.332 216.5,439.5C 214.096,440.008 213.429,441.175 214.5,443C 213.743,444.512 212.743,445.846 211.5,447C 212.938,447.219 214.271,447.719 215.5,448.5C 213.833,449.167 212.167,449.833 210.5,450.5C 212.031,451.613 213.031,453.113 213.5,455C 214.285,456.79 214.285,458.457 213.5,460C 214.973,460.71 215.64,461.876 215.5,463.5C 214.167,463.5 212.833,463.5 211.5,463.5C 211.663,461.143 211.497,458.81 211,456.5C 210.667,458.5 210.333,460.5 210,462.5C 208.587,460.348 207.754,458.014 207.5,455.5C 202.125,455.828 196.792,455.495 191.5,454.5C 194.086,453.52 196.753,453.187 199.5,453.5C 199.5,446.167 199.5,438.833 199.5,431.5C 202.167,431.5 204.833,431.5 207.5,431.5C 207.5,428.833 207.5,426.167 207.5,423.5C 203.5,423.5 199.5,423.5 195.5,423.5C 195.5,426.167 195.5,428.833 195.5,431.5C 192.167,431.5 188.833,431.5 185.5,431.5C 185.769,429.571 185.269,427.905 184,426.5C 184.048,429.568 182.881,431.902 180.5,433.5C 179.833,432.833 179.167,432.167 178.5,431.5C 178.036,433.975 177.036,435.975 175.5,437.5C 179.859,414.352 186.026,391.686 194,369.5C 198.812,358.537 204.645,348.204 211.5,338.5C 212.5,338.167 213.5,337.833 214.5,337.5C 217.437,338.47 220.437,339.137 223.5,339.5C 223.666,343.514 223.499,347.514 223,351.5C 221.353,355.422 220.353,359.422 220,363.5C 223.078,357.099 225.245,350.432 226.5,343.5C 232.926,343.464 239.259,344.131 245.5,345.5C 245.799,347.604 245.466,349.604 244.5,351.5C 241.241,356.426 238.908,361.76 237.5,367.5 Z"/></g>
<g><path style="opacity:1" fill="#5a2a04" d="M 367.5,407.5 C 368.235,414.589 366.235,420.589 361.5,425.5C 361.827,420.786 361.493,416.12 360.5,411.5C 359.191,413.891 358.191,413.891 357.5,411.5C 350.957,394.973 344.623,378.307 338.5,361.5C 337.513,364.768 337.18,368.102 337.5,371.5C 334.416,360.608 329.416,350.608 322.5,341.5C 326.393,339.553 330.393,337.553 334.5,335.5C 341.686,344.529 347.853,354.195 353,364.5C 358.571,378.716 363.405,393.049 367.5,407.5 Z"/></g>
<g><path style="opacity:1" fill="#8e8366" d="M 361.5,364.5 C 362.564,368.008 363.064,371.674 363,375.5C 362.009,373.192 361.176,370.859 360.5,368.5C 361.434,367.432 361.768,366.099 361.5,364.5 Z"/></g>
<g><path style="opacity:1" fill="#5f4f1d" d="M 268.5,639.5 C 268.5,648.833 268.5,658.167 268.5,667.5C 268.5,677.167 268.5,686.833 268.5,696.5C 256.829,696.667 245.162,696.5 233.5,696C 227.348,695.968 221.348,695.135 215.5,693.5C 216.335,612.106 219.502,530.772 225,449.5C 227.721,424.394 232.555,399.727 239.5,375.5C 242.691,367.111 246.191,358.778 250,350.5C 254.41,371.629 257.743,392.963 260,414.5C 262.363,438.784 264.029,463.117 265,487.5C 266.535,538.322 267.701,588.988 268.5,639.5 Z"/></g>
<g><path style="opacity:1" fill="#f9d58a" d="M 179.5,274.5 C 178.294,281.865 176.96,289.198 175.5,296.5C 174.778,296.082 174.278,295.416 174,294.5C 171.564,305.18 169.064,315.846 166.5,326.5C 165.391,325.41 164.391,325.41 163.5,326.5C 164.544,327.623 165.21,328.956 165.5,330.5C 163.855,335.368 163.189,340.368 163.5,345.5C 159.776,362.788 156.442,380.121 153.5,397.5C 151.774,399.942 150.274,402.609 149,405.5C 142.593,423.676 140.76,442.343 143.5,461.5C 141.978,456.978 140.311,452.312 138.5,447.5C 135.863,450.999 134.863,454.999 135.5,459.5C 132.833,460.167 130.167,460.833 127.5,461.5C 127.605,454.104 128.271,446.77 129.5,439.5C 123.5,439.5 117.5,439.5 111.5,439.5C 111.5,436.833 111.5,434.167 111.5,431.5C 108.833,431.5 106.167,431.5 103.5,431.5C 103.5,428.833 103.5,426.167 103.5,423.5C 100.833,423.5 98.1667,423.5 95.5,423.5C 95.5,415.5 95.5,407.5 95.5,399.5C 100.833,399.5 106.167,399.5 111.5,399.5C 111.5,394.167 111.5,388.833 111.5,383.5C 114.167,383.5 116.833,383.5 119.5,383.5C 119.5,380.833 119.5,378.167 119.5,375.5C 116.833,375.5 114.167,375.5 111.5,375.5C 111.5,372.833 111.5,370.167 111.5,367.5C 116.833,367.5 122.167,367.5 127.5,367.5C 127.5,362.167 127.5,356.833 127.5,351.5C 132.833,351.5 138.167,351.5 143.5,351.5C 143.5,330.167 143.5,308.833 143.5,287.5C 148.833,287.5 154.167,287.5 159.5,287.5C 159.5,282.167 159.5,276.833 159.5,271.5C 162.167,271.5 164.833,271.5 167.5,271.5C 167.5,266.167 167.5,260.833 167.5,255.5C 172.222,255.848 176.889,256.515 181.5,257.5C 181.5,258.833 181.5,260.167 181.5,261.5C 180.325,261.281 179.325,261.614 178.5,262.5C 177.2,265.321 177.533,267.988 179.5,270.5C 176.929,271.905 176.929,273.238 179.5,274.5 Z"/></g>
<g><path style="opacity:1" fill="#492405" d="M 405.5,363.5 C 406.167,363.5 406.833,363.5 407.5,363.5C 408.151,379.203 407.484,394.536 405.5,409.5C 405.5,394.167 405.5,378.833 405.5,363.5 Z"/></g>
<g><path style="opacity:1" fill="#ecda9a" d="M 411.5,377.5 C 413.159,393.849 414.493,410.515 415.5,427.5C 413.551,422.923 411.551,418.256 409.5,413.5C 409.863,412.817 410.196,412.15 410.5,411.5C 411.457,400.217 411.79,388.884 411.5,377.5 Z"/></g>
<g><path style="opacity:1" fill="#372f07" d="M 410.5,411.5 C 410.196,412.15 409.863,412.817 409.5,413.5C 411.551,418.256 413.551,422.923 415.5,427.5C 415.616,430.86 415.949,434.193 416.5,437.5C 416.672,449.52 416.338,461.52 415.5,473.5C 414.301,477.258 412.801,480.925 411,484.5C 409.322,486.666 407.155,487.999 404.5,488.5C 403.791,487.596 402.791,487.263 401.5,487.5C 401.5,482.5 401.5,477.5 401.5,472.5C 401.5,468.167 401.5,463.833 401.5,459.5C 402.833,459.5 404.167,459.5 405.5,459.5C 405.169,466.863 405.503,474.197 406.5,481.5C 407.971,480.619 408.804,479.286 409,477.5C 409.61,474.173 410.11,470.839 410.5,467.5C 412.494,451.427 411.494,435.427 407.5,419.5C 408.014,417.488 408.18,415.488 408,413.5C 407.333,414.833 406.667,414.833 406,413.5C 405.51,412.207 405.343,410.873 405.5,409.5C 407.484,394.536 408.151,379.203 407.5,363.5C 407.312,361.897 407.812,360.563 409,359.5C 409.168,377.005 409.668,394.338 410.5,411.5 Z"/></g>
<g><path style="opacity:1" fill="#e39e3f" d="M 407.5,419.5 C 411.494,435.427 412.494,451.427 410.5,467.5C 410.5,466.167 410.5,464.833 410.5,463.5C 409.5,463.5 408.5,463.5 407.5,463.5C 407.843,461.517 407.176,460.183 405.5,459.5C 404.167,459.5 402.833,459.5 401.5,459.5C 401.5,463.833 401.5,468.167 401.5,472.5C 400.422,477.986 399.589,483.652 399,489.5C 398.29,490.973 397.124,491.64 395.5,491.5C 395.5,483.833 395.5,476.167 395.5,468.5C 395.663,466.143 395.497,463.81 395,461.5C 394,460.167 393,460.167 392,461.5C 391.223,469.153 390.723,476.819 390.5,484.5C 389.549,485.919 389.216,487.585 389.5,489.5C 387.964,491.025 386.964,493.025 386.5,495.5C 385.833,484.674 385.167,474.008 384.5,463.5C 383.514,461.592 381.848,460.592 379.5,460.5C 378.505,471.321 378.172,482.321 378.5,493.5C 377.5,493.5 376.5,493.5 375.5,493.5C 375.975,490.918 375.308,488.918 373.5,487.5C 372.831,471.197 371.498,455.197 369.5,439.5C 367.845,447.952 366.845,456.619 366.5,465.5C 366.167,465.5 365.833,465.5 365.5,465.5C 363.527,456.225 362.86,446.558 363.5,436.5C 365.191,428.618 368.858,421.785 374.5,416C 379.331,415.706 384.164,415.873 389,416.5C 393.92,416.345 398.753,415.678 403.5,414.5C 404.887,416.21 406.221,417.877 407.5,419.5 Z"/></g>
<g><path style="opacity:1" fill="#c19f76" d="M 363.5,436.5 C 362.86,446.558 363.527,456.225 365.5,465.5C 364.791,466.404 363.791,466.737 362.5,466.5C 362.173,456.319 362.506,446.319 363.5,436.5 Z"/></g>
<g><path style="opacity:1" fill="#352905" d="M 237.5,367.5 C 239.223,369.78 239.889,372.447 239.5,375.5C 232.555,399.727 227.721,424.394 225,449.5C 219.502,530.772 216.335,612.106 215.5,693.5C 221.348,695.135 227.348,695.968 233.5,696C 245.162,696.5 256.829,696.667 268.5,696.5C 268.5,686.833 268.5,677.167 268.5,667.5C 269.167,656.992 269.833,646.326 270.5,635.5C 271.057,637.332 272.057,638.665 273.5,639.5C 273.5,650.167 273.5,660.833 273.5,671.5C 273.5,680.167 273.5,688.833 273.5,697.5C 278.37,697.31 283.036,696.644 287.5,695.5C 312.373,695.488 337.039,693.321 361.5,689C 368.984,686.934 376.317,684.767 383.5,682.5C 389.076,680.537 394.41,678.204 399.5,675.5C 396.812,640.622 393.979,604.956 391,568.5C 389.015,546.067 386.515,523.733 383.5,501.5C 379.258,501.849 375.258,501.183 371.5,499.5C 370.833,498.167 370.167,496.833 369.5,495.5C 367.839,487.601 367.173,479.601 367.5,471.5C 364.753,471.813 362.086,471.48 359.5,470.5C 359,469.5 358.5,468.5 358,467.5C 357.167,455.486 357.334,443.486 358.5,431.5C 360.038,429.757 361.038,427.757 361.5,425.5C 366.235,420.589 368.235,414.589 367.5,407.5C 369.369,409.635 370.036,412.302 369.5,415.5C 373.463,414.509 377.463,413.509 381.5,412.5C 379.025,412.036 377.025,411.036 375.5,409.5C 385.549,412.04 395.549,412.04 405.5,409.5C 405.343,410.873 405.51,412.207 406,413.5C 406.667,414.833 407.333,414.833 408,413.5C 408.18,415.488 408.014,417.488 407.5,419.5C 406.221,417.877 404.887,416.21 403.5,414.5C 398.753,415.678 393.92,416.345 389,416.5C 384.164,415.873 379.331,415.706 374.5,416C 368.858,421.785 365.191,428.618 363.5,436.5C 362.506,446.319 362.173,456.319 362.5,466.5C 363.791,466.737 364.791,466.404 365.5,465.5C 365.833,465.5 366.167,465.5 366.5,465.5C 366.628,467.09 367.295,468.423 368.5,469.5C 369.499,459.522 369.832,449.522 369.5,439.5C 371.498,455.197 372.831,471.197 373.5,487.5C 373.248,490.32 373.748,492.986 375,495.5C 376.333,496.833 377.667,496.833 379,495.5C 379.5,483.838 379.667,472.171 379.5,460.5C 381.848,460.592 383.514,461.592 384.5,463.5C 384.5,474.833 384.5,486.167 384.5,497.5C 388.994,496.841 390.661,494.175 389.5,489.5C 389.216,487.585 389.549,485.919 390.5,484.5C 390.844,487.562 391.511,490.562 392.5,493.5C 393.107,493.376 393.44,493.043 393.5,492.5C 394.492,492.672 395.158,492.338 395.5,491.5C 397.124,491.64 398.29,490.973 399,489.5C 399.589,483.652 400.422,477.986 401.5,472.5C 401.5,477.5 401.5,482.5 401.5,487.5C 402.791,487.263 403.791,487.596 404.5,488.5C 403.182,492.332 400.848,495.499 397.5,498C 391.936,498.065 389.269,500.898 389.5,506.5C 396.584,563.332 401.417,620.332 404,677.5C 401.766,679.7 399.266,681.533 396.5,683C 391.358,685.094 386.358,687.26 381.5,689.5C 381.167,689.5 380.833,689.5 380.5,689.5C 367.804,693.439 354.804,696.106 341.5,697.5C 341.756,701.269 341.423,704.936 340.5,708.5C 339.842,707.602 339.176,706.602 338.5,705.5C 337.833,706.833 337.167,708.167 336.5,709.5C 335.702,709.043 335.369,708.376 335.5,707.5C 335.579,705.334 336.246,703.334 337.5,701.5C 337.288,699.112 335.955,698.112 333.5,698.5C 319.487,699.456 305.487,700.622 291.5,702C 288.98,703.697 286.647,705.53 284.5,707.5C 282.738,706.738 281.738,705.404 281.5,703.5C 282.463,702.637 282.463,701.97 281.5,701.5C 270.552,702.478 259.552,702.811 248.5,702.5C 248.634,704.292 248.301,705.958 247.5,707.5C 245.333,709.511 242.666,710.678 239.5,711C 230.763,710.19 222.763,712.19 215.5,717C 207.754,719.971 199.754,721.805 191.5,722.5C 184.492,722.666 177.492,722.5 170.5,722C 166.47,719.713 165.636,716.546 168,712.5C 174.207,706.625 180.707,701.125 187.5,696C 180.856,694.305 174.189,692.805 167.5,691.5C 160.98,688.907 154.647,685.74 148.5,682C 145.024,679.215 143.691,675.549 144.5,671C 149.423,611.089 155.09,551.256 161.5,491.5C 159.801,491.66 158.134,491.494 156.5,491C 150.138,482.089 145.805,472.256 143.5,461.5C 140.76,442.343 142.593,423.676 149,405.5C 150.274,402.609 151.774,399.942 153.5,397.5C 154.482,396.859 155.482,396.193 156.5,395.5C 156.627,399.719 154.96,403.386 151.5,406.5C 151.833,407.167 152.167,407.833 152.5,408.5C 150.501,413.87 148.501,419.203 146.5,424.5C 146.833,425.167 147.167,425.833 147.5,426.5C 145.072,435.976 145.072,445.309 147.5,454.5C 148.048,456.626 148.715,458.626 149.5,460.5C 150.361,469.083 153.028,477.083 157.5,484.5C 158.651,485.731 159.817,485.731 161,484.5C 161.498,481.518 161.665,478.518 161.5,475.5C 161.187,472.753 161.52,470.086 162.5,467.5C 163.466,469.396 163.799,471.396 163.5,473.5C 164.833,473.5 166.167,473.5 167.5,473.5C 167.5,476.833 167.5,480.167 167.5,483.5C 166.833,491.5 166.167,499.5 165.5,507.5C 162.881,524.477 160.881,541.81 159.5,559.5C 156.971,585.46 154.971,611.46 153.5,637.5C 149.235,650.826 148.568,664.159 151.5,677.5C 161.942,683.946 173.275,687.946 185.5,689.5C 193.674,691.264 202.008,692.598 210.5,693.5C 210.2,678.785 210.533,664.118 211.5,649.5C 213.49,626.524 214.157,603.191 213.5,579.5C 213.96,541.134 215.294,502.8 217.5,464.5C 220.106,445.605 222.939,426.605 226,407.5C 229.302,394.034 233.135,380.701 237.5,367.5 Z"/></g>
<g><path style="opacity:1" fill="#a0774f" d="M 159.5,452.5 C 159.5,453.167 159.5,453.833 159.5,454.5C 158.523,457.287 158.19,460.287 158.5,463.5C 157.359,460.36 157.192,457.027 158,453.5C 158.383,452.944 158.883,452.611 159.5,452.5 Z"/></g>
<g><path style="opacity:1" fill="#241b06" d="M 369.5,439.5 C 369.832,449.522 369.499,459.522 368.5,469.5C 367.295,468.423 366.628,467.09 366.5,465.5C 366.845,456.619 367.845,447.952 369.5,439.5 Z"/></g>
<g><path style="opacity:1" fill="#372f05" d="M 161.5,433.5 C 163.564,443.985 164.064,454.651 163,465.5C 162.667,465.833 162.333,466.167 162,466.5C 160.002,462.759 159.169,458.759 159.5,454.5C 159.5,453.833 159.5,453.167 159.5,452.5C 159.337,445.938 160.004,439.605 161.5,433.5 Z"/></g>
<g><path style="opacity:1" fill="#d89a3d" d="M 175.5,409.5 C 175.5,408.167 175.5,406.833 175.5,405.5C 169.59,404.183 163.59,403.516 157.5,403.5C 158.643,406.684 159.309,410.017 159.5,413.5C 161.492,413.672 163.158,413.005 164.5,411.5C 165.429,412.689 165.762,414.022 165.5,415.5C 163.5,415.5 161.5,415.5 159.5,415.5C 159.762,416.978 159.429,418.311 158.5,419.5C 156.671,417.844 155.337,415.844 154.5,413.5C 150.001,428.738 148.334,444.404 149.5,460.5C 148.715,458.626 148.048,456.626 147.5,454.5C 147.334,446.493 147.5,438.493 148,430.5C 149.281,418.565 153.114,407.565 159.5,397.5C 165.135,400.489 171.135,402.489 177.5,403.5C 176.95,405.657 176.283,407.657 175.5,409.5 Z"/></g>
<g><path style="opacity:1" fill="#e09637" d="M 175.5,409.5 C 172.657,424.88 169.491,440.213 166,455.5C 165.5,445.506 165.334,435.506 165.5,425.5C 164.167,425.5 162.833,425.5 161.5,425.5C 161.5,428.167 161.5,430.833 161.5,433.5C 160.004,439.605 159.337,445.938 159.5,452.5C 158.883,452.611 158.383,452.944 158,453.5C 157.192,457.027 157.359,460.36 158.5,463.5C 159.082,467.713 160.082,471.713 161.5,475.5C 161.665,478.518 161.498,481.518 161,484.5C 159.817,485.731 158.651,485.731 157.5,484.5C 153.028,477.083 150.361,469.083 149.5,460.5C 148.334,444.404 150.001,428.738 154.5,413.5C 155.337,415.844 156.671,417.844 158.5,419.5C 159.429,418.311 159.762,416.978 159.5,415.5C 161.5,415.5 163.5,415.5 165.5,415.5C 165.762,414.022 165.429,412.689 164.5,411.5C 163.158,413.005 161.492,413.672 159.5,413.5C 159.309,410.017 158.643,406.684 157.5,403.5C 163.59,403.516 169.59,404.183 175.5,405.5C 175.5,406.833 175.5,408.167 175.5,409.5 Z"/></g>
<g><path style="opacity:1" fill="#241b04" d="M 395.5,468.5 C 394.565,476.33 393.899,484.33 393.5,492.5C 393.44,493.043 393.107,493.376 392.5,493.5C 391.511,490.562 390.844,487.562 390.5,484.5C 390.723,476.819 391.223,469.153 392,461.5C 393,460.167 394,460.167 395,461.5C 395.497,463.81 395.663,466.143 395.5,468.5 Z"/></g>
<g><path style="opacity:1" fill="#e4a456" d="M 405.5,459.5 C 407.176,460.183 407.843,461.517 407.5,463.5C 408.5,463.5 409.5,463.5 410.5,463.5C 410.5,464.833 410.5,466.167 410.5,467.5C 410.11,470.839 409.61,474.173 409,477.5C 408.804,479.286 407.971,480.619 406.5,481.5C 405.503,474.197 405.169,466.863 405.5,459.5 Z"/></g>
<g><path style="opacity:1" fill="#d4c38f" d="M 416.5,437.5 C 417.166,443.324 417.5,449.324 417.5,455.5C 417.496,461.872 416.829,467.872 415.5,473.5C 416.338,461.52 416.672,449.52 416.5,437.5 Z"/></g>
<g><path style="opacity:1" fill="#deaf63" d="M 384.5,463.5 C 385.167,474.008 385.833,484.674 386.5,495.5C 386.964,493.025 387.964,491.025 389.5,489.5C 390.661,494.175 388.994,496.841 384.5,497.5C 384.5,486.167 384.5,474.833 384.5,463.5 Z"/></g>
<g><path style="opacity:1" fill="#c68131" d="M 379.5,460.5 C 379.667,472.171 379.5,483.838 379,495.5C 377.667,496.833 376.333,496.833 375,495.5C 373.748,492.986 373.248,490.32 373.5,487.5C 375.308,488.918 375.975,490.918 375.5,493.5C 376.5,493.5 377.5,493.5 378.5,493.5C 378.172,482.321 378.505,471.321 379.5,460.5 Z"/></g>
<g><path style="opacity:1" fill="#62340d" d="M 269.5,479.5 C 270.167,479.5 270.833,479.5 271.5,479.5C 271.5,494.167 271.5,508.833 271.5,523.5C 270.833,514.167 270.167,504.833 269.5,495.5C 269.5,490.167 269.5,484.833 269.5,479.5 Z"/></g>
<g><path style="opacity:1" fill="#bd9054" d="M 395.5,468.5 C 395.5,476.167 395.5,483.833 395.5,491.5C 395.158,492.338 394.492,492.672 393.5,492.5C 393.899,484.33 394.565,476.33 395.5,468.5 Z"/></g>
<g><path style="opacity:1" fill="#71340f" d="M 165.5,507.5 C 164.897,524.173 164.064,540.839 163,557.5C 162.667,557.167 162.333,556.833 162,556.5C 161.764,558.119 160.931,559.119 159.5,559.5C 160.881,541.81 162.881,524.477 165.5,507.5 Z"/></g>
<g><path style="opacity:1" fill="#763003" d="M 217.5,464.5 C 215.294,502.8 213.96,541.134 213.5,579.5C 211.52,591.789 210.853,604.456 211.5,617.5C 210.091,641.909 208.758,666.576 207.5,691.5C 205.396,691.799 203.396,691.466 201.5,690.5C 202.815,689.105 202.481,688.105 200.5,687.5C 199.52,684.914 199.187,682.247 199.5,679.5C 196.833,679.5 194.167,679.5 191.5,679.5C 191.5,682.167 191.5,684.833 191.5,687.5C 193.199,687.34 194.866,687.506 196.5,688C 193.042,689.415 189.375,689.915 185.5,689.5C 173.275,687.946 161.942,683.946 151.5,677.5C 151.408,664.118 152.075,650.785 153.5,637.5C 154.971,611.46 156.971,585.46 159.5,559.5C 160.931,559.119 161.764,558.119 162,556.5C 162.333,556.833 162.667,557.167 163,557.5C 164.064,540.839 164.897,524.173 165.5,507.5C 166.167,499.5 166.833,491.5 167.5,483.5C 170.165,468.211 172.832,452.877 175.5,437.5C 177.036,435.975 178.036,433.975 178.5,431.5C 179.167,432.167 179.833,432.833 180.5,433.5C 182.881,431.902 184.048,429.568 184,426.5C 185.269,427.905 185.769,429.571 185.5,431.5C 188.833,431.5 192.167,431.5 195.5,431.5C 195.5,428.833 195.5,426.167 195.5,423.5C 199.5,423.5 203.5,423.5 207.5,423.5C 207.5,426.167 207.5,428.833 207.5,431.5C 204.833,431.5 202.167,431.5 199.5,431.5C 199.5,438.833 199.5,446.167 199.5,453.5C 196.753,453.187 194.086,453.52 191.5,454.5C 196.792,455.495 202.125,455.828 207.5,455.5C 207.754,458.014 208.587,460.348 210,462.5C 210.333,460.5 210.667,458.5 211,456.5C 211.497,458.81 211.663,461.143 211.5,463.5C 212.833,463.5 214.167,463.5 215.5,463.5C 215.64,461.876 214.973,460.71 213.5,460C 214.285,458.457 214.285,456.79 213.5,455C 213.031,453.113 212.031,451.613 210.5,450.5C 212.167,449.833 213.833,449.167 215.5,448.5C 214.271,447.719 212.938,447.219 211.5,447C 212.743,445.846 213.743,444.512 214.5,443C 213.429,441.175 214.096,440.008 216.5,439.5C 217.248,441.332 218.248,442.999 219.5,444.5C 219.154,445.696 218.654,445.696 218,444.5C 217.5,451.158 217.334,457.825 217.5,464.5 Z"/></g>
<g><path style="opacity:1" fill="#5d3812" d="M 271.5,527.5 C 273.491,553.812 274.158,580.479 273.5,607.5C 272.668,580.998 272.001,554.331 271.5,527.5 Z"/></g>
<g><path style="opacity:1" fill="#763001" d="M 369.5,495.5 C 370.167,496.833 370.833,498.167 371.5,499.5C 372.7,504.485 373.867,509.485 375,514.5C 377.496,547.313 380.329,579.813 383.5,612C 384.188,634.551 385.521,657.051 387.5,679.5C 386.167,679.5 384.833,679.5 383.5,679.5C 383.5,680.5 383.5,681.5 383.5,682.5C 376.317,684.767 368.984,686.934 361.5,689C 337.039,693.321 312.373,695.488 287.5,695.5C 283.5,695.5 279.5,695.5 275.5,695.5C 276.134,687.097 275.467,679.097 273.5,671.5C 273.5,660.833 273.5,650.167 273.5,639.5C 273.5,628.833 273.5,618.167 273.5,607.5C 274.158,580.479 273.491,553.812 271.5,527.5C 271.5,526.167 271.5,524.833 271.5,523.5C 271.5,508.833 271.5,494.167 271.5,479.5C 276.833,479.5 282.167,479.5 287.5,479.5C 287.144,476.436 287.977,473.769 290,471.5C 295.988,473.706 297.154,472.206 293.5,467C 291.575,467.135 289.575,467.302 287.5,467.5C 287.5,466.167 287.5,464.833 287.5,463.5C 292.611,462.888 296.611,464.722 299.5,469C 297.232,471.032 297.898,472.365 301.5,473C 300.833,473.333 300.167,473.667 299.5,474C 299.962,475.722 300.128,477.555 300,479.5C 300.333,478.833 300.667,478.167 301,477.5C 302.618,477.889 303.785,479.222 304.5,481.5C 305.167,480.833 305.833,480.167 306.5,479.5C 310.381,479.898 314.714,479.898 319.5,479.5C 319.172,484.875 319.505,490.208 320.5,495.5C 321.167,495.833 321.833,496.167 322.5,496.5C 332.965,495.589 343.299,495.589 353.5,496.5C 354.167,496.333 354.833,496.167 355.5,496C 354.692,495.692 354.025,495.192 353.5,494.5C 356.475,493.884 359.475,494.217 362.5,495.5C 363.167,494.833 363.833,494.167 364.5,493.5C 365.842,495.005 367.508,495.672 369.5,495.5 Z"/></g>
<g><path style="opacity:1" fill="#f8d587" d="M 543.5,600.5 C 543.5,645.5 543.5,690.5 543.5,735.5C 493.833,735.5 444.167,735.5 394.5,735.5C 405.338,733.297 416.338,731.13 427.5,729C 436.61,726.53 444.776,722.363 452,716.5C 452.858,711.55 451.025,707.883 446.5,705.5C 436.514,701.227 426.181,698.06 415.5,696C 403.632,694.081 391.966,691.915 380.5,689.5C 380.833,689.5 381.167,689.5 381.5,689.5C 388.5,689.5 395.5,689.5 402.5,689.5C 402.539,686.679 403.205,684.012 404.5,681.5C 406.201,682.802 407.368,684.469 408,686.5C 409.043,682.774 409.543,683.107 409.5,687.5C 411.5,687.5 413.5,687.5 415.5,687.5C 415.5,684.833 415.5,682.167 415.5,679.5C 420.736,678.942 425.736,677.608 430.5,675.5C 431.429,676.689 431.762,678.022 431.5,679.5C 436.833,679.5 442.167,679.5 447.5,679.5C 447.5,682.167 447.5,684.833 447.5,687.5C 458.167,687.5 468.833,687.5 479.5,687.5C 479.5,692.833 479.5,698.167 479.5,703.5C 483.5,703.5 487.5,703.5 491.5,703.5C 491.5,706.167 491.5,708.833 491.5,711.5C 492.833,711.5 494.167,711.5 495.5,711.5C 495.167,706.167 494.833,700.833 494.5,695.5C 495.5,695.5 496.5,695.5 497.5,695.5C 497.185,688.695 497.852,682.029 499.5,675.5C 500.833,675.5 502.167,675.5 503.5,675.5C 503.5,674.167 503.5,672.833 503.5,671.5C 506.167,671.5 508.833,671.5 511.5,671.5C 511.5,666.167 511.5,660.833 511.5,655.5C 514.167,655.5 516.833,655.5 519.5,655.5C 519.5,650.167 519.5,644.833 519.5,639.5C 516.833,639.5 514.167,639.5 511.5,639.5C 511.17,633.99 511.836,628.657 513.5,623.5C 518.167,623.5 522.833,623.5 527.5,623.5C 527.5,618.167 527.5,612.833 527.5,607.5C 523.445,607.824 519.445,607.491 515.5,606.5C 517.396,605.534 519.396,605.201 521.5,605.5C 522.029,601.649 521.362,598.149 519.5,595C 520.973,594.29 521.64,593.124 521.5,591.5C 523.167,591.5 524.833,591.5 526.5,591.5C 526.5,594.5 526.5,597.5 526.5,600.5C 532.167,600.5 537.833,600.5 543.5,600.5 Z"/></g>
<g><path style="opacity:1" fill="#5c2a03" d="M 371.5,499.5 C 375.258,501.183 379.258,501.849 383.5,501.5C 386.515,523.733 389.015,546.067 391,568.5C 393.979,604.956 396.812,640.622 399.5,675.5C 394.41,678.204 389.076,680.537 383.5,682.5C 383.5,681.5 383.5,680.5 383.5,679.5C 384.833,679.5 386.167,679.5 387.5,679.5C 385.521,657.051 384.188,634.551 383.5,612C 380.329,579.813 377.496,547.313 375,514.5C 373.867,509.485 372.7,504.485 371.5,499.5 Z"/></g>
<g><path style="opacity:1" fill="#312000" d="M 269.5,495.5 C 270.167,504.833 270.833,514.167 271.5,523.5C 271.5,524.833 271.5,526.167 271.5,527.5C 272.001,554.331 272.668,580.998 273.5,607.5C 273.5,618.167 273.5,628.833 273.5,639.5C 272.057,638.665 271.057,637.332 270.5,635.5C 269.833,646.326 269.167,656.992 268.5,667.5C 268.5,658.167 268.5,648.833 268.5,639.5C 268.333,628.828 268.5,618.161 269,607.5C 269.333,612.833 269.667,618.167 270,623.5C 270.333,622.833 270.667,622.167 271,621.5C 271.167,612.833 271.333,604.167 271.5,595.5C 269.969,562.183 269.302,528.85 269.5,495.5 Z"/></g>
<g><path style="opacity:1" fill="#3f2403" d="M 213.5,579.5 C 214.157,603.191 213.49,626.524 211.5,649.5C 211.5,638.833 211.5,628.167 211.5,617.5C 210.853,604.456 211.52,591.789 213.5,579.5 Z"/></g>
<g><path style="opacity:1" fill="#482a0b" d="M 153.5,637.5 C 152.075,650.785 151.408,664.118 151.5,677.5C 148.568,664.159 149.235,650.826 153.5,637.5 Z"/></g>
<g><path style="opacity:1" fill="#6d3209" d="M 211.5,617.5 C 211.5,628.167 211.5,638.833 211.5,649.5C 210.533,664.118 210.2,678.785 210.5,693.5C 202.008,692.598 193.674,691.264 185.5,689.5C 189.375,689.915 193.042,689.415 196.5,688C 194.866,687.506 193.199,687.34 191.5,687.5C 191.5,684.833 191.5,682.167 191.5,679.5C 194.167,679.5 196.833,679.5 199.5,679.5C 199.187,682.247 199.52,684.914 200.5,687.5C 202.481,688.105 202.815,689.105 201.5,690.5C 203.396,691.466 205.396,691.799 207.5,691.5C 208.758,666.576 210.091,641.909 211.5,617.5 Z"/></g>
<g><path style="opacity:1" fill="#f8d587" d="M 157.5,691.5 C 137.525,693.328 118.192,697.828 99.5,705C 93.4378,708.162 92.1045,712.662 95.5,718.5C 98.6628,720.916 101.996,723.082 105.5,725C 117.969,728.993 130.636,732.16 143.5,734.5C 143.5,734.833 143.5,735.167 143.5,735.5C 95.5,735.5 47.5,735.5 -0.5,735.5C -0.5,714.167 -0.5,692.833 -0.5,671.5C 2.83333,671.5 6.16667,671.5 9.5,671.5C 9.23798,672.978 9.57131,674.311 10.5,675.5C 11.4967,668.866 11.83,662.2 11.5,655.5C 15.5,655.5 19.5,655.5 23.5,655.5C 23.5,654.167 23.5,652.833 23.5,651.5C 24.8333,651.5 26.1667,651.5 27.5,651.5C 27.5,652.833 27.5,654.167 27.5,655.5C 28.8333,655.5 30.1667,655.5 31.5,655.5C 31.5,656.833 31.5,658.167 31.5,659.5C 28.8333,659.5 26.1667,659.5 23.5,659.5C 23.5,660.833 23.5,662.167 23.5,663.5C 20.8559,663.84 18.5225,663.173 16.5,661.5C 15.502,670.141 15.1686,678.808 15.5,687.5C 20.8333,687.5 26.1667,687.5 31.5,687.5C 31.5,691.5 31.5,695.5 31.5,699.5C 26.1667,699.5 20.8333,699.5 15.5,699.5C 15.5,700.833 15.5,702.167 15.5,703.5C 18.1667,703.5 20.8333,703.5 23.5,703.5C 23.5,706.167 23.5,708.833 23.5,711.5C 26.1667,711.5 28.8333,711.5 31.5,711.5C 31.5,708.833 31.5,706.167 31.5,703.5C 38.1667,703.5 44.8333,703.5 51.5,703.5C 51.5,702.167 51.5,700.833 51.5,699.5C 50.1667,699.5 48.8333,699.5 47.5,699.5C 47.5,695.5 47.5,691.5 47.5,687.5C 52.8333,687.5 58.1667,687.5 63.5,687.5C 63.5,692.833 63.5,698.167 63.5,703.5C 70.1667,703.5 76.8333,703.5 83.5,703.5C 83.5,702.167 83.5,700.833 83.5,699.5C 84.8333,699.5 86.1667,699.5 87.5,699.5C 87.5,700.833 87.5,702.167 87.5,703.5C 89.7505,703.819 91.7505,703.319 93.5,702C 92.6919,701.692 92.0253,701.192 91.5,700.5C 91.8457,699.304 92.3457,699.304 93,700.5C 93.2492,699.376 93.7492,698.376 94.5,697.5C 95.8333,700.167 97.1667,700.167 98.5,697.5C 100.149,698.706 101.649,700.039 103,701.5C 103.495,699.527 103.662,697.527 103.5,695.5C 100.833,695.5 98.1667,695.5 95.5,695.5C 95.5,694.167 95.5,692.833 95.5,691.5C 98.1667,691.5 100.833,691.5 103.5,691.5C 103.5,688.833 103.5,686.167 103.5,683.5C 106.167,683.5 108.833,683.5 111.5,683.5C 111.336,686.187 111.503,688.854 112,691.5C 112.388,690.572 113.055,689.905 114,689.5C 115.338,690.506 116.671,691.506 118,692.5C 120.5,692.333 123,692.167 125.5,692C 122.971,693.062 120.304,693.895 117.5,694.5C 117.833,694.833 118.167,695.167 118.5,695.5C 124.556,694.338 130.889,693.671 137.5,693.5C 137.5,692.167 137.5,690.833 137.5,689.5C 142.762,689.805 147.928,689.471 153,688.5C 154.878,689.053 156.378,690.053 157.5,691.5 Z"/></g>
<g><path style="opacity:1" fill="#552e09" d="M 273.5,671.5 C 275.467,679.097 276.134,687.097 275.5,695.5C 279.5,695.5 283.5,695.5 287.5,695.5C 283.036,696.644 278.37,697.31 273.5,697.5C 273.5,688.833 273.5,680.167 273.5,671.5 Z"/></g>
<g><path style="opacity:1" fill="#e6b95f" d="M 157.5,691.5 C 160.833,691.5 164.167,691.5 167.5,691.5C 174.189,692.805 180.856,694.305 187.5,696C 180.707,701.125 174.207,706.625 168,712.5C 165.636,716.546 166.47,719.713 170.5,722C 177.492,722.5 184.492,722.666 191.5,722.5C 191.5,723.5 191.5,724.5 191.5,725.5C 180.76,725.284 170.094,725.951 159.5,727.5C 159.459,722.329 160.626,717.662 163,713.5C 162.5,713 162,712.5 161.5,712C 158.183,711.502 154.85,711.335 151.5,711.5C 151.5,714.167 151.5,716.833 151.5,719.5C 148.833,719.5 146.167,719.5 143.5,719.5C 143.988,722.711 143.321,725.544 141.5,728C 143.271,728.535 143.604,729.369 142.5,730.5C 140.291,729.894 138.124,729.227 136,728.5C 135.517,729.448 135.351,730.448 135.5,731.5C 138.167,731.5 140.833,731.5 143.5,731.5C 143.5,732.5 143.5,733.5 143.5,734.5C 130.636,732.16 117.969,728.993 105.5,725C 101.996,723.082 98.6628,720.916 95.5,718.5C 92.1045,712.662 93.4378,708.162 99.5,705C 118.192,697.828 137.525,693.328 157.5,691.5 Z"/></g>
<g><path style="opacity:1" fill="#e1c988" d="M 281.5,703.5 C 280.167,704.5 278.833,705.5 277.5,706.5C 277.5,705.5 277.5,704.5 277.5,703.5C 268.167,703.5 258.833,703.5 249.5,703.5C 249.843,705.483 249.176,706.817 247.5,707.5C 248.301,705.958 248.634,704.292 248.5,702.5C 259.552,702.811 270.552,702.478 281.5,701.5C 282.463,701.97 282.463,702.637 281.5,703.5 Z"/></g>
<g><path style="opacity:1" fill="#e6b85d" d="M 380.5,689.5 C 391.966,691.915 403.632,694.081 415.5,696C 426.181,698.06 436.514,701.227 446.5,705.5C 451.025,707.883 452.858,711.55 452,716.5C 444.776,722.363 436.61,726.53 427.5,729C 416.338,731.13 405.338,733.297 394.5,735.5C 310.833,735.5 227.167,735.5 143.5,735.5C 143.5,735.167 143.5,734.833 143.5,734.5C 143.5,733.5 143.5,732.5 143.5,731.5C 140.833,731.5 138.167,731.5 135.5,731.5C 135.351,730.448 135.517,729.448 136,728.5C 138.124,729.227 140.291,729.894 142.5,730.5C 143.604,729.369 143.271,728.535 141.5,728C 143.321,725.544 143.988,722.711 143.5,719.5C 146.167,719.5 148.833,719.5 151.5,719.5C 151.5,716.833 151.5,714.167 151.5,711.5C 154.85,711.335 158.183,711.502 161.5,712C 162,712.5 162.5,713 163,713.5C 160.626,717.662 159.459,722.329 159.5,727.5C 170.094,725.951 180.76,725.284 191.5,725.5C 191.5,724.5 191.5,723.5 191.5,722.5C 199.754,721.805 207.754,719.971 215.5,717C 222.763,712.19 230.763,710.19 239.5,711C 242.666,710.678 245.333,709.511 247.5,707.5C 249.176,706.817 249.843,705.483 249.5,703.5C 258.833,703.5 268.167,703.5 277.5,703.5C 277.5,704.5 277.5,705.5 277.5,706.5C 272.713,711.619 268.713,717.285 265.5,723.5C 267.414,729.547 271.581,731.88 278,730.5C 294.372,730.265 309.205,725.431 322.5,716C 326.943,715.472 331.277,714.472 335.5,713C 337.66,712.004 339.327,710.504 340.5,708.5C 341.423,704.936 341.756,701.269 341.5,697.5C 354.804,696.106 367.804,693.439 380.5,689.5 Z"/></g>
<g><path style="opacity:1" fill="#513604" d="M 335.5,707.5 C 333.602,708.089 331.602,708.256 329.5,708C 331.301,708.317 331.634,708.984 330.5,710C 327.438,710.741 324.438,710.575 321.5,709.5C 306.785,720.626 290.118,725.96 271.5,725.5C 271.755,722.984 272.589,720.65 274,718.5C 277.704,714.964 281.204,711.298 284.5,707.5C 286.647,705.53 288.98,703.697 291.5,702C 305.487,700.622 319.487,699.456 333.5,698.5C 335.955,698.112 337.288,699.112 337.5,701.5C 336.246,703.334 335.579,705.334 335.5,707.5 Z"/></g>
<g><path style="opacity:1" fill="#533805" d="M 194.5,698.5 C 210.747,700.786 227.08,702.12 243.5,702.5C 243.78,705.388 242.447,706.888 239.5,707C 235.628,707.891 231.962,707.391 228.5,705.5C 219.291,710.405 209.624,714.238 199.5,717C 190.844,718.643 182.178,718.81 173.5,717.5C 173.971,713.497 175.971,710.331 179.5,708C 180.793,707.51 182.127,707.343 183.5,707.5C 183.5,706.167 183.5,704.833 183.5,703.5C 187.635,702.791 191.302,701.125 194.5,698.5 Z"/></g>
<g><path style="opacity:1" fill="#3b2b03" d="M 281.5,703.5 C 281.738,705.404 282.738,706.738 284.5,707.5C 281.204,711.298 277.704,714.964 274,718.5C 272.589,720.65 271.755,722.984 271.5,725.5C 290.118,725.96 306.785,720.626 321.5,709.5C 324.438,710.575 327.438,710.741 330.5,710C 331.634,708.984 331.301,708.317 329.5,708C 331.602,708.256 333.602,708.089 335.5,707.5C 335.369,708.376 335.702,709.043 336.5,709.5C 337.167,708.167 337.833,706.833 338.5,705.5C 339.176,706.602 339.842,707.602 340.5,708.5C 339.327,710.504 337.66,712.004 335.5,713C 331.277,714.472 326.943,715.472 322.5,716C 309.205,725.431 294.372,730.265 278,730.5C 271.581,731.88 267.414,729.547 265.5,723.5C 268.713,717.285 272.713,711.619 277.5,706.5C 278.833,705.5 280.167,704.5 281.5,703.5 Z"/></g>
</svg>
