<?xml version="1.0" encoding="UTF-8"?>
<!DOCTYPE svg PUBLIC "-//W3C//DTD SVG 1.1//EN" "http://www.w3.org/Graphics/SVG/1.1/DTD/svg11.dtd">
<svg xmlns="http://www.w3.org/2000/svg" version="1.1" width="544px" height="736px" style="shape-rendering:geometricPrecision; text-rendering:geometricPrecision; image-rendering:optimizeQuality; fill-rule:evenodd; clip-rule:evenodd" xmlns:xlink="http://www.w3.org/1999/xlink">
<g><path style="opacity:1" fill="#fad998" d="M -0.5,-0.5 C 83.5,-0.5 167.5,-0.5 251.5,-0.5C 250.942,0.789915 249.942,1.62325 248.5,2C 238.48,1.68759 233.313,6.52092 233,16.5C 225.531,22.092 220.531,29.4254 218,38.5C 217.91,49.8906 217.243,61.2239 216,72.5C 210.525,79.4624 205.692,86.7958 201.5,94.5C 199.133,97.68 198.133,101.347 198.5,105.5C 198.561,108.903 199.061,112.236 200,115.5C 205.105,123.585 204.272,130.918 197.5,137.5C 196.265,137.721 195.265,138.388 194.5,139.5C 193.154,142.87 191.321,145.87 189,148.5C 188.667,150.167 188.333,151.833 188,153.5C 187.009,152.061 185.676,151.061 184,150.5C 182.961,151.244 182.461,152.244 182.5,153.5C 178.713,151.548 175.713,148.714 173.5,145C 167.165,140.668 160.498,137.168 153.5,134.5C 150.436,134.856 147.769,134.023 145.5,132C 131.348,128.768 117.681,130.101 104.5,136C 101.132,139.131 97.1322,141.131 92.5,142C 88.3345,143.483 86.8345,146.316 88,150.5C 94.3283,165.32 100.162,180.32 105.5,195.5C 100.085,205.992 100.251,216.325 106,226.5C 112.449,234.286 118.116,242.619 123,251.5C 126.215,272.154 133.549,291.154 145,308.5C 155.78,320.521 168.28,322.688 182.5,315C 187.333,311.5 191.5,307.333 195,302.5C 199.189,296.123 202.855,289.456 206,282.5C 209.027,291.221 210.193,300.221 209.5,309.5C 203.998,319.478 198.164,329.478 192,339.5C 184.953,353.151 178.787,367.151 173.5,381.5C 167.162,397.848 161.829,414.514 157.5,431.5C 155.964,433.025 154.964,435.025 154.5,437.5C 153.167,444.167 151.833,450.833 150.5,457.5C 149.315,458.853 147.981,460.02 146.5,461C 147.639,466.416 147.806,471.916 147,477.5C 145.548,487.754 144.381,498.087 143.5,508.5C 137.777,551.505 131.944,594.505 126,637.5C 124.742,646.148 124.075,654.815 124,663.5C 125.833,666.667 128.333,669.167 131.5,671C 151.41,680.728 172.41,686.561 194.5,688.5C 194.938,688.435 195.272,688.601 195.5,689C 194.307,690.095 192.973,690.928 191.5,691.5C 188.402,690.179 184.902,689.512 181,689.5C 161.75,690.885 142.583,693.052 123.5,696C 114,698.042 104.666,700.709 95.5,704C 91.6997,705.979 88.3664,708.479 85.5,711.5C 83.631,713.635 82.9644,716.302 83.5,719.5C 82.1667,719.5 80.8333,719.5 79.5,719.5C 79.3205,717.046 79.9872,714.879 81.5,713C 79.8084,710.065 79.1417,706.898 79.5,703.5C 74.1667,703.5 68.8333,703.5 63.5,703.5C 63.5,709.5 63.5,715.5 63.5,721.5C 47.5346,720.169 31.5346,719.502 15.5,719.5C 15.5,714.167 15.5,708.833 15.5,703.5C 10.1667,703.5 4.83333,703.5 -0.5,703.5C -0.5,468.833 -0.5,234.167 -0.5,-0.5 Z"/></g>
<g><path style="opacity:1" fill="#fad897" d="M 317.5,-0.5 C 392.833,-0.5 468.167,-0.5 543.5,-0.5C 543.5,213.5 543.5,427.5 543.5,641.5C 538.167,641.5 532.833,641.5 527.5,641.5C 527.5,642.833 527.5,644.167 527.5,645.5C 530.167,645.5 532.833,645.5 535.5,645.5C 535.5,654.167 535.5,662.833 535.5,671.5C 531.5,671.5 527.5,671.5 523.5,671.5C 523.5,676.833 523.5,682.167 523.5,687.5C 519.5,687.5 515.5,687.5 511.5,687.5C 511.5,690.167 511.5,692.833 511.5,695.5C 514.167,695.5 516.833,695.5 519.5,695.5C 519.5,698.167 519.5,700.833 519.5,703.5C 511.5,703.5 503.5,703.5 495.5,703.5C 495.5,706.167 495.5,708.833 495.5,711.5C 492.833,711.5 490.167,711.5 487.5,711.5C 487.5,708.833 487.5,706.167 487.5,703.5C 479.493,703.334 471.493,703.5 463.5,704C 461.693,704.928 460.026,706.094 458.5,707.5C 457.167,706.833 456.167,705.833 455.5,704.5C 453.257,703.526 450.924,703.192 448.5,703.5C 425.811,696.001 402.477,691.501 378.5,690C 371.842,689.5 365.175,689.334 358.5,689.5C 377.224,686.097 395.557,680.931 413.5,674C 419.501,671.984 424.334,668.484 428,663.5C 422.361,598.054 413.361,533.054 401,468.5C 393.465,424.729 379.632,383.063 359.5,343.5C 377.751,336.046 394.751,326.546 410.5,315C 423.686,305.767 428.853,293.267 426,277.5C 417.098,251.365 405.265,226.698 390.5,203.5C 387.844,199.529 385.177,195.529 382.5,191.5C 385.483,184.981 385.983,178.315 384,171.5C 380.919,165.669 377.585,160.002 374,154.5C 373.581,147.835 374.915,141.502 378,135.5C 379.035,129.485 378.035,123.818 375,118.5C 370.279,112.779 365.946,106.779 362,100.5C 360.438,96.9855 359.605,93.3189 359.5,89.5C 359.5,76.1667 359.5,62.8333 359.5,49.5C 359.665,46.1501 359.498,42.8168 359,39.5C 357.729,38.1175 356.229,37.1175 354.5,36.5C 350.317,25.8139 343.651,16.9806 334.5,10C 328.926,6.24047 323.259,2.74047 317.5,-0.5 Z"/></g>
<g><path style="opacity:1" fill="#e39e4d" d="M 270.5,19.5 C 274.467,22.3127 277.634,25.9794 280,30.5C 284.833,35.3333 289.667,40.1667 294.5,45C 299.583,48.2921 304.75,51.4588 310,54.5C 310.604,70.6748 315.438,85.3415 324.5,98.5C 323.921,102.826 321.921,106.326 318.5,109C 314.35,109.498 310.35,109.164 306.5,108C 298.635,122.185 286.635,130.518 270.5,133C 263.842,133.5 257.175,133.666 250.5,133.5C 236.256,128.049 227.923,117.716 225.5,102.5C 225.169,94.1401 225.502,85.8068 226.5,77.5C 228.126,73.6286 229.126,69.6286 229.5,65.5C 230.978,65.238 232.311,65.5713 233.5,66.5C 234.833,68.5 236.167,70.5 237.5,72.5C 236.5,73.1667 235.5,73.8333 234.5,74.5C 235.119,79.4823 235.786,84.4823 236.5,89.5C 237.842,91.0049 239.508,91.6715 241.5,91.5C 245.645,93.3496 249.979,93.8496 254.5,93C 255.337,91.9887 255.67,90.8221 255.5,89.5C 253.342,87.78 250.675,86.9467 247.5,87C 247.434,85.261 246.767,83.4277 245.5,81.5C 247.812,78.354 250.312,75.354 253,72.5C 253.483,71.552 253.649,70.552 253.5,69.5C 254.833,69.5 256.167,69.5 257.5,69.5C 257.538,66.3795 258.205,63.3795 259.5,60.5C 259.21,58.9559 258.544,57.6226 257.5,56.5C 258.167,55.8333 258.833,55.1667 259.5,54.5C 258.167,53.1667 256.833,51.8333 255.5,50.5C 258.167,49.8333 260.833,49.1667 263.5,48.5C 261.865,47.3192 260.198,47.3192 258.5,48.5C 257.741,45.8434 257.074,43.1767 256.5,40.5C 255.675,39.6143 254.675,39.281 253.5,39.5C 252.833,39.5 252.167,39.5 251.5,39.5C 247.167,38.1667 242.833,36.8333 238.5,35.5C 250.307,32.2634 260.973,26.9301 270.5,19.5 Z"/></g>
<g><path style="opacity:1" fill="#ae721f" d="M 321.5,23.5 C 323.901,24.0488 326.235,24.8822 328.5,26C 337.555,31.1903 346.555,36.3569 355.5,41.5C 355.61,44.0588 354.944,46.3921 353.5,48.5C 340.725,39.7816 327.391,32.1149 313.5,25.5C 316.361,25.3416 319.028,26.0083 321.5,27.5C 322.167,27.1667 322.833,26.8333 323.5,26.5C 322.388,25.7348 321.721,24.7348 321.5,23.5 Z"/></g>
<g><path style="opacity:1" fill="#372705" d="M 273.5,45.5 C 281.499,44.8331 288.832,46.6664 295.5,51C 298.386,53.1204 298.719,55.2871 296.5,57.5C 290.024,52.5081 282.691,50.0081 274.5,50C 273.62,48.6439 273.286,47.1439 273.5,45.5 Z"/></g>
<g><path style="opacity:1" fill="#e4d4af" d="M 359.5,49.5 C 359.5,62.8333 359.5,76.1667 359.5,89.5C 358.804,77.8075 358.138,65.9741 357.5,54C 357.899,52.2725 358.566,50.7725 359.5,49.5 Z"/></g>
<g><path style="opacity:1" fill="#dfa153" d="M 238.5,35.5 C 242.833,36.8333 247.167,38.1667 251.5,39.5C 246.886,38.4498 242.22,38.2832 237.5,39C 235.808,40.4007 235.141,42.2341 235.5,44.5C 241.825,43.4555 248.158,43.2888 254.5,44C 255.581,42.2894 255.248,40.7894 253.5,39.5C 254.675,39.281 255.675,39.6143 256.5,40.5C 257.074,43.1767 257.741,45.8434 258.5,48.5C 260.198,47.3192 261.865,47.3192 263.5,48.5C 260.833,49.1667 258.167,49.8333 255.5,50.5C 256.833,51.8333 258.167,53.1667 259.5,54.5C 258.833,55.1667 258.167,55.8333 257.5,56.5C 258.544,57.6226 259.21,58.9559 259.5,60.5C 258.205,63.3795 257.538,66.3795 257.5,69.5C 256.167,69.5 254.833,69.5 253.5,69.5C 254.633,66.7291 255.633,63.8958 256.5,61C 256.612,59.3376 255.946,58.1709 254.5,57.5C 250.447,65.5889 244.947,72.5889 238,78.5C 235.628,83.8727 236.795,88.206 241.5,91.5C 239.508,91.6715 237.842,91.0049 236.5,89.5C 235.786,84.4823 235.119,79.4823 234.5,74.5C 235.5,73.8333 236.5,73.1667 237.5,72.5C 236.167,70.5 234.833,68.5 233.5,66.5C 232.311,65.5713 230.978,65.238 229.5,65.5C 229.126,69.6286 228.126,73.6286 226.5,77.5C 225.502,85.8068 225.169,94.1401 225.5,102.5C 223.975,98.2721 223.308,93.7721 223.5,89C 224.854,71.415 228.354,54.2484 234,37.5C 235.11,35.9632 236.61,35.2965 238.5,35.5 Z"/></g>
<g><path style="opacity:1" fill="#362706" d="M 241.5,51.5 C 245.852,51.3217 247.852,53.4883 247.5,58C 247.109,60.9533 246.275,63.7866 245,66.5C 242.461,70.3764 240.128,70.3764 238,66.5C 236.676,60.8543 237.843,55.8543 241.5,51.5 Z"/></g>
<g><path style="opacity:1" fill="#382408" d="M 251.5,39.5 C 252.167,39.5 252.833,39.5 253.5,39.5C 255.248,40.7894 255.581,42.2894 254.5,44C 248.158,43.2888 241.825,43.4555 235.5,44.5C 235.141,42.2341 235.808,40.4007 237.5,39C 242.22,38.2832 246.886,38.4498 251.5,39.5 Z"/></g>
<g><path style="opacity:1" fill="#312505" d="M 280.5,59.5 C 284.548,59.7243 286.215,61.8909 285.5,66C 285.939,71.3851 283.772,75.2184 279,77.5C 276.036,76.2049 274.869,73.8715 275.5,70.5C 275.281,65.9399 276.948,62.2733 280.5,59.5 Z"/></g>
<g><path style="opacity:1" fill="#342404" d="M 251.5,-0.5 C 255.5,-0.5 259.5,-0.5 263.5,-0.5C 261.735,0.461384 259.735,0.794717 257.5,0.5C 257.5,1.5 257.5,2.5 257.5,3.5C 265.223,3.8004 272.89,3.46707 280.5,2.5C 293.01,7.2989 305.677,11.7989 318.5,16C 327.787,20.3098 336.787,25.1432 345.5,30.5C 346.408,29.21 346.241,27.8767 345,26.5C 339.22,21.0407 333.387,15.7073 327.5,10.5C 319.466,6.81473 311.466,3.14806 303.5,-0.5C 308.167,-0.5 312.833,-0.5 317.5,-0.5C 323.259,2.74047 328.926,6.24047 334.5,10C 343.651,16.9806 350.317,25.8139 354.5,36.5C 354.629,38.2161 354.962,39.8828 355.5,41.5C 346.555,36.3569 337.555,31.1903 328.5,26C 326.235,24.8822 323.901,24.0488 321.5,23.5C 310.877,17.7352 299.544,13.7352 287.5,11.5C 283.04,10.0243 278.374,8.85763 273.5,8C 262.172,7.50014 250.838,7.33348 239.5,7.5C 239.5,9.5 239.5,11.5 239.5,13.5C 247.5,13.5 255.5,13.5 263.5,13.5C 267.764,13.3442 271.764,14.0109 275.5,15.5C 271.445,15.1758 267.445,15.5091 263.5,16.5C 266.099,17.1353 268.432,18.1353 270.5,19.5C 260.973,26.9301 250.307,32.2634 238.5,35.5C 236.61,35.2965 235.11,35.9632 234,37.5C 228.354,54.2484 224.854,71.415 223.5,89C 223.308,93.7721 223.975,98.2721 225.5,102.5C 227.923,117.716 236.256,128.049 250.5,133.5C 249.566,134.568 249.232,135.901 249.5,137.5C 242.669,136.084 236.669,133.084 231.5,128.5C 220.633,114.019 216.133,97.6859 218,79.5C 212.529,85.7889 207.696,92.4555 203.5,99.5C 203.635,97.4458 202.968,95.7791 201.5,94.5C 205.692,86.7958 210.525,79.4624 216,72.5C 217.243,61.2239 217.91,49.8906 218,38.5C 220.531,29.4254 225.531,22.092 233,16.5C 233.313,6.52092 238.48,1.68759 248.5,2C 249.942,1.62325 250.942,0.789915 251.5,-0.5 Z"/></g>
<g><path style="opacity:1" fill="#5d3c0e" d="M 241.5,17.5 C 248.175,17.3337 254.842,17.5004 261.5,18C 262.308,18.3076 262.975,18.8076 263.5,19.5C 252.628,26.1247 240.961,30.7914 228.5,33.5C 228.413,41.1322 226.413,48.4656 222.5,55.5C 220.521,42.2382 224.187,30.7382 233.5,21C 236.158,19.522 238.825,18.3554 241.5,17.5 Z"/></g>
<g><path style="opacity:1" fill="#db9017" d="M 287.5,11.5 C 299.544,13.7352 310.877,17.7352 321.5,23.5C 321.721,24.7348 322.388,25.7348 323.5,26.5C 322.833,26.8333 322.167,27.1667 321.5,27.5C 319.028,26.0083 316.361,25.3416 313.5,25.5C 301.257,20.6058 288.59,17.2724 275.5,15.5C 271.764,14.0109 267.764,13.3442 263.5,13.5C 256.546,11.8546 249.213,10.8546 241.5,10.5C 252.833,9.16667 264.167,9.16667 275.5,10.5C 272.679,11.8418 272.846,12.5084 276,12.5C 279.792,11.6898 283.625,11.3564 287.5,11.5 Z"/></g>
<g><path style="opacity:1" fill="#d78f1d" d="M 287.5,11.5 C 283.625,11.3564 279.792,11.6898 276,12.5C 272.846,12.5084 272.679,11.8418 275.5,10.5C 264.167,9.16667 252.833,9.16667 241.5,10.5C 249.213,10.8546 256.546,11.8546 263.5,13.5C 255.5,13.5 247.5,13.5 239.5,13.5C 239.5,11.5 239.5,9.5 239.5,7.5C 250.838,7.33348 262.172,7.50014 273.5,8C 278.374,8.85763 283.04,10.0243 287.5,11.5 Z"/></g>
<g><path style="opacity:1" fill="#5a3809" d="M 263.5,-0.5 C 276.833,-0.5 290.167,-0.5 303.5,-0.5C 311.466,3.14806 319.466,6.81473 327.5,10.5C 333.387,15.7073 339.22,21.0407 345,26.5C 346.241,27.8767 346.408,29.21 345.5,30.5C 336.787,25.1432 327.787,20.3098 318.5,16C 305.677,11.7989 293.01,7.2989 280.5,2.5C 272.89,3.46707 265.223,3.8004 257.5,3.5C 257.5,2.5 257.5,1.5 257.5,0.5C 259.735,0.794717 261.735,0.461384 263.5,-0.5 Z"/></g>
<g><path style="opacity:1" fill="#d9a761" d="M 253.5,69.5 C 253.649,70.552 253.483,71.552 253,72.5C 250.312,75.354 247.812,78.354 245.5,81.5C 246.767,83.4277 247.434,85.261 247.5,87C 250.675,86.9467 253.342,87.78 255.5,89.5C 252.587,88.7589 249.587,88.2589 246.5,88C 244.36,87.0267 242.693,85.5267 241.5,83.5C 245.178,78.4942 249.178,73.8275 253.5,69.5 Z"/></g>
<g><path style="opacity:1" fill="#3a2505" d="M 253.5,69.5 C 249.178,73.8275 245.178,78.4942 241.5,83.5C 242.693,85.5267 244.36,87.0267 246.5,88C 249.587,88.2589 252.587,88.7589 255.5,89.5C 255.67,90.8221 255.337,91.9887 254.5,93C 249.979,93.8496 245.645,93.3496 241.5,91.5C 236.795,88.206 235.628,83.8727 238,78.5C 244.947,72.5889 250.447,65.5889 254.5,57.5C 255.946,58.1709 256.612,59.3376 256.5,61C 255.633,63.8958 254.633,66.7291 253.5,69.5 Z"/></g>
<g><path style="opacity:1" fill="#5d3809" d="M 231.5,128.5 C 230.226,129.189 230.226,130.023 231.5,131C 228.056,133.845 226.723,137.345 227.5,141.5C 225.687,147.342 225.02,153.342 225.5,159.5C 217.86,163.32 210.527,167.653 203.5,172.5C 200.633,169.412 198.799,165.746 198,161.5C 197.333,156.833 197.333,152.167 198,147.5C 201,142.167 204,136.833 207,131.5C 208.195,124.491 207.195,117.825 204,111.5C 203.501,107.514 203.334,103.514 203.5,99.5C 207.696,92.4555 212.529,85.7889 218,79.5C 216.133,97.6859 220.633,114.019 231.5,128.5 Z"/></g>
<g><path style="opacity:1" fill="#312205" d="M 275.5,15.5 C 288.59,17.2724 301.257,20.6058 313.5,25.5C 327.391,32.1149 340.725,39.7816 353.5,48.5C 354.944,46.3921 355.61,44.0588 355.5,41.5C 354.962,39.8828 354.629,38.2161 354.5,36.5C 356.229,37.1175 357.729,38.1175 359,39.5C 359.498,42.8168 359.665,46.1501 359.5,49.5C 358.566,50.7725 357.899,52.2725 357.5,54C 358.138,65.9741 358.804,77.8075 359.5,89.5C 359.605,93.3189 360.438,96.9855 362,100.5C 365.946,106.779 370.279,112.779 375,118.5C 378.035,123.818 379.035,129.485 378,135.5C 374.915,141.502 373.581,147.835 374,154.5C 377.585,160.002 380.919,165.669 384,171.5C 385.983,178.315 385.483,184.981 382.5,191.5C 385.177,195.529 387.844,199.529 390.5,203.5C 389.876,203.917 389.543,204.584 389.5,205.5C 391.119,208.642 391.785,211.975 391.5,215.5C 384.267,202.923 375.6,191.257 365.5,180.5C 360.866,176.906 355.866,174.072 350.5,172C 348.098,171.186 345.765,171.353 343.5,172.5C 333.15,187.53 319.817,198.864 303.5,206.5C 290.317,210.653 276.817,212.987 263,213.5C 250.619,212.084 238.119,208.418 225.5,202.5C 221.833,198.833 218.167,195.167 214.5,191.5C 212.71,186.038 210.71,180.705 208.5,175.5C 199.543,184.063 192.543,194.063 187.5,205.5C 182.9,218.134 178.4,230.801 174,243.5C 172.525,248.063 171.692,252.73 171.5,257.5C 172.036,260.698 171.369,263.365 169.5,265.5C 164.92,261.738 161.253,257.072 158.5,251.5C 156.868,248.854 154.535,247.521 151.5,247.5C 151.672,249.492 151.005,251.158 149.5,252.5C 142.715,254.938 135.715,255.938 128.5,255.5C 131.873,273.132 138.373,289.465 148,304.5C 151.036,307.704 154.203,310.704 157.5,313.5C 160.087,314.816 163.087,315.483 166.5,315.5C 169.913,315.483 172.913,314.816 175.5,313.5C 178.502,311.809 181.502,309.809 184.5,307.5C 186.415,305.929 187.415,303.929 187.5,301.5C 189.767,300.404 191.6,298.737 193,296.5C 196.365,289.77 199.698,283.103 203,276.5C 203.814,274.098 203.647,271.765 202.5,269.5C 199.148,263.76 196.815,257.76 195.5,251.5C 193.391,232.856 197.058,215.523 206.5,199.5C 207.167,198.833 207.833,198.167 208.5,197.5C 208.833,197.833 209.167,198.167 209.5,198.5C 204.208,210.835 200.875,223.668 199.5,237C 200.682,251.926 204.516,266.093 211,279.5C 212.475,284.064 213.308,288.73 213.5,293.5C 212.109,299.906 210.776,305.239 209.5,309.5C 210.193,300.221 209.027,291.221 206,282.5C 202.855,289.456 199.189,296.123 195,302.5C 191.5,307.333 187.333,311.5 182.5,315C 168.28,322.688 155.78,320.521 145,308.5C 133.549,291.154 126.215,272.154 123,251.5C 118.116,242.619 112.449,234.286 106,226.5C 100.251,216.325 100.085,205.992 105.5,195.5C 100.162,180.32 94.3283,165.32 88,150.5C 86.8345,146.316 88.3345,143.483 92.5,142C 97.1322,141.131 101.132,139.131 104.5,136C 117.681,130.101 131.348,128.768 145.5,132C 147.769,134.023 150.436,134.856 153.5,134.5C 152.726,135.147 151.726,135.48 150.5,135.5C 144.682,133.371 138.682,133.038 132.5,134.5C 132.833,135.167 133.167,135.833 133.5,136.5C 131.604,137.466 129.604,137.799 127.5,137.5C 124.833,137.5 122.167,137.5 119.5,137.5C 119.5,139.833 119.5,142.167 119.5,144.5C 118.508,151.648 118.175,158.981 118.5,166.5C 117.186,171.348 117.186,176.348 118.5,181.5C 119.107,181.376 119.44,181.043 119.5,180.5C 121.23,179.974 122.564,178.974 123.5,177.5C 127.373,165.723 130.707,153.723 133.5,141.5C 134.791,141.263 135.791,141.596 136.5,142.5C 134.543,153.828 131.877,164.994 128.5,176C 129.604,177.82 131.104,179.32 133,180.5C 133.852,179.429 134.685,178.429 135.5,177.5C 137.561,178.682 139.061,178.015 140,175.5C 140.399,175.728 140.565,176.062 140.5,176.5C 140.196,177.15 139.863,177.817 139.5,178.5C 141.5,179.833 143.167,181.5 144.5,183.5C 150.439,184.681 153.605,188.348 154,194.5C 157.045,196.719 158.211,199.719 157.5,203.5C 156.167,203.5 154.833,203.5 153.5,203.5C 153.232,205.099 153.566,206.432 154.5,207.5C 153.36,209.78 152.193,212.114 151,214.5C 150.333,216.5 150.333,218.5 151,220.5C 155.822,226.965 157.822,234.298 157,242.5C 160,246.167 163,249.833 166,253.5C 172.163,230.677 180.497,208.677 191,187.5C 193.833,183.833 196.667,180.167 199.5,176.5C 191.065,163.878 190.398,150.878 197.5,137.5C 204.272,130.918 205.105,123.585 200,115.5C 199.061,112.236 198.561,108.903 198.5,105.5C 198.133,101.347 199.133,97.68 201.5,94.5C 202.968,95.7791 203.635,97.4458 203.5,99.5C 203.334,103.514 203.501,107.514 204,111.5C 207.195,117.825 208.195,124.491 207,131.5C 204,136.833 201,142.167 198,147.5C 197.333,152.167 197.333,156.833 198,161.5C 198.799,165.746 200.633,169.412 203.5,172.5C 210.527,167.653 217.86,163.32 225.5,159.5C 232.727,156.859 240.06,154.526 247.5,152.5C 249.37,147.739 250.037,142.739 249.5,137.5C 249.232,135.901 249.566,134.568 250.5,133.5C 257.175,133.666 263.842,133.5 270.5,133C 286.635,130.518 298.635,122.185 306.5,108C 310.35,109.164 314.35,109.498 318.5,109C 321.921,106.326 323.921,102.826 324.5,98.5C 315.438,85.3415 310.604,70.6748 310,54.5C 304.75,51.4588 299.583,48.2921 294.5,45C 289.667,40.1667 284.833,35.3333 280,30.5C 277.634,25.9794 274.467,22.3127 270.5,19.5C 268.432,18.1353 266.099,17.1353 263.5,16.5C 267.445,15.5091 271.445,15.1758 275.5,15.5 Z"/></g>
<g><path style="opacity:1" fill="#e4bd70" d="M 135.5,177.5 C 134.685,178.429 133.852,179.429 133,180.5C 131.104,179.32 129.604,177.82 128.5,176C 131.877,164.994 134.543,153.828 136.5,142.5C 141.412,142.07 146.079,143.237 150.5,146C 145.344,156.477 140.344,166.977 135.5,177.5 Z"/></g>
<g><path style="opacity:1" fill="#e1be75" d="M 114.5,152.5 C 113.833,159.833 113.167,167.167 112.5,174.5C 110.725,164.029 109.058,153.529 107.5,143C 108.102,139.078 110.435,137.578 114.5,138.5C 114.5,143.167 114.5,147.833 114.5,152.5 Z"/></g>
<g><path style="opacity:1" fill="#e9bd6c" d="M 157.5,203.5 C 158.211,199.719 157.045,196.719 154,194.5C 153.605,188.348 150.439,184.681 144.5,183.5C 143.167,181.5 141.5,179.833 139.5,178.5C 139.863,177.817 140.196,177.15 140.5,176.5C 144.995,166.841 149.995,157.508 155.5,148.5C 164.625,152.896 173.292,158.063 181.5,164C 174.809,177.214 167.976,190.381 161,203.5C 160.014,204.171 158.847,204.171 157.5,203.5 Z"/></g>
<g><path style="opacity:1" fill="#e49e4c" d="M 297.5,141.5 C 297.773,146.212 299.773,150.045 303.5,153C 308.894,156.027 314.227,159.027 319.5,162C 312.608,171.444 303.608,177.944 292.5,181.5C 287.19,181.041 282.19,182.041 277.5,184.5C 269.193,185.498 260.86,185.831 252.5,185.5C 241.535,184.199 235.202,178.199 233.5,167.5C 233.288,164.989 233.955,162.822 235.5,161C 239.843,159.493 244.176,157.993 248.5,156.5C 249.281,157.729 249.781,159.062 250,160.5C 250.671,161.252 251.504,161.586 252.5,161.5C 253.451,160.081 253.784,158.415 253.5,156.5C 271.317,160.672 285.984,155.672 297.5,141.5 Z"/></g>
<g><path style="opacity:1" fill="#322707" d="M 153.5,134.5 C 160.498,137.168 167.165,140.668 173.5,145C 175.713,148.714 178.713,151.548 182.5,153.5C 182.776,157.249 183.776,160.749 185.5,164C 179.028,178.778 171.861,193.278 164,207.5C 160.888,208.573 157.721,208.573 154.5,207.5C 153.566,206.432 153.232,205.099 153.5,203.5C 154.833,203.5 156.167,203.5 157.5,203.5C 158.847,204.171 160.014,204.171 161,203.5C 167.976,190.381 174.809,177.214 181.5,164C 173.292,158.063 164.625,152.896 155.5,148.5C 149.995,157.508 144.995,166.841 140.5,176.5C 140.565,176.062 140.399,175.728 140,175.5C 139.061,178.015 137.561,178.682 135.5,177.5C 140.344,166.977 145.344,156.477 150.5,146C 146.079,143.237 141.412,142.07 136.5,142.5C 135.791,141.596 134.791,141.263 133.5,141.5C 133.5,140.5 133.5,139.5 133.5,138.5C 131.265,138.795 129.265,138.461 127.5,137.5C 129.604,137.799 131.604,137.466 133.5,136.5C 133.167,135.833 132.833,135.167 132.5,134.5C 138.682,133.038 144.682,133.371 150.5,135.5C 151.726,135.48 152.726,135.147 153.5,134.5 Z"/></g>
<g><path style="opacity:1" fill="#e3be70" d="M 101.5,142.5 C 102.931,142.881 103.764,143.881 104,145.5C 106.114,159.015 108.28,172.515 110.5,186C 109.525,191.66 108.025,191.494 106,185.5C 101.496,173.32 96.996,161.153 92.5,149C 92.8333,148.167 93.1667,147.333 93.5,146.5C 96.3584,145.339 99.025,144.006 101.5,142.5 Z"/></g>
<g><path style="opacity:1" fill="#e5bd6f" d="M 127.5,137.5 C 129.265,138.461 131.265,138.795 133.5,138.5C 133.5,139.5 133.5,140.5 133.5,141.5C 130.707,153.723 127.373,165.723 123.5,177.5C 122.167,177.5 120.833,177.5 119.5,177.5C 119.5,166.5 119.5,155.5 119.5,144.5C 119.5,142.167 119.5,139.833 119.5,137.5C 122.167,137.5 124.833,137.5 127.5,137.5 Z"/></g>
<g><path style="opacity:1" fill="#5f4a26" d="M 266.5,138.5 C 262.366,139.485 258.032,139.818 253.5,139.5C 253.5,145.167 253.5,150.833 253.5,156.5C 253.784,158.415 253.451,160.081 252.5,161.5C 252.5,153.833 252.5,146.167 252.5,138.5C 257.167,138.5 261.833,138.5 266.5,138.5 Z"/></g>
<g><path style="opacity:1" fill="#4c3108" d="M 231.5,128.5 C 236.669,133.084 242.669,136.084 249.5,137.5C 250.037,142.739 249.37,147.739 247.5,152.5C 240.06,154.526 232.727,156.859 225.5,159.5C 225.02,153.342 225.687,147.342 227.5,141.5C 226.723,137.345 228.056,133.845 231.5,131C 230.226,130.023 230.226,129.189 231.5,128.5 Z"/></g>
<g><path style="opacity:1" fill="#4b3007" d="M 339.5,126.5 C 336.375,127.479 333.042,127.813 329.5,127.5C 328.554,132.864 328.22,138.197 328.5,143.5C 331.398,147.527 333.732,151.86 335.5,156.5C 340.018,160.759 345.351,163.425 351.5,164.5C 352.612,165.265 353.279,166.265 353.5,167.5C 341.64,163.032 329.64,158.865 317.5,155C 312.41,153.042 307.91,150.208 304,146.5C 301.485,138.605 300.985,130.605 302.5,122.5C 304.702,120.589 306.369,118.255 307.5,115.5C 312.182,114.782 316.849,114.116 321.5,113.5C 323.149,111.35 324.982,109.35 327,107.5C 327.49,106.207 327.657,104.873 327.5,103.5C 328.552,103.351 329.552,103.517 330.5,104C 334.939,110.391 336.772,117.558 336,125.5C 337.011,126.337 338.178,126.67 339.5,126.5 Z"/></g>
<g><path style="opacity:1" fill="#5d3808" d="M 353.5,167.5 C 353.279,166.265 352.612,165.265 351.5,164.5C 345.351,163.425 340.018,160.759 335.5,156.5C 333.732,151.86 331.398,147.527 328.5,143.5C 328.22,138.197 328.554,132.864 329.5,127.5C 333.042,127.813 336.375,127.479 339.5,126.5C 339.666,120.824 339.499,115.157 339,109.5C 332.294,99.7818 325.96,89.7818 320,79.5C 317.41,72.0523 315.91,64.3856 315.5,56.5C 319.119,57.2436 322.785,57.577 326.5,57.5C 326.719,56.325 326.386,55.325 325.5,54.5C 306.584,49.5717 291.918,38.905 281.5,22.5C 286.23,21.6716 290.896,22.1716 295.5,24C 315.554,31.1066 334.054,40.6066 351,52.5C 352.127,55.3771 352.794,58.3771 353,61.5C 353.112,73.2146 353.779,84.8813 355,96.5C 358.067,104.305 362.401,111.305 368,117.5C 374.891,126.281 375.224,135.281 369,144.5C 368.333,148.5 368.333,152.5 369,156.5C 372.085,161.672 375.419,166.672 379,171.5C 379.499,176.155 379.666,180.821 379.5,185.5C 378.448,185.649 377.448,185.483 376.5,185C 369.92,177.713 362.253,171.88 353.5,167.5 Z"/></g>
<g><path style="opacity:1" fill="#c37827" d="M 297.5,141.5 C 285.984,155.672 271.317,160.672 253.5,156.5C 253.5,150.833 253.5,145.167 253.5,139.5C 258.032,139.818 262.366,139.485 266.5,138.5C 277.408,137.199 287.408,133.532 296.5,127.5C 297.493,132.12 297.827,136.786 297.5,141.5 Z"/></g>
<g><path style="opacity:1" fill="#342004" d="M 271.5,97.5 C 272.833,97.5 274.167,97.5 275.5,97.5C 275.677,99.9806 274.677,101.814 272.5,103C 263.056,106.752 253.389,107.418 243.5,105C 240.965,104.072 239.965,102.238 240.5,99.5C 245.021,101.088 249.687,102.088 254.5,102.5C 260.771,102.52 266.438,100.853 271.5,97.5 Z"/></g>
<g><path style="opacity:1" fill="#71571c" d="M 118.5,166.5 C 118.181,171.363 118.514,176.03 119.5,180.5C 119.44,181.043 119.107,181.376 118.5,181.5C 117.186,176.348 117.186,171.348 118.5,166.5 Z"/></g>
<g><path style="opacity:1" fill="#ddc48d" d="M 119.5,144.5 C 119.5,155.5 119.5,166.5 119.5,177.5C 120.833,177.5 122.167,177.5 123.5,177.5C 122.564,178.974 121.23,179.974 119.5,180.5C 118.514,176.03 118.181,171.363 118.5,166.5C 118.175,158.981 118.508,151.648 119.5,144.5 Z"/></g>
<g><path style="opacity:1" fill="#ddbd7c" d="M 323.5,187.5 C 323.16,184.856 323.827,182.523 325.5,180.5C 324.388,179.735 323.721,178.735 323.5,177.5C 321.824,176.817 321.157,175.483 321.5,173.5C 325.007,172.994 328.174,173.66 331,175.5C 332.049,173.893 333.549,173.227 335.5,173.5C 335.5,171.5 335.5,169.5 335.5,167.5C 331.5,166.833 327.5,166.167 323.5,165.5C 323.962,164.12 324.962,163.453 326.5,163.5C 331.294,164.479 335.627,166.313 339.5,169C 336.102,176.895 330.768,183.061 323.5,187.5 Z"/></g>
<g><path style="opacity:1" fill="#271e0d" d="M 323.5,177.5 C 323.5,176.5 323.5,175.5 323.5,174.5C 325.665,174.116 327.332,174.783 328.5,176.5C 327.218,178.704 325.551,179.038 323.5,177.5 Z"/></g>
<g><path style="opacity:1" fill="#a48d66" d="M 114.5,152.5 C 114.666,161.173 114.5,169.84 114,178.5C 113.59,177.099 113.09,175.766 112.5,174.5C 113.167,167.167 113.833,159.833 114.5,152.5 Z"/></g>
<g><path style="opacity:1" fill="#e9c073" d="M 323.5,165.5 C 327.5,166.167 331.5,166.833 335.5,167.5C 335.5,169.5 335.5,171.5 335.5,173.5C 333.549,173.227 332.049,173.893 331,175.5C 328.174,173.66 325.007,172.994 321.5,173.5C 321.157,175.483 321.824,176.817 323.5,177.5C 323.721,178.735 324.388,179.735 325.5,180.5C 323.827,182.523 323.16,184.856 323.5,187.5C 323.167,188.5 322.5,189.167 321.5,189.5C 318.552,189.777 315.719,189.444 313,188.5C 312.722,189.416 312.222,190.082 311.5,190.5C 311.5,189.5 311.5,188.5 311.5,187.5C 309.975,185.964 307.975,184.964 305.5,184.5C 306.853,183.476 307.52,182.143 307.5,180.5C 313.436,176.233 318.77,171.233 323.5,165.5 Z"/></g>
<g><path style="opacity:1" fill="#e6c177" d="M 287.5,189.5 C 294.355,187.075 301.022,184.075 307.5,180.5C 307.52,182.143 306.853,183.476 305.5,184.5C 307.975,184.964 309.975,185.964 311.5,187.5C 309.167,185.889 307.5,186.389 306.5,189C 307.5,191.611 309.167,192.111 311.5,190.5C 312.222,190.082 312.722,189.416 313,188.5C 315.719,189.444 318.552,189.777 321.5,189.5C 303.24,203.237 282.573,209.237 259.5,207.5C 265.758,205.7 272.425,204.867 279.5,205C 280.759,204.077 282.092,203.243 283.5,202.5C 281.457,199.753 280.124,197.087 279.5,194.5C 273.5,193.167 267.5,193.167 261.5,194.5C 263.005,195.842 263.672,197.508 263.5,199.5C 262.167,199.5 260.833,199.5 259.5,199.5C 259.5,200.833 259.5,202.167 259.5,203.5C 258.022,203.238 256.689,203.571 255.5,204.5C 256.612,205.265 257.279,206.265 257.5,207.5C 243.171,206.89 231.004,201.556 221,191.5C 216.985,185.967 214.485,179.8 213.5,173C 217.536,168.644 222.536,165.81 228.5,164.5C 227.401,174.805 231.401,182.305 240.5,187C 255.848,193.27 271.514,194.103 287.5,189.5 Z"/></g>
<g><path style="opacity:1" fill="#2e210f" d="M 220.5,173.5 C 224.161,173.35 225.161,174.85 223.5,178C 219.707,178.487 218.707,176.987 220.5,173.5 Z"/></g>
<g><path style="opacity:1" fill="#732a04" d="M 391.5,215.5 C 402.946,235.307 412.78,255.973 421,277.5C 422.173,285.111 421.34,292.444 418.5,299.5C 414.833,303.167 411.167,306.833 407.5,310.5C 406.311,311.429 404.978,311.762 403.5,311.5C 403.67,312.822 403.337,313.989 402.5,315C 399.027,317.073 395.36,318.573 391.5,319.5C 391.5,320.833 391.5,322.167 391.5,323.5C 386.626,324.605 381.959,326.271 377.5,328.5C 374.063,331.882 370.063,334.216 365.5,335.5C 363.516,336.156 361.516,336.822 359.5,337.5C 358.328,337.081 357.328,336.415 356.5,335.5C 353.993,328.479 349.993,322.479 344.5,317.5C 343.167,316.167 343.167,314.833 344.5,313.5C 357.641,304.607 369.974,294.773 381.5,284C 387.904,280.768 394.571,278.268 401.5,276.5C 400.148,275.104 398.481,274.437 396.5,274.5C 391.719,275.074 387.052,276.074 382.5,277.5C 381.5,277.167 380.5,276.833 379.5,276.5C 377.227,274.21 375.227,271.877 373.5,269.5C 365.961,258.953 357.294,249.287 347.5,240.5C 344.62,235.862 342.786,230.862 342,225.5C 341.458,216.794 341.458,208.127 342,199.5C 340.183,204.079 338.683,208.745 337.5,213.5C 336.028,215.117 335.361,217.117 335.5,219.5C 335.551,221.1 335.884,222.6 336.5,224C 330.802,234.27 327.635,245.436 327,257.5C 324.389,263.092 322.889,269.092 322.5,275.5C 316.983,284.351 313.317,293.684 311.5,303.5C 311.167,304.5 310.5,305.167 309.5,305.5C 302.857,306.385 296.19,307.052 289.5,307.5C 274.833,307.5 260.167,307.5 245.5,307.5C 235.281,307.49 225.281,305.99 215.5,303C 214.793,299.839 214.126,296.672 213.5,293.5C 213.308,288.73 212.475,284.064 211,279.5C 204.516,266.093 200.682,251.926 199.5,237C 200.875,223.668 204.208,210.835 209.5,198.5C 209.167,198.167 208.833,197.833 208.5,197.5C 207.833,198.167 207.167,198.833 206.5,199.5C 197.058,215.523 193.391,232.856 195.5,251.5C 195.466,255.63 194.799,259.63 193.5,263.5C 186.813,261.485 180.146,259.485 173.5,257.5C 172.833,257.5 172.167,257.5 171.5,257.5C 171.692,252.73 172.525,248.063 174,243.5C 178.4,230.801 182.9,218.134 187.5,205.5C 192.543,194.063 199.543,184.063 208.5,175.5C 210.71,180.705 212.71,186.038 214.5,191.5C 218.167,195.167 221.833,198.833 225.5,202.5C 238.119,208.418 250.619,212.084 263,213.5C 276.817,212.987 290.317,210.653 303.5,206.5C 319.817,198.864 333.15,187.53 343.5,172.5C 345.765,171.353 348.098,171.186 350.5,172C 355.866,174.072 360.866,176.906 365.5,180.5C 375.6,191.257 384.267,202.923 391.5,215.5 Z"/></g>
<g><path style="opacity:1" fill="#321d0a" d="M 311.5,187.5 C 311.5,188.5 311.5,189.5 311.5,190.5C 309.167,192.111 307.5,191.611 306.5,189C 307.5,186.389 309.167,185.889 311.5,187.5 Z"/></g>
<g><path style="opacity:1" fill="#cf9e59" d="M 292.5,181.5 C 279.604,187.559 266.271,188.892 252.5,185.5C 260.86,185.831 269.193,185.498 277.5,184.5C 282.19,182.041 287.19,181.041 292.5,181.5 Z"/></g>
<g><path style="opacity:1" fill="#2a1807" d="M 230.5,189.5 C 231.833,189.5 233.167,189.5 234.5,189.5C 234.114,193.738 232.448,194.404 229.5,191.5C 229.863,190.817 230.196,190.15 230.5,189.5 Z"/></g>
<g><path style="opacity:1" fill="#e9be6b" d="M 259.5,207.5 C 258.833,207.5 258.167,207.5 257.5,207.5C 257.279,206.265 256.612,205.265 255.5,204.5C 256.689,203.571 258.022,203.238 259.5,203.5C 259.5,202.167 259.5,200.833 259.5,199.5C 260.833,199.5 262.167,199.5 263.5,199.5C 263.672,197.508 263.005,195.842 261.5,194.5C 267.5,193.167 273.5,193.167 279.5,194.5C 280.124,197.087 281.457,199.753 283.5,202.5C 282.092,203.243 280.759,204.077 279.5,205C 272.425,204.867 265.758,205.7 259.5,207.5 Z"/></g>
<g><path style="opacity:1" fill="#e9bf6b" d="M 287.5,189.5 C 291.593,189.522 295.593,190.189 299.5,191.5C 301.384,191.284 303.051,190.617 304.5,189.5C 305.536,196.143 302.536,199.476 295.5,199.5C 293.036,199.41 290.87,198.743 289,197.5C 288.722,198.416 288.222,199.082 287.5,199.5C 287.5,198.5 287.5,197.5 287.5,196.5C 287.5,194.167 287.5,191.833 287.5,189.5 Z"/></g>
<g><path style="opacity:1" fill="#f6d99c" d="M 197.5,137.5 C 190.398,150.878 191.065,163.878 199.5,176.5C 196.667,180.167 193.833,183.833 191,187.5C 180.497,208.677 172.163,230.677 166,253.5C 163,249.833 160,246.167 157,242.5C 157.822,234.298 155.822,226.965 151,220.5C 150.333,218.5 150.333,216.5 151,214.5C 152.193,212.114 153.36,209.78 154.5,207.5C 157.721,208.573 160.888,208.573 164,207.5C 171.861,193.278 179.028,178.778 185.5,164C 183.776,160.749 182.776,157.249 182.5,153.5C 182.461,152.244 182.961,151.244 184,150.5C 185.676,151.061 187.009,152.061 188,153.5C 188.333,151.833 188.667,150.167 189,148.5C 191.321,145.87 193.154,142.87 194.5,139.5C 195.265,138.388 196.265,137.721 197.5,137.5 Z"/></g>
<g><path style="opacity:1" fill="#3f2007" d="M 125.5,182.5 C 126.946,181.387 128.613,181.22 130.5,182C 129.269,183.183 129.269,184.349 130.5,185.5C 131.842,183.995 133.508,183.328 135.5,183.5C 132.829,185.934 129.996,188.267 127,190.5C 122.246,196.915 117.913,203.582 114,210.5C 112.72,210.387 111.887,209.72 111.5,208.5C 115.435,198.954 121.102,190.621 128.5,183.5C 127.675,182.614 126.675,182.281 125.5,182.5 Z"/></g>
<g><path style="opacity:1" fill="#3a1c07" d="M 139.5,188.5 C 139.285,190.179 139.952,191.179 141.5,191.5C 135.031,197.975 129.698,205.308 125.5,213.5C 122.41,214.914 121.243,213.914 122,210.5C 126.65,202.186 132.483,194.853 139.5,188.5 Z"/></g>
<g><path style="opacity:1" fill="#321405" d="M 253.5,197.5 C 256.95,196.756 258.616,198.09 258.5,201.5C 255.05,202.244 253.384,200.91 253.5,197.5 Z"/></g>
<g><path style="opacity:1" fill="#270f02" d="M 287.5,196.5 C 287.5,197.5 287.5,198.5 287.5,199.5C 286.432,200.434 285.099,200.768 283.5,200.5C 283.5,199.167 283.5,197.833 283.5,196.5C 284.833,196.5 286.167,196.5 287.5,196.5 Z"/></g>
<g><path style="opacity:1" fill="#dca153" d="M 125.5,182.5 C 126.675,182.281 127.675,182.614 128.5,183.5C 121.102,190.621 115.435,198.954 111.5,208.5C 111.887,209.72 112.72,210.387 114,210.5C 117.913,203.582 122.246,196.915 127,190.5C 129.996,188.267 132.829,185.934 135.5,183.5C 139.935,182.922 141.268,184.589 139.5,188.5C 132.483,194.853 126.65,202.186 122,210.5C 121.243,213.914 122.41,214.914 125.5,213.5C 129.698,205.308 135.031,197.975 141.5,191.5C 146.009,188.148 148.175,189.148 148,194.5C 140.639,201.678 135.139,210.011 131.5,219.5C 126.966,217.654 122.299,215.987 117.5,214.5C 114.855,210.165 113.522,210.498 113.5,215.5C 112.167,215.5 110.833,215.5 109.5,215.5C 108.424,212.266 107.757,208.932 107.5,205.5C 110.4,195.346 116.4,187.679 125.5,182.5 Z"/></g>
<g><path style="opacity:1" fill="#dfa052" d="M 149.5,227.5 C 147.134,225.491 144.468,223.824 141.5,222.5C 137.737,222.104 134.403,221.104 131.5,219.5C 132.873,219.657 134.207,219.49 135.5,219C 138.924,211.493 143.591,204.826 149.5,199C 150.448,198.517 151.448,198.351 152.5,198.5C 152.662,200.527 152.495,202.527 152,204.5C 147.569,209.791 145.569,215.791 146,222.5C 147.669,223.846 148.836,225.513 149.5,227.5 Z"/></g>
<g><path style="opacity:1" fill="#e49d49" d="M 107.5,205.5 C 107.757,208.932 108.424,212.266 109.5,215.5C 110.833,215.5 112.167,215.5 113.5,215.5C 113.522,210.498 114.855,210.165 117.5,214.5C 122.299,215.987 126.966,217.654 131.5,219.5C 134.403,221.104 137.737,222.104 141.5,222.5C 144.468,223.824 147.134,225.491 149.5,227.5C 154.799,238.741 151.466,246.241 139.5,250C 135.833,250.667 132.167,250.667 128.5,250C 123.688,240.206 117.521,231.372 110,223.5C 108.667,220.833 107.333,218.167 106,215.5C 105.326,211.888 105.826,208.554 107.5,205.5 Z"/></g>
<g><path style="opacity:1" fill="#2d2003" d="M 373.5,269.5 C 373.795,271.735 373.461,273.735 372.5,275.5C 365.278,266.101 357.445,257.101 349,248.5C 342.62,264.97 336.62,281.637 331,298.5C 330.175,302.211 330.341,305.878 331.5,309.5C 333.826,312.02 336.493,312.687 339.5,311.5C 340.376,311.369 341.043,311.702 341.5,312.5C 339.995,313.842 339.328,315.508 339.5,317.5C 336.833,317.5 334.167,317.5 331.5,317.5C 330.833,317.5 330.167,317.5 329.5,317.5C 329.5,316.167 329.5,314.833 329.5,313.5C 328.167,313.5 326.833,313.5 325.5,313.5C 325.5,311.167 325.5,308.833 325.5,306.5C 320.514,306.449 316.18,307.949 312.5,311C 308.911,311.207 305.411,311.707 302,312.5C 300.795,311.929 299.628,311.262 298.5,310.5C 298.833,309.833 299.167,309.167 299.5,308.5C 303.263,308.104 306.597,307.104 309.5,305.5C 310.5,305.167 311.167,304.5 311.5,303.5C 317.12,304.18 322.12,302.846 326.5,299.5C 327.167,295.5 327.833,291.5 328.5,287.5C 333.289,275.604 337.955,263.604 342.5,251.5C 343.949,245.194 343.116,239.194 340,233.5C 338.449,226.916 337.616,220.249 337.5,213.5C 338.683,208.745 340.183,204.079 342,199.5C 341.458,208.127 341.458,216.794 342,225.5C 342.786,230.862 344.62,235.862 347.5,240.5C 357.294,249.287 365.961,258.953 373.5,269.5 Z"/></g>
<g><path style="opacity:1" fill="#602402" d="M 337.5,213.5 C 337.616,220.249 338.449,226.916 340,233.5C 343.116,239.194 343.949,245.194 342.5,251.5C 337.955,263.604 333.289,275.604 328.5,287.5C 327.833,291.5 327.167,295.5 326.5,299.5C 322.12,302.846 317.12,304.18 311.5,303.5C 313.317,293.684 316.983,284.351 322.5,275.5C 322.889,269.092 324.389,263.092 327,257.5C 327.635,245.436 330.802,234.27 336.5,224C 335.884,222.6 335.551,221.1 335.5,219.5C 335.361,217.117 336.028,215.117 337.5,213.5 Z"/></g>
<g><path style="opacity:1" fill="#762d06" d="M 169.5,265.5 C 172.793,271.411 176.127,277.411 179.5,283.5C 178.624,283.369 177.957,283.702 177.5,284.5C 178.75,287.049 180.75,288.382 183.5,288.5C 183.5,290.833 183.5,293.167 183.5,295.5C 184.833,295.5 186.167,295.5 187.5,295.5C 187.5,297.5 187.5,299.5 187.5,301.5C 187.415,303.929 186.415,305.929 184.5,307.5C 181.502,309.809 178.502,311.809 175.5,313.5C 169.5,313.5 163.5,313.5 157.5,313.5C 154.203,310.704 151.036,307.704 148,304.5C 138.373,289.465 131.873,273.132 128.5,255.5C 135.715,255.938 142.715,254.938 149.5,252.5C 151.005,251.158 151.672,249.492 151.5,247.5C 154.535,247.521 156.868,248.854 158.5,251.5C 161.253,257.072 164.92,261.738 169.5,265.5 Z"/></g>
<g><path style="opacity:1" fill="#351f03" d="M 171.5,257.5 C 172.167,257.5 172.833,257.5 173.5,257.5C 180.73,260.73 186.064,266.063 189.5,273.5C 189.167,274.167 188.833,274.833 188.5,275.5C 184.833,271.833 181.167,268.167 177.5,264.5C 176.311,263.571 174.978,263.238 173.5,263.5C 177.195,270.235 180.529,277.235 183.5,284.5C 183.167,285.5 182.833,286.5 182.5,287.5C 181.943,285.668 180.943,284.335 179.5,283.5C 176.127,277.411 172.793,271.411 169.5,265.5C 171.369,263.365 172.036,260.698 171.5,257.5 Z"/></g>
<g><path style="opacity:1" fill="#f8d897" d="M 372.5,275.5 C 374.215,277.921 375.048,280.587 375,283.5C 363.555,293.459 351.721,302.793 339.5,311.5C 336.493,312.687 333.826,312.02 331.5,309.5C 330.341,305.878 330.175,302.211 331,298.5C 336.62,281.637 342.62,264.97 349,248.5C 357.445,257.101 365.278,266.101 372.5,275.5 Z"/></g>
<g><path style="opacity:1" fill="#622805" d="M 195.5,251.5 C 196.815,257.76 199.148,263.76 202.5,269.5C 203.647,271.765 203.814,274.098 203,276.5C 199.698,283.103 196.365,289.77 193,296.5C 191.6,298.737 189.767,300.404 187.5,301.5C 187.5,299.5 187.5,297.5 187.5,295.5C 186.167,295.5 184.833,295.5 183.5,295.5C 183.5,293.167 183.5,290.833 183.5,288.5C 180.75,288.382 178.75,287.049 177.5,284.5C 177.957,283.702 178.624,283.369 179.5,283.5C 180.943,284.335 181.943,285.668 182.5,287.5C 182.833,286.5 183.167,285.5 183.5,284.5C 180.529,277.235 177.195,270.235 173.5,263.5C 174.978,263.238 176.311,263.571 177.5,264.5C 181.167,268.167 184.833,271.833 188.5,275.5C 188.833,274.833 189.167,274.167 189.5,273.5C 186.064,266.063 180.73,260.73 173.5,257.5C 180.146,259.485 186.813,261.485 193.5,263.5C 194.799,259.63 195.466,255.63 195.5,251.5 Z"/></g>
<g><path style="opacity:1" fill="#4d2404" d="M 157.5,313.5 C 163.5,313.5 169.5,313.5 175.5,313.5C 172.913,314.816 169.913,315.483 166.5,315.5C 163.087,315.483 160.087,314.816 157.5,313.5 Z"/></g>
<g><path style="opacity:1" fill="#312003" d="M 373.5,269.5 C 375.227,271.877 377.227,274.21 379.5,276.5C 380.5,276.833 381.5,277.167 382.5,277.5C 387.052,276.074 391.719,275.074 396.5,274.5C 398.481,274.437 400.148,275.104 401.5,276.5C 394.571,278.268 387.904,280.768 381.5,284C 369.974,294.773 357.641,304.607 344.5,313.5C 343.167,314.833 343.167,316.167 344.5,317.5C 349.993,322.479 353.993,328.479 356.5,335.5C 357.328,336.415 358.328,337.081 359.5,337.5C 361.516,336.822 363.516,336.156 365.5,335.5C 365.279,336.735 364.612,337.735 363.5,338.5C 360.676,340.476 357.676,342.142 354.5,343.5C 353.702,343.957 353.369,344.624 353.5,345.5C 348.539,348.654 343.206,350.654 337.5,351.5C 338.556,356.018 340.556,360.018 343.5,363.5C 344.75,366.006 345.416,368.673 345.5,371.5C 342.833,367.5 340.167,363.5 337.5,359.5C 336.37,357.685 335.704,355.685 335.5,353.5C 327.472,353.169 319.472,353.502 311.5,354.5C 304.127,358.762 296.127,360.428 287.5,359.5C 287.5,358.167 287.5,356.833 287.5,355.5C 283.917,355.768 280.584,355.101 277.5,353.5C 276.554,350.687 274.554,349.354 271.5,349.5C 270.496,345.229 269.163,341.229 267.5,337.5C 267.958,334.606 267.291,332.106 265.5,330C 262.118,329.176 258.784,329.343 255.5,330.5C 255.942,331.739 256.609,332.739 257.5,333.5C 260.039,342.01 262.372,350.677 264.5,359.5C 268.529,381.369 271.529,403.369 273.5,425.5C 276.434,456.285 279.101,486.952 281.5,517.5C 282.237,542.164 282.903,566.831 283.5,591.5C 283.5,593.5 283.5,595.5 283.5,597.5C 283.477,627.166 283.477,656.666 283.5,686C 283.167,686.5 282.833,687 282.5,687.5C 281.833,666.004 281.167,644.671 280.5,623.5C 278.219,559.441 274.719,495.441 270,431.5C 267.387,401.491 262.721,371.825 256,342.5C 254.579,338.021 252.912,333.687 251,329.5C 240.257,349.005 232.257,369.672 227,391.5C 219.815,424.866 214.481,458.533 211,492.5C 206.994,539.978 203.161,587.311 199.5,634.5C 198.785,638.688 197.452,642.688 195.5,646.5C 198.057,577.942 203.723,509.608 212.5,441.5C 215.47,424.8 218.637,408.134 222,391.5C 225.669,382.475 228.503,373.142 230.5,363.5C 234.502,352.492 239.336,341.826 245,331.5C 245.49,330.207 245.657,328.873 245.5,327.5C 238.681,327.871 232.014,327.205 225.5,325.5C 223.22,323.777 220.553,323.111 217.5,323.5C 214.416,321.899 211.083,321.232 207.5,321.5C 207.762,322.978 207.429,324.311 206.5,325.5C 194.496,343.508 185.163,362.842 178.5,383.5C 177.479,384.901 176.479,386.235 175.5,387.5C 175.662,385.473 175.495,383.473 175,381.5C 174.31,382.738 173.81,382.738 173.5,381.5C 178.787,367.151 184.953,353.151 192,339.5C 198.164,329.478 203.998,319.478 209.5,309.5C 210.776,305.239 212.109,299.906 213.5,293.5C 214.126,296.672 214.793,299.839 215.5,303C 225.281,305.99 235.281,307.49 245.5,307.5C 247.292,308.309 249.292,308.809 251.5,309C 264.833,309.667 278.167,309.667 291.5,309C 290.584,308.722 289.918,308.222 289.5,307.5C 296.19,307.052 302.857,306.385 309.5,305.5C 306.597,307.104 303.263,308.104 299.5,308.5C 299.167,309.167 298.833,309.833 298.5,310.5C 299.628,311.262 300.795,311.929 302,312.5C 305.411,311.707 308.911,311.207 312.5,311C 316.18,307.949 320.514,306.449 325.5,306.5C 325.5,308.833 325.5,311.167 325.5,313.5C 326.833,313.5 328.167,313.5 329.5,313.5C 329.5,314.833 329.5,316.167 329.5,317.5C 325.618,316.197 321.618,315.53 317.5,315.5C 299.778,312.069 284.611,317.069 272,330.5C 271.833,331.333 271.667,332.167 271.5,333C 271.684,334.376 272.351,335.209 273.5,335.5C 273.065,337.297 273.065,339.297 273.5,341.5C 275.087,345.994 277.754,346.66 281.5,343.5C 283.099,343.232 284.432,343.566 285.5,344.5C 282.343,345.827 281.176,348.16 282,351.5C 282.725,352.059 283.558,352.392 284.5,352.5C 290.129,349.35 295.796,346.183 301.5,343C 306.302,340.897 311.302,339.731 316.5,339.5C 316.5,340.833 316.5,342.167 316.5,343.5C 316.167,343.5 315.833,343.5 315.5,343.5C 306.673,344.497 298.84,347.83 292,353.5C 291.383,354.449 291.549,355.282 292.5,356C 294.167,356.667 295.833,356.667 297.5,356C 308.054,350.164 319.387,347.831 331.5,349C 333.058,348.79 334.391,348.29 335.5,347.5C 336.167,347.5 336.833,347.5 337.5,347.5C 343.991,346.599 348.658,343.265 351.5,337.5C 349.001,326.334 342.335,319.667 331.5,317.5C 334.167,317.5 336.833,317.5 339.5,317.5C 339.328,315.508 339.995,313.842 341.5,312.5C 341.043,311.702 340.376,311.369 339.5,311.5C 351.721,302.793 363.555,293.459 375,283.5C 375.048,280.587 374.215,277.921 372.5,275.5C 373.461,273.735 373.795,271.735 373.5,269.5 Z"/></g>
<g><path style="opacity:1" fill="#d19650" d="M 317.5,315.5 C 310.055,315.09 302.722,315.757 295.5,317.5C 290.239,320.509 290.905,321.843 297.5,321.5C 288.916,325.127 280.916,329.793 273.5,335.5C 272.351,335.209 271.684,334.376 271.5,333C 271.667,332.167 271.833,331.333 272,330.5C 284.611,317.069 299.778,312.069 317.5,315.5 Z"/></g>
<g><path style="opacity:1" fill="#df9a48" d="M 317.5,315.5 C 321.618,315.53 325.618,316.197 329.5,317.5C 330.167,317.5 330.833,317.5 331.5,317.5C 342.335,319.667 349.001,326.334 351.5,337.5C 348.658,343.265 343.991,346.599 337.5,347.5C 339.7,345.383 342.367,343.716 345.5,342.5C 347.213,341.122 348.547,339.455 349.5,337.5C 347.587,334.349 346.254,331.016 345.5,327.5C 343.508,327.328 341.842,327.995 340.5,329.5C 339.139,324.102 337.972,324.435 337,330.5C 336.691,329.234 336.191,328.067 335.5,327C 329.143,326.293 322.81,326.46 316.5,327.5C 314.956,327.21 313.623,326.544 312.5,325.5C 311.571,326.689 311.238,328.022 311.5,329.5C 306.5,330.833 301.5,332.167 296.5,333.5C 294.167,333.5 291.833,333.5 289.5,333.5C 289.281,332.325 289.614,331.325 290.5,330.5C 292.759,330.216 294.426,329.216 295.5,327.5C 299.11,325.426 303.11,324.259 307.5,324C 308.708,321.355 307.708,320.188 304.5,320.5C 302.182,320.997 299.848,321.33 297.5,321.5C 290.905,321.843 290.239,320.509 295.5,317.5C 302.722,315.757 310.055,315.09 317.5,315.5 Z"/></g>
<g><path style="opacity:1" fill="#573508" d="M 214.5,307.5 C 238.545,313.013 262.878,314.847 287.5,313C 281.833,317 276.167,321 270.5,325C 250.992,325.918 231.992,323.418 213.5,317.5C 213.342,314.098 213.676,310.764 214.5,307.5 Z"/></g>
<g><path style="opacity:1" fill="#512408" d="M 245.5,307.5 C 260.167,307.5 274.833,307.5 289.5,307.5C 289.918,308.222 290.584,308.722 291.5,309C 278.167,309.667 264.833,309.667 251.5,309C 249.292,308.809 247.292,308.309 245.5,307.5 Z"/></g>
<g><path style="opacity:1" fill="#351b06" d="M 295.5,327.5 C 286.886,330.141 279.552,334.808 273.5,341.5C 273.065,339.297 273.065,337.297 273.5,335.5C 280.916,329.793 288.916,325.127 297.5,321.5C 299.848,321.33 302.182,320.997 304.5,320.5C 307.708,320.188 308.708,321.355 307.5,324C 303.11,324.259 299.11,325.426 295.5,327.5 Z"/></g>
<g><path style="opacity:1" fill="#5a2e0a" d="M 267.5,337.5 C 265.692,336.082 265.025,334.082 265.5,331.5C 262.302,330.964 259.635,331.631 257.5,333.5C 256.609,332.739 255.942,331.739 255.5,330.5C 258.784,329.343 262.118,329.176 265.5,330C 267.291,332.106 267.958,334.606 267.5,337.5 Z"/></g>
<g><path style="opacity:1" fill="#e39841" d="M 337.5,347.5 C 336.833,347.5 336.167,347.5 335.5,347.5C 326.808,347.831 318.141,347.498 309.5,346.5C 311.975,346.036 313.975,345.036 315.5,343.5C 315.833,343.5 316.167,343.5 316.5,343.5C 317.16,342.036 317.493,340.369 317.5,338.5C 316.954,335.434 316.288,332.434 315.5,329.5C 314.5,329.5 313.5,329.5 312.5,329.5C 312.167,329.5 311.833,329.5 311.5,329.5C 311.238,328.022 311.571,326.689 312.5,325.5C 313.623,326.544 314.956,327.21 316.5,327.5C 322.81,326.46 329.143,326.293 335.5,327C 336.191,328.067 336.691,329.234 337,330.5C 337.972,324.435 339.139,324.102 340.5,329.5C 341.842,327.995 343.508,327.328 345.5,327.5C 346.254,331.016 347.587,334.349 349.5,337.5C 348.547,339.455 347.213,341.122 345.5,342.5C 342.367,343.716 339.7,345.383 337.5,347.5 Z"/></g>
<g><path style="opacity:1" fill="#d69f52" d="M 295.5,327.5 C 294.426,329.216 292.759,330.216 290.5,330.5C 289.614,331.325 289.281,332.325 289.5,333.5C 291.833,333.5 294.167,333.5 296.5,333.5C 290.984,336.089 285.984,339.422 281.5,343.5C 277.754,346.66 275.087,345.994 273.5,341.5C 279.552,334.808 286.886,330.141 295.5,327.5 Z"/></g>
<g><path style="opacity:1" fill="#3c2107" d="M 311.5,329.5 C 311.833,329.5 312.167,329.5 312.5,329.5C 312.5,330.833 312.5,332.167 312.5,333.5C 302.578,335.027 293.578,338.693 285.5,344.5C 284.432,343.566 283.099,343.232 281.5,343.5C 285.984,339.422 290.984,336.089 296.5,333.5C 301.5,332.167 306.5,330.833 311.5,329.5 Z"/></g>
<g><path style="opacity:1" fill="#d79b4b" d="M 312.5,329.5 C 313.5,329.5 314.5,329.5 315.5,329.5C 316.288,332.434 316.954,335.434 317.5,338.5C 317.493,340.369 317.16,342.036 316.5,343.5C 316.5,342.167 316.5,340.833 316.5,339.5C 311.302,339.731 306.302,340.897 301.5,343C 295.796,346.183 290.129,349.35 284.5,352.5C 283.558,352.392 282.725,352.059 282,351.5C 281.176,348.16 282.343,345.827 285.5,344.5C 293.578,338.693 302.578,335.027 312.5,333.5C 312.5,332.167 312.5,330.833 312.5,329.5 Z"/></g>
<g><path style="opacity:1" fill="#421e03" d="M 217.5,323.5 C 220.553,323.111 223.22,323.777 225.5,325.5C 222.856,325.16 220.523,325.827 218.5,327.5C 216.769,331.408 214.602,335.074 212,338.5C 209.937,342.628 208.437,346.962 207.5,351.5C 206.325,351.719 205.325,351.386 204.5,350.5C 207.652,342.888 210.652,335.222 213.5,327.5C 216.142,327.512 217.475,326.179 217.5,323.5 Z"/></g>
<g><path style="opacity:1" fill="#cd954f" d="M 315.5,343.5 C 313.975,345.036 311.975,346.036 309.5,346.5C 318.141,347.498 326.808,347.831 335.5,347.5C 334.391,348.29 333.058,348.79 331.5,349C 319.387,347.831 308.054,350.164 297.5,356C 295.833,356.667 294.167,356.667 292.5,356C 291.549,355.282 291.383,354.449 292,353.5C 298.84,347.83 306.673,344.497 315.5,343.5 Z"/></g>
<g><path style="opacity:1" fill="#682b06" d="M 277.5,353.5 C 280.584,355.101 283.917,355.768 287.5,355.5C 287.5,356.833 287.5,358.167 287.5,359.5C 296.127,360.428 304.127,358.762 311.5,354.5C 319.472,353.502 327.472,353.169 335.5,353.5C 335.704,355.685 336.37,357.685 337.5,359.5C 335.7,360.473 333.866,361.473 332,362.5C 326.098,362.519 320.265,361.519 314.5,359.5C 313.5,360 312.5,360.5 311.5,361C 302.84,361.5 294.173,361.666 285.5,361.5C 285.5,360.167 285.5,358.833 285.5,357.5C 282.833,357.5 280.167,357.5 277.5,357.5C 277.5,356.167 277.5,354.833 277.5,353.5 Z"/></g>
<g><path style="opacity:1" fill="#302208" d="M 173.5,381.5 C 173.81,382.738 174.31,382.738 175,381.5C 175.495,383.473 175.662,385.473 175.5,387.5C 165.19,420.873 157.357,454.873 152,489.5C 143.613,544.374 136.113,599.374 129.5,654.5C 129.833,657.5 130.167,660.5 130.5,663.5C 135.881,667.19 141.548,670.357 147.5,673C 162.546,677.675 177.88,681.175 193.5,683.5C 193.051,671.045 193.718,658.711 195.5,646.5C 197.452,642.688 198.785,638.688 199.5,634.5C 199.458,651.174 199.125,667.841 198.5,684.5C 203.847,685.073 209.18,685.74 214.5,686.5C 236.391,689.2 258.391,690.533 280.5,690.5C 281.209,691.404 282.209,691.737 283.5,691.5C 283.5,692.5 283.5,693.5 283.5,694.5C 272.061,694.888 260.895,693.555 250,690.5C 249.566,693.502 248.399,696.169 246.5,698.5C 247.417,701.758 247.751,705.091 247.5,708.5C 246.604,709.506 245.938,709.506 245.5,708.5C 246.103,703.381 245.436,698.715 243.5,694.5C 240.877,693.732 238.211,692.732 235.5,691.5C 234.446,691.68 233.446,692.013 232.5,692.5C 221.222,690.639 210.055,688.972 199,687.5C 198.667,687.833 198.333,688.167 198,688.5C 197.385,686.884 196.385,685.551 195,684.5C 195.355,685.959 195.189,687.293 194.5,688.5C 172.41,686.561 151.41,680.728 131.5,671C 128.333,669.167 125.833,666.667 124,663.5C 124.075,654.815 124.742,646.148 126,637.5C 131.944,594.505 137.777,551.505 143.5,508.5C 148.141,482.95 152.808,457.284 157.5,431.5C 161.829,414.514 167.162,397.848 173.5,381.5 Z"/></g>
<g><path style="opacity:1" fill="#752b05" d="M 217.5,323.5 C 217.475,326.179 216.142,327.512 213.5,327.5C 210.652,335.222 207.652,342.888 204.5,350.5C 205.325,351.386 206.325,351.719 207.5,351.5C 208.437,346.962 209.937,342.628 212,338.5C 214.602,335.074 216.769,331.408 218.5,327.5C 220.523,325.827 222.856,325.16 225.5,325.5C 232.014,327.205 238.681,327.871 245.5,327.5C 245.657,328.873 245.49,330.207 245,331.5C 239.336,341.826 234.502,352.492 230.5,363.5C 228.503,373.142 225.669,382.475 222,391.5C 218.637,408.134 215.47,424.8 212.5,441.5C 203.723,509.608 198.057,577.942 195.5,646.5C 193.718,658.711 193.051,671.045 193.5,683.5C 177.88,681.175 162.546,677.675 147.5,673C 141.548,670.357 135.881,667.19 130.5,663.5C 130.167,660.5 129.833,657.5 129.5,654.5C 136.113,599.374 143.613,544.374 152,489.5C 157.357,454.873 165.19,420.873 175.5,387.5C 176.479,386.235 177.479,384.901 178.5,383.5C 185.163,362.842 194.496,343.508 206.5,325.5C 207.429,324.311 207.762,322.978 207.5,321.5C 211.083,321.232 214.416,321.899 217.5,323.5 Z"/></g>
<g><path style="opacity:1" fill="#732c03" d="M 273.5,425.5 C 274.896,428.687 276.063,432.02 277,435.5C 277.174,443.903 278.007,452.237 279.5,460.5C 278.949,466.039 279.116,471.706 280,477.5C 281.087,475.068 281.587,475.402 281.5,478.5C 288.833,478.5 296.167,478.5 303.5,478.5C 303.5,476.167 303.5,473.833 303.5,471.5C 308.833,471.5 314.167,471.5 319.5,471.5C 319.5,474.167 319.5,476.833 319.5,479.5C 324.833,479.5 330.167,479.5 335.5,479.5C 335.5,484.833 335.5,490.167 335.5,495.5C 351.5,495.5 367.5,495.5 383.5,495.5C 383.17,502.2 383.503,508.866 384.5,515.5C 385.086,515.291 385.586,514.957 386,514.5C 386.908,516.439 388.408,517.439 390.5,517.5C 390.328,521.971 389.494,522.304 388,518.5C 387.744,521.557 387.244,524.557 386.5,527.5C 385.675,528.386 384.675,528.719 383.5,528.5C 383.36,530.124 384.027,531.29 385.5,532C 383.009,532.626 383.009,533.459 385.5,534.5C 368.847,535.499 352.18,535.833 335.5,535.5C 335.5,532.833 335.5,530.167 335.5,527.5C 324.833,527.5 314.167,527.5 303.5,527.5C 303.5,529.5 303.5,531.5 303.5,533.5C 305.5,533.5 307.5,533.5 309.5,533.5C 310.416,552.823 311.083,572.156 311.5,591.5C 306.167,591.5 300.833,591.5 295.5,591.5C 296.311,577.85 296.978,564.183 297.5,550.5C 296.777,534.829 296.11,519.162 295.5,503.5C 292.833,503.5 290.167,503.5 287.5,503.5C 288.213,499.273 286.546,496.606 282.5,495.5C 281.503,502.803 281.169,510.137 281.5,517.5C 279.101,486.952 276.434,456.285 273.5,425.5 Z"/></g>
<g><path style="opacity:1" fill="#5c4922" d="M 280.5,623.5 C 280.5,644.833 280.5,666.167 280.5,687.5C 278.955,686.77 278.122,685.437 278,683.5C 277.73,666.276 277.896,649.109 278.5,632C 278.485,628.097 277.985,624.264 277,620.5C 275.769,628.089 275.103,635.756 275,643.5C 274.781,642.062 274.281,640.729 273.5,639.5C 272.527,641.392 271.86,643.392 271.5,645.5C 273.952,652.123 273.952,658.79 271.5,665.5C 272.156,667.453 272.489,669.453 272.5,671.5C 264.167,671.5 255.833,671.5 247.5,671.5C 247.5,668.833 247.5,666.167 247.5,663.5C 244.833,663.5 242.167,663.5 239.5,663.5C 239.5,660.833 239.5,658.167 239.5,655.5C 228.833,655.5 218.167,655.5 207.5,655.5C 207.5,658.167 207.5,660.833 207.5,663.5C 205.473,663.338 203.473,663.505 201.5,664C 203.192,665.401 203.859,667.234 203.5,669.5C 204.978,669.238 206.311,669.571 207.5,670.5C 202.995,672.088 202.162,674.421 205,677.5C 207.398,676.081 209.898,674.747 212.5,673.5C 213.415,674.328 214.081,675.328 214.5,676.5C 217.5,677.167 220.5,677.833 223.5,678.5C 220.914,679.48 218.247,679.813 215.5,679.5C 215.261,681.467 215.594,683.301 216.5,685C 215.584,685.278 214.918,685.778 214.5,686.5C 209.18,685.74 203.847,685.073 198.5,684.5C 199.125,667.841 199.458,651.174 199.5,634.5C 203.161,587.311 206.994,539.978 211,492.5C 214.481,458.533 219.815,424.866 227,391.5C 232.257,369.672 240.257,349.005 251,329.5C 252.912,333.687 254.579,338.021 256,342.5C 262.721,371.825 267.387,401.491 270,431.5C 274.719,495.441 278.219,559.441 280.5,623.5 Z"/></g>
<g><path style="opacity:1" fill="#f0d5a0" d="M 157.5,431.5 C 152.808,457.284 148.141,482.95 143.5,508.5C 144.381,498.087 145.548,487.754 147,477.5C 147.806,471.916 147.639,466.416 146.5,461C 147.981,460.02 149.315,458.853 150.5,457.5C 151.833,450.833 153.167,444.167 154.5,437.5C 154.964,435.025 155.964,433.025 157.5,431.5 Z"/></g>
<g><path style="opacity:1" fill="#2f2208" d="M 390.5,203.5 C 405.265,226.698 417.098,251.365 426,277.5C 428.853,293.267 423.686,305.767 410.5,315C 394.751,326.546 377.751,336.046 359.5,343.5C 379.632,383.063 393.465,424.729 401,468.5C 413.361,533.054 422.361,598.054 428,663.5C 424.334,668.484 419.501,671.984 413.5,674C 395.557,680.931 377.224,686.097 358.5,689.5C 357.833,689.5 357.167,689.5 356.5,689.5C 351.149,690.037 345.816,690.704 340.5,691.5C 342.392,698.373 342.892,705.373 342,712.5C 341.623,713.942 340.79,714.942 339.5,715.5C 339.421,708.789 339.421,702.289 339.5,696C 338.906,695.536 338.239,695.369 337.5,695.5C 336.833,692.833 336.167,690.167 335.5,687.5C 351.429,684.834 367.429,681.834 383.5,678.5C 392.399,676.045 401.065,673.045 409.5,669.5C 413.951,667.062 418.618,665.062 423.5,663.5C 423.829,657.463 423.496,651.463 422.5,645.5C 415.498,595.141 408.331,544.808 401,494.5C 397.212,478.355 393.878,462.022 391,445.5C 383.592,413.777 373.092,383.111 359.5,353.5C 357.459,350.697 355.459,348.031 353.5,345.5C 353.369,344.624 353.702,343.957 354.5,343.5C 357.676,342.142 360.676,340.476 363.5,338.5C 364.612,337.735 365.279,336.735 365.5,335.5C 370.063,334.216 374.063,331.882 377.5,328.5C 381.959,326.271 386.626,324.605 391.5,323.5C 391.5,322.167 391.5,320.833 391.5,319.5C 395.36,318.573 399.027,317.073 402.5,315C 403.337,313.989 403.67,312.822 403.5,311.5C 404.978,311.762 406.311,311.429 407.5,310.5C 411.167,306.833 414.833,303.167 418.5,299.5C 421.34,292.444 422.173,285.111 421,277.5C 412.78,255.973 402.946,235.307 391.5,215.5C 391.785,211.975 391.119,208.642 389.5,205.5C 389.543,204.584 389.876,203.917 390.5,203.5 Z"/></g>
<g><path style="opacity:1" fill="#742a03" d="M 267.5,337.5 C 269.163,341.229 270.496,345.229 271.5,349.5C 274.554,349.354 276.554,350.687 277.5,353.5C 277.5,354.833 277.5,356.167 277.5,357.5C 280.167,357.5 282.833,357.5 285.5,357.5C 285.5,358.833 285.5,360.167 285.5,361.5C 294.173,361.666 302.84,361.5 311.5,361C 312.5,360.5 313.5,360 314.5,359.5C 320.265,361.519 326.098,362.519 332,362.5C 333.866,361.473 335.7,360.473 337.5,359.5C 340.167,363.5 342.833,367.5 345.5,371.5C 345.416,368.673 344.75,366.006 343.5,363.5C 344.204,361.656 345.537,361.156 347.5,362C 355.632,371.766 360.965,382.933 363.5,395.5C 364.5,395.5 365.5,395.5 366.5,395.5C 367.108,399.472 367.608,403.472 368,407.5C 372.324,418.814 375.657,430.481 378,442.5C 386.697,482.678 392.864,524.012 396.5,566.5C 399.754,580.269 401.921,593.936 403,607.5C 403.293,609.925 404.459,611.758 406.5,613C 405.848,617.085 405.515,621.252 405.5,625.5C 405.475,633.247 406.141,640.913 407.5,648.5C 404.509,649.717 402.842,648.55 402.5,645C 403.167,644 403.833,643 404.5,642C 403.075,640.638 402.242,639.138 402,637.5C 401.802,640.93 401.969,644.43 402.5,648C 401.552,648.483 400.552,648.649 399.5,648.5C 400.541,645.542 400.541,642.542 399.5,639.5C 394.167,639.5 388.833,639.5 383.5,639.5C 383.5,634.167 383.5,628.833 383.5,623.5C 380.167,623.5 376.833,623.5 373.5,623.5C 374.167,612.833 374.833,602.167 375.5,591.5C 370.186,592.159 364.853,592.826 359.5,593.5C 343.548,591.769 327.548,591.102 311.5,591.5C 311.083,572.156 310.416,552.823 309.5,533.5C 307.5,533.5 305.5,533.5 303.5,533.5C 303.5,531.5 303.5,529.5 303.5,527.5C 314.167,527.5 324.833,527.5 335.5,527.5C 335.5,530.167 335.5,532.833 335.5,535.5C 352.18,535.833 368.847,535.499 385.5,534.5C 383.009,533.459 383.009,532.626 385.5,532C 384.027,531.29 383.36,530.124 383.5,528.5C 384.675,528.719 385.675,528.386 386.5,527.5C 387.244,524.557 387.744,521.557 388,518.5C 389.494,522.304 390.328,521.971 390.5,517.5C 388.408,517.439 386.908,516.439 386,514.5C 385.586,514.957 385.086,515.291 384.5,515.5C 383.503,508.866 383.17,502.2 383.5,495.5C 367.5,495.5 351.5,495.5 335.5,495.5C 335.5,490.167 335.5,484.833 335.5,479.5C 330.167,479.5 324.833,479.5 319.5,479.5C 319.5,476.833 319.5,474.167 319.5,471.5C 314.167,471.5 308.833,471.5 303.5,471.5C 303.5,473.833 303.5,476.167 303.5,478.5C 296.167,478.5 288.833,478.5 281.5,478.5C 281.587,475.402 281.087,475.068 280,477.5C 279.116,471.706 278.949,466.039 279.5,460.5C 278.007,452.237 277.174,443.903 277,435.5C 276.063,432.02 274.896,428.687 273.5,425.5C 271.529,403.369 268.529,381.369 264.5,359.5C 262.372,350.677 260.039,342.01 257.5,333.5C 259.635,331.631 262.302,330.964 265.5,331.5C 265.025,334.082 265.692,336.082 267.5,337.5 Z"/></g>
<g><path style="opacity:1" fill="#361b02" d="M 345.5,371.5 C 347.247,372.981 348.414,374.981 349,377.5C 349.781,378.944 349.614,380.277 348.5,381.5C 346.909,378.325 345.909,374.991 345.5,371.5 Z"/></g>
<g><path style="opacity:1" fill="#622402" d="M 353.5,345.5 C 355.459,348.031 357.459,350.697 359.5,353.5C 373.092,383.111 383.592,413.777 391,445.5C 393.878,462.022 397.212,478.355 401,494.5C 408.331,544.808 415.498,595.141 422.5,645.5C 423.496,651.463 423.829,657.463 423.5,663.5C 418.618,665.062 413.951,667.062 409.5,669.5C 409.232,666.881 409.565,664.381 410.5,662C 408.492,659.453 408.158,656.953 409.5,654.5C 408.95,652.343 408.283,650.343 407.5,648.5C 406.141,640.913 405.475,633.247 405.5,625.5C 405.515,621.252 405.848,617.085 406.5,613C 404.459,611.758 403.293,609.925 403,607.5C 401.921,593.936 399.754,580.269 396.5,566.5C 392.864,524.012 386.697,482.678 378,442.5C 375.657,430.481 372.324,418.814 368,407.5C 367.608,403.472 367.108,399.472 366.5,395.5C 365.5,395.5 364.5,395.5 363.5,395.5C 360.965,382.933 355.632,371.766 347.5,362C 345.537,361.156 344.204,361.656 343.5,363.5C 340.556,360.018 338.556,356.018 337.5,351.5C 343.206,350.654 348.539,348.654 353.5,345.5 Z"/></g>
<g><path style="opacity:1" fill="#762b03" d="M 311.5,591.5 C 327.548,591.102 343.548,591.769 359.5,593.5C 364.853,592.826 370.186,592.159 375.5,591.5C 374.833,602.167 374.167,612.833 373.5,623.5C 376.833,623.5 380.167,623.5 383.5,623.5C 383.5,628.833 383.5,634.167 383.5,639.5C 388.833,639.5 394.167,639.5 399.5,639.5C 400.541,642.542 400.541,645.542 399.5,648.5C 400.552,648.649 401.552,648.483 402.5,648C 401.969,644.43 401.802,640.93 402,637.5C 402.242,639.138 403.075,640.638 404.5,642C 403.833,643 403.167,644 402.5,645C 402.842,648.55 404.509,649.717 407.5,648.5C 407.5,650.833 407.5,653.167 407.5,655.5C 406.167,655.5 404.833,655.5 403.5,655.5C 403.142,658.898 403.808,662.065 405.5,665C 404.765,668.2 402.765,669.7 399.5,669.5C 399.5,664.833 399.5,660.167 399.5,655.5C 394.167,655.5 388.833,655.5 383.5,655.5C 383.5,660.833 383.5,666.167 383.5,671.5C 384.833,671.5 386.167,671.5 387.5,671.5C 387.67,672.822 387.337,673.989 386.5,675C 379.197,675.824 372.03,677.324 365,679.5C 361.514,678.838 358.014,678.505 354.5,678.5C 358.783,677.508 363.116,677.174 367.5,677.5C 367.5,675.5 367.5,673.5 367.5,671.5C 364.833,671.5 362.167,671.5 359.5,671.5C 359.5,668.833 359.5,666.167 359.5,663.5C 356.833,663.5 354.167,663.5 351.5,663.5C 351.5,666.167 351.5,668.833 351.5,671.5C 348.167,671.5 344.833,671.5 341.5,671.5C 341.5,673.5 341.5,675.5 341.5,677.5C 336.446,677.822 334.779,680.322 336.5,685C 333.639,684.97 331.305,685.803 329.5,687.5C 314.895,689.187 300.228,689.854 285.5,689.5C 285.5,686.5 285.5,683.5 285.5,680.5C 286.159,650.481 285.492,620.815 283.5,591.5C 282.903,566.831 282.237,542.164 281.5,517.5C 281.169,510.137 281.503,502.803 282.5,495.5C 286.546,496.606 288.213,499.273 287.5,503.5C 290.167,503.5 292.833,503.5 295.5,503.5C 296.11,519.162 296.777,534.829 297.5,550.5C 296.978,564.183 296.311,577.85 295.5,591.5C 300.833,591.5 306.167,591.5 311.5,591.5 Z"/></g>
<g><path style="opacity:1" fill="#f8d693" d="M 543.5,641.5 C 543.5,672.833 543.5,704.167 543.5,735.5C 502.167,735.5 460.833,735.5 419.5,735.5C 430.38,732.601 441.047,728.768 451.5,724C 460.079,715.884 459.079,709.051 448.5,703.5C 450.924,703.192 453.257,703.526 455.5,704.5C 456.167,705.833 457.167,706.833 458.5,707.5C 460.026,706.094 461.693,704.928 463.5,704C 471.493,703.5 479.493,703.334 487.5,703.5C 487.5,706.167 487.5,708.833 487.5,711.5C 490.167,711.5 492.833,711.5 495.5,711.5C 495.5,708.833 495.5,706.167 495.5,703.5C 503.5,703.5 511.5,703.5 519.5,703.5C 519.5,700.833 519.5,698.167 519.5,695.5C 516.833,695.5 514.167,695.5 511.5,695.5C 511.5,692.833 511.5,690.167 511.5,687.5C 515.5,687.5 519.5,687.5 523.5,687.5C 523.5,682.167 523.5,676.833 523.5,671.5C 527.5,671.5 531.5,671.5 535.5,671.5C 535.5,662.833 535.5,654.167 535.5,645.5C 532.833,645.5 530.167,645.5 527.5,645.5C 527.5,644.167 527.5,642.833 527.5,641.5C 532.833,641.5 538.167,641.5 543.5,641.5 Z"/></g>
<g><path style="opacity:1" fill="#503110" d="M 283.5,591.5 C 285.492,620.815 286.159,650.481 285.5,680.5C 284.833,652.833 284.167,625.167 283.5,597.5C 283.5,595.5 283.5,593.5 283.5,591.5 Z"/></g>
<g><path style="opacity:1" fill="#301d01" d="M 283.5,597.5 C 284.167,625.167 284.833,652.833 285.5,680.5C 285.5,683.5 285.5,686.5 285.5,689.5C 300.228,689.854 314.895,689.187 329.5,687.5C 331.5,687.5 333.5,687.5 335.5,687.5C 336.167,690.167 336.833,692.833 337.5,695.5C 337.5,695.833 337.5,696.167 337.5,696.5C 336.566,695.432 336.232,694.099 336.5,692.5C 325.546,693.778 314.546,694.445 303.5,694.5C 306.5,693.907 309.5,693.074 312.5,692C 304.173,691.5 295.84,691.334 287.5,691.5C 287.5,692.5 287.5,693.5 287.5,694.5C 289.099,694.232 290.432,694.566 291.5,695.5C 281.5,695.5 271.5,695.5 261.5,695.5C 257.833,695.5 254.167,695.5 250.5,695.5C 249.838,699.466 249.505,703.466 249.5,707.5C 249.768,709.099 249.434,710.432 248.5,711.5C 247.596,710.791 247.263,709.791 247.5,708.5C 247.751,705.091 247.417,701.758 246.5,698.5C 248.399,696.169 249.566,693.502 250,690.5C 260.895,693.555 272.061,694.888 283.5,694.5C 283.5,693.5 283.5,692.5 283.5,691.5C 282.209,691.737 281.209,691.404 280.5,690.5C 280.5,689.5 280.5,688.5 280.5,687.5C 280.5,666.167 280.5,644.833 280.5,623.5C 281.167,644.671 281.833,666.004 282.5,687.5C 282.833,687 283.167,686.5 283.5,686C 283.477,656.666 283.477,627.166 283.5,597.5 Z"/></g>
<g><path style="opacity:1" fill="#732d06" d="M 407.5,648.5 C 408.283,650.343 408.95,652.343 409.5,654.5C 408.158,656.953 408.492,659.453 410.5,662C 409.565,664.381 409.232,666.881 409.5,669.5C 401.065,673.045 392.399,676.045 383.5,678.5C 367.429,681.834 351.429,684.834 335.5,687.5C 333.5,687.5 331.5,687.5 329.5,687.5C 331.305,685.803 333.639,684.97 336.5,685C 334.779,680.322 336.446,677.822 341.5,677.5C 341.5,675.5 341.5,673.5 341.5,671.5C 344.833,671.5 348.167,671.5 351.5,671.5C 351.5,668.833 351.5,666.167 351.5,663.5C 354.167,663.5 356.833,663.5 359.5,663.5C 359.5,666.167 359.5,668.833 359.5,671.5C 362.167,671.5 364.833,671.5 367.5,671.5C 367.5,673.5 367.5,675.5 367.5,677.5C 363.116,677.174 358.783,677.508 354.5,678.5C 358.014,678.505 361.514,678.838 365,679.5C 372.03,677.324 379.197,675.824 386.5,675C 387.337,673.989 387.67,672.822 387.5,671.5C 386.167,671.5 384.833,671.5 383.5,671.5C 383.5,666.167 383.5,660.833 383.5,655.5C 388.833,655.5 394.167,655.5 399.5,655.5C 399.5,660.167 399.5,664.833 399.5,669.5C 402.765,669.7 404.765,668.2 405.5,665C 403.808,662.065 403.142,658.898 403.5,655.5C 404.833,655.5 406.167,655.5 407.5,655.5C 407.5,653.167 407.5,650.833 407.5,648.5 Z"/></g>
<g><path style="opacity:1" fill="#5d4b20" d="M 280.5,687.5 C 280.5,688.5 280.5,689.5 280.5,690.5C 258.391,690.533 236.391,689.2 214.5,686.5C 214.918,685.778 215.584,685.278 216.5,685C 215.594,683.301 215.261,681.467 215.5,679.5C 218.247,679.813 220.914,679.48 223.5,678.5C 220.5,677.833 217.5,677.167 214.5,676.5C 214.081,675.328 213.415,674.328 212.5,673.5C 209.898,674.747 207.398,676.081 205,677.5C 202.162,674.421 202.995,672.088 207.5,670.5C 206.311,669.571 204.978,669.238 203.5,669.5C 203.859,667.234 203.192,665.401 201.5,664C 203.473,663.505 205.473,663.338 207.5,663.5C 207.5,660.833 207.5,658.167 207.5,655.5C 218.167,655.5 228.833,655.5 239.5,655.5C 239.5,658.167 239.5,660.833 239.5,663.5C 242.167,663.5 244.833,663.5 247.5,663.5C 247.5,666.167 247.5,668.833 247.5,671.5C 255.833,671.5 264.167,671.5 272.5,671.5C 272.489,669.453 272.156,667.453 271.5,665.5C 273.952,658.79 273.952,652.123 271.5,645.5C 271.86,643.392 272.527,641.392 273.5,639.5C 274.281,640.729 274.781,642.062 275,643.5C 275.103,635.756 275.769,628.089 277,620.5C 277.985,624.264 278.485,628.097 278.5,632C 277.896,649.109 277.73,666.276 278,683.5C 278.122,685.437 278.955,686.77 280.5,687.5 Z"/></g>
<g><path style="opacity:1" fill="#e4b462" d="M 356.5,689.5 C 357.167,689.5 357.833,689.5 358.5,689.5C 365.175,689.334 371.842,689.5 378.5,690C 402.477,691.501 425.811,696.001 448.5,703.5C 459.079,709.051 460.079,715.884 451.5,724C 441.047,728.768 430.38,732.601 419.5,735.5C 379.833,735.5 340.167,735.5 300.5,735.5C 306.952,732.44 313.285,729.107 319.5,725.5C 328.234,724.633 335.901,721.3 342.5,715.5C 343.167,708.833 343.833,702.167 344.5,695.5C 345.167,697.167 345.833,698.833 346.5,700.5C 347.484,697.572 347.817,694.572 347.5,691.5C 351.846,691.666 356.179,691.499 360.5,691C 358.942,690.79 357.609,690.29 356.5,689.5 Z"/></g>
<g><path style="opacity:1" fill="#957634" d="M 261.5,695.5 C 271.5,695.5 281.5,695.5 291.5,695.5C 291.672,696.492 291.338,697.158 290.5,697.5C 280.833,696.833 271.167,696.167 261.5,695.5 Z"/></g>
<g><path style="opacity:1" fill="#5d3204" d="M 243.5,694.5 C 245.436,698.715 246.103,703.381 245.5,708.5C 240.915,709.812 236.248,710.812 231.5,711.5C 229.055,711.597 226.889,710.93 225,709.5C 206.503,718.466 187.003,722.299 166.5,721C 164.381,720.902 162.714,720.069 161.5,718.5C 173.923,708.113 187.257,698.946 201.5,691C 215.4,692.684 229.4,693.851 243.5,694.5 Z"/></g>
<g><path style="opacity:1" fill="#d6b474" d="M 261.5,695.5 C 271.167,696.167 280.833,696.833 290.5,697.5C 287.471,700.859 284.471,704.192 281.5,707.5C 282.218,703.758 284.218,700.758 287.5,698.5C 275.518,697.501 263.518,697.168 251.5,697.5C 251.678,701.122 251.011,704.456 249.5,707.5C 249.505,703.466 249.838,699.466 250.5,695.5C 254.167,695.5 257.833,695.5 261.5,695.5 Z"/></g>
<g><path style="opacity:1" fill="#5b3103" d="M 337.5,696.5 C 337.827,701.544 337.494,706.544 336.5,711.5C 334.844,713.329 332.844,714.663 330.5,715.5C 329.571,714.311 329.238,712.978 329.5,711.5C 325.371,713.261 321.705,715.927 318.5,719.5C 312.087,724.415 305.087,728.248 297.5,731C 289.236,732.37 280.903,732.87 272.5,732.5C 272.965,728.938 274.132,725.605 276,722.5C 282.97,713.694 290.137,705.027 297.5,696.5C 299.631,695.831 301.631,695.165 303.5,694.5C 314.546,694.445 325.546,693.778 336.5,692.5C 336.232,694.099 336.566,695.432 337.5,696.5 Z"/></g>
<g><path style="opacity:1" fill="#fad793" d="M -0.5,703.5 C 4.83333,703.5 10.1667,703.5 15.5,703.5C 15.5,708.833 15.5,714.167 15.5,719.5C 31.5346,719.502 47.5346,720.169 63.5,721.5C 63.5,715.5 63.5,709.5 63.5,703.5C 68.8333,703.5 74.1667,703.5 79.5,703.5C 79.1417,706.898 79.8084,710.065 81.5,713C 79.9872,714.879 79.3205,717.046 79.5,719.5C 80.8333,719.5 82.1667,719.5 83.5,719.5C 82.9644,716.302 83.631,713.635 85.5,711.5C 85.3367,713.857 85.5034,716.19 86,718.5C 88.7525,721.76 91.9191,724.427 95.5,726.5C 105.509,729.831 115.509,732.831 125.5,735.5C 83.5,735.5 41.5,735.5 -0.5,735.5C -0.5,724.833 -0.5,714.167 -0.5,703.5 Z"/></g>
<g><path style="opacity:1" fill="#e4b461" d="M 191.5,691.5 C 179.664,698.165 168.498,705.832 158,714.5C 155.126,719.513 156.292,723.013 161.5,725C 182.821,728.423 203.154,725.256 222.5,715.5C 231.727,717.3 240.394,715.967 248.5,711.5C 249.434,710.432 249.768,709.099 249.5,707.5C 251.011,704.456 251.678,701.122 251.5,697.5C 263.518,697.168 275.518,697.501 287.5,698.5C 284.218,700.758 282.218,703.758 281.5,707.5C 276.267,713.62 271.767,720.286 268,727.5C 267.503,730.146 267.336,732.813 267.5,735.5C 220.167,735.5 172.833,735.5 125.5,735.5C 115.509,732.831 105.509,729.831 95.5,726.5C 91.9191,724.427 88.7525,721.76 86,718.5C 85.5034,716.19 85.3367,713.857 85.5,711.5C 88.3664,708.479 91.6997,705.979 95.5,704C 104.666,700.709 114,698.042 123.5,696C 142.583,693.052 161.75,690.885 181,689.5C 184.902,689.512 188.402,690.179 191.5,691.5 Z"/></g>
<g><path style="opacity:1" fill="#322403" d="M 303.5,694.5 C 301.631,695.165 299.631,695.831 297.5,696.5C 290.137,705.027 282.97,713.694 276,722.5C 274.132,725.605 272.965,728.938 272.5,732.5C 280.903,732.87 289.236,732.37 297.5,731C 305.087,728.248 312.087,724.415 318.5,719.5C 321.705,715.927 325.371,713.261 329.5,711.5C 329.238,712.978 329.571,714.311 330.5,715.5C 332.844,714.663 334.844,713.329 336.5,711.5C 337.494,706.544 337.827,701.544 337.5,696.5C 337.5,696.167 337.5,695.833 337.5,695.5C 338.239,695.369 338.906,695.536 339.5,696C 339.421,702.289 339.421,708.789 339.5,715.5C 334.567,719.315 328.9,721.482 322.5,722C 321.29,723.039 320.29,724.206 319.5,725.5C 313.285,729.107 306.952,732.44 300.5,735.5C 289.5,735.5 278.5,735.5 267.5,735.5C 267.336,732.813 267.503,730.146 268,727.5C 271.767,720.286 276.267,713.62 281.5,707.5C 284.471,704.192 287.471,700.859 290.5,697.5C 291.338,697.158 291.672,696.492 291.5,695.5C 290.432,694.566 289.099,694.232 287.5,694.5C 287.5,693.5 287.5,692.5 287.5,691.5C 295.84,691.334 304.173,691.5 312.5,692C 309.5,693.074 306.5,693.907 303.5,694.5 Z"/></g>
<g><path style="opacity:1" fill="#d9b770" d="M 356.5,689.5 C 357.609,690.29 358.942,690.79 360.5,691C 356.179,691.499 351.846,691.666 347.5,691.5C 347.817,694.572 347.484,697.572 346.5,700.5C 345.833,698.833 345.167,697.167 344.5,695.5C 343.833,702.167 343.167,708.833 342.5,715.5C 335.901,721.3 328.234,724.633 319.5,725.5C 320.29,724.206 321.29,723.039 322.5,722C 328.9,721.482 334.567,719.315 339.5,715.5C 340.79,714.942 341.623,713.942 342,712.5C 342.892,705.373 342.392,698.373 340.5,691.5C 345.816,690.704 351.149,690.037 356.5,689.5 Z"/></g>
<g><path style="opacity:1" fill="#342303" d="M 243.5,694.5 C 229.4,693.851 215.4,692.684 201.5,691C 187.257,698.946 173.923,708.113 161.5,718.5C 162.714,720.069 164.381,720.902 166.5,721C 187.003,722.299 206.503,718.466 225,709.5C 226.889,710.93 229.055,711.597 231.5,711.5C 236.248,710.812 240.915,709.812 245.5,708.5C 245.938,709.506 246.604,709.506 247.5,708.5C 247.263,709.791 247.596,710.791 248.5,711.5C 240.394,715.967 231.727,717.3 222.5,715.5C 203.154,725.256 182.821,728.423 161.5,725C 156.292,723.013 155.126,719.513 158,714.5C 168.498,705.832 179.664,698.165 191.5,691.5C 192.973,690.928 194.307,690.095 195.5,689C 195.272,688.601 194.938,688.435 194.5,688.5C 195.189,687.293 195.355,685.959 195,684.5C 196.385,685.551 197.385,686.884 198,688.5C 198.333,688.167 198.667,687.833 199,687.5C 210.055,688.972 221.222,690.639 232.5,692.5C 233.446,692.013 234.446,691.68 235.5,691.5C 238.211,692.732 240.877,693.732 243.5,694.5 Z"/></g>
</svg>
