<?xml version="1.0" encoding="UTF-8"?>
<!DOCTYPE svg PUBLIC "-//W3C//DTD SVG 1.1//EN" "http://www.w3.org/Graphics/SVG/1.1/DTD/svg11.dtd">
<svg xmlns="http://www.w3.org/2000/svg" version="1.1" width="544px" height="736px" style="shape-rendering:geometricPrecision; text-rendering:geometricPrecision; image-rendering:optimizeQuality; fill-rule:evenodd; clip-rule:evenodd" xmlns:xlink="http://www.w3.org/1999/xlink">
<g><path style="opacity:1" fill="#f8d68c" d="M -0.5,-0.5 C 74.1667,-0.5 148.833,-0.5 223.5,-0.5C 223.5,4.83333 223.5,10.1667 223.5,15.5C 219.63,16.799 215.63,17.4657 211.5,17.5C 211.136,28.0874 210.136,28.0874 208.5,17.5C 207.507,22.1196 207.173,26.7863 207.5,31.5C 204.833,31.5 202.167,31.5 199.5,31.5C 199.5,26.1667 199.5,20.8333 199.5,15.5C 196.833,15.5 194.167,15.5 191.5,15.5C 191.5,31.5 191.5,47.5 191.5,63.5C 192.833,63.5 194.167,63.5 195.5,63.5C 195.841,42.2078 196.841,42.2078 198.5,63.5C 199.833,39.5 201.167,39.5 202.5,63.5C 203.833,39.5 205.167,39.5 206.5,63.5C 208.161,52.8848 209.161,42.2182 209.5,31.5C 212.167,31.5 214.833,31.5 217.5,31.5C 217.5,29.5 217.5,27.5 217.5,25.5C 219.5,25.5 221.5,25.5 223.5,25.5C 223.5,24.1667 223.5,22.8333 223.5,21.5C 224.833,21.5 226.167,21.5 227.5,21.5C 227.354,24.5539 228.687,26.5539 231.5,27.5C 224.372,34.0849 219.539,42.0849 217,51.5C 217.07,63.4981 217.07,75.4981 217,87.5C 213.769,93.399 209.769,98.7324 205,103.5C 196.731,115.852 196.397,128.519 204,141.5C 204.667,144.5 204.667,147.5 204,150.5C 196.394,158.648 192.727,168.315 193,179.5C 173.013,203.121 157.346,229.454 146,258.5C 136.728,284.788 145.228,302.288 171.5,311C 178.104,312.822 184.771,314.322 191.5,315.5C 199.195,317.73 207.195,319.23 215.5,320C 216.684,321.145 216.684,322.312 215.5,323.5C 204.2,335.399 195.366,349.066 189,364.5C 177.051,394.627 168.051,425.627 162,457.5C 151.439,524.886 143.439,592.552 138,660.5C 139.5,663.333 141.667,665.5 144.5,667C 156.272,673.184 168.605,677.35 181.5,679.5C 173.493,679.334 165.493,679.5 157.5,680C 154.245,680.472 151.578,681.972 149.5,684.5C 150.833,685.167 152.167,685.833 153.5,686.5C 149.331,688.311 144.998,689.311 140.5,689.5C 140.5,690.5 140.5,691.5 140.5,692.5C 136.606,691.483 132.773,691.483 129,692.5C 127.491,691.91 125.991,691.244 124.5,690.5C 125.325,689.614 126.325,689.281 127.5,689.5C 127.5,686.167 127.5,682.833 127.5,679.5C 116.833,679.5 106.167,679.5 95.5,679.5C 95.5343,683.63 96.201,687.63 97.5,691.5C 98.8333,691.5 100.167,691.5 101.5,691.5C 101.5,692.833 101.5,694.167 101.5,695.5C 83.5,695.5 65.5,695.5 47.5,695.5C 47.5,697.5 47.5,699.5 47.5,701.5C 40.6955,701.185 34.0288,701.852 27.5,703.5C 27.5,700.833 27.5,698.167 27.5,695.5C 24.8333,695.5 22.1667,695.5 19.5,695.5C 19.5,692.833 19.5,690.167 19.5,687.5C 18.1667,687.5 16.8333,687.5 15.5,687.5C 15.5,682.167 15.5,676.833 15.5,671.5C 10.1667,671.5 4.83333,671.5 -0.5,671.5C -0.5,447.5 -0.5,223.5 -0.5,-0.5 Z"/></g>
<g><path style="opacity:1" fill="#f8d68c" d="M 223.5,-0.5 C 330.167,-0.5 436.833,-0.5 543.5,-0.5C 543.5,90.1667 543.5,180.833 543.5,271.5C 538.167,271.5 532.833,271.5 527.5,271.5C 527.5,277.5 527.5,283.5 527.5,289.5C 528.833,289.5 530.167,289.5 531.5,289.5C 531.356,297.51 531.023,305.51 530.5,313.5C 538.864,312.22 541.531,315.553 538.5,323.5C 535.855,324.192 533.355,325.192 531,326.5C 530.505,324.527 530.338,322.527 530.5,320.5C 525.5,320.5 520.5,320.5 515.5,320.5C 515.5,323.167 515.5,325.833 515.5,328.5C 522.905,328.119 528.238,328.452 531.5,329.5C 531.5,336.833 531.5,344.167 531.5,351.5C 530.167,351.5 528.833,351.5 527.5,351.5C 527.5,356.167 527.5,360.833 527.5,365.5C 524.833,365.5 522.167,365.5 519.5,365.5C 519.5,371.5 519.5,377.5 519.5,383.5C 522.167,383.5 524.833,383.5 527.5,383.5C 527.5,380.833 527.5,378.167 527.5,375.5C 530.167,375.5 532.833,375.5 535.5,375.5C 535.5,383.5 535.5,391.5 535.5,399.5C 511.5,399.5 487.5,399.5 463.5,399.5C 463.5,404.833 463.5,410.167 463.5,415.5C 452.833,415.5 442.167,415.5 431.5,415.5C 431.5,412.167 431.5,408.833 431.5,405.5C 419.381,405.008 407.381,405.674 395.5,407.5C 395.5,408.833 395.5,410.167 395.5,411.5C 394.167,411.5 392.833,411.5 391.5,411.5C 391.058,416.694 390.058,416.694 388.5,411.5C 388.167,413.333 387.833,415.167 387.5,417C 388.821,422.431 389.488,427.931 389.5,433.5C 382.462,397.393 369.128,363.727 349.5,332.5C 368.174,328.109 386.507,322.609 404.5,316C 415.476,311.6 424.976,305.1 433,296.5C 440.999,283.307 441.666,269.64 435,255.5C 430.729,246.623 426.229,237.956 421.5,229.5C 421.083,226.657 420.083,223.99 418.5,221.5C 414.004,215.844 410.004,209.844 406.5,203.5C 405.083,201.739 403.417,200.406 401.5,199.5C 401.634,195.698 400.967,192.032 399.5,188.5C 400.645,183.917 401.311,179.251 401.5,174.5C 401.016,169.184 401.016,164.351 401.5,160C 398.24,158.216 394.907,156.716 391.5,155.5C 383.562,151.624 380.395,145.29 382,136.5C 386.362,129.929 387.362,122.929 385,115.5C 379.011,107.846 372.678,100.513 366,93.5C 362.766,85.8315 361.266,77.8315 361.5,69.5C 361.144,60.421 361.81,51.421 363.5,42.5C 363.367,39.4907 362.367,36.8241 360.5,34.5C 358.253,35.3742 355.92,35.7076 353.5,35.5C 353.083,32.6567 352.083,29.99 350.5,27.5C 349.395,25.3886 347.729,24.0553 345.5,23.5C 325.398,3.98296 301.398,-3.1837 273.5,2C 264.991,4.1681 256.991,7.50143 249.5,12C 245.167,13 240.833,14 236.5,15C 233.415,18.548 231.749,22.7146 231.5,27.5C 228.687,26.5539 227.354,24.5539 227.5,21.5C 226.167,21.5 224.833,21.5 223.5,21.5C 223.5,22.8333 223.5,24.1667 223.5,25.5C 221.5,25.5 219.5,25.5 217.5,25.5C 217.5,27.5 217.5,29.5 217.5,31.5C 214.833,31.5 212.167,31.5 209.5,31.5C 209.161,42.2182 208.161,52.8848 206.5,63.5C 205.167,39.5 203.833,39.5 202.5,63.5C 201.167,39.5 199.833,39.5 198.5,63.5C 196.841,42.2078 195.841,42.2078 195.5,63.5C 194.167,63.5 192.833,63.5 191.5,63.5C 191.5,47.5 191.5,31.5 191.5,15.5C 194.167,15.5 196.833,15.5 199.5,15.5C 199.5,20.8333 199.5,26.1667 199.5,31.5C 202.167,31.5 204.833,31.5 207.5,31.5C 207.173,26.7863 207.507,22.1196 208.5,17.5C 210.136,28.0874 211.136,28.0874 211.5,17.5C 215.63,17.4657 219.63,16.799 223.5,15.5C 223.5,10.1667 223.5,4.83333 223.5,-0.5 Z"/></g>
<g><path style="opacity:1" fill="#b57610" d="M 239.5,19.5 C 251.5,19.5 263.5,19.5 275.5,19.5C 303.426,22.3962 329.76,30.3962 354.5,43.5C 355.466,45.396 355.799,47.396 355.5,49.5C 336.925,40.6923 317.592,33.5256 297.5,28C 291.532,26.8444 285.532,26.0111 279.5,25.5C 265.697,23.223 251.697,22.8897 237.5,24.5C 237.12,22.302 237.787,20.6354 239.5,19.5 Z"/></g>
<g><path style="opacity:1" fill="#392c03" d="M 341.5,31.5 C 341.918,32.2216 342.584,32.7216 343.5,33C 342.692,33.3076 342.025,33.8076 341.5,34.5C 345.241,35.1316 348.407,36.7982 351,39.5C 351.5,39.3333 352,39.1667 352.5,39C 351.62,37.6439 351.286,36.1439 351.5,34.5C 354.119,36.9392 356.952,39.2725 360,41.5C 360.102,47.8251 359.935,54.1584 359.5,60.5C 358.732,61.2625 358.232,62.2625 358,63.5C 357.583,62.244 356.75,61.5774 355.5,61.5C 354.871,58.3599 353.204,55.8599 350.5,54C 329.621,43.0405 307.621,35.7071 284.5,32C 286.361,35.025 288.694,37.525 291.5,39.5C 290.399,40.7997 289.066,41.2997 287.5,41C 288.641,40.2588 288.641,39.4255 287.5,38.5C 283.18,35.8359 279.18,32.8359 275.5,29.5C 269.79,33.8664 263.79,37.8664 257.5,41.5C 256.082,39.6921 254.082,39.0254 251.5,39.5C 256.586,37.1107 261.253,33.944 265.5,30C 261.514,29.5012 257.514,29.3345 253.5,29.5C 257.339,28.707 261.339,28.0403 265.5,27.5C 266.713,27.2528 267.38,26.5862 267.5,25.5C 271.5,25.5 275.5,25.5 279.5,25.5C 285.532,26.0111 291.532,26.8444 297.5,28C 317.592,33.5256 336.925,40.6923 355.5,49.5C 355.799,47.396 355.466,45.396 354.5,43.5C 329.76,30.3962 303.426,22.3962 275.5,19.5C 274.167,18.8333 272.833,18.1667 271.5,17.5C 276.179,17.6658 280.845,17.4992 285.5,17C 282.325,16.5068 279.659,15.3402 277.5,13.5C 279.2,13.3739 280.7,12.7073 282,11.5C 283.274,12.5353 284.44,13.702 285.5,15C 304.957,18.0675 323.623,23.5675 341.5,31.5 Z"/></g>
<g><path style="opacity:1" fill="#efd696" d="M 345.5,23.5 C 347.729,24.0553 349.395,25.3886 350.5,27.5C 352.083,29.99 353.083,32.6567 353.5,35.5C 355.92,35.7076 358.253,35.3742 360.5,34.5C 362.367,36.8241 363.367,39.4907 363.5,42.5C 361.81,51.421 361.144,60.421 361.5,69.5C 360.755,66.6104 360.088,63.6104 359.5,60.5C 359.935,54.1584 360.102,47.8251 360,41.5C 356.952,39.2725 354.119,36.9392 351.5,34.5C 349.754,30.6733 347.754,27.0066 345.5,23.5 Z"/></g>
<g><path style="opacity:1" fill="#e29a37" d="M 285.5,53.5 C 287.153,53.6596 288.486,54.3263 289.5,55.5C 290.183,57.1765 291.517,57.8432 293.5,57.5C 293.672,59.4918 293.005,61.1585 291.5,62.5C 292.376,63.2508 293.376,63.7508 294.5,64C 293.897,65.8254 293.23,67.6587 292.5,69.5C 290.234,66.0777 287.234,65.0777 283.5,66.5C 281.827,68.5225 281.16,70.8559 281.5,73.5C 281.5,77.5 281.5,81.5 281.5,85.5C 283.074,88.7084 285.741,90.0418 289.5,89.5C 289.5,90.8333 289.5,92.1667 289.5,93.5C 285.907,95.4668 282.907,94.8002 280.5,91.5C 279.571,92.6888 279.238,94.0222 279.5,95.5C 275.516,95.7188 271.682,95.7188 268,95.5C 267.833,95.8333 267.667,96.1667 267.5,96.5C 268.689,97.4287 270.022,97.762 271.5,97.5C 271.5,98.8333 271.5,100.167 271.5,101.5C 269.5,101.5 267.5,101.5 265.5,101.5C 264.665,100.057 263.332,99.0568 261.5,98.5C 258.167,97.8333 254.833,97.1667 251.5,96.5C 254.146,94.8681 255.479,92.5348 255.5,89.5C 257.829,88.6671 259.329,87.0004 260,84.5C 261.88,85.9295 263.38,85.5962 264.5,83.5C 263.975,82.8076 263.308,82.3076 262.5,82C 263.469,77.2633 263.803,72.43 263.5,67.5C 266.167,67.5 268.833,67.5 271.5,67.5C 271.421,65.3337 270.754,63.3337 269.5,61.5C 270.743,59.3093 271.576,56.9759 272,54.5C 274.381,55.435 276.881,55.7683 279.5,55.5C 279.833,52.5 278.5,51.1667 275.5,51.5C 275.5,50.1667 275.5,48.8333 275.5,47.5C 276.552,47.3505 277.552,47.5172 278.5,48C 279.541,51.5473 281.875,53.3807 285.5,53.5 Z"/></g>
<g><path style="opacity:1" fill="#392608" d="M 303.5,61.5 C 299.3,58.5402 294.634,56.5402 289.5,55.5C 288.486,54.3263 287.153,53.6596 285.5,53.5C 282.991,52.3176 281.657,50.3176 281.5,47.5C 291.245,47.2761 299.745,50.6095 307,57.5C 307.49,58.7932 307.657,60.1266 307.5,61.5C 306.167,61.5 304.833,61.5 303.5,61.5 Z"/></g>
<g><path style="opacity:1" fill="#694107" d="M 355.5,61.5 C 353.763,83.6907 361.597,101.691 379,115.5C 382.495,122.043 382.161,128.377 378,134.5C 375.622,140.885 376.289,146.885 380,152.5C 383.7,156.535 387.7,160.202 392,163.5C 396.055,170.596 396.555,177.93 393.5,185.5C 392.849,186.091 392.182,186.757 391.5,187.5C 384.271,177.77 375.604,169.603 365.5,163C 360.909,161.515 356.243,160.349 351.5,159.5C 349.561,157.752 347.394,156.086 345,154.5C 344.137,151.731 343.637,148.898 343.5,146C 344.805,139.603 346.472,133.436 348.5,127.5C 349.887,130.639 351.054,133.972 352,137.5C 352.667,138.833 353.333,138.833 354,137.5C 354.609,128.04 351.776,119.707 345.5,112.5C 334.43,103.911 326.596,92.9105 322,79.5C 320.948,72.8724 320.448,66.2057 320.5,59.5C 324.059,59.2845 327.559,59.6178 331,60.5C 333.39,59.828 333.89,58.4946 332.5,56.5C 324.012,54.4621 315.679,51.9621 307.5,49C 302.263,45.5796 296.929,42.4129 291.5,39.5C 288.694,37.525 286.361,35.025 284.5,32C 307.621,35.7071 329.621,43.0405 350.5,54C 353.204,55.8599 354.871,58.3599 355.5,61.5 Z"/></g>
<g><path style="opacity:1" fill="#d49e4c" d="M 287.5,43.5 C 295.94,48.6105 304.606,53.2771 313.5,57.5C 312.127,57.3433 310.793,57.51 309.5,58C 309.854,59.6255 309.854,61.4588 309.5,63.5C 306.918,63.9746 304.918,63.3079 303.5,61.5C 304.833,61.5 306.167,61.5 307.5,61.5C 307.657,60.1266 307.49,58.7932 307,57.5C 299.745,50.6095 291.245,47.2761 281.5,47.5C 283.5,46.1667 285.5,44.8333 287.5,43.5 Z"/></g>
<g><path style="opacity:1" fill="#de9a3a" d="M 275.5,29.5 C 278.413,35.0807 282.413,39.7474 287.5,43.5C 285.5,44.8333 283.5,46.1667 281.5,47.5C 281.657,50.3176 282.991,52.3176 285.5,53.5C 281.875,53.3807 279.541,51.5473 278.5,48C 277.552,47.5172 276.552,47.3505 275.5,47.5C 275.5,48.8333 275.5,50.1667 275.5,51.5C 278.5,51.1667 279.833,52.5 279.5,55.5C 276.881,55.7683 274.381,55.435 272,54.5C 271.576,56.9759 270.743,59.3093 269.5,61.5C 270.754,63.3337 271.421,65.3337 271.5,67.5C 268.833,67.5 266.167,67.5 263.5,67.5C 263.803,72.43 263.469,77.2633 262.5,82C 263.308,82.3076 263.975,82.8076 264.5,83.5C 263.38,85.5962 261.88,85.9295 260,84.5C 259.329,87.0004 257.829,88.6671 255.5,89.5C 257.109,86.0538 258.943,82.7205 261,79.5C 261.808,77.4213 261.641,75.4213 260.5,73.5C 256.875,76.3532 254.375,80.0199 253,84.5C 250,87.5 247,90.5 244,93.5C 242.369,99.8906 244.869,103.724 251.5,105C 255.486,105.499 259.486,105.666 263.5,105.5C 265.176,104.817 265.843,103.483 265.5,101.5C 267.5,101.5 269.5,101.5 271.5,101.5C 271.5,100.167 271.5,98.8333 271.5,97.5C 270.022,97.762 268.689,97.4287 267.5,96.5C 267.667,96.1667 267.833,95.8333 268,95.5C 271.682,95.7188 275.516,95.7188 279.5,95.5C 279.238,94.0222 279.571,92.6888 280.5,91.5C 282.907,94.8002 285.907,95.4668 289.5,93.5C 289.5,92.1667 289.5,90.8333 289.5,89.5C 285.741,90.0418 283.074,88.7084 281.5,85.5C 285.203,88.6559 288.037,87.9893 290,83.5C 291.932,78.8058 291.932,74.1391 290,69.5C 289.261,68.4258 288.261,67.7591 287,67.5C 284.473,68.9036 282.64,70.9036 281.5,73.5C 281.16,70.8559 281.827,68.5225 283.5,66.5C 287.234,65.0777 290.234,66.0777 292.5,69.5C 293.23,67.6587 293.897,65.8254 294.5,64C 293.376,63.7508 292.376,63.2508 291.5,62.5C 293.005,61.1585 293.672,59.4918 293.5,57.5C 291.517,57.8432 290.183,57.1765 289.5,55.5C 294.634,56.5402 299.3,58.5402 303.5,61.5C 304.918,63.3079 306.918,63.9746 309.5,63.5C 309.854,61.4588 309.854,59.6255 309.5,58C 310.793,57.51 312.127,57.3433 313.5,57.5C 313.965,77.5275 320.965,95.1942 334.5,110.5C 330.768,119.074 324.435,122.074 315.5,119.5C 314.963,127.908 311.297,134.575 304.5,139.5C 299.411,142.217 294.411,145.217 289.5,148.5C 288.167,148.833 286.833,149.167 285.5,149.5C 283.667,149.415 282.334,148.748 281.5,147.5C 283.379,146.659 285.379,146.325 287.5,146.5C 287.928,143.436 288.594,140.436 289.5,137.5C 289.921,133.258 289.254,129.258 287.5,125.5C 284.883,117.718 279.55,112.885 271.5,111C 262.433,108.947 254.433,110.78 247.5,116.5C 248.157,113.99 249.491,111.823 251.5,110C 250.293,108.7 249.626,107.2 249.5,105.5C 245.849,104.373 242.515,102.539 239.5,100C 239.379,97.3078 239.712,94.4745 240.5,91.5C 241.59,90.273 242.924,89.4396 244.5,89C 243.33,85.8217 241.33,83.3217 238.5,81.5C 237.833,82.1667 237.167,82.8333 236.5,83.5C 235.702,81.9223 235.202,80.2556 235,78.5C 233.814,80.6766 231.981,81.6766 229.5,81.5C 228.393,91.464 227.727,101.464 227.5,111.5C 226.347,105.347 226.18,99.0137 227,92.5C 229.075,78.7892 231.409,65.1226 234,51.5C 239.944,46.9716 241.111,47.4716 237.5,53C 237.667,54.5 238.5,55.3333 240,55.5C 245.893,52.5866 252.059,50.4199 258.5,49C 260.273,45.6161 259.273,43.4494 255.5,42.5C 255.957,41.7025 256.624,41.3691 257.5,41.5C 263.79,37.8664 269.79,33.8664 275.5,29.5 Z"/></g>
<g><path style="opacity:1" fill="#3b2d07" d="M 281.5,85.5 C 281.5,81.5 281.5,77.5 281.5,73.5C 282.64,70.9036 284.473,68.9036 287,67.5C 288.261,67.7591 289.261,68.4258 290,69.5C 291.932,74.1391 291.932,78.8058 290,83.5C 288.037,87.9893 285.203,88.6559 281.5,85.5 Z"/></g>
<g><path style="opacity:1" fill="#372c05" d="M 247.5,64.5 C 251.629,64.9652 253.629,67.2985 253.5,71.5C 253.257,74.6559 252.424,77.6559 251,80.5C 249.267,82.6015 247.267,82.9348 245,81.5C 242.423,75.2358 243.256,69.5691 247.5,64.5 Z"/></g>
<g><path style="opacity:1" fill="#392606" d="M 255.5,89.5 C 251.466,91.4591 249.799,94.4591 250.5,98.5C 254.997,100.333 259.664,101.333 264.5,101.5C 264.567,102.959 264.234,104.292 263.5,105.5C 259.486,105.666 255.486,105.499 251.5,105C 244.869,103.724 242.369,99.8906 244,93.5C 247,90.5 250,87.5 253,84.5C 254.375,80.0199 256.875,76.3532 260.5,73.5C 261.641,75.4213 261.808,77.4213 261,79.5C 258.943,82.7205 257.109,86.0538 255.5,89.5 Z"/></g>
<g><path style="opacity:1" fill="#e29936" d="M 247.5,116.5 C 247.573,118.027 246.906,119.027 245.5,119.5C 243.882,123.084 242.882,127.084 242.5,131.5C 241.571,130.311 241.238,128.978 241.5,127.5C 240.167,127.5 238.833,127.5 237.5,127.5C 238.401,123.759 237.068,121.759 233.5,121.5C 233.762,122.978 233.429,124.311 232.5,125.5C 231.943,123.668 230.943,122.335 229.5,121.5C 228.542,119.698 227.875,117.698 227.5,115.5C 227.5,114.167 227.5,112.833 227.5,111.5C 227.727,101.464 228.393,91.464 229.5,81.5C 231.981,81.6766 233.814,80.6766 235,78.5C 235.202,80.2556 235.702,81.9223 236.5,83.5C 237.167,82.8333 237.833,82.1667 238.5,81.5C 241.33,83.3217 243.33,85.8217 244.5,89C 242.924,89.4396 241.59,90.273 240.5,91.5C 239.712,94.4745 239.379,97.3078 239.5,100C 242.515,102.539 245.849,104.373 249.5,105.5C 249.626,107.2 250.293,108.7 251.5,110C 249.491,111.823 248.157,113.99 247.5,116.5 Z"/></g>
<g><path style="opacity:1" fill="#513706" d="M 348.5,127.5 C 346.472,133.436 344.805,139.603 343.5,146C 343.637,148.898 344.137,151.731 345,154.5C 347.394,156.086 349.561,157.752 351.5,159.5C 338.817,157.249 326.151,156.416 313.5,157C 310.183,155.196 308.85,152.363 309.5,148.5C 309.667,146.833 309.833,145.167 310,143.5C 314.36,138.773 317.694,133.44 320,127.5C 327.665,125.025 333.832,120.358 338.5,113.5C 342.825,117.492 346.158,122.158 348.5,127.5 Z"/></g>
<g><path style="opacity:1" fill="#694209" d="M 223.5,116.5 C 224.045,121.609 225.212,126.609 227,131.5C 229.023,135.66 231.189,139.66 233.5,143.5C 233.313,148.845 232.98,154.178 232.5,159.5C 229.627,159.802 226.961,160.469 224.5,161.5C 214.1,161.618 205.6,165.618 199,173.5C 198.808,170.053 199.475,166.72 201,163.5C 211.254,152.451 212.254,140.451 204,127.5C 202.99,121.936 203.657,116.602 206,111.5C 211.576,104.68 216.909,97.6798 222,90.5C 221.408,97.7554 221.408,105.089 222,112.5C 222.21,114.058 222.71,115.391 223.5,116.5 Z"/></g>
<g><path style="opacity:1" fill="#513907" d="M 233.5,143.5 C 235.822,145.494 237.822,147.827 239.5,150.5C 243.627,152.793 247.627,155.293 251.5,158C 245.285,159.416 238.952,159.916 232.5,159.5C 232.98,154.178 233.313,148.845 233.5,143.5 Z"/></g>
<g><path style="opacity:1" fill="#efd696" d="M 391.5,155.5 C 394.907,156.716 398.24,158.216 401.5,160C 401.016,164.351 401.016,169.184 401.5,174.5C 401.311,179.251 400.645,183.917 399.5,188.5C 400.967,192.032 401.634,195.698 401.5,199.5C 399.022,197.219 397.022,194.552 395.5,191.5C 403.336,178.339 402.003,166.339 391.5,155.5 Z"/></g>
<g><path style="opacity:1" fill="#3b2a04" d="M 275.5,29.5 C 279.18,32.8359 283.18,35.8359 287.5,38.5C 288.641,39.4255 288.641,40.2588 287.5,41C 289.066,41.2997 290.399,40.7997 291.5,39.5C 296.929,42.4129 302.263,45.5796 307.5,49C 315.679,51.9621 324.012,54.4621 332.5,56.5C 333.89,58.4946 333.39,59.828 331,60.5C 327.559,59.6178 324.059,59.2845 320.5,59.5C 320.448,66.2057 320.948,72.8724 322,79.5C 326.596,92.9105 334.43,103.911 345.5,112.5C 351.776,119.707 354.609,128.04 354,137.5C 353.333,138.833 352.667,138.833 352,137.5C 351.054,133.972 349.887,130.639 348.5,127.5C 346.158,122.158 342.825,117.492 338.5,113.5C 333.832,120.358 327.665,125.025 320,127.5C 317.694,133.44 314.36,138.773 310,143.5C 309.833,145.167 309.667,146.833 309.5,148.5C 308.85,152.363 310.183,155.196 313.5,157C 326.151,156.416 338.817,157.249 351.5,159.5C 356.243,160.349 360.909,161.515 365.5,163C 375.604,169.603 384.271,177.77 391.5,187.5C 392.182,186.757 392.849,186.091 393.5,185.5C 393.309,188.983 392.643,192.316 391.5,195.5C 390.609,194.739 389.942,193.739 389.5,192.5C 388.311,191.571 386.978,191.238 385.5,191.5C 385.502,189.169 384.669,187.169 383,185.5C 377.321,180.321 371.821,174.988 366.5,169.5C 360.94,165.745 354.94,164.745 348.5,166.5C 341.993,184.215 331.16,198.548 316,209.5C 310.176,213.167 304.01,215.834 297.5,217.5C 297.5,216.167 297.5,214.833 297.5,213.5C 296.5,213.5 295.5,213.5 294.5,213.5C 319.331,204.669 335.665,187.669 343.5,162.5C 341.5,162.5 339.5,162.5 337.5,162.5C 336.036,161.84 334.369,161.507 332.5,161.5C 330.36,161.556 328.694,162.223 327.5,163.5C 317.402,185.988 299.902,197.988 275,199.5C 269.803,198.995 264.637,198.328 259.5,197.5C 253.512,194.586 248.345,190.586 244,185.5C 240.762,178.88 239.262,171.88 239.5,164.5C 235.865,165.114 232.198,165.448 228.5,165.5C 228.389,164.883 228.056,164.383 227.5,164C 230.226,163.818 232.893,163.318 235.5,162.5C 231.893,161.511 228.226,161.177 224.5,161.5C 226.961,160.469 229.627,159.802 232.5,159.5C 238.952,159.916 245.285,159.416 251.5,158C 247.627,155.293 243.627,152.793 239.5,150.5C 237.822,147.827 235.822,145.494 233.5,143.5C 231.189,139.66 229.023,135.66 227,131.5C 225.212,126.609 224.045,121.609 223.5,116.5C 223.168,104.814 223.501,93.1477 224.5,81.5C 224.846,93.1964 225.846,104.53 227.5,115.5C 227.875,117.698 228.542,119.698 229.5,121.5C 233.886,138.282 244.219,149.615 260.5,155.5C 277.951,158.119 292.618,152.786 304.5,139.5C 311.297,134.575 314.963,127.908 315.5,119.5C 324.435,122.074 330.768,119.074 334.5,110.5C 320.965,95.1942 313.965,77.5275 313.5,57.5C 304.606,53.2771 295.94,48.6105 287.5,43.5C 282.413,39.7474 278.413,35.0807 275.5,29.5 Z"/></g>
<g><path style="opacity:1" fill="#bf7c22" d="M 309.5,161.5 C 305.059,165.081 300.393,168.581 295.5,172C 285.051,176.674 274.384,177.508 263.5,174.5C 263.5,170.167 263.5,165.833 263.5,161.5C 279.116,162.941 292.616,158.275 304,147.5C 304.182,152.891 306.016,157.558 309.5,161.5 Z"/></g>
<g><path style="opacity:1" fill="#836c1d" d="M 337.5,162.5 C 334.061,162.253 330.728,162.586 327.5,163.5C 328.694,162.223 330.36,161.556 332.5,161.5C 334.369,161.507 336.036,161.84 337.5,162.5 Z"/></g>
<g><path style="opacity:1" fill="#d69846" d="M 304.5,139.5 C 292.618,152.786 277.951,158.119 260.5,155.5C 267.722,155.875 274.722,154.875 281.5,152.5C 279.604,151.534 277.604,151.201 275.5,151.5C 275.5,150.167 275.5,148.833 275.5,147.5C 277.5,147.5 279.5,147.5 281.5,147.5C 282.334,148.748 283.667,149.415 285.5,149.5C 286.833,149.167 288.167,148.833 289.5,148.5C 294.411,145.217 299.411,142.217 304.5,139.5 Z"/></g>
<g><path style="opacity:1" fill="#db9739" d="M 245.5,119.5 C 245.5,123.5 245.5,127.5 245.5,131.5C 245.5,132.167 245.5,132.833 245.5,133.5C 245.5,135.5 245.5,137.5 245.5,139.5C 249.24,141.875 253.24,144.042 257.5,146C 263.423,147.304 269.423,147.804 275.5,147.5C 275.5,148.833 275.5,150.167 275.5,151.5C 277.604,151.201 279.604,151.534 281.5,152.5C 274.722,154.875 267.722,155.875 260.5,155.5C 244.219,149.615 233.886,138.282 229.5,121.5C 230.943,122.335 231.943,123.668 232.5,125.5C 233.429,124.311 233.762,122.978 233.5,121.5C 237.068,121.759 238.401,123.759 237.5,127.5C 238.833,127.5 240.167,127.5 241.5,127.5C 241.238,128.978 241.571,130.311 242.5,131.5C 242.882,127.084 243.882,123.084 245.5,119.5 Z"/></g>
<g><path style="opacity:1" fill="#cd8d34" d="M 245.5,133.5 C 246.473,135.25 247.807,136.75 249.5,138C 255.5,138.333 261.5,138.667 267.5,139C 272.818,142.035 278.485,143.035 284.5,142C 286.362,140.634 288.028,139.134 289.5,137.5C 288.594,140.436 287.928,143.436 287.5,146.5C 285.379,146.325 283.379,146.659 281.5,147.5C 279.5,147.5 277.5,147.5 275.5,147.5C 269.423,147.804 263.423,147.304 257.5,146C 253.24,144.042 249.24,141.875 245.5,139.5C 245.5,137.5 245.5,135.5 245.5,133.5 Z"/></g>
<g><path style="opacity:1" fill="#3a2d04" d="M 252.5,117.5 C 255.167,117.5 257.833,117.5 260.5,117.5C 266.167,118.833 271.833,118.833 277.5,117.5C 278.978,117.238 280.311,117.571 281.5,118.5C 282.827,121.537 284.827,123.87 287.5,125.5C 289.254,129.258 289.921,133.258 289.5,137.5C 288.028,139.134 286.362,140.634 284.5,142C 278.485,143.035 272.818,142.035 267.5,139C 261.5,138.667 255.5,138.333 249.5,138C 247.807,136.75 246.473,135.25 245.5,133.5C 245.5,132.833 245.5,132.167 245.5,131.5C 246.03,126.647 247.363,121.98 249.5,117.5C 250.5,117.5 251.5,117.5 252.5,117.5 Z"/></g>
<g><path style="opacity:1" fill="#763706" d="M 270.5,131.5 C 274.833,131.5 279.167,131.5 283.5,131.5C 283.5,133.5 283.5,135.5 283.5,137.5C 278.694,137.604 274.028,136.937 269.5,135.5C 269.433,134.041 269.766,132.708 270.5,131.5 Z"/></g>
<g><path style="opacity:1" fill="#39260d" d="M 287.5,125.5 C 284.827,123.87 282.827,121.537 281.5,118.5C 280.311,117.571 278.978,117.238 277.5,117.5C 276.833,117.167 276.167,116.833 275.5,116.5C 269.005,114.51 262.339,114.01 255.5,115C 254.058,115.377 253.058,116.21 252.5,117.5C 251.5,117.5 250.5,117.5 249.5,117.5C 247.363,121.98 246.03,126.647 245.5,131.5C 245.5,127.5 245.5,123.5 245.5,119.5C 246.906,119.027 247.573,118.027 247.5,116.5C 254.433,110.78 262.433,108.947 271.5,111C 279.55,112.885 284.883,117.718 287.5,125.5 Z"/></g>
<g><path style="opacity:1" fill="#908a67" d="M 275.5,116.5 C 276.167,116.833 276.833,117.167 277.5,117.5C 271.833,118.833 266.167,118.833 260.5,117.5C 265.695,117.821 270.695,117.487 275.5,116.5 Z"/></g>
<g><path style="opacity:1" fill="#e5dcbc" d="M 275.5,116.5 C 270.695,117.487 265.695,117.821 260.5,117.5C 257.833,117.5 255.167,117.5 252.5,117.5C 253.058,116.21 254.058,115.377 255.5,115C 262.339,114.01 269.005,114.51 275.5,116.5 Z"/></g>
<g><path style="opacity:1" fill="#d39e47" d="M 255.5,89.5 C 255.479,92.5348 254.146,94.8681 251.5,96.5C 254.833,97.1667 258.167,97.8333 261.5,98.5C 263.332,99.0568 264.665,100.057 265.5,101.5C 265.843,103.483 265.176,104.817 263.5,105.5C 264.234,104.292 264.567,102.959 264.5,101.5C 259.664,101.333 254.997,100.333 250.5,98.5C 249.799,94.4591 251.466,91.4591 255.5,89.5 Z"/></g>
<g><path style="opacity:1" fill="#df9a3c" d="M 309.5,161.5 C 313.785,162.208 318.118,162.708 322.5,163C 317.7,172.63 310.7,180.13 301.5,185.5C 298.99,185.998 296.49,186.664 294,187.5C 291.855,187.604 290.021,186.937 288.5,185.5C 287.752,187.332 286.752,188.999 285.5,190.5C 277.862,191.497 270.196,191.831 262.5,191.5C 249.196,187.494 243.529,178.494 245.5,164.5C 249.767,164.797 253.934,164.464 258,163.5C 258.333,167.5 258.667,171.5 259,175.5C 261.097,178.258 262.597,177.925 263.5,174.5C 274.384,177.508 285.051,176.674 295.5,172C 300.393,168.581 305.059,165.081 309.5,161.5 Z"/></g>
<g><path style="opacity:1" fill="#743205" d="M 237.5,209.5 C 234.833,209.5 232.167,209.5 229.5,209.5C 229.328,211.492 229.995,213.158 231.5,214.5C 227.32,213.269 223.153,213.269 219,214.5C 218.979,216.438 219.146,218.438 219.5,220.5C 219.154,221.696 218.654,221.696 218,220.5C 217.333,224.5 216.667,224.5 216,220.5C 215.517,221.448 215.351,222.448 215.5,223.5C 214.167,223.5 212.833,223.5 211.5,223.5C 211.662,225.527 211.495,227.527 211,229.5C 210.667,229.167 210.333,228.833 210,228.5C 209.764,230.119 208.931,231.119 207.5,231.5C 208.544,225.994 210.211,220.661 212.5,215.5C 213.495,210.208 213.828,204.875 213.5,199.5C 212.167,199.5 210.833,199.5 209.5,199.5C 209.664,202.187 209.497,204.854 209,207.5C 202.907,222.871 199.407,238.871 198.5,255.5C 196.917,257.99 195.917,260.657 195.5,263.5C 187.747,260.972 179.747,259.639 171.5,259.5C 171.5,260.833 171.5,262.167 171.5,263.5C 174.698,262.964 177.365,263.631 179.5,265.5C 178.167,265.5 176.833,265.5 175.5,265.5C 175.5,266.833 175.5,268.167 175.5,269.5C 180.833,270.167 180.833,270.833 175.5,271.5C 176.683,277.095 176.683,282.428 175.5,287.5C 178.167,287.5 180.833,287.5 183.5,287.5C 183.172,292.875 183.505,298.208 184.5,303.5C 190.466,306.115 195.466,308.781 199.5,311.5C 184.615,308.65 170.281,303.983 156.5,297.5C 149.825,292.327 146.825,285.493 147.5,277C 149.11,269.175 150.443,261.341 151.5,253.5C 152.5,253.5 153.5,253.5 154.5,253.5C 156.604,246.623 159.27,239.957 162.5,233.5C 167.35,225.63 172.017,217.63 176.5,209.5C 181.167,202.833 185.833,196.167 190.5,189.5C 196.348,183.485 202.348,177.652 208.5,172C 212.464,169.347 216.798,167.847 221.5,167.5C 222.302,176.976 223.968,186.309 226.5,195.5C 230.184,200.227 233.851,204.894 237.5,209.5 Z"/></g>
<g><path style="opacity:1" fill="#e4be61" d="M 259.5,197.5 C 255.975,197.215 252.642,197.881 249.5,199.5C 247.664,198.067 245.664,197.567 243.5,198C 244.755,200.46 246.755,201.627 249.5,201.5C 249.5,203.5 249.5,205.5 249.5,207.5C 252.554,207.354 254.554,208.687 255.5,211.5C 233.847,203.529 224.847,188.195 228.5,165.5C 232.198,165.448 235.865,165.114 239.5,164.5C 239.262,171.88 240.762,178.88 244,185.5C 248.345,190.586 253.512,194.586 259.5,197.5 Z"/></g>
<g><path style="opacity:1" fill="#3d2208" d="M 232.5,172.5 C 234.484,172.484 235.484,173.484 235.5,175.5C 234.167,179.5 232.833,179.5 231.5,175.5C 231.685,174.416 232.018,173.416 232.5,172.5 Z"/></g>
<g><path style="opacity:1" fill="#d09b48" d="M 301.5,185.5 C 296.582,189.428 290.916,191.928 284.5,193C 278.167,193.667 271.833,193.667 265.5,193C 264.263,192.768 263.263,192.268 262.5,191.5C 270.196,191.831 277.862,191.497 285.5,190.5C 286.752,188.999 287.752,187.332 288.5,185.5C 290.021,186.937 291.855,187.604 294,187.5C 296.49,186.664 298.99,185.998 301.5,185.5 Z"/></g>
<g><path style="opacity:1" fill="#352210" d="M 239.5,191.5 C 240.833,191.5 242.167,191.5 243.5,191.5C 243.949,193.977 243.283,195.977 241.5,197.5C 239.914,195.827 239.247,193.827 239.5,191.5 Z"/></g>
<g><path style="opacity:1" fill="#e5be59" d="M 337.5,162.5 C 339.5,162.5 341.5,162.5 343.5,162.5C 335.665,187.669 319.331,204.669 294.5,213.5C 281.259,216.672 268.259,216.006 255.5,211.5C 254.554,208.687 252.554,207.354 249.5,207.5C 249.5,205.5 249.5,203.5 249.5,201.5C 246.755,201.627 244.755,200.46 243.5,198C 245.664,197.567 247.664,198.067 249.5,199.5C 252.642,197.881 255.975,197.215 259.5,197.5C 264.637,198.328 269.803,198.995 275,199.5C 299.902,197.988 317.402,185.988 327.5,163.5C 330.728,162.586 334.061,162.253 337.5,162.5 Z"/></g>
<g><path style="opacity:1" fill="#322004" d="M 289.5,201.5 C 293.676,200.831 295.009,202.331 293.5,206C 292.207,206.49 290.873,206.657 289.5,206.5C 289.5,204.833 289.5,203.167 289.5,201.5 Z"/></g>
<g><path style="opacity:1" fill="#36200c" d="M 312.5,190.5 C 315.757,190.174 317.257,191.507 317,194.5C 313.331,196.009 311.831,194.676 312.5,190.5 Z"/></g>
<g><path style="opacity:1" fill="#3a2c0d" d="M 327.5,171.5 C 331.676,170.831 333.009,172.331 331.5,176C 330.207,176.49 328.873,176.657 327.5,176.5C 327.5,174.833 327.5,173.167 327.5,171.5 Z"/></g>
<g><path style="opacity:1" fill="#322107" d="M 261.5,203.5 C 262.833,203.5 264.167,203.5 265.5,203.5C 265.884,205.665 265.217,207.332 263.5,208.5C 261.783,207.332 261.116,205.665 261.5,203.5 Z"/></g>
<g><path style="opacity:1" fill="#382905" d="M 345.5,23.5 C 347.754,27.0066 349.754,30.6733 351.5,34.5C 351.286,36.1439 351.62,37.6439 352.5,39C 352,39.1667 351.5,39.3333 351,39.5C 348.407,36.7982 345.241,35.1316 341.5,34.5C 342.025,33.8076 342.692,33.3076 343.5,33C 342.584,32.7216 341.918,32.2216 341.5,31.5C 342.376,31.6309 343.043,31.2975 343.5,30.5C 341.024,26.1903 337.69,22.6903 333.5,20C 310.148,3.83122 285.482,1.49788 259.5,13C 265.491,13.4995 271.491,13.6662 277.5,13.5C 279.659,15.3402 282.325,16.5068 285.5,17C 280.845,17.4992 276.179,17.6658 271.5,17.5C 261.494,17.3335 251.494,17.5002 241.5,18C 240.584,18.2784 239.918,18.7784 239.5,19.5C 237.787,20.6354 237.12,22.302 237.5,24.5C 247.319,25.494 257.319,25.8274 267.5,25.5C 267.38,26.5862 266.713,27.2528 265.5,27.5C 261.339,28.0403 257.339,28.707 253.5,29.5C 248.821,29.3342 244.155,29.5008 239.5,30C 237.226,30.4702 235.226,31.4702 233.5,33C 221.299,45.7616 218.133,60.595 224,77.5C 226.681,68.0853 228.348,58.4186 229,48.5C 236.348,45.0745 243.848,42.0745 251.5,39.5C 254.082,39.0254 256.082,39.6921 257.5,41.5C 256.624,41.3691 255.957,41.7025 255.5,42.5C 259.273,43.4494 260.273,45.6161 258.5,49C 252.059,50.4199 245.893,52.5866 240,55.5C 238.5,55.3333 237.667,54.5 237.5,53C 241.111,47.4716 239.944,46.9716 234,51.5C 231.409,65.1226 229.075,78.7892 227,92.5C 226.18,99.0137 226.347,105.347 227.5,111.5C 227.5,112.833 227.5,114.167 227.5,115.5C 225.846,104.53 224.846,93.1964 224.5,81.5C 223.501,93.1477 223.168,104.814 223.5,116.5C 222.71,115.391 222.21,114.058 222,112.5C 221.408,105.089 221.408,97.7554 222,90.5C 216.909,97.6798 211.576,104.68 206,111.5C 203.657,116.602 202.99,121.936 204,127.5C 212.254,140.451 211.254,152.451 201,163.5C 199.475,166.72 198.808,170.053 199,173.5C 205.6,165.618 214.1,161.618 224.5,161.5C 228.226,161.177 231.893,161.511 235.5,162.5C 232.893,163.318 230.226,163.818 227.5,164C 228.056,164.383 228.389,164.883 228.5,165.5C 224.847,188.195 233.847,203.529 255.5,211.5C 268.259,216.006 281.259,216.672 294.5,213.5C 295.5,213.5 296.5,213.5 297.5,213.5C 297.5,214.833 297.5,216.167 297.5,217.5C 283.261,221.407 268.927,221.24 254.5,217C 248.534,214.942 242.867,212.442 237.5,209.5C 233.851,204.894 230.184,200.227 226.5,195.5C 223.968,186.309 222.302,176.976 221.5,167.5C 216.798,167.847 212.464,169.347 208.5,172C 202.348,177.652 196.348,183.485 190.5,189.5C 185.833,196.167 181.167,202.833 176.5,209.5C 172.017,217.63 167.35,225.63 162.5,233.5C 159.27,239.957 156.604,246.623 154.5,253.5C 153.5,253.5 152.5,253.5 151.5,253.5C 150.443,261.341 149.11,269.175 147.5,277C 146.825,285.493 149.825,292.327 156.5,297.5C 170.281,303.983 184.615,308.65 199.5,311.5C 200.833,312.167 202.167,312.833 203.5,313.5C 199.008,313.731 194.675,313.064 190.5,311.5C 189.5,311.833 188.5,312.167 187.5,312.5C 189.231,312.412 190.564,313.412 191.5,315.5C 184.771,314.322 178.104,312.822 171.5,311C 145.228,302.288 136.728,284.788 146,258.5C 157.346,229.454 173.013,203.121 193,179.5C 192.727,168.315 196.394,158.648 204,150.5C 204.667,147.5 204.667,144.5 204,141.5C 196.397,128.519 196.731,115.852 205,103.5C 209.769,98.7324 213.769,93.399 217,87.5C 217.07,75.4981 217.07,63.4981 217,51.5C 219.539,42.0849 224.372,34.0849 231.5,27.5C 231.749,22.7146 233.415,18.548 236.5,15C 240.833,14 245.167,13 249.5,12C 256.991,7.50143 264.991,4.1681 273.5,2C 301.398,-3.1837 325.398,3.98296 345.5,23.5 Z"/></g>
<g><path style="opacity:1" fill="#67430a" d="M 253.5,29.5 C 257.514,29.3345 261.514,29.5012 265.5,30C 261.253,33.944 256.586,37.1107 251.5,39.5C 243.848,42.0745 236.348,45.0745 229,48.5C 228.348,58.4186 226.681,68.0853 224,77.5C 218.133,60.595 221.299,45.7616 233.5,33C 235.226,31.4702 237.226,30.4702 239.5,30C 244.155,29.5008 248.821,29.3342 253.5,29.5 Z"/></g>
<g><path style="opacity:1" fill="#422700" d="M 279.5,25.5 C 275.5,25.5 271.5,25.5 267.5,25.5C 257.319,25.8274 247.319,25.494 237.5,24.5C 251.697,22.8897 265.697,23.223 279.5,25.5 Z"/></g>
<g><path style="opacity:1" fill="#a66f21" d="M 271.5,17.5 C 272.833,18.1667 274.167,18.8333 275.5,19.5C 263.5,19.5 251.5,19.5 239.5,19.5C 239.918,18.7784 240.584,18.2784 241.5,18C 251.494,17.5002 261.494,17.3335 271.5,17.5 Z"/></g>
<g><path style="opacity:1" fill="#623f08" d="M 341.5,31.5 C 323.623,23.5675 304.957,18.0675 285.5,15C 284.44,13.702 283.274,12.5353 282,11.5C 280.7,12.7073 279.2,13.3739 277.5,13.5C 271.491,13.6662 265.491,13.4995 259.5,13C 285.482,1.49788 310.148,3.83122 333.5,20C 337.69,22.6903 341.024,26.1903 343.5,30.5C 343.043,31.2975 342.376,31.6309 341.5,31.5 Z"/></g>
<g><path style="opacity:1" fill="#e4cd97" d="M 401.5,199.5 C 403.417,200.406 405.083,201.739 406.5,203.5C 410.004,209.844 414.004,215.844 418.5,221.5C 420.083,223.99 421.083,226.657 421.5,229.5C 414.449,219.777 407.782,209.777 401.5,199.5 Z"/></g>
<g><path style="opacity:1" fill="#743004" d="M 391.5,195.5 C 406.144,214.092 418.811,234.092 429.5,255.5C 439.483,278.987 433.15,296.153 410.5,307C 399.131,312.187 387.464,316.52 375.5,320C 364.656,322.918 353.989,325.418 343.5,327.5C 340.833,327.5 338.167,327.5 335.5,327.5C 333.682,318.871 331.015,310.538 327.5,302.5C 334.889,297.869 342.889,294.702 351.5,293C 364.601,285.614 377.934,279.114 391.5,273.5C 393.604,273.799 395.604,273.466 397.5,272.5C 402.317,269.228 407.651,267.561 413.5,267.5C 413.719,266.325 413.386,265.325 412.5,264.5C 406.42,262.736 400.753,263.569 395.5,267C 392.854,267.497 390.187,267.664 387.5,267.5C 377.607,254.601 366.607,242.601 354.5,231.5C 350.743,223.897 348.409,215.897 347.5,207.5C 347.666,203.486 347.499,199.486 347,195.5C 346.29,194.027 345.124,193.36 343.5,193.5C 343.339,208.661 343.839,223.661 345,238.5C 340.312,250.711 335.479,262.878 330.5,275C 330.833,275.333 331.167,275.667 331.5,276C 329.348,282.466 327.348,288.966 325.5,295.5C 324.848,296.725 323.681,297.392 322,297.5C 317.632,296.524 313.466,294.857 309.5,292.5C 307.604,291.534 305.604,291.201 303.5,291.5C 304.602,284.887 305.268,278.22 305.5,271.5C 297.006,270.856 289.006,272.522 281.5,276.5C 271.416,278.715 261.416,281.048 251.5,283.5C 248.833,283.167 246.167,282.833 243.5,282.5C 231.726,277.556 219.726,273.223 207.5,269.5C 206.833,266.833 206.167,264.167 205.5,261.5C 205.5,254.5 205.5,247.5 205.5,240.5C 204.945,236.988 205.612,233.988 207.5,231.5C 208.931,231.119 209.764,230.119 210,228.5C 210.333,228.833 210.667,229.167 211,229.5C 211.495,227.527 211.662,225.527 211.5,223.5C 212.833,223.5 214.167,223.5 215.5,223.5C 215.351,222.448 215.517,221.448 216,220.5C 216.667,224.5 217.333,224.5 218,220.5C 218.654,221.696 219.154,221.696 219.5,220.5C 219.146,218.438 218.979,216.438 219,214.5C 223.153,213.269 227.32,213.269 231.5,214.5C 229.995,213.158 229.328,211.492 229.5,209.5C 232.167,209.5 234.833,209.5 237.5,209.5C 242.867,212.442 248.534,214.942 254.5,217C 268.927,221.24 283.261,221.407 297.5,217.5C 304.01,215.834 310.176,213.167 316,209.5C 331.16,198.548 341.993,184.215 348.5,166.5C 354.94,164.745 360.94,165.745 366.5,169.5C 371.821,174.988 377.321,180.321 383,185.5C 384.669,187.169 385.502,189.169 385.5,191.5C 386.978,191.238 388.311,191.571 389.5,192.5C 389.942,193.739 390.609,194.739 391.5,195.5 Z"/></g>
<g><path style="opacity:1" fill="#602b04" d="M 347.5,207.5 C 346.883,207.389 346.383,207.056 346,206.5C 344.333,220.339 348.5,232.006 358.5,241.5C 359.833,246.167 359.833,250.833 358.5,255.5C 352.975,265.947 349.141,276.947 347,288.5C 340.26,291.817 333.093,294.151 325.5,295.5C 327.348,288.966 329.348,282.466 331.5,276C 331.167,275.667 330.833,275.333 330.5,275C 335.479,262.878 340.312,250.711 345,238.5C 343.839,223.661 343.339,208.661 343.5,193.5C 345.124,193.36 346.29,194.027 347,195.5C 347.499,199.486 347.666,203.486 347.5,207.5 Z"/></g>
<g><path style="opacity:1" fill="#402903" d="M 391.5,273.5 C 391.721,272.265 392.388,271.265 393.5,270.5C 391.025,270.036 389.025,269.036 387.5,267.5C 390.187,267.664 392.854,267.497 395.5,267C 400.753,263.569 406.42,262.736 412.5,264.5C 413.386,265.325 413.719,266.325 413.5,267.5C 407.651,267.561 402.317,269.228 397.5,272.5C 395.604,273.466 393.604,273.799 391.5,273.5 Z"/></g>
<g><path style="opacity:1" fill="#733004" d="M 215.5,279.5 C 218.247,279.187 220.914,279.52 223.5,280.5C 230.993,283.956 238.66,286.956 246.5,289.5C 247.429,290.689 247.762,292.022 247.5,293.5C 244.875,301.333 242.875,309.333 241.5,317.5C 228.786,316.68 216.12,315.347 203.5,313.5C 202.167,312.833 200.833,312.167 199.5,311.5C 202.167,311.5 204.833,311.5 207.5,311.5C 207.5,310.167 207.5,308.833 207.5,307.5C 209.942,307.354 210.609,308.187 209.5,310C 211.027,311.61 212.36,311.277 213.5,309C 212.115,307.403 211.449,305.57 211.5,303.5C 210.167,303.5 208.833,303.5 207.5,303.5C 208.371,300.938 208.371,298.272 207.5,295.5C 208.833,295.5 210.167,295.5 211.5,295.5C 211.337,293.143 211.503,290.81 212,288.5C 213.011,287.663 214.178,287.33 215.5,287.5C 215.5,284.833 215.5,282.167 215.5,279.5 Z"/></g>
<g><path style="opacity:1" fill="#793203" d="M 179.5,265.5 C 186.711,266.097 193.378,268.431 199.5,272.5C 205.699,273.275 211.032,275.608 215.5,279.5C 215.5,282.167 215.5,284.833 215.5,287.5C 214.178,287.33 213.011,287.663 212,288.5C 211.503,290.81 211.337,293.143 211.5,295.5C 210.167,295.5 208.833,295.5 207.5,295.5C 208.371,298.272 208.371,300.938 207.5,303.5C 208.833,303.5 210.167,303.5 211.5,303.5C 211.449,305.57 212.115,307.403 213.5,309C 212.36,311.277 211.027,311.61 209.5,310C 210.609,308.187 209.942,307.354 207.5,307.5C 207.5,308.833 207.5,310.167 207.5,311.5C 204.833,311.5 202.167,311.5 199.5,311.5C 195.466,308.781 190.466,306.115 184.5,303.5C 183.505,298.208 183.172,292.875 183.5,287.5C 180.833,287.5 178.167,287.5 175.5,287.5C 176.683,282.428 176.683,277.095 175.5,271.5C 180.833,270.833 180.833,270.167 175.5,269.5C 175.5,268.167 175.5,266.833 175.5,265.5C 176.833,265.5 178.167,265.5 179.5,265.5 Z"/></g>
<g><path style="opacity:1" fill="#e49d38" d="M 259.5,289.5 C 266.2,289.17 272.866,289.503 279.5,290.5C 279.855,291.522 280.522,292.189 281.5,292.5C 281.953,293.458 282.619,294.292 283.5,295C 290.226,297.956 296.893,300.789 303.5,303.5C 304.615,306.08 306.615,307.746 309.5,308.5C 303.537,309.496 297.537,309.829 291.5,309.5C 291.157,311.483 291.824,312.817 293.5,313.5C 297.182,316.008 301.182,318.008 305.5,319.5C 305.721,320.735 306.388,321.735 307.5,322.5C 306.5,322.833 305.5,323.167 304.5,323.5C 300.968,322.033 297.302,321.366 293.5,321.5C 291.5,321.5 289.5,321.5 287.5,321.5C 287.5,322.833 287.5,324.167 287.5,325.5C 286.934,327.078 285.934,328.412 284.5,329.5C 280.418,327.654 276.085,326.987 271.5,327.5C 271.5,328.833 271.5,330.167 271.5,331.5C 270.167,331.5 268.833,331.5 267.5,331.5C 267.768,328.881 267.435,326.381 266.5,324C 260.289,321.889 253.956,320.389 247.5,319.5C 247.335,315.818 247.501,312.152 248,308.5C 249.949,304.371 251.116,300.037 251.5,295.5C 253.403,292.542 256.07,290.542 259.5,289.5 Z"/></g>
<g><path style="opacity:1" fill="#d6a046" d="M 303.5,303.5 C 309.75,306.149 316.084,308.649 322.5,311C 323.406,312.699 323.739,314.533 323.5,316.5C 320.813,316.664 318.146,316.497 315.5,316C 308.438,313.034 301.104,311.201 293.5,310.5C 293.5,311.5 293.5,312.5 293.5,313.5C 291.824,312.817 291.157,311.483 291.5,309.5C 297.537,309.829 303.537,309.496 309.5,308.5C 306.615,307.746 304.615,306.08 303.5,303.5 Z"/></g>
<g><path style="opacity:1" fill="#a18454" d="M 293.5,321.5 C 293.5,321.833 293.5,322.167 293.5,322.5C 291.833,322.5 290.167,322.5 288.5,322.5C 288.5,323.5 288.5,324.5 288.5,325.5C 288.167,325.5 287.833,325.5 287.5,325.5C 287.5,324.167 287.5,322.833 287.5,321.5C 289.5,321.5 291.5,321.5 293.5,321.5 Z"/></g>
<g><path style="opacity:1" fill="#dba63f" d="M 305.5,319.5 C 310.644,320.872 315.644,322.705 320.5,325C 323.894,330.066 322.56,332.066 316.5,331C 308.685,328.232 301.018,325.399 293.5,322.5C 293.5,322.167 293.5,321.833 293.5,321.5C 297.302,321.366 300.968,322.033 304.5,323.5C 305.5,323.167 306.5,322.833 307.5,322.5C 306.388,321.735 305.721,320.735 305.5,319.5 Z"/></g>
<g><path style="opacity:1" fill="#533806" d="M 219.5,321.5 C 228.269,322.239 236.936,323.739 245.5,326C 247.976,327.309 249.976,329.142 251.5,331.5C 250.234,332.362 248.901,333.029 247.5,333.5C 242.067,333.143 236.734,332.143 231.5,330.5C 227.432,328.793 223.432,327.127 219.5,325.5C 219.5,324.167 219.5,322.833 219.5,321.5 Z"/></g>
<g><path style="opacity:1" fill="#dd9e3d" d="M 247.5,319.5 C 253.956,320.389 260.289,321.889 266.5,324C 267.435,326.381 267.768,328.881 267.5,331.5C 268.833,331.5 270.167,331.5 271.5,331.5C 271.5,330.167 271.5,328.833 271.5,327.5C 276.085,326.987 280.418,327.654 284.5,329.5C 285.934,328.412 286.934,327.078 287.5,325.5C 287.833,325.5 288.167,325.5 288.5,325.5C 296.421,329.752 304.755,332.918 313.5,335C 315.037,336.11 315.703,337.61 315.5,339.5C 310.752,339.725 306.085,339.225 301.5,338C 295.36,335.761 289.36,333.261 283.5,330.5C 279.855,331.489 279.855,332.989 283.5,335C 289.046,337.94 294.713,340.606 300.5,343C 301.517,344.049 301.684,345.216 301,346.5C 299.274,347.576 297.441,347.743 295.5,347C 289.616,344.77 283.949,342.27 278.5,339.5C 276.664,337.412 274.331,336.079 271.5,335.5C 270.71,334.599 269.71,333.932 268.5,333.5C 260.954,329.615 253.954,324.948 247.5,319.5 Z"/></g>
<g><path style="opacity:1" fill="#372705" d="M 207.5,231.5 C 205.612,233.988 204.945,236.988 205.5,240.5C 203.952,244.034 203.286,247.867 203.5,252C 203.667,254.833 203.833,257.667 204,260.5C 204.383,261.056 204.883,261.389 205.5,261.5C 206.167,264.167 206.833,266.833 207.5,269.5C 219.726,273.223 231.726,277.556 243.5,282.5C 246.167,282.833 248.833,283.167 251.5,283.5C 261.416,281.048 271.416,278.715 281.5,276.5C 289.006,272.522 297.006,270.856 305.5,271.5C 305.268,278.22 304.602,284.887 303.5,291.5C 305.604,291.201 307.604,291.534 309.5,292.5C 313.466,294.857 317.632,296.524 322,297.5C 323.681,297.392 324.848,296.725 325.5,295.5C 333.093,294.151 340.26,291.817 347,288.5C 349.141,276.947 352.975,265.947 358.5,255.5C 359.833,250.833 359.833,246.167 358.5,241.5C 348.5,232.006 344.333,220.339 346,206.5C 346.383,207.056 346.883,207.389 347.5,207.5C 348.409,215.897 350.743,223.897 354.5,231.5C 366.607,242.601 377.607,254.601 387.5,267.5C 389.025,269.036 391.025,270.036 393.5,270.5C 392.388,271.265 391.721,272.265 391.5,273.5C 377.934,279.114 364.601,285.614 351.5,293C 342.889,294.702 334.889,297.869 327.5,302.5C 331.015,310.538 333.682,318.871 335.5,327.5C 338.167,327.5 340.833,327.5 343.5,327.5C 344.167,330.167 344.833,332.833 345.5,335.5C 340.993,333.871 336.326,332.537 331.5,331.5C 329.026,331.613 327.026,332.613 325.5,334.5C 328.683,337.187 331.35,340.354 333.5,344C 334.866,348.346 336.866,352.18 339.5,355.5C 340.475,359.468 341.475,363.468 342.5,367.5C 342.167,368.167 341.833,368.833 341.5,369.5C 337.191,358.216 331.858,347.549 325.5,337.5C 320.676,337.888 318.676,340.555 319.5,345.5C 313.659,345.065 308.326,346.399 303.5,349.5C 302.265,349.721 301.265,350.388 300.5,351.5C 298.929,350.691 297.262,350.357 295.5,350.5C 293.658,350.277 291.825,349.943 290,349.5C 287.849,350.167 286.349,351.5 285.5,353.5C 283.5,354.167 281.5,354.833 279.5,355.5C 280.504,354.317 281.338,352.984 282,351.5C 282.208,349.141 282.374,346.974 282.5,345C 279.152,343.847 277.152,345.014 276.5,348.5C 275.523,345.713 275.19,342.713 275.5,339.5C 276.5,339.5 277.5,339.5 278.5,339.5C 283.949,342.27 289.616,344.77 295.5,347C 297.441,347.743 299.274,347.576 301,346.5C 301.684,345.216 301.517,344.049 300.5,343C 294.713,340.606 289.046,337.94 283.5,335C 279.855,332.989 279.855,331.489 283.5,330.5C 289.36,333.261 295.36,335.761 301.5,338C 306.085,339.225 310.752,339.725 315.5,339.5C 315.703,337.61 315.037,336.11 313.5,335C 304.755,332.918 296.421,329.752 288.5,325.5C 288.5,324.5 288.5,323.5 288.5,322.5C 290.167,322.5 291.833,322.5 293.5,322.5C 301.018,325.399 308.685,328.232 316.5,331C 322.56,332.066 323.894,330.066 320.5,325C 315.644,322.705 310.644,320.872 305.5,319.5C 301.182,318.008 297.182,316.008 293.5,313.5C 293.5,312.5 293.5,311.5 293.5,310.5C 301.104,311.201 308.438,313.034 315.5,316C 318.146,316.497 320.813,316.664 323.5,316.5C 323.739,314.533 323.406,312.699 322.5,311C 316.084,308.649 309.75,306.149 303.5,303.5C 296.893,300.789 290.226,297.956 283.5,295C 282.619,294.292 281.953,293.458 281.5,292.5C 281.5,291.5 281.5,290.5 281.5,289.5C 286.709,288.948 291.709,287.614 296.5,285.5C 299.416,283.009 300.082,280.009 298.5,276.5C 296.167,277.667 293.833,278.833 291.5,280C 282.46,281.844 273.46,283.844 264.5,286C 262.416,286.697 260.749,287.864 259.5,289.5C 256.07,290.542 253.403,292.542 251.5,295.5C 250.817,293.824 249.483,293.157 247.5,293.5C 247.762,292.022 247.429,290.689 246.5,289.5C 238.66,286.956 230.993,283.956 223.5,280.5C 220.914,279.52 218.247,279.187 215.5,279.5C 211.032,275.608 205.699,273.275 199.5,272.5C 193.378,268.431 186.711,266.097 179.5,265.5C 177.365,263.631 174.698,262.964 171.5,263.5C 171.5,262.167 171.5,260.833 171.5,259.5C 179.747,259.639 187.747,260.972 195.5,263.5C 195.917,260.657 196.917,257.99 198.5,255.5C 199.407,238.871 202.907,222.871 209,207.5C 209.497,204.854 209.664,202.187 209.5,199.5C 210.833,199.5 212.167,199.5 213.5,199.5C 213.828,204.875 213.495,210.208 212.5,215.5C 210.211,220.661 208.544,225.994 207.5,231.5 Z"/></g>
<g><path style="opacity:1" fill="#b37f37" d="M 325.5,319.5 C 327.176,320.183 327.843,321.517 327.5,323.5C 323.334,323.392 322.667,322.059 325.5,319.5 Z"/></g>
<g><path style="opacity:1" fill="#b48e45" d="M 296.5,296.5 C 305.838,296.125 314.505,298.791 322.5,304.5C 322,304.833 321.5,305.167 321,305.5C 312.951,302.054 304.784,299.054 296.5,296.5 Z"/></g>
<g><path style="opacity:1" fill="#e29f40" d="M 281.5,292.5 C 280.522,292.189 279.855,291.522 279.5,290.5C 272.866,289.503 266.2,289.17 259.5,289.5C 260.749,287.864 262.416,286.697 264.5,286C 273.46,283.844 282.46,281.844 291.5,280C 293.833,278.833 296.167,277.667 298.5,276.5C 300.082,280.009 299.416,283.009 296.5,285.5C 291.709,287.614 286.709,288.948 281.5,289.5C 281.5,290.5 281.5,291.5 281.5,292.5 Z"/></g>
<g><path style="opacity:1" fill="#f1d48d" d="M 364.5,251.5 C 367.056,252.543 369.223,254.21 371,256.5C 375.199,261.078 379.033,265.911 382.5,271C 382.355,271.772 382.022,272.439 381.5,273C 371.951,277.618 362.284,281.618 352.5,285C 357.496,274.178 361.496,263.012 364.5,251.5 Z"/></g>
<g><path style="opacity:1" fill="#562c05" d="M 205.5,240.5 C 205.5,247.5 205.5,254.5 205.5,261.5C 204.883,261.389 204.383,261.056 204,260.5C 203.833,257.667 203.667,254.833 203.5,252C 203.286,247.867 203.952,244.034 205.5,240.5 Z"/></g>
<g><path style="opacity:1" fill="#df9f45" d="M 263.5,335.5 C 264.686,337.194 264.519,338.861 263,340.5C 260.167,344 257.333,347.5 254.5,351C 253.552,351.483 252.552,351.649 251.5,351.5C 251.404,342.947 255.404,337.614 263.5,335.5 Z"/></g>
<g><path style="opacity:1" fill="#753305" d="M 247.5,341.5 C 244.722,346.494 242.722,351.828 241.5,357.5C 241.253,358.713 240.586,359.38 239.5,359.5C 239.5,358.167 239.5,356.833 239.5,355.5C 231.494,354.957 223.828,356.124 216.5,359C 217.448,359.483 218.448,359.649 219.5,359.5C 219.5,360.833 219.5,362.167 219.5,363.5C 218.167,363.5 216.833,363.5 215.5,363.5C 215.5,362.167 215.5,360.833 215.5,359.5C 211.395,358.851 207.395,359.517 203.5,361.5C 203.649,362.552 203.483,363.552 203,364.5C 202.667,364.167 202.333,363.833 202,363.5C 200.605,367.641 198.438,368.308 195.5,365.5C 198.319,357.867 201.652,350.534 205.5,343.5C 206.833,343.5 208.167,343.5 209.5,343.5C 210.088,337.659 212.755,332.992 217.5,329.5C 222.665,330.33 225.332,333.33 225.5,338.5C 225.264,342.585 224.597,346.585 223.5,350.5C 223.833,350.833 224.167,351.167 224.5,351.5C 227.396,346.59 229.063,341.256 229.5,335.5C 235.535,335.908 241.535,336.574 247.5,337.5C 247.5,338.833 247.5,340.167 247.5,341.5 Z"/></g>
<g><path style="opacity:1" fill="#5d2e05" d="M 345.5,335.5 C 349.144,341.444 352.811,347.444 356.5,353.5C 360.858,363.543 365.191,373.543 369.5,383.5C 366.32,384.933 362.986,385.933 359.5,386.5C 356.492,383.413 354.826,379.747 354.5,375.5C 352.533,372.589 351.533,369.256 351.5,365.5C 350.167,365.5 348.833,365.5 347.5,365.5C 347.5,363.5 347.5,361.5 347.5,359.5C 346.167,359.5 344.833,359.5 343.5,359.5C 343.083,356.657 342.083,353.99 340.5,351.5C 339.571,352.689 339.238,354.022 339.5,355.5C 336.866,352.18 334.866,348.346 333.5,344C 331.35,340.354 328.683,337.187 325.5,334.5C 327.026,332.613 329.026,331.613 331.5,331.5C 336.326,332.537 340.993,333.871 345.5,335.5 Z"/></g>
<g><path style="opacity:1" fill="#eab15b" d="M 257.5,361.5 C 257.338,359.473 257.505,357.473 258,355.5C 261.414,350.934 264.58,346.268 267.5,341.5C 271.613,339.802 273.446,341.135 273,345.5C 268.333,351.167 263.667,356.833 259,362.5C 258.617,361.944 258.117,361.611 257.5,361.5 Z"/></g>
<g><path style="opacity:1" fill="#df9c46" d="M 279.5,355.5 C 276.81,358.37 274.476,361.537 272.5,365C 270.527,365.495 268.527,365.662 266.5,365.5C 266.372,363.345 266.872,361.345 268,359.5C 271.049,355.957 273.882,352.291 276.5,348.5C 277.152,345.014 279.152,343.847 282.5,345C 282.374,346.974 282.208,349.141 282,351.5C 281.338,352.984 280.504,354.317 279.5,355.5 Z"/></g>
<g><path style="opacity:1" fill="#3f2b06" d="M 271.5,335.5 C 274.331,336.079 276.664,337.412 278.5,339.5C 277.5,339.5 276.5,339.5 275.5,339.5C 275.19,342.713 275.523,345.713 276.5,348.5C 273.882,352.291 271.049,355.957 268,359.5C 266.872,361.345 266.372,363.345 266.5,365.5C 268.527,365.662 270.527,365.495 272.5,365C 274.476,361.537 276.81,358.37 279.5,355.5C 281.5,354.833 283.5,354.167 285.5,353.5C 283.91,358.59 281.91,363.59 279.5,368.5C 279.887,369.72 280.72,370.387 282,370.5C 289.133,365.547 293.633,358.88 295.5,350.5C 297.262,350.357 298.929,350.691 300.5,351.5C 301.265,350.388 302.265,349.721 303.5,349.5C 303.5,351.5 303.5,353.5 303.5,355.5C 302.167,355.5 300.833,355.5 299.5,355.5C 298.157,361.186 295.49,366.186 291.5,370.5C 290.311,371.429 288.978,371.762 287.5,371.5C 287.5,372.833 287.5,374.167 287.5,375.5C 283.5,375.5 279.5,375.5 275.5,375.5C 275.5,374.167 275.5,372.833 275.5,371.5C 272.167,371.5 268.833,371.5 265.5,371.5C 265.663,369.143 265.497,366.81 265,364.5C 262.06,364.154 259.56,363.154 257.5,361.5C 258.117,361.611 258.617,361.944 259,362.5C 263.667,356.833 268.333,351.167 273,345.5C 273.446,341.135 271.613,339.802 267.5,341.5C 269.025,339.964 271.025,338.964 273.5,338.5C 272.388,337.735 271.721,336.735 271.5,335.5 Z"/></g>
<g><path style="opacity:1" fill="#d6943d" d="M 295.5,350.5 C 293.633,358.88 289.133,365.547 282,370.5C 280.72,370.387 279.887,369.72 279.5,368.5C 281.91,363.59 283.91,358.59 285.5,353.5C 286.349,351.5 287.849,350.167 290,349.5C 291.825,349.943 293.658,350.277 295.5,350.5 Z"/></g>
<g><path style="opacity:1" fill="#332704" d="M 247.5,293.5 C 249.483,293.157 250.817,293.824 251.5,295.5C 251.116,300.037 249.949,304.371 248,308.5C 247.501,312.152 247.335,315.818 247.5,319.5C 253.954,324.948 260.954,329.615 268.5,333.5C 267.07,334.537 265.403,335.204 263.5,335.5C 255.404,337.614 251.404,342.947 251.5,351.5C 252.036,354.698 251.369,357.365 249.5,359.5C 249.291,358.078 248.791,356.745 248,355.5C 245.285,363.931 242.285,372.265 239,380.5C 229.526,416.208 223.526,452.542 221,489.5C 219.603,505.488 218.437,521.488 217.5,537.5C 216.624,537.631 215.957,537.298 215.5,536.5C 217.113,533.146 216.78,530.146 214.5,527.5C 213.75,534.999 213.084,542.499 212.5,550C 212.926,551.984 213.26,553.984 213.5,556C 212.286,563.765 211.619,571.598 211.5,579.5C 211.503,586.535 212.17,593.202 213.5,599.5C 212.875,625.501 212.208,651.501 211.5,677.5C 223.839,678.065 236.173,678.731 248.5,679.5C 248.62,680.586 249.287,681.253 250.5,681.5C 259.471,680.388 268.471,680.221 277.5,681C 281.395,682.808 285.395,683.974 289.5,684.5C 285.298,684.183 281.298,684.517 277.5,685.5C 268.167,685.5 258.833,685.5 249.5,685.5C 249.609,692.196 249.276,698.863 248.5,705.5C 247.865,698.839 247.532,691.839 247.5,684.5C 235.515,683.757 223.515,683.424 211.5,683.5C 211.567,684.959 211.234,686.292 210.5,687.5C 210.167,687.5 209.833,687.5 209.5,687.5C 208.518,686.859 207.518,686.193 206.5,685.5C 205.41,686.391 205.41,687.391 206.5,688.5C 204.311,689.173 202.311,690.173 200.5,691.5C 199.702,691.043 199.369,690.376 199.5,689.5C 201.937,687.567 204.271,685.4 206.5,683C 205.095,681.731 203.429,681.231 201.5,681.5C 202.997,680.694 204.664,680.028 206.5,679.5C 207.491,675.555 207.824,671.555 207.5,667.5C 207.5,658.167 207.5,648.833 207.5,639.5C 208.67,578.21 212.504,517.877 219,458.5C 221.333,428.824 227,399.824 236,371.5C 238.715,367.976 239.882,363.976 239.5,359.5C 240.586,359.38 241.253,358.713 241.5,357.5C 242.722,351.828 244.722,346.494 247.5,341.5C 248.649,341.209 249.316,340.376 249.5,339C 249.046,337.061 248.379,335.228 247.5,333.5C 248.901,333.029 250.234,332.362 251.5,331.5C 249.976,329.142 247.976,327.309 245.5,326C 236.936,323.739 228.269,322.239 219.5,321.5C 218.057,322.335 217.057,323.668 216.5,325.5C 215.702,325.043 215.369,324.376 215.5,323.5C 216.684,322.312 216.684,321.145 215.5,320C 207.195,319.23 199.195,317.73 191.5,315.5C 190.564,313.412 189.231,312.412 187.5,312.5C 188.5,312.167 189.5,311.833 190.5,311.5C 194.675,313.064 199.008,313.731 203.5,313.5C 216.12,315.347 228.786,316.68 241.5,317.5C 242.875,309.333 244.875,301.333 247.5,293.5 Z"/></g>
<g><path style="opacity:1" fill="#342904" d="M 268.5,333.5 C 269.71,333.932 270.71,334.599 271.5,335.5C 271.721,336.735 272.388,337.735 273.5,338.5C 271.025,338.964 269.025,339.964 267.5,341.5C 264.58,346.268 261.414,350.934 258,355.5C 257.505,357.473 257.338,359.473 257.5,361.5C 259.56,363.154 262.06,364.154 265,364.5C 265.497,366.81 265.663,369.143 265.5,371.5C 266.773,378.765 267.606,386.098 268,393.5C 268.333,392.833 268.667,392.167 269,391.5C 271.182,418.473 273.348,445.14 275.5,471.5C 278.539,536.067 280.539,600.733 281.5,665.5C 280.897,670.619 281.564,675.285 283.5,679.5C 289.75,681.459 296.416,682.126 303.5,681.5C 303.146,683.541 303.146,685.374 303.5,687C 301.718,687.122 300.052,686.622 298.5,685.5C 295.713,684.523 292.713,684.19 289.5,684.5C 285.395,683.974 281.395,682.808 277.5,681C 268.471,680.221 259.471,680.388 250.5,681.5C 249.287,681.253 248.62,680.586 248.5,679.5C 257.833,679.5 267.167,679.5 276.5,679.5C 275.243,589.388 271.41,499.388 265,409.5C 263.727,396.131 262.06,382.797 260,369.5C 259.051,365.622 257.885,365.622 256.5,369.5C 253.185,366.875 250.851,363.542 249.5,359.5C 251.369,357.365 252.036,354.698 251.5,351.5C 252.552,351.649 253.552,351.483 254.5,351C 257.333,347.5 260.167,344 263,340.5C 264.519,338.861 264.686,337.194 263.5,335.5C 265.403,335.204 267.07,334.537 268.5,333.5 Z"/></g>
<g><path style="opacity:1" fill="#f7d78b" d="M 543.5,271.5 C 543.5,383.5 543.5,495.5 543.5,607.5C 540.248,608.377 536.915,609.043 533.5,609.5C 530.123,609.048 526.789,608.382 523.5,607.5C 520.802,608.191 518.135,608.858 515.5,609.5C 515.5,612.167 515.5,614.833 515.5,617.5C 514.167,617.5 512.833,617.5 511.5,617.5C 511.5,624.833 511.5,632.167 511.5,639.5C 532.833,640.167 532.833,640.833 511.5,641.5C 511.5,646.833 511.5,652.167 511.5,657.5C 506.167,657.5 500.833,657.5 495.5,657.5C 495.5,664.833 495.5,672.167 495.5,679.5C 490.167,679.5 484.833,679.5 479.5,679.5C 479.5,666.167 479.5,652.833 479.5,639.5C 474.167,639.5 468.833,639.5 463.5,639.5C 463.5,634.167 463.5,628.833 463.5,623.5C 468.833,623.5 474.167,623.5 479.5,623.5C 479.5,618.833 479.5,614.167 479.5,609.5C 474.167,608.833 468.833,608.167 463.5,607.5C 463.5,601.833 463.5,596.167 463.5,590.5C 451.495,590.333 439.495,590.5 427.5,591C 429.107,592.049 429.773,593.549 429.5,595.5C 428.167,595.5 426.833,595.5 425.5,595.5C 425.321,593.394 424.321,591.728 422.5,590.5C 421.833,594.833 421.167,599.167 420.5,603.5C 419.833,604.167 419.167,604.833 418.5,605.5C 417.507,610.12 417.173,614.786 417.5,619.5C 410.142,557.329 400.809,495.329 389.5,433.5C 389.488,427.931 388.821,422.431 387.5,417C 387.833,415.167 388.167,413.333 388.5,411.5C 390.058,416.694 391.058,416.694 391.5,411.5C 392.833,411.5 394.167,411.5 395.5,411.5C 395.5,410.167 395.5,408.833 395.5,407.5C 407.381,405.674 419.381,405.008 431.5,405.5C 431.5,408.833 431.5,412.167 431.5,415.5C 442.167,415.5 452.833,415.5 463.5,415.5C 463.5,410.167 463.5,404.833 463.5,399.5C 487.5,399.5 511.5,399.5 535.5,399.5C 535.5,391.5 535.5,383.5 535.5,375.5C 532.833,375.5 530.167,375.5 527.5,375.5C 527.5,378.167 527.5,380.833 527.5,383.5C 524.833,383.5 522.167,383.5 519.5,383.5C 519.5,377.5 519.5,371.5 519.5,365.5C 522.167,365.5 524.833,365.5 527.5,365.5C 527.5,360.833 527.5,356.167 527.5,351.5C 528.833,351.5 530.167,351.5 531.5,351.5C 531.5,344.167 531.5,336.833 531.5,329.5C 528.238,328.452 522.905,328.119 515.5,328.5C 515.5,325.833 515.5,323.167 515.5,320.5C 520.5,320.5 525.5,320.5 530.5,320.5C 530.338,322.527 530.505,324.527 531,326.5C 533.355,325.192 535.855,324.192 538.5,323.5C 541.531,315.553 538.864,312.22 530.5,313.5C 531.023,305.51 531.356,297.51 531.5,289.5C 530.167,289.5 528.833,289.5 527.5,289.5C 527.5,283.5 527.5,277.5 527.5,271.5C 532.833,271.5 538.167,271.5 543.5,271.5 Z"/></g>
<g><path style="opacity:1" fill="#753103" d="M 339.5,355.5 C 339.238,354.022 339.571,352.689 340.5,351.5C 342.083,353.99 343.083,356.657 343.5,359.5C 344.833,359.5 346.167,359.5 347.5,359.5C 347.5,361.5 347.5,363.5 347.5,365.5C 348.833,365.5 350.167,365.5 351.5,365.5C 351.533,369.256 352.533,372.589 354.5,375.5C 354.333,378.957 353.333,379.29 351.5,376.5C 348.167,375.833 344.833,375.167 341.5,374.5C 342.167,373.833 342.833,373.167 343.5,372.5C 341.01,370.917 338.343,369.917 335.5,369.5C 335.5,370.833 335.5,372.167 335.5,373.5C 340.833,374.167 340.833,374.833 335.5,375.5C 335.16,378.144 335.827,380.477 337.5,382.5C 337.154,383.696 336.654,383.696 336,382.5C 335.502,385.482 335.335,388.482 335.5,391.5C 337.167,391.5 338.833,391.5 340.5,391.5C 340.238,390.022 340.571,388.689 341.5,387.5C 342.317,390.658 343.65,393.491 345.5,396C 344.692,396.308 344.025,396.808 343.5,397.5C 345.851,399.229 348.518,399.896 351.5,399.5C 351.74,402.579 351.407,405.579 350.5,408.5C 353.044,411.717 353.044,414.884 350.5,418C 350.854,419.626 350.854,421.459 350.5,423.5C 348.549,423.773 347.049,423.107 346,421.5C 343.446,422.771 340.613,423.438 337.5,423.5C 334.833,423.333 332.167,423.167 329.5,423C 329.833,422.667 330.167,422.333 330.5,422C 327.258,421.717 326.924,420.883 329.5,419.5C 326.972,418.184 326.972,417.017 329.5,416C 327.893,414.951 327.227,413.451 327.5,411.5C 326.167,411.5 324.833,411.5 323.5,411.5C 323.5,412.833 323.5,414.167 323.5,415.5C 322.127,415.343 320.793,415.51 319.5,416C 319.957,416.414 320.291,416.914 320.5,417.5C 318.973,419.193 317.64,421.027 316.5,423C 312.179,423.499 307.846,423.666 303.5,423.5C 303.5,429.167 303.5,434.833 303.5,440.5C 298.203,439.725 292.87,439.392 287.5,439.5C 287.66,441.199 287.494,442.866 287,444.5C 286.085,443.672 285.419,442.672 285,441.5C 283.355,441.693 281.521,441.86 279.5,442C 279.957,442.414 280.291,442.914 280.5,443.5C 279.721,448.113 279.221,452.78 279,457.5C 278.037,462.209 276.871,466.875 275.5,471.5C 273.348,445.14 271.182,418.473 269,391.5C 268.667,392.167 268.333,392.833 268,393.5C 267.606,386.098 266.773,378.765 265.5,371.5C 268.833,371.5 272.167,371.5 275.5,371.5C 275.5,372.833 275.5,374.167 275.5,375.5C 279.5,375.5 283.5,375.5 287.5,375.5C 287.5,374.167 287.5,372.833 287.5,371.5C 288.978,371.762 290.311,371.429 291.5,370.5C 295.49,366.186 298.157,361.186 299.5,355.5C 300.833,355.5 302.167,355.5 303.5,355.5C 303.5,353.5 303.5,351.5 303.5,349.5C 308.326,346.399 313.659,345.065 319.5,345.5C 318.676,340.555 320.676,337.888 325.5,337.5C 331.858,347.549 337.191,358.216 341.5,369.5C 341.833,368.833 342.167,368.167 342.5,367.5C 341.475,363.468 340.475,359.468 339.5,355.5 Z"/></g>
<g><path style="opacity:1" fill="#604f1d" d="M 249.5,359.5 C 250.851,363.542 253.185,366.875 256.5,369.5C 257.885,365.622 259.051,365.622 260,369.5C 262.06,382.797 263.727,396.131 265,409.5C 271.41,499.388 275.243,589.388 276.5,679.5C 267.167,679.5 257.833,679.5 248.5,679.5C 236.173,678.731 223.839,678.065 211.5,677.5C 212.208,651.501 212.875,625.501 213.5,599.5C 214.966,578.86 216.299,558.193 217.5,537.5C 218.437,521.488 219.603,505.488 221,489.5C 223.526,452.542 229.526,416.208 239,380.5C 242.285,372.265 245.285,363.931 248,355.5C 248.791,356.745 249.291,358.078 249.5,359.5 Z"/></g>
<g><path style="opacity:1" fill="#773104" d="M 239.5,359.5 C 239.882,363.976 238.715,367.976 236,371.5C 227,399.824 221.333,428.824 219,458.5C 212.504,517.877 208.67,578.21 207.5,639.5C 205.521,651.12 204.854,663.12 205.5,675.5C 202.833,675.5 200.167,675.5 197.5,675.5C 190.231,674.392 182.898,673.392 175.5,672.5C 169.856,671.429 164.522,669.763 159.5,667.5C 156.67,663.062 152.004,660.395 145.5,659.5C 146.835,640.807 148.168,622.14 149.5,603.5C 153.594,538.531 163.094,474.531 178,411.5C 183.087,398.315 187.753,384.981 192,371.5C 193.022,369.336 194.189,367.336 195.5,365.5C 198.438,368.308 200.605,367.641 202,363.5C 202.333,363.833 202.667,364.167 203,364.5C 203.483,363.552 203.649,362.552 203.5,361.5C 207.395,359.517 211.395,358.851 215.5,359.5C 215.5,360.833 215.5,362.167 215.5,363.5C 216.833,363.5 218.167,363.5 219.5,363.5C 219.5,362.167 219.5,360.833 219.5,359.5C 218.448,359.649 217.448,359.483 216.5,359C 223.828,356.124 231.494,354.957 239.5,355.5C 239.5,356.833 239.5,358.167 239.5,359.5 Z"/></g>
<g><path style="opacity:1" fill="#382a08" d="M 219.5,321.5 C 219.5,322.833 219.5,324.167 219.5,325.5C 223.432,327.127 227.432,328.793 231.5,330.5C 236.734,332.143 242.067,333.143 247.5,333.5C 248.379,335.228 249.046,337.061 249.5,339C 249.316,340.376 248.649,341.209 247.5,341.5C 247.5,340.167 247.5,338.833 247.5,337.5C 241.535,336.574 235.535,335.908 229.5,335.5C 229.063,341.256 227.396,346.59 224.5,351.5C 224.167,351.167 223.833,350.833 223.5,350.5C 224.597,346.585 225.264,342.585 225.5,338.5C 225.332,333.33 222.665,330.33 217.5,329.5C 212.755,332.992 210.088,337.659 209.5,343.5C 208.167,343.5 206.833,343.5 205.5,343.5C 201.652,350.534 198.319,357.867 195.5,365.5C 194.189,367.336 193.022,369.336 192,371.5C 187.753,384.981 183.087,398.315 178,411.5C 163.094,474.531 153.594,538.531 149.5,603.5C 147.8,615.136 145.967,626.803 144,638.5C 143.333,645.5 143.333,652.5 144,659.5C 145.41,660.787 146.91,661.954 148.5,663C 152.07,664.799 155.736,666.299 159.5,667.5C 164.522,669.763 169.856,671.429 175.5,672.5C 182.898,673.392 190.231,674.392 197.5,675.5C 200.287,676.477 203.287,676.81 206.5,676.5C 206.19,673.287 206.523,670.287 207.5,667.5C 207.824,671.555 207.491,675.555 206.5,679.5C 204.664,680.028 202.997,680.694 201.5,681.5C 194.782,681.302 188.115,680.635 181.5,679.5C 168.605,677.35 156.272,673.184 144.5,667C 141.667,665.5 139.5,663.333 138,660.5C 143.439,592.552 151.439,524.886 162,457.5C 168.051,425.627 177.051,394.627 189,364.5C 195.366,349.066 204.2,335.399 215.5,323.5C 215.369,324.376 215.702,325.043 216.5,325.5C 217.057,323.668 218.057,322.335 219.5,321.5 Z"/></g>
<g><path style="opacity:1" fill="#2f2703" d="M 217.5,537.5 C 216.299,558.193 214.966,578.86 213.5,599.5C 212.17,593.202 211.503,586.535 211.5,579.5C 211.619,571.598 212.286,563.765 213.5,556C 213.26,553.984 212.926,551.984 212.5,550C 213.084,542.499 213.75,534.999 214.5,527.5C 216.78,530.146 217.113,533.146 215.5,536.5C 215.957,537.298 216.624,537.631 217.5,537.5 Z"/></g>
<g><path style="opacity:1" fill="#362907" d="M 359.5,60.5 C 360.088,63.6104 360.755,66.6104 361.5,69.5C 361.266,77.8315 362.766,85.8315 366,93.5C 372.678,100.513 379.011,107.846 385,115.5C 387.362,122.929 386.362,129.929 382,136.5C 380.395,145.29 383.562,151.624 391.5,155.5C 402.003,166.339 403.336,178.339 395.5,191.5C 397.022,194.552 399.022,197.219 401.5,199.5C 407.782,209.777 414.449,219.777 421.5,229.5C 426.229,237.956 430.729,246.623 435,255.5C 441.666,269.64 440.999,283.307 433,296.5C 424.976,305.1 415.476,311.6 404.5,316C 386.507,322.609 368.174,328.109 349.5,332.5C 369.128,363.727 382.462,397.393 389.5,433.5C 400.809,495.329 410.142,557.329 417.5,619.5C 418.176,630.903 419.51,642.237 421.5,653.5C 421.674,655.693 421.007,657.527 419.5,659C 415.828,661.838 411.828,664.171 407.5,666C 385.478,674.037 362.811,679.204 339.5,681.5C 340.051,684.807 340.384,688.14 340.5,691.5C 339.849,692.091 339.182,692.757 338.5,693.5C 337.686,691.234 337.186,688.9 337,686.5C 336.617,685.944 336.117,685.611 335.5,685.5C 335.5,684.167 335.5,682.833 335.5,681.5C 328.878,682.532 322.212,683.199 315.5,683.5C 315.721,682.265 316.388,681.265 317.5,680.5C 326.363,678.84 335.03,677.173 343.5,675.5C 361.05,673.201 378.384,669.701 395.5,665C 397.664,663.978 399.664,662.811 401.5,661.5C 406.606,661.143 410.939,659.143 414.5,655.5C 414.833,654 415.167,652.5 415.5,651C 407.967,577.984 397.8,506.818 385,437.5C 382.262,431.898 380.762,425.898 380.5,419.5C 376.83,407.481 373.163,395.481 369.5,383.5C 365.191,373.543 360.858,363.543 356.5,353.5C 352.811,347.444 349.144,341.444 345.5,335.5C 344.833,332.833 344.167,330.167 343.5,327.5C 353.989,325.418 364.656,322.918 375.5,320C 387.464,316.52 399.131,312.187 410.5,307C 433.15,296.153 439.483,278.987 429.5,255.5C 418.811,234.092 406.144,214.092 391.5,195.5C 392.643,192.316 393.309,188.983 393.5,185.5C 396.555,177.93 396.055,170.596 392,163.5C 387.7,160.202 383.7,156.535 380,152.5C 376.289,146.885 375.622,140.885 378,134.5C 382.161,128.377 382.495,122.043 379,115.5C 361.597,101.691 353.763,83.6907 355.5,61.5C 356.75,61.5774 357.583,62.244 358,63.5C 358.232,62.2625 358.732,61.2625 359.5,60.5 Z"/></g>
<g><path style="opacity:1" fill="#5f2a03" d="M 369.5,383.5 C 373.163,395.481 376.83,407.481 380.5,419.5C 380.762,425.898 382.262,431.898 385,437.5C 397.8,506.818 407.967,577.984 415.5,651C 415.167,652.5 414.833,654 414.5,655.5C 410.939,659.143 406.606,661.143 401.5,661.5C 400.406,638.145 398.906,614.812 397,591.5C 393.758,570.564 391.091,549.564 389,528.5C 385.596,512.259 383.096,495.926 381.5,479.5C 379.052,479.99 377.385,479.157 376.5,477C 379.088,469.056 378.921,461.222 376,453.5C 375.73,440.618 373.896,427.952 370.5,415.5C 369.713,414.758 369.047,413.925 368.5,413C 368.833,411.333 369.167,409.667 369.5,408C 368.207,407.51 366.873,407.343 365.5,407.5C 365.311,402.699 364.644,398.033 363.5,393.5C 362.167,393.5 360.833,393.5 359.5,393.5C 359.5,391.167 359.5,388.833 359.5,386.5C 362.986,385.933 366.32,384.933 369.5,383.5 Z"/></g>
<g><path style="opacity:1" fill="#f7d588" d="M 543.5,607.5 C 543.5,650.167 543.5,692.833 543.5,735.5C 495.5,735.5 447.5,735.5 399.5,735.5C 412.775,732.683 426.109,729.516 439.5,726C 442.864,724.318 446.198,722.651 449.5,721C 454.313,716.959 454.646,712.625 450.5,708C 437.216,700.422 422.883,695.756 407.5,694C 385.559,691.34 363.559,689.507 341.5,688.5C 341.5,689.5 341.5,690.5 341.5,691.5C 341.167,691.5 340.833,691.5 340.5,691.5C 340.384,688.14 340.051,684.807 339.5,681.5C 362.811,679.204 385.478,674.037 407.5,666C 411.828,664.171 415.828,661.838 419.5,659C 421.007,657.527 421.674,655.693 421.5,653.5C 419.51,642.237 418.176,630.903 417.5,619.5C 417.173,614.786 417.507,610.12 418.5,605.5C 419.167,604.833 419.833,604.167 420.5,603.5C 421.167,599.167 421.833,594.833 422.5,590.5C 424.321,591.728 425.321,593.394 425.5,595.5C 426.833,595.5 428.167,595.5 429.5,595.5C 429.773,593.549 429.107,592.049 427.5,591C 439.495,590.5 451.495,590.333 463.5,590.5C 463.5,596.167 463.5,601.833 463.5,607.5C 468.833,608.167 474.167,608.833 479.5,609.5C 479.5,614.167 479.5,618.833 479.5,623.5C 474.167,623.5 468.833,623.5 463.5,623.5C 463.5,628.833 463.5,634.167 463.5,639.5C 468.833,639.5 474.167,639.5 479.5,639.5C 479.5,652.833 479.5,666.167 479.5,679.5C 484.833,679.5 490.167,679.5 495.5,679.5C 495.5,672.167 495.5,664.833 495.5,657.5C 500.833,657.5 506.167,657.5 511.5,657.5C 511.5,652.167 511.5,646.833 511.5,641.5C 532.833,640.833 532.833,640.167 511.5,639.5C 511.5,632.167 511.5,624.833 511.5,617.5C 512.833,617.5 514.167,617.5 515.5,617.5C 515.5,614.833 515.5,612.167 515.5,609.5C 518.135,608.858 520.802,608.191 523.5,607.5C 526.789,608.382 530.123,609.048 533.5,609.5C 536.915,609.043 540.248,608.377 543.5,607.5 Z"/></g>
<g><path style="opacity:1" fill="#69370f" d="M 149.5,603.5 C 148.168,622.14 146.835,640.807 145.5,659.5C 152.004,660.395 156.67,663.062 159.5,667.5C 155.736,666.299 152.07,664.799 148.5,663C 146.91,661.954 145.41,660.787 144,659.5C 143.333,652.5 143.333,645.5 144,638.5C 145.967,626.803 147.8,615.136 149.5,603.5 Z"/></g>
<g><path style="opacity:1" fill="#763003" d="M 354.5,375.5 C 354.826,379.747 356.492,383.413 359.5,386.5C 359.5,388.833 359.5,391.167 359.5,393.5C 360.833,393.5 362.167,393.5 363.5,393.5C 364.644,398.033 365.311,402.699 365.5,407.5C 366.873,407.343 368.207,407.51 369.5,408C 369.167,409.667 368.833,411.333 368.5,413C 369.047,413.925 369.713,414.758 370.5,415.5C 373.896,427.952 375.73,440.618 376,453.5C 378.921,461.222 379.088,469.056 376.5,477C 377.385,479.157 379.052,479.99 381.5,479.5C 383.096,495.926 385.596,512.259 389,528.5C 391.091,549.564 393.758,570.564 397,591.5C 398.906,614.812 400.406,638.145 401.5,661.5C 399.664,662.811 397.664,663.978 395.5,665C 378.384,669.701 361.05,673.201 343.5,675.5C 341.5,675.5 339.5,675.5 337.5,675.5C 320.326,677.09 302.326,677.757 283.5,677.5C 284.089,673.029 283.423,669.029 281.5,665.5C 280.539,600.733 278.539,536.067 275.5,471.5C 276.871,466.875 278.037,462.209 279,457.5C 279.221,452.78 279.721,448.113 280.5,443.5C 280.291,442.914 279.957,442.414 279.5,442C 281.521,441.86 283.355,441.693 285,441.5C 285.419,442.672 286.085,443.672 287,444.5C 287.494,442.866 287.66,441.199 287.5,439.5C 292.87,439.392 298.203,439.725 303.5,440.5C 303.5,434.833 303.5,429.167 303.5,423.5C 307.846,423.666 312.179,423.499 316.5,423C 317.64,421.027 318.973,419.193 320.5,417.5C 320.291,416.914 319.957,416.414 319.5,416C 320.793,415.51 322.127,415.343 323.5,415.5C 323.5,414.167 323.5,412.833 323.5,411.5C 324.833,411.5 326.167,411.5 327.5,411.5C 327.227,413.451 327.893,414.951 329.5,416C 326.972,417.017 326.972,418.184 329.5,419.5C 326.924,420.883 327.258,421.717 330.5,422C 330.167,422.333 329.833,422.667 329.5,423C 332.167,423.167 334.833,423.333 337.5,423.5C 340.613,423.438 343.446,422.771 346,421.5C 347.049,423.107 348.549,423.773 350.5,423.5C 350.854,421.459 350.854,419.626 350.5,418C 353.044,414.884 353.044,411.717 350.5,408.5C 351.407,405.579 351.74,402.579 351.5,399.5C 348.518,399.896 345.851,399.229 343.5,397.5C 344.025,396.808 344.692,396.308 345.5,396C 343.65,393.491 342.317,390.658 341.5,387.5C 340.571,388.689 340.238,390.022 340.5,391.5C 338.833,391.5 337.167,391.5 335.5,391.5C 335.335,388.482 335.502,385.482 336,382.5C 336.654,383.696 337.154,383.696 337.5,382.5C 335.827,380.477 335.16,378.144 335.5,375.5C 340.833,374.833 340.833,374.167 335.5,373.5C 335.5,372.167 335.5,370.833 335.5,369.5C 338.343,369.917 341.01,370.917 343.5,372.5C 342.833,373.167 342.167,373.833 341.5,374.5C 344.833,375.167 348.167,375.833 351.5,376.5C 353.333,379.29 354.333,378.957 354.5,375.5 Z"/></g>
<g><path style="opacity:1" fill="#60320e" d="M 207.5,639.5 C 207.5,648.833 207.5,658.167 207.5,667.5C 206.523,670.287 206.19,673.287 206.5,676.5C 203.287,676.81 200.287,676.477 197.5,675.5C 200.167,675.5 202.833,675.5 205.5,675.5C 204.854,663.12 205.521,651.12 207.5,639.5 Z"/></g>
<g><path style="opacity:1" fill="#f7d587" d="M -0.5,671.5 C 4.83333,671.5 10.1667,671.5 15.5,671.5C 15.5,676.833 15.5,682.167 15.5,687.5C 16.8333,687.5 18.1667,687.5 19.5,687.5C 19.5,690.167 19.5,692.833 19.5,695.5C 22.1667,695.5 24.8333,695.5 27.5,695.5C 27.5,698.167 27.5,700.833 27.5,703.5C 34.0288,701.852 40.6955,701.185 47.5,701.5C 47.5,699.5 47.5,697.5 47.5,695.5C 65.5,695.5 83.5,695.5 101.5,695.5C 101.5,694.167 101.5,692.833 101.5,691.5C 100.167,691.5 98.8333,691.5 97.5,691.5C 96.201,687.63 95.5343,683.63 95.5,679.5C 106.167,679.5 116.833,679.5 127.5,679.5C 127.5,682.833 127.5,686.167 127.5,689.5C 126.325,689.281 125.325,689.614 124.5,690.5C 125.991,691.244 127.491,691.91 129,692.5C 132.773,691.483 136.606,691.483 140.5,692.5C 140.5,691.5 140.5,690.5 140.5,689.5C 144.998,689.311 149.331,688.311 153.5,686.5C 152.167,685.833 150.833,685.167 149.5,684.5C 151.578,681.972 154.245,680.472 157.5,680C 165.493,679.5 173.493,679.334 181.5,679.5C 188.115,680.635 194.782,681.302 201.5,681.5C 203.429,681.231 205.095,681.731 206.5,683C 204.271,685.4 201.937,687.567 199.5,689.5C 198.833,689.5 198.167,689.5 197.5,689.5C 197.631,688.624 197.298,687.957 196.5,687.5C 173.108,689.507 149.775,692.34 126.5,696C 118.191,698.163 109.858,700.496 101.5,703C 95.9463,705.265 91.9463,709.099 89.5,714.5C 90.2033,718.037 92.2033,720.537 95.5,722C 100.793,725.082 106.46,727.416 112.5,729C 122.987,731.043 133.32,733.21 143.5,735.5C 95.5,735.5 47.5,735.5 -0.5,735.5C -0.5,714.167 -0.5,692.833 -0.5,671.5 Z"/></g>
<g><path style="opacity:1" fill="#6a370e" d="M 281.5,665.5 C 283.423,669.029 284.089,673.029 283.5,677.5C 302.326,677.757 320.326,677.09 337.5,675.5C 319.774,678.564 301.774,679.897 283.5,679.5C 281.564,675.285 280.897,670.619 281.5,665.5 Z"/></g>
<g><path style="opacity:1" fill="#483406" d="M 248.5,705.5 C 247.974,707.23 246.974,708.564 245.5,709.5C 243.22,707.777 240.553,707.111 237.5,707.5C 239.102,705.926 241.102,705.259 243.5,705.5C 243.5,698.833 243.5,692.167 243.5,685.5C 232.395,685.079 221.395,685.746 210.5,687.5C 211.234,686.292 211.567,684.959 211.5,683.5C 223.515,683.424 235.515,683.757 247.5,684.5C 247.532,691.839 247.865,698.839 248.5,705.5 Z"/></g>
<g><path style="opacity:1" fill="#563604" d="M 237.5,707.5 C 233.993,708.006 230.826,707.34 228,705.5C 210.922,715.89 192.422,719.557 172.5,716.5C 175.826,712.174 179.493,708.174 183.5,704.5C 191.759,700.232 199.759,695.566 207.5,690.5C 208.193,689.482 208.859,688.482 209.5,687.5C 209.833,687.5 210.167,687.5 210.5,687.5C 221.395,685.746 232.395,685.079 243.5,685.5C 243.5,692.167 243.5,698.833 243.5,705.5C 241.102,705.259 239.102,705.926 237.5,707.5 Z"/></g>
<g><path style="opacity:1" fill="#533603" d="M 335.5,685.5 C 336.38,692.149 336.546,698.816 336,705.5C 333.972,709.134 330.806,710.8 326.5,710.5C 324.616,710.284 322.949,709.617 321.5,708.5C 316.385,713.567 310.385,717.4 303.5,720C 298.155,721.669 292.822,723.335 287.5,725C 282.177,725.499 276.844,725.666 271.5,725.5C 272.644,721.989 274.311,718.656 276.5,715.5C 284.73,706.615 293.564,698.282 303,690.5C 305.364,685.226 309.531,682.892 315.5,683.5C 322.212,683.199 328.878,682.532 335.5,681.5C 335.5,682.833 335.5,684.167 335.5,685.5 Z"/></g>
<g><path style="opacity:1" fill="#d4b77a" d="M 277.5,685.5 C 281.298,684.517 285.298,684.183 289.5,684.5C 292.713,684.19 295.713,684.523 298.5,685.5C 292.527,692.14 286.194,698.473 279.5,704.5C 279.281,703.325 279.614,702.325 280.5,701.5C 284.579,697.76 288.246,693.76 291.5,689.5C 293.078,688.934 294.412,687.934 295.5,686.5C 289.537,685.504 283.537,685.171 277.5,685.5 Z"/></g>
<g><path style="opacity:1" fill="#debb69" d="M 277.5,685.5 C 283.537,685.171 289.537,685.504 295.5,686.5C 294.412,687.934 293.078,688.934 291.5,689.5C 278.542,687.519 265.209,686.852 251.5,687.5C 251.83,694.2 251.497,700.866 250.5,707.5C 248.281,710.574 245.281,711.907 241.5,711.5C 242.514,710.326 243.847,709.66 245.5,709.5C 246.974,708.564 247.974,707.23 248.5,705.5C 249.276,698.863 249.609,692.196 249.5,685.5C 258.833,685.5 268.167,685.5 277.5,685.5 Z"/></g>
<g><path style="opacity:1" fill="#e6b85d" d="M 197.5,689.5 C 187.329,695.822 177.829,703.155 169,711.5C 165.948,714.531 165.782,717.698 168.5,721C 188.606,725.226 207.606,722.226 225.5,712C 230.823,711.501 236.156,711.334 241.5,711.5C 245.281,711.907 248.281,710.574 250.5,707.5C 251.497,700.866 251.83,694.2 251.5,687.5C 265.209,686.852 278.542,687.519 291.5,689.5C 288.246,693.76 284.579,697.76 280.5,701.5C 279.614,702.325 279.281,703.325 279.5,704.5C 257.793,726.686 262.46,734.852 293.5,729C 303.876,726.811 313.21,722.477 321.5,716C 327.044,715.485 332.377,714.152 337.5,712C 339.049,710.786 340.215,709.286 341,707.5C 341.499,702.177 341.666,696.844 341.5,691.5C 341.5,690.5 341.5,689.5 341.5,688.5C 363.559,689.507 385.559,691.34 407.5,694C 422.883,695.756 437.216,700.422 450.5,708C 454.646,712.625 454.313,716.959 449.5,721C 446.198,722.651 442.864,724.318 439.5,726C 426.109,729.516 412.775,732.683 399.5,735.5C 314.167,735.5 228.833,735.5 143.5,735.5C 133.32,733.21 122.987,731.043 112.5,729C 106.46,727.416 100.793,725.082 95.5,722C 92.2033,720.537 90.2033,718.037 89.5,714.5C 91.9463,709.099 95.9463,705.265 101.5,703C 109.858,700.496 118.191,698.163 126.5,696C 149.775,692.34 173.108,689.507 196.5,687.5C 197.298,687.957 197.631,688.624 197.5,689.5 Z"/></g>
<g><path style="opacity:1" fill="#3b2d05" d="M 209.5,687.5 C 208.859,688.482 208.193,689.482 207.5,690.5C 199.759,695.566 191.759,700.232 183.5,704.5C 179.493,708.174 175.826,712.174 172.5,716.5C 192.422,719.557 210.922,715.89 228,705.5C 230.826,707.34 233.993,708.006 237.5,707.5C 240.553,707.111 243.22,707.777 245.5,709.5C 243.847,709.66 242.514,710.326 241.5,711.5C 236.156,711.334 230.823,711.501 225.5,712C 207.606,722.226 188.606,725.226 168.5,721C 165.782,717.698 165.948,714.531 169,711.5C 177.829,703.155 187.329,695.822 197.5,689.5C 198.167,689.5 198.833,689.5 199.5,689.5C 199.369,690.376 199.702,691.043 200.5,691.5C 202.311,690.173 204.311,689.173 206.5,688.5C 205.41,687.391 205.41,686.391 206.5,685.5C 207.518,686.193 208.518,686.859 209.5,687.5 Z"/></g>
<g><path style="opacity:1" fill="#3b2a04" d="M 337.5,675.5 C 339.5,675.5 341.5,675.5 343.5,675.5C 335.03,677.173 326.363,678.84 317.5,680.5C 316.388,681.265 315.721,682.265 315.5,683.5C 309.531,682.892 305.364,685.226 303,690.5C 293.564,698.282 284.73,706.615 276.5,715.5C 274.311,718.656 272.644,721.989 271.5,725.5C 276.844,725.666 282.177,725.499 287.5,725C 292.822,723.335 298.155,721.669 303.5,720C 310.385,717.4 316.385,713.567 321.5,708.5C 322.949,709.617 324.616,710.284 326.5,710.5C 330.806,710.8 333.972,709.134 336,705.5C 336.546,698.816 336.38,692.149 335.5,685.5C 336.117,685.611 336.617,685.944 337,686.5C 337.186,688.9 337.686,691.234 338.5,693.5C 339.182,692.757 339.849,692.091 340.5,691.5C 340.833,691.5 341.167,691.5 341.5,691.5C 341.666,696.844 341.499,702.177 341,707.5C 340.215,709.286 339.049,710.786 337.5,712C 332.377,714.152 327.044,715.485 321.5,716C 313.21,722.477 303.876,726.811 293.5,729C 262.46,734.852 257.793,726.686 279.5,704.5C 286.194,698.473 292.527,692.14 298.5,685.5C 300.052,686.622 301.718,687.122 303.5,687C 303.146,685.374 303.146,683.541 303.5,681.5C 296.416,682.126 289.75,681.459 283.5,679.5C 301.774,679.897 319.774,678.564 337.5,675.5 Z"/></g>
</svg>
